# This file is brought to you by Roblox Corporation
# Generated by Roblox Studio

mtllib cheezburger-2.mtl

g Handle1

v -88.3076 270.758 -98.4159 
v -89.2449 270.758 -98.0674 
v -88.3031 269.959 -98.4036 
v -89.2404 269.959 -98.0552 
v -89.5933 270.742 -99.0047 
v -89.2449 270.758 -98.0674 
v -88.656 270.742 -99.3531 
v -88.3076 270.758 -98.4159 
v -89.2449 270.758 -98.0674 
v -89.5933 270.742 -99.0047 
v -89.2404 269.959 -98.0552 
v -89.5888 269.942 -98.9924 
v -89.5933 270.742 -99.0047 
v -88.656 270.742 -99.3531 
v -89.5888 269.942 -98.9924 
v -88.6514 269.942 -99.3408 
v -88.6514 269.942 -99.3408 
v -88.3031 269.959 -98.4036 
v -89.5888 269.942 -98.9924 
v -89.2404 269.959 -98.0552 
v -88.656 270.742 -99.3531 
v -88.3076 270.758 -98.4159 
v -88.6514 269.942 -99.3408 
v -88.3031 269.959 -98.4036 

vn 0.346457 0.015748 0.937008 
vn 0.346457 0.015748 0.937008 
vn 0.346457 0.015748 0.937008 
vn 0.346457 0.015748 0.937008 
vn -0.00787402 1 -0.015748 
vn -0.00787402 1 -0.015748 
vn -0.00787402 1 -0.015748 
vn -0.00787402 1 -0.015748 
vn -0.937008 0 0.346457 
vn -0.937008 0 0.346457 
vn -0.937008 0 0.346457 
vn -0.937008 0 0.346457 
vn -0.346457 -0.015748 -0.937008 
vn -0.346457 -0.015748 -0.937008 
vn -0.346457 -0.015748 -0.937008 
vn -0.346457 -0.015748 -0.937008 
vn 0.00787402 -1 0.015748 
vn 0.00787402 -1 0.015748 
vn 0.00787402 -1 0.015748 
vn 0.00787402 -1 0.015748 
vn 0.937008 0 -0.346457 
vn 0.937008 0 -0.346457 
vn 0.937008 0 -0.346457 
vn 0.937008 0 -0.346457 

vt 2.125 0.25 
vt 2 0.25 
vt 2.125 0.15 
vt 2 0.15 
vt 2.125 0.25 
vt 2 0.25 
vt 2.125 0.125 
vt 2 0.125 
vt 2.125 0.25 
vt 2 0.25 
vt 2.125 0.15 
vt 2 0.15 
vt 2.125 0.25 
vt 2 0.25 
vt 2.125 0.15 
vt 2 0.15 
vt 2.125 0.25 
vt 2 0.25 
vt 2.125 0.125 
vt 2 0.125 
vt 2.125 0.25 
vt 2 0.25 
vt 2.125 0.15 
vt 2 0.15 

usemtl Handle1Mtl

f 1/1/1 2/2/2 3/3/3 
f 3/3/3 2/2/2 4/4/4 
f 5/5/5 6/6/6 7/7/7 
f 7/7/7 6/6/6 8/8/8 
f 9/9/9 10/10/10 11/11/11 
f 11/11/11 10/10/10 12/12/12 
f 13/13/13 14/14/14 15/15/15 
f 15/15/15 14/14/14 16/16/16 
f 17/17/17 18/18/18 19/19/19 
f 19/19/19 18/18/18 20/20/20 
f 21/21/21 22/22/22 23/23/23 
f 23/23/23 22/22/22 24/24/24 

