# This file is brought to you by Roblox Corporation
# Generated by Roblox Studio

mtllib Fedora.mtl

g Handle1

v -89.0899 259.143 -84.2673 
v -89.1532 259.131 -84.4075 
v -89.0423 258.879 -84.415 
v -88.9595 258.899 -84.232 
v -89.2518 259.12 -84.5359 
v -89.1713 258.866 -84.5604 
v -89.3761 259.117 -84.5649 
v -89.3338 258.86 -84.6188 
v -89.512 258.874 -84.6618 
v -89.512 258.764 -84.7404 
v -89.3047 258.766 -84.7164 
v -89.512 259.203 -83.6091 
v -89.3761 259.201 -83.6337 
v -89.3338 258.962 -83.4097 
v -89.512 258.964 -83.3871 
v -89.2518 259.194 -83.7051 
v -89.1713 258.962 -83.4966 
v -89.1532 259.184 -83.8164 
v -89.0423 258.949 -83.6421 
v -89.0899 259.172 -83.9566 
v -88.9595 258.935 -83.8256 
v -89.0681 259.158 -84.1119 
v -88.927 258.914 -84.029 
v -89.512 259.315 -84.1877 
v -89.512 259.116 -84.5754 
v -89.512 259.465 -84.1955 
v -89.4218 259.473 -84.1919 
v -89.4214 259.466 -84.2975 
v -89.512 259.458 -84.2936 
v -89.0015 259.142 -84.4707 
v -89.0453 259.37 -84.4729 
v -88.9655 259.393 -84.2847 
v -88.9115 259.159 -84.2727 
v -88.8923 259.229 -84.06 
v -88.9386 259.421 -84.0792 
v -88.9767 259.432 -83.9622 
v -88.947 259.276 -83.8654 
v -89.0223 259.324 -83.8311 
v -89.0391 259.401 -83.8817 
v -89.12 259.378 -83.8073 
v -89.0722 259.285 -83.7384 
v -89.2255 259.368 -83.7107 
v -89.1879 259.269 -83.6317 
v -89.327 259.359 -83.6299 
v -89.3031 259.298 -83.5732 
v -89.3527 259.333 -83.5647 
v -89.3787 259.378 -83.5831 
v -89.512 259.12 -84.7408 
v -89.512 259.326 -84.7383 
v -89.3253 259.329 -84.716 
v -89.3181 259.122 -84.7172 
v -89.1416 259.13 -84.6383 
v -89.1602 259.347 -84.6414 
v -89.116 258.773 -84.6346 
v -89.0433 258.856 -84.7503 
v -88.8621 258.853 -84.5381 
v -88.9662 258.79 -84.4657 
v -88.8701 258.817 -84.2538 
v -88.7188 258.866 -84.3061 
v -88.6715 258.856 -84.0198 
v -88.8333 258.828 -84.0177 
v -88.7294 258.835 -83.7298 
v -88.8701 258.831 -83.7803 
v -88.9662 258.824 -83.5655 
v -88.8514 258.828 -83.4674 
v -89.116 258.814 -83.3952 
v -89.0433 258.805 -83.2814 
v -89.3047 258.809 -83.2988 
v -89.2665 258.8 -83.1641 
v -89.512 258.802 -83.1303 
v -89.512 258.811 -83.2792 
v -89.512 258.867 -84.8884 
v -89.2665 258.865 -84.8573 
v -88.9614 258.907 -83.5677 
v -88.851 258.877 -83.4859 
v -88.7647 258.881 -83.7406 
v -88.8494 258.892 -83.7765 
v -89.1244 258.925 -83.4163 
v -89.1124 258.921 -83.3975 
v -88.9779 258.91 -83.5817 
v -89.3091 258.933 -83.3221 
v -89.3028 258.927 -83.2996 
v -89.512 258.935 -83.3013 
v -89.512 258.929 -83.2766 
v -89.512 258.817 -84.7332 
v -89.3091 258.82 -84.7086 
v -89.3011 258.812 -84.7358 
v -89.512 258.81 -84.7619 
v -89.1244 258.828 -84.6262 
v -89.1091 258.82 -84.6491 
v -88.9779 258.843 -84.4609 
v -88.9568 258.836 -84.4777 
v -88.8499 258.855 -84.2656 
v -88.763 258.9 -84.2935 
v -88.879 258.916 -84.5421 
v -89.512 258.969 -84.7474 
v -89.512 258.973 -84.7329 
v -89.3133 258.975 -84.7087 
v -89.3091 258.972 -84.7227 
v -89.1325 258.983 -84.6281 
v -89.1244 258.979 -84.6404 
v -88.9779 258.994 -84.475 
v -88.9889 258.999 -84.4663 
v -88.8967 259.012 -84.2618 
v -88.8724 259.013 -84.2691 
v -88.9779 259.072 -83.623 
v -88.8724 259.055 -83.8024 
v -88.8967 259.057 -83.8097 
v -88.9889 259.075 -83.6323 
v -89.1325 259.088 -83.4912 
v -89.1244 259.085 -83.4784 
v -89.3133 259.097 -83.3988 
v -89.3091 259.094 -83.3842 
v -89.512 259.096 -83.3634 
v -89.512 259.098 -83.3785 
v -89.1489 259.213 -83.5514 
v -89.3339 259.253 -83.4785 
v -89.512 259.252 -83.4496 
v -89.0093 259.225 -83.692 
v -89.4242 259.48 -84.0692 
v -89.4302 259.484 -83.9491 
v -89.2111 259.565 -83.8917 
v -89.1178 259.58 -84.0109 
v -89.442 259.507 -83.7231 
v -89.3826 259.52 -83.7501 
v -89.512 259.478 -83.9505 
v -89.512 259.503 -83.6975 
v -89.512 259.456 -84.6354 
v -89.512 259.45 -84.4024 
v -89.4152 259.462 -84.4053 
v -89.3629 259.46 -84.6299 
v -89.161 259.525 -84.451 
v -89.2366 259.492 -84.5664 
v -89.0867 259.588 -84.1205 
v -89.1001 259.561 -84.2957 
v -89.0312 259.531 -83.9486 
v -89.0406 259.585 -83.9697 
v -89.1281 259.569 -83.8625 
v -89.1166 259.529 -83.8441 
v -89.2345 259.548 -83.7546 
v -89.2271 259.519 -83.7384 
v -89.3603 259.522 -83.6619 
v -89.3501 259.493 -83.649 
v -89.3659 259.418 -83.614 
v -89.3226 259.431 -83.6576 
v -89.512 259.409 -84.7263 
v -89.3306 259.412 -84.7051 
v -89.1747 259.439 -84.6344 
v -89.0715 259.485 -84.4693 
v -88.9988 259.521 -84.2925 
v -88.9759 259.543 -84.0946 
v -89.2235 258.848 -83.0219 
v -89.2639 258.884 -83.1687 
v -89.512 258.89 -83.1258 
v -89.512 258.849 -82.9721 
v -88.9615 258.866 -83.1626 
v -89.0384 258.888 -83.2807 
v -88.7593 258.876 -83.3976 
v -88.6523 258.878 -83.6946 
v -88.6336 258.917 -84.0255 
v -88.7311 258.877 -84.0213 
v -88.6829 258.974 -84.3517 
v -88.8022 259.027 -84.6097 
v -89.0384 258.905 -84.7435 
v -88.9615 259.039 -84.799 
v -89.2235 259.07 -84.9251 
v -89.2639 258.917 -84.8532 
v -89.512 258.946 -84.8875 
v -89.512 259.081 -84.9645 
v -88.8409 259.034 -84.0382 
v -88.8318 259.031 -84.035 
v -88.7974 258.87 -84.0219 
v -88.8719 258.856 -84.2571 
v -88.8223 258.87 -84.0219 
v -88.8719 258.892 -83.7852 
v -89.512 259.049 -84.9924 
v -89.2173 259.04 -84.952 
v -88.9497 259.005 -84.8168 
v -88.7718 258.99 -84.6079 
v -88.6422 258.942 -84.3431 
v -88.5931 258.883 -84.0159 
v -88.6281 258.84 -83.6832 
v -88.7455 258.837 -83.3867 
v -88.9445 258.82 -83.1545 
v -89.2173 258.803 -83.0157 
v -89.512 258.804 -82.9637 
v -89.512 259.471 -84.075 
v -89.512 259.467 -83.5756 
v -89.512 259.405 -83.5345 
v -89.4485 259.405 -83.5542 
v -89.4216 259.457 -83.5945 
v -89.4051 259.326 -83.5095 
v -89.512 259.315 -83.4848 
v -89.234 259.449 -83.7361 
v -89.1306 259.465 -83.8294 
v -89.0704 259.468 -83.8847 
v -88.961 259.294 -83.8563 
v -89.0206 259.246 -83.7029 
v -88.987 259.427 -83.9399 
v -89.1561 259.232 -83.5664 
v -89.3247 259.269 -83.4983 
v -89.3906 259.332 -83.5199 
v -89.4295 259.401 -83.5562 
v -89.4065 259.449 -83.5937 
v -89.3416 259.477 -83.6432 
v -89.2238 259.505 -83.7311 
v -89.1125 259.515 -83.8374 
v -89.0348 259.517 -83.9314 
v -89.4355 259.499 -83.6195 
v -89.512 259.498 -83.596 
v -89.512 259.442 -84.7214 
v -89.3327 259.445 -84.7008 
v -89.1805 259.476 -84.6315 
v -89.082 259.532 -84.4678 
v -89.0122 259.572 -84.2957 
v -88.9908 259.592 -84.1008 
v -89.2891 259.546 -83.8159 
v -89.512 259.457 -84.6865 
v -89.3451 259.461 -84.6719 
v -89.2041 259.493 -84.6053 
v -89.1159 259.543 -84.4608 
v -89.0504 259.583 -84.2966 
v -89.0326 259.605 -84.1103 
v -89.0734 259.599 -83.992 
v -89.1638 259.579 -83.8792 
v -89.258 259.556 -83.7832 
v -89.372 259.53 -83.7001 
v -89.4421 259.514 -83.6672 
v -89.512 259.509 -83.6415 
v -89.512 259.456 -84.6354 
v -89.3629 259.46 -84.6299 
v -89.2366 259.492 -84.5664 
v -89.161 259.525 -84.451 
v -89.1001 259.561 -84.2957 
v -89.0867 259.588 -84.1205 
v -89.1178 259.58 -84.0109 
v -89.2111 259.565 -83.8917 
v -89.2891 259.546 -83.8159 
v -89.3826 259.52 -83.7501 
v -89.442 259.507 -83.7231 
v -89.512 259.503 -83.6975 
v -88.989 259.312 -83.8434 
v -89.0102 259.416 -83.9097 
v -89.044 259.268 -83.7203 
v -89.1706 259.253 -83.5962 
v -89.3131 259.286 -83.5336 
v -89.371 259.335 -83.5404 
v -89.4033 259.391 -83.5668 
v -89.3857 259.434 -83.6008 
v -89.3313 259.454 -83.6462 
v -89.2262 259.479 -83.73 
v -89.1176 259.491 -83.8318 
v -89.0492 259.494 -83.9075 
v -89.512 258.826 -82.9538 
v -89.2167 258.826 -83.0055 
v -88.9461 258.844 -83.1478 
v -88.7442 258.859 -83.3848 
v -88.6314 258.861 -83.6852 
v -88.6069 258.905 -84.0213 
v -88.6572 258.966 -84.3525 
v -88.781 259.021 -84.6151 
v -88.9486 259.037 -84.8125 
v -89.2167 259.071 -84.9446 
v -89.512 259.081 -84.985 
v -89.512 258.955 -83.3092 
v -89.3091 258.954 -83.3299 
v -89.1244 258.945 -83.4242 
v -88.9779 258.93 -83.5869 
v -88.8719 258.913 -83.7874 
v -88.8235 258.89 -84.0235 
v -88.8719 258.875 -84.2586 
v -88.9779 258.862 -84.4627 
v -89.1244 258.847 -84.628 
v -89.3091 258.84 -84.7104 
v -89.512 258.836 -84.735 
v -89.512 258.893 -84.7403 
v -89.512 258.958 -84.7464 
v -89.3091 258.961 -84.7217 
v -89.3091 258.896 -84.7157 
v -89.1244 258.968 -84.6394 
v -89.1244 258.904 -84.6333 
v -88.9779 258.983 -84.474 
v -88.9779 258.919 -84.468 
v -88.8723 259.002 -84.2683 
v -88.8721 258.935 -84.2631 
v -88.8312 259.02 -84.034 
v -88.8271 258.951 -84.0284 
v -88.8721 258.974 -83.7938 
v -88.8723 259.044 -83.8012 
v -88.9779 259.06 -83.62 
v -88.9779 258.991 -83.6024 
v -89.1244 259.074 -83.474 
v -89.1244 259.005 -83.4475 
v -89.3091 259.082 -83.3797 
v -89.3091 259.014 -83.3532 
v -89.512 259.084 -83.359 
v -89.512 259.016 -83.3325 
v -89.2173 259.04 -84.952 
v -89.512 259.049 -84.9924 
v -88.9497 259.005 -84.8168 
v -88.7718 258.99 -84.6079 
v -88.6422 258.942 -84.3431 
v -88.5931 258.883 -84.0159 
v -88.6281 258.84 -83.6832 
v -88.7455 258.837 -83.3867 
v -88.9445 258.82 -83.1545 
v -89.2173 258.803 -83.0157 
v -89.512 258.804 -82.9637 
v -89.9341 259.143 -84.2673 
v -90.0645 258.899 -84.232 
v -89.9817 258.879 -84.415 
v -89.8708 259.131 -84.4075 
v -89.8527 258.866 -84.5604 
v -89.7722 259.12 -84.5359 
v -89.6902 258.86 -84.6188 
v -89.6479 259.117 -84.5649 
v -89.7193 258.766 -84.7164 
v -89.6902 258.962 -83.4097 
v -89.6479 259.201 -83.6337 
v -89.8527 258.962 -83.4966 
v -89.7722 259.194 -83.7051 
v -89.9817 258.949 -83.6421 
v -89.8708 259.184 -83.8164 
v -90.0645 258.935 -83.8256 
v -89.9341 259.172 -83.9566 
v -90.097 258.914 -84.029 
v -89.9559 259.158 -84.1119 
v -89.6026 259.466 -84.2975 
v -89.6022 259.473 -84.1919 
v -90.0585 259.393 -84.2847 
v -89.9787 259.37 -84.4729 
v -90.0225 259.142 -84.4707 
v -90.1124 259.159 -84.2727 
v -90.1317 259.229 -84.06 
v -90.0854 259.421 -84.0792 
v -90.0473 259.432 -83.9622 
v -90.077 259.276 -83.8654 
v -89.904 259.378 -83.8073 
v -89.9848 259.401 -83.8817 
v -90.0017 259.324 -83.8311 
v -89.9518 259.285 -83.7384 
v -89.7985 259.368 -83.7107 
v -89.8361 259.269 -83.6317 
v -89.697 259.359 -83.6299 
v -89.7209 259.298 -83.5732 
v -89.6713 259.333 -83.5647 
v -89.6453 259.378 -83.5831 
v -89.6987 259.329 -84.716 
v -89.7059 259.122 -84.7172 
v -89.8824 259.13 -84.6383 
v -89.8638 259.347 -84.6414 
v -90.1619 258.853 -84.5381 
v -89.9807 258.856 -84.7503 
v -89.908 258.773 -84.6346 
v -90.0578 258.79 -84.4657 
v -90.1539 258.817 -84.2538 
v -90.3051 258.866 -84.3061 
v -90.3525 258.856 -84.0198 
v -90.1907 258.828 -84.0177 
v -90.2946 258.835 -83.7298 
v -90.1539 258.831 -83.7803 
v -90.0578 258.824 -83.5655 
v -90.1725 258.828 -83.4674 
v -89.908 258.814 -83.3952 
v -89.9807 258.805 -83.2814 
v -89.7193 258.809 -83.2988 
v -89.7575 258.8 -83.1641 
v -89.7575 258.865 -84.8573 
v -90.2593 258.881 -83.7406 
v -90.173 258.877 -83.4859 
v -90.0626 258.907 -83.5677 
v -90.1746 258.892 -83.7765 
v -89.9115 258.921 -83.3975 
v -89.8995 258.925 -83.4163 
v -90.0461 258.91 -83.5817 
v -89.7212 258.927 -83.2996 
v -89.7148 258.933 -83.3221 
v -89.7229 258.812 -84.7358 
v -89.7148 258.82 -84.7086 
v -89.9149 258.82 -84.6491 
v -89.8995 258.828 -84.6262 
v -90.0672 258.836 -84.4777 
v -90.0461 258.843 -84.4609 
v -90.261 258.9 -84.2935 
v -90.174 258.855 -84.2656 
v -90.145 258.916 -84.5421 
v -89.7106 258.975 -84.7087 
v -89.7148 258.972 -84.7227 
v -89.8915 258.983 -84.6281 
v -89.8995 258.979 -84.6404 
v -90.0461 258.994 -84.475 
v -90.0351 258.999 -84.4663 
v -90.1273 259.012 -84.2618 
v -90.1516 259.013 -84.2691 
v -90.0461 259.072 -83.623 
v -90.0351 259.075 -83.6323 
v -90.1273 259.057 -83.8097 
v -90.1516 259.055 -83.8024 
v -89.8915 259.088 -83.4912 
v -89.8995 259.085 -83.4784 
v -89.7106 259.097 -83.3988 
v -89.7148 259.094 -83.3842 
v -89.6901 259.253 -83.4785 
v -89.8751 259.213 -83.5514 
v -90.0147 259.225 -83.692 
v -89.5998 259.48 -84.0692 
v -89.9062 259.58 -84.0109 
v -89.8129 259.565 -83.8917 
v -89.5938 259.484 -83.9491 
v -89.582 259.507 -83.7231 
v -89.6414 259.52 -83.7501 
v -89.6087 259.462 -84.4053 
v -89.6611 259.46 -84.6299 
v -89.7874 259.492 -84.5664 
v -89.863 259.525 -84.451 
v -89.9239 259.561 -84.2957 
v -89.9373 259.588 -84.1205 
v -89.8959 259.569 -83.8625 
v -89.9834 259.585 -83.9697 
v -89.9927 259.531 -83.9486 
v -89.9074 259.529 -83.8441 
v -89.7894 259.548 -83.7546 
v -89.7969 259.519 -83.7384 
v -89.6637 259.522 -83.6619 
v -89.6739 259.493 -83.649 
v -89.6581 259.418 -83.614 
v -89.7014 259.431 -83.6576 
v -89.6934 259.412 -84.7051 
v -89.8493 259.439 -84.6344 
v -89.9525 259.485 -84.4693 
v -90.0252 259.521 -84.2925 
v -90.0481 259.543 -84.0946 
v -89.8005 258.848 -83.0219 
v -89.7601 258.884 -83.1687 
v -90.0624 258.866 -83.1626 
v -89.9856 258.888 -83.2807 
v -90.2647 258.876 -83.3976 
v -90.3717 258.878 -83.6946 
v -90.3904 258.917 -84.0255 
v -90.2929 258.877 -84.0213 
v -90.3411 258.974 -84.3517 
v -90.2218 259.027 -84.6097 
v -89.9856 258.905 -84.7435 
v -90.0624 259.039 -84.799 
v -89.8005 259.07 -84.9251 
v -89.7601 258.917 -84.8532 
v -90.1921 259.031 -84.035 
v -90.1831 259.034 -84.0382 
v -90.2266 258.87 -84.0219 
v -90.1521 258.856 -84.2571 
v -90.2017 258.87 -84.0219 
v -90.1521 258.892 -83.7852 
v -89.8067 259.04 -84.952 
v -90.0743 259.005 -84.8168 
v -90.2522 258.99 -84.6079 
v -90.3818 258.942 -84.3431 
v -90.4308 258.883 -84.0159 
v -90.3959 258.84 -83.6832 
v -90.2785 258.837 -83.3867 
v -90.0795 258.82 -83.1545 
v -89.8067 258.803 -83.0157 
v -89.6024 259.457 -83.5945 
v -89.5755 259.405 -83.5542 
v -89.6189 259.326 -83.5095 
v -89.79 259.449 -83.7361 
v -89.8933 259.465 -83.8294 
v -89.9535 259.468 -83.8847 
v -90.0034 259.246 -83.7029 
v -90.063 259.294 -83.8563 
v -90.037 259.427 -83.9399 
v -89.8679 259.232 -83.5664 
v -89.6993 259.269 -83.4983 
v -89.6333 259.332 -83.5199 
v -89.6175 259.449 -83.5937 
v -89.5945 259.401 -83.5562 
v -89.8002 259.505 -83.7311 
v -89.6824 259.477 -83.6432 
v -89.9114 259.515 -83.8374 
v -89.9892 259.517 -83.9314 
v -89.5885 259.499 -83.6195 
v -89.6913 259.445 -84.7008 
v -89.8435 259.476 -84.6315 
v -89.942 259.532 -84.4678 
v -90.0118 259.572 -84.2957 
v -90.0332 259.592 -84.1008 
v -89.7348 259.546 -83.8159 
v -89.6789 259.461 -84.6719 
v -89.8199 259.493 -84.6053 
v -89.9081 259.543 -84.4608 
v -89.9736 259.583 -84.2966 
v -89.9914 259.605 -84.1103 
v -89.9506 259.599 -83.992 
v -89.8601 259.579 -83.8792 
v -89.766 259.556 -83.7832 
v -89.652 259.53 -83.7001 
v -89.5819 259.514 -83.6672 
v -89.6611 259.46 -84.6299 
v -89.7874 259.492 -84.5664 
v -89.863 259.525 -84.451 
v -89.9239 259.561 -84.2957 
v -89.9373 259.588 -84.1205 
v -89.9062 259.58 -84.0109 
v -89.8129 259.565 -83.8917 
v -89.7348 259.546 -83.8159 
v -89.6414 259.52 -83.7501 
v -89.582 259.507 -83.7231 
v -90.035 259.312 -83.8434 
v -90.0138 259.416 -83.9097 
v -89.98 259.268 -83.7203 
v -89.8534 259.253 -83.5962 
v -89.7108 259.286 -83.5336 
v -89.653 259.335 -83.5404 
v -89.6207 259.391 -83.5668 
v -89.6383 259.434 -83.6008 
v -89.6927 259.454 -83.6462 
v -89.7978 259.479 -83.73 
v -89.9064 259.491 -83.8318 
v -89.9748 259.494 -83.9075 
v -89.8073 258.826 -83.0055 
v -90.0779 258.844 -83.1478 
v -90.2798 258.859 -83.3848 
v -90.3926 258.861 -83.6852 
v -90.4171 258.905 -84.0213 
v -90.3668 258.966 -84.3525 
v -90.243 259.021 -84.6152 
v -90.0754 259.037 -84.8125 
v -89.8073 259.071 -84.9446 
v -89.7148 258.954 -83.3299 
v -89.8995 258.945 -83.4242 
v -90.0461 258.93 -83.5869 
v -90.1521 258.913 -83.7874 
v -90.2005 258.89 -84.0235 
v -90.1521 258.875 -84.2586 
v -90.0461 258.862 -84.4627 
v -89.8995 258.847 -84.628 
v -89.7148 258.84 -84.7104 
v -89.7148 258.961 -84.7217 
v -89.7148 258.896 -84.7157 
v -89.8995 258.968 -84.6394 
v -89.8995 258.904 -84.6333 
v -90.0461 258.983 -84.474 
v -90.0461 258.919 -84.468 
v -90.1516 259.002 -84.2683 
v -90.1519 258.935 -84.2631 
v -90.1928 259.02 -84.034 
v -90.1969 258.951 -84.0284 
v -90.1519 258.974 -83.7938 
v -90.1516 259.044 -83.8012 
v -90.0461 259.06 -83.62 
v -90.0461 258.991 -83.6024 
v -89.8995 259.074 -83.474 
v -89.8995 259.005 -83.4475 
v -89.7148 259.082 -83.3797 
v -89.7148 259.014 -83.3532 
v -89.8067 259.04 -84.952 
v -90.0743 259.005 -84.8168 
v -90.2522 258.99 -84.6079 
v -90.3818 258.942 -84.3431 
v -90.4308 258.883 -84.0159 
v -90.3959 258.84 -83.6832 
v -90.2785 258.837 -83.3867 
v -90.0795 258.82 -83.1545 
v -89.8067 258.803 -83.0157 

vn -0.661417 -0.700787 0.267717 
vn -0.606299 -0.669291 0.433071 
vn -0.669291 -0.566929 0.488189 
vn -0.748031 -0.598425 0.267717 
vn -0.401575 -0.606299 0.685039 
vn -0.472441 -0.535433 0.700787 
vn -0.125984 -0.622047 0.771654 
vn -0.228346 -0.496063 0.84252 
vn 0 -0.433071 0.897638 
vn 0 -1 0.0787402 
vn 0.00787402 -1 0.0314961 
vn 0 -0.866142 -0.503937 
vn -0.19685 -0.866142 -0.464567 
vn -0.228346 -0.637795 -0.732283 
vn 0 -0.629921 -0.779528 
vn -0.377953 -0.84252 -0.377953 
vn -0.480315 -0.645669 -0.590551 
vn -0.519685 -0.818898 -0.251969 
vn -0.661417 -0.637795 -0.393701 
vn -0.622047 -0.779528 -0.102362 
vn -0.755906 -0.629921 -0.188976 
vn -0.669291 -0.740157 0.0787402 
vn -0.771654 -0.629921 0.0472441 
vn 0 -0.992126 0.133858 
vn 0 -0.653543 0.755906 
vn 0 1 -0.0629921 
vn -0.19685 0.976378 -0.0708661 
vn -0.181102 0.984252 -0.0629921 
vn 0 1 -0.0708661 
vn 0.834646 0.102362 -0.535433 
vn 0.850394 0.173228 -0.496063 
vn 0.937008 0.212598 -0.283465 
vn 0.937008 0.149606 -0.307087 
vn 0.968504 0.251969 0.023622 
vn 0.96063 0.267717 0.0629921 
vn 0.866142 0.354331 0.346457 
vn 0.88189 0.338583 0.322835 
vn 0.456693 0.661417 0.598425 
vn 0.527559 0.433071 0.732283 
vn 0.559055 0.472441 0.685039 
vn 0.338583 0.795276 0.503937 
vn 0.543307 0.488189 0.685039 
vn 0.362205 0.826772 0.433071 
vn 0.590551 0.488189 0.645669 
vn 0.472441 0.771654 0.425197 
vn 0.614173 0.653543 0.440945 
vn 0.669291 0.456693 0.582677 
vn 0 -0.023622 -1 
vn 0 0.0787402 -1 
vn 0.259843 0.0787402 -0.96063 
vn 0.267717 -0.015748 -0.96063 
vn 0.606299 0.023622 -0.795276 
vn 0.629921 0.102362 -0.771654 
vn 0.00787402 -1 0.0551181 
vn 0.401575 -0.716535 -0.574803 
vn 0.511811 -0.787402 -0.338583 
vn -0.0314961 -0.992126 0.133858 
vn -0.15748 -0.984252 0.0866142 
vn 0.456693 -0.866142 -0.188976 
vn 0.275591 -0.96063 -0.0393701 
vn -0.259843 -0.96063 0.015748 
vn 0.0787402 -1 -0.0314961 
vn -0.346457 -0.929134 -0.102362 
vn -0.307087 -0.92126 -0.23622 
vn 0.0629921 -1 -0.00787402 
vn -0.220472 -0.905512 -0.362205 
vn 0.0551181 -1 -0.023622 
vn -0.11811 -0.897638 -0.417323 
vn 0 -1 -0.015748 
vn 0 -1 -0.023622 
vn 0 -0.889764 -0.464567 
vn 0 -0.669291 -0.748031 
vn 0.188976 -0.677165 -0.716535 
vn 0.173228 0.984252 0.0551181 
vn 0.0944882 0.992126 0.0393701 
vn 0.0472441 1 0.0393701 
vn 0.0708661 1 -0.0393701 
vn 0.409449 0.779528 0.480315 
vn 0.15748 0.976378 0.133858 
vn 0.582677 0.732283 0.354331 
vn 0.188976 0.771654 0.606299 
vn 0.0866142 0.968504 0.244094 
vn 0 0.76378 0.645669 
vn 0 0.968504 0.244094 
vn 0 0.614173 -0.787402 
vn 0.19685 0.590551 -0.779528 
vn -0.0866142 0.968504 0.228346 
vn 0 0.952756 0.307087 
vn 0.440945 0.614173 -0.653543 
vn -0.173228 0.968504 0.15748 
vn 0.622047 0.614173 -0.480315 
vn -0.220472 0.968504 0.0866142 
vn -0.212598 0.976378 0.0314961 
vn -0.496063 0.84252 0.204724 
vn -0.559055 0.740157 0.377953 
vn 0 0.551181 -0.834646 
vn 0 0.622047 -0.779528 
vn 0.188976 0.637795 -0.748031 
vn 0.212598 0.551181 -0.811024 
vn 0.417323 0.669291 -0.614173 
vn 0.464567 0.551181 -0.692913 
vn 0.677165 0.535433 -0.503937 
vn 0.629921 0.622047 -0.456693 
vn 0.590551 0.755906 -0.275591 
vn 0.685039 0.669291 -0.291339 
vn 0.629921 0.661417 0.409449 
vn 0.716535 0.669291 0.19685 
vn 0.582677 0.80315 0.141732 
vn 0.543307 0.76378 0.338583 
vn 0.377953 0.80315 0.456693 
vn 0.448819 0.716535 0.535433 
vn 0.181102 0.826772 0.535433 
vn 0.212598 0.740157 0.637795 
vn 0 0.755906 0.653543 
vn 0 0.811024 0.582677 
vn 0.511811 0.519685 0.677165 
vn 0.283465 0.527559 0.80315 
vn 0 0.456693 0.889764 
vn 0.716535 0.456693 0.527559 
vn -0.204724 0.976378 -0.0551181 
vn -0.19685 0.976378 -0.0708661 
vn -0.291339 0.952756 -0.0787402 
vn -0.330709 0.944882 -0.0629921 
vn -0.181102 0.976378 -0.11811 
vn -0.291339 0.952756 -0.110236 
vn 0 1 -0.0708661 
vn 0 0.992126 -0.110236 
vn 0 1 0.00787402 
vn 0 1 -0.015748 
vn -0.173228 0.984252 -0.0314961 
vn -0.110236 0.992126 -0.0393701 
vn -0.314961 0.944882 -0.0944882 
vn -0.212598 0.968504 -0.110236 
vn -0.299213 0.952756 -0.0708661 
vn -0.354331 0.929134 -0.0944882 
vn 0.787402 0.393701 0.480315 
vn 0.606299 0.692913 0.393701 
vn 0.425197 0.755906 0.496063 
vn 0.629921 0.472441 0.614173 
vn 0.291339 0.795276 0.527559 
vn 0.511811 0.503937 0.700787 
vn 0.173228 0.80315 0.574803 
vn 0.385827 0.503937 0.771654 
vn 0.669291 0.204724 0.716535 
vn 0.653543 0.0629921 0.748031 
vn 0 0.141732 -0.992126 
vn 0.251969 0.141732 -0.952756 
vn 0.622047 0.15748 -0.76378 
vn 0.850394 0.204724 -0.480315 
vn 0.929134 0.228346 -0.275591 
vn 0.944882 0.314961 0.0944882 
vn 0.165354 0.818898 0.543307 
vn 0.0787402 0.968504 0.244094 
vn 0 0.968504 0.259843 
vn 0 0.818898 0.574803 
vn 0.275591 0.874016 0.409449 
vn 0.110236 0.984252 0.149606 
vn 0.346457 0.913386 0.204724 
vn 0.330709 0.937008 0.125984 
vn 0.0393701 0.992126 0.102362 
vn -0.259843 0.968504 -0.00787402 
vn -0.110236 0.968504 0.204724 
vn -0.165354 0.96063 0.212598 
vn -0.425197 0.685039 0.590551 
vn -0.15748 0.929134 0.322835 
vn -0.0866142 0.866142 0.488189 
vn -0.19685 0.614173 0.76378 
vn 0 0.574803 0.818898 
vn 0 0.889764 0.456693 
vn 0.716535 0.700787 -0.0472441 
vn 0.826772 0.566929 -0.0393701 
vn -0.0629921 0.992126 -0.0787402 
vn 0.645669 0.716535 -0.267717 
vn 0.629921 0.771654 -0.0629921 
vn 0.637795 0.755906 0.165354 
vn 0 -0.133858 -0.992126 
vn 0.283465 -0.149606 -0.944882 
vn 0.582677 -0.267717 -0.771654 
vn 0.811024 -0.251969 -0.535433 
vn 0.952756 -0.149606 -0.275591 
vn 0.952756 -0.307087 -0.00787402 
vn 0.779528 -0.606299 0.15748 
vn 0.653543 -0.669291 0.354331 
vn 0.488189 -0.692913 0.527559 
vn 0.212598 -0.80315 0.551181 
vn 0 -0.811024 0.590551 
vn 0 1 -0.0551181 
vn 0 0.551181 0.834646 
vn 0 0.511811 0.858268 
vn 0.212598 0.527559 0.818898 
vn 0.251969 0.551181 0.795276 
vn 0.212598 0.543307 0.811024 
vn 0 0.503937 0.866142 
vn 0.669291 -0.015748 0.740157 
vn 0.669291 -0.00787402 0.740157 
vn 0.661417 0.15748 0.732283 
vn 0.740157 0.480315 0.472441 
vn 0.543307 0.685039 0.496063 
vn 0.740157 0.409449 0.535433 
vn 0.417323 0.740157 0.527559 
vn 0.401575 0.661417 0.629921 
vn 0.401575 0.614173 0.685039 
vn 0.314961 0.535433 0.787402 
vn 0.370079 0.480315 0.795276 
vn 0.503937 0.346457 0.795276 
vn 0.598425 0.251969 0.76378 
vn 0.692913 0.251969 0.669291 
vn 0.724409 0.385827 0.566929 
vn 0.149606 0.779528 0.606299 
vn 0 0.787402 0.622047 
vn 0 0.582677 -0.811024 
vn 0.173228 0.535433 -0.826772 
vn 0.464567 0.543307 -0.700787 
vn 0.614173 0.629921 -0.480315 
vn 0.700787 0.653543 -0.275591 
vn 0.724409 0.685039 0.0708661 
vn -0.299213 0.952756 -0.0629921 
vn 0 0.976378 -0.204724 
vn -0.0393701 0.952756 -0.291339 
vn -0.015748 0.944882 -0.330709 
vn -0.0708661 0.968504 -0.244094 
vn -0.0393701 0.984252 -0.181102 
vn 0.0472441 1 -0.0314961 
vn -0.023622 0.992126 0.0866142 
vn -0.0787402 0.992126 0.11811 
vn -0.141732 0.984252 0.110236 
vn -0.173228 0.984252 0.0629921 
vn -0.110236 0.992126 0.0944882 
vn 0 0.992126 0.125984 
vn 0 1 0.00787402 
vn -0.110236 0.992126 -0.0393701 
vn -0.212598 0.968504 -0.110236 
vn -0.314961 0.944882 -0.0944882 
vn -0.354331 0.929134 -0.0944882 
vn -0.299213 0.952756 -0.0708661 
vn -0.330709 0.944882 -0.0629921 
vn -0.291339 0.952756 -0.0787402 
vn -0.299213 0.952756 -0.0629921 
vn -0.291339 0.952756 -0.110236 
vn -0.181102 0.976378 -0.11811 
vn 0 0.992126 -0.110236 
vn 0.559055 0.614173 0.559055 
vn 0.582677 0.417323 0.692913 
vn 0.338583 0.826772 0.456693 
vn 0.330709 0.874016 0.362205 
vn 0.464567 0.771654 0.440945 
vn 0.559055 0.653543 0.511811 
vn 0.551181 0.488189 0.677165 
vn 0.574803 0.291339 0.771654 
vn 0.637795 0.0472441 0.771654 
vn 0.661417 -0.15748 0.740157 
vn 0.700787 -0.11811 0.708661 
vn 0.692913 0.204724 0.692913 
vn 0 0.11811 0.992126 
vn 0.314961 0.110236 0.944882 
vn 0.574803 0.275591 0.76378 
vn 0.795276 0.354331 0.488189 
vn 0.834646 0.496063 0.228346 
vn 0.653543 0.748031 0.0787402 
vn 0.661417 0.740157 -0.0944882 
vn 0.669291 0.653543 -0.354331 
vn 0.511811 0.645669 -0.566929 
vn 0.244094 0.771654 -0.590551 
vn 0 0.755906 -0.653543 
vn 0 0.362205 0.929134 
vn 0.275591 0.346457 0.897638 
vn 0.598425 0.291339 0.748031 
vn 0.811024 0.149606 0.559055 
vn 0.937008 0.0393701 0.338583 
vn 1 0.0551181 -0.00787402 
vn 0.944882 -0.015748 -0.330709 
vn 0.826772 -0.0551181 -0.559055 
vn 0.590551 -0.0708661 -0.80315 
vn 0.267717 -0.0866142 -0.96063 
vn 0 -0.0944882 -0.992126 
vn 0 -0.0944882 -0.992126 
vn 0 -0.0944882 -0.992126 
vn 0.267717 -0.0866142 -0.96063 
vn 0.267717 -0.0866142 -0.96063 
vn 0.590551 -0.0708661 -0.80315 
vn 0.590551 -0.0708661 -0.80315 
vn 0.826772 -0.0551181 -0.559055 
vn 0.826772 -0.0551181 -0.559055 
vn 0.944882 -0.023622 -0.314961 
vn 0.944882 -0.023622 -0.322835 
vn 1 0.0551181 -0.00787402 
vn 1 0.0551181 -0.00787402 
vn 0.937008 0.0472441 0.338583 
vn 0.937008 0.0393701 0.338583 
vn 0.795276 0.149606 0.590551 
vn 0.80315 0.149606 0.574803 
vn 0.582677 0.291339 0.76378 
vn 0.590551 0.283465 0.755906 
vn 0.275591 0.346457 0.897638 
vn 0.275591 0.346457 0.897638 
vn 0 0.362205 0.929134 
vn 0 0.362205 0.929134 
vn 0.283465 -0.149606 -0.944882 
vn 0 -0.133858 -0.992126 
vn 0.582677 -0.267717 -0.771654 
vn 0.811024 -0.251969 -0.535433 
vn 0.952756 -0.149606 -0.275591 
vn 0.952756 -0.307087 -0.00787402 
vn 0.779528 -0.606299 0.15748 
vn 0.653543 -0.669291 0.354331 
vn 0.488189 -0.692913 0.527559 
vn 0.212598 -0.80315 0.551181 
vn 0 -0.811024 0.590551 
vn 0.661417 -0.700787 0.267717 
vn 0.748031 -0.606299 0.275591 
vn 0.669291 -0.566929 0.488189 
vn 0.606299 -0.669291 0.433071 
vn 0.472441 -0.535433 0.700787 
vn 0.401575 -0.606299 0.685039 
vn 0.228346 -0.496063 0.84252 
vn 0.133858 -0.622047 0.771654 
vn -0.00787402 -1 0.0314961 
vn 0.228346 -0.637795 -0.732283 
vn 0.19685 -0.866142 -0.464567 
vn 0.480315 -0.645669 -0.590551 
vn 0.377953 -0.84252 -0.377953 
vn 0.661417 -0.637795 -0.393701 
vn 0.519685 -0.811024 -0.251969 
vn 0.755906 -0.629921 -0.188976 
vn 0.622047 -0.779528 -0.102362 
vn 0.771654 -0.629921 0.0472441 
vn 0.669291 -0.740157 0.0787402 
vn 0.181102 0.984252 -0.0629921 
vn 0.19685 0.976378 -0.0708661 
vn -0.937008 0.212598 -0.283465 
vn -0.850394 0.173228 -0.496063 
vn -0.834646 0.102362 -0.535433 
vn -0.937008 0.149606 -0.307087 
vn -0.968504 0.251969 0.023622 
vn -0.96063 0.267717 0.0629921 
vn -0.866142 0.354331 0.346457 
vn -0.88189 0.338583 0.322835 
vn -0.559055 0.472441 0.685039 
vn -0.527559 0.433071 0.732283 
vn -0.456693 0.661417 0.598425 
vn -0.338583 0.795276 0.503937 
vn -0.543307 0.488189 0.685039 
vn -0.362205 0.826772 0.433071 
vn -0.590551 0.488189 0.645669 
vn -0.472441 0.771654 0.425197 
vn -0.614173 0.653543 0.440945 
vn -0.669291 0.456693 0.582677 
vn -0.259843 0.0787402 -0.96063 
vn -0.267717 -0.015748 -0.96063 
vn -0.606299 0.023622 -0.795276 
vn -0.629921 0.102362 -0.771654 
vn -0.511811 -0.787402 -0.338583 
vn -0.401575 -0.716535 -0.574803 
vn -0.00787402 -1 0.0551181 
vn 0.0314961 -0.992126 0.133858 
vn 0.15748 -0.984252 0.0866142 
vn -0.456693 -0.866142 -0.188976 
vn -0.267717 -0.96063 -0.0393701 
vn 0.267717 -0.96063 0.015748 
vn -0.0787402 -1 -0.0314961 
vn 0.346457 -0.929134 -0.102362 
vn 0.307087 -0.92126 -0.23622 
vn -0.0629921 -1 -0.00787402 
vn 0.220472 -0.905512 -0.362205 
vn -0.0551181 -1 -0.023622 
vn 0.11811 -0.897638 -0.417323 
vn 0 -1 -0.015748 
vn -0.188976 -0.677165 -0.716535 
vn -0.0472441 1 0.0393701 
vn -0.0944882 0.992126 0.0393701 
vn -0.173228 0.984252 0.0551181 
vn -0.0708661 1 -0.0393701 
vn -0.15748 0.976378 0.133858 
vn -0.409449 0.779528 0.472441 
vn -0.582677 0.732283 0.354331 
vn -0.0866142 0.968504 0.244094 
vn -0.188976 0.771654 0.606299 
vn 0.0866142 0.968504 0.228346 
vn -0.19685 0.590551 -0.779528 
vn 0.173228 0.968504 0.15748 
vn -0.440945 0.614173 -0.653543 
vn 0.220472 0.968504 0.0866142 
vn -0.622047 0.614173 -0.480315 
vn 0.496063 0.84252 0.204724 
vn 0.212598 0.976378 0.0314961 
vn 0.559055 0.740157 0.377953 
vn -0.188976 0.637795 -0.748031 
vn -0.212598 0.551181 -0.811024 
vn -0.417323 0.669291 -0.614173 
vn -0.472441 0.551181 -0.692913 
vn -0.677165 0.535433 -0.503937 
vn -0.629921 0.622047 -0.456693 
vn -0.590551 0.755906 -0.275591 
vn -0.685039 0.669291 -0.291339 
vn -0.629921 0.661417 0.409449 
vn -0.543307 0.76378 0.338583 
vn -0.582677 0.80315 0.141732 
vn -0.716535 0.669291 0.19685 
vn -0.377953 0.80315 0.456693 
vn -0.448819 0.716535 0.535433 
vn -0.181102 0.826772 0.535433 
vn -0.212598 0.740157 0.637795 
vn -0.283465 0.527559 0.80315 
vn -0.511811 0.519685 0.677165 
vn -0.716535 0.456693 0.527559 
vn 0.204724 0.976378 -0.0551181 
vn 0.330709 0.937008 -0.0629921 
vn 0.291339 0.952756 -0.0787402 
vn 0.19685 0.976378 -0.0708661 
vn 0.181102 0.976378 -0.11811 
vn 0.291339 0.952756 -0.110236 
vn 0.173228 0.984252 -0.0314961 
vn 0.110236 0.992126 -0.0393701 
vn 0.212598 0.968504 -0.110236 
vn 0.314961 0.944882 -0.0944882 
vn 0.354331 0.929134 -0.0944882 
vn 0.299213 0.952756 -0.0708661 
vn -0.425197 0.755906 0.496063 
vn -0.606299 0.692913 0.393701 
vn -0.787402 0.393701 0.480315 
vn -0.629921 0.472441 0.614173 
vn -0.291339 0.795276 0.527559 
vn -0.511811 0.503937 0.700787 
vn -0.173228 0.80315 0.574803 
vn -0.385827 0.503937 0.771654 
vn -0.669291 0.204724 0.716535 
vn -0.653543 0.0629921 0.748031 
vn -0.251969 0.141732 -0.952756 
vn -0.622047 0.15748 -0.76378 
vn -0.850394 0.204724 -0.480315 
vn -0.929134 0.228346 -0.275591 
vn -0.944882 0.314961 0.0944882 
vn -0.165354 0.818898 0.543307 
vn -0.0787402 0.968504 0.244094 
vn -0.275591 0.874016 0.409449 
vn -0.110236 0.984252 0.149606 
vn -0.346457 0.913386 0.204724 
vn -0.330709 0.937008 0.125984 
vn -0.0393701 0.992126 0.102362 
vn 0.259843 0.968504 -0.00787402 
vn 0.110236 0.968504 0.204724 
vn 0.165354 0.96063 0.212598 
vn 0.425197 0.685039 0.590551 
vn 0.15748 0.929134 0.322835 
vn 0.0866142 0.866142 0.488189 
vn 0.19685 0.614173 0.76378 
vn -0.826772 0.566929 -0.0393701 
vn -0.716535 0.700787 -0.0472441 
vn 0.0629921 0.992126 -0.0787402 
vn -0.645669 0.716535 -0.267717 
vn -0.629921 0.771654 -0.0629921 
vn -0.637795 0.755906 0.165354 
vn -0.283465 -0.149606 -0.944882 
vn -0.582677 -0.267717 -0.771654 
vn -0.811024 -0.251969 -0.535433 
vn -0.952756 -0.149606 -0.275591 
vn -0.952756 -0.307087 -0.00787402 
vn -0.779528 -0.606299 0.15748 
vn -0.653543 -0.669291 0.354331 
vn -0.488189 -0.692913 0.527559 
vn -0.212598 -0.80315 0.551181 
vn -0.251969 0.551181 0.795276 
vn -0.212598 0.527559 0.818898 
vn -0.212598 0.543307 0.811024 
vn -0.669291 -0.015748 0.740157 
vn -0.669291 -0.00787402 0.740157 
vn -0.661417 0.15748 0.732283 
vn -0.543307 0.685039 0.496063 
vn -0.740157 0.480315 0.472441 
vn -0.740157 0.409449 0.535433 
vn -0.417323 0.740157 0.527559 
vn -0.401575 0.661417 0.629921 
vn -0.401575 0.614173 0.685039 
vn -0.370079 0.480315 0.795276 
vn -0.314961 0.535433 0.787402 
vn -0.598425 0.251969 0.76378 
vn -0.503937 0.346457 0.795276 
vn -0.692913 0.251969 0.669291 
vn -0.724409 0.385827 0.566929 
vn -0.149606 0.779528 0.606299 
vn -0.173228 0.535433 -0.826772 
vn -0.464567 0.543307 -0.700787 
vn -0.614173 0.629921 -0.480315 
vn -0.700787 0.653543 -0.275591 
vn -0.724409 0.685039 0.0708661 
vn 0.299213 0.952756 -0.0629921 
vn 0.0393701 0.952756 -0.291339 
vn 0.015748 0.944882 -0.330709 
vn 0.0708661 0.968504 -0.244094 
vn 0.0393701 0.984252 -0.181102 
vn -0.0472441 1 -0.0314961 
vn 0.023622 0.992126 0.0866142 
vn 0.0787402 0.992126 0.11811 
vn 0.141732 0.984252 0.110236 
vn 0.173228 0.984252 0.0629921 
vn 0.110236 0.992126 0.0944882 
vn 0.110236 0.992126 -0.0393701 
vn 0.212598 0.968504 -0.110236 
vn 0.314961 0.944882 -0.0944882 
vn 0.354331 0.929134 -0.0944882 
vn 0.299213 0.952756 -0.0708661 
vn 0.330709 0.937008 -0.0629921 
vn 0.291339 0.952756 -0.0787402 
vn 0.299213 0.952756 -0.0629921 
vn 0.291339 0.952756 -0.110236 
vn 0.181102 0.976378 -0.11811 
vn -0.551181 0.614173 0.559055 
vn -0.582677 0.417323 0.692913 
vn -0.338583 0.826772 0.456693 
vn -0.330709 0.874016 0.362205 
vn -0.464567 0.771654 0.440945 
vn -0.559055 0.653543 0.511811 
vn -0.551181 0.488189 0.677165 
vn -0.574803 0.283465 0.76378 
vn -0.637795 0.0472441 0.771654 
vn -0.653543 -0.15748 0.740157 
vn -0.700787 -0.11811 0.708661 
vn -0.692913 0.204724 0.692913 
vn -0.314961 0.110236 0.944882 
vn -0.574803 0.275591 0.76378 
vn -0.795276 0.354331 0.488189 
vn -0.834646 0.496063 0.228346 
vn -0.653543 0.748031 0.0787402 
vn -0.661417 0.740157 -0.0944882 
vn -0.669291 0.653543 -0.354331 
vn -0.511811 0.645669 -0.566929 
vn -0.244094 0.771654 -0.590551 
vn -0.275591 0.346457 0.897638 
vn -0.598425 0.283465 0.748031 
vn -0.811024 0.149606 0.559055 
vn -0.937008 0.0393701 0.338583 
vn -1 0.0551181 -0.00787402 
vn -0.944882 -0.015748 -0.330709 
vn -0.826772 -0.0551181 -0.559055 
vn -0.590551 -0.0708661 -0.80315 
vn -0.267717 -0.0866142 -0.96063 
vn -0.267717 -0.0866142 -0.96063 
vn -0.267717 -0.0866142 -0.96063 
vn -0.590551 -0.0708661 -0.80315 
vn -0.590551 -0.0708661 -0.80315 
vn -0.826772 -0.0551181 -0.559055 
vn -0.826772 -0.0551181 -0.559055 
vn -0.944882 -0.023622 -0.314961 
vn -0.944882 -0.023622 -0.322835 
vn -1 0.0551181 -0.00787402 
vn -1 0.0551181 -0.00787402 
vn -0.937008 0.0472441 0.338583 
vn -0.937008 0.0393701 0.338583 
vn -0.795276 0.149606 0.590551 
vn -0.80315 0.149606 0.574803 
vn -0.582677 0.291339 0.76378 
vn -0.590551 0.283465 0.755906 
vn -0.275591 0.346457 0.897638 
vn -0.275591 0.346457 0.897638 
vn -0.283465 -0.149606 -0.944882 
vn -0.582677 -0.267717 -0.771654 
vn -0.811024 -0.251969 -0.535433 
vn -0.952756 -0.149606 -0.275591 
vn -0.952756 -0.307087 -0.00787402 
vn -0.779528 -0.606299 0.15748 
vn -0.653543 -0.669291 0.354331 
vn -0.488189 -0.692913 0.527559 
vn -0.212598 -0.80315 0.551181 

vt 0.294796 0.111248 
vt 0.31946 0.099642 
vt 0.337398 0.121758 
vt 0.304261 0.137351 
vt 0.339013 0.081607 
vt 0.363668 0.097527 
vt 0.34407 0.058924 
vt 0.374428 0.067043 
vt 0.376466 0.03329 
vt 0.402462 0.032867 
vt 0.398063 0.073364 
vt 0.178671 0.034154 
vt 0.183065 0.059276 
vt 0.155546 0.067485 
vt 0.151508 0.033729 
vt 0.1957 0.08192 
vt 0.17112 0.097948 
vt 0.215337 0.099869 
vt 0.197504 0.122064 
vt 0.240055 0.111367 
vt 0.230714 0.137511 
vt 0.267435 0.115288 
vt 0.2675 0.142779 
vt 0.267226 0.034493 
vt 0.345855 0.033788 
vt 0.749768 0.226993 
vt 0.747471 0.182288 
vt 0.802146 0.182067 
vt 0.800555 0.227003 
vt 0.719728 0.644196 
vt 0.720435 0.806277 
vt 0.606963 0.809265 
vt 0.604634 0.64236 
vt 0.496453 0.670244 
vt 0.495884 0.814803 
vt 0.427553 0.806989 
vt 0.395888 0.696201 
vt 0.362558 0.728068 
vt 0.376825 0.793634 
vt 0.30811 0.764959 
vt 0.308959 0.693558 
vt 0.224814 0.75057 
vt 0.224594 0.674837 
vt 0.158934 0.738758 
vt 0.160685 0.690997 
vt 0.133586 0.715629 
vt 0.121998 0.748642 
vt 0.960103 0.647867 
vt 0.960103 0.794055 
vt 0.888 0.794513 
vt 0.887703 0.647716 
vt 0.809706 0.64721 
vt 0.812163 0.801762 
vt 0.382862 0.109921 
vt 0.412594 0.129512 
vt 0.372873 0.169251 
vt 0.351363 0.138976 
vt 0.311629 0.157673 
vt 0.322969 0.189989 
vt 0.267611 0.197218 
vt 0.26755 0.164181 
vt 0.212221 0.190231 
vt 0.223442 0.157865 
vt 0.18362 0.139342 
vt 0.162219 0.169711 
vt 0.151984 0.110426 
vt 0.122346 0.130125 
vt 0.134121 0.073877 
vt 0.099134 0.084243 
vt 0.092226 0.033411 
vt 0.130362 0.033398 
vt 0.439249 0.032757 
vt 0.433118 0.083603 
vt 0.29192 0.41778 
vt 0.291925 0.367597 
vt 0.38786 0.369055 
vt 0.387885 0.420196 
vt 0.208158 0.428886 
vt 0.20817 0.417868 
vt 0.291918 0.429017 
vt 0.113489 0.429364 
vt 0.113491 0.418482 
vt 0.045394 0.428223 
vt 0.045376 0.417384 
vt 0.9717 0.429686 
vt 0.912957 0.429875 
vt 0.913051 0.416465 
vt 0.971705 0.41767 
vt 0.809373 0.428864 
vt 0.809373 0.415134 
vt 0.72059 0.430116 
vt 0.720583 0.416319 
vt 0.622969 0.418523 
vt 0.623028 0.370987 
vt 0.720577 0.37184 
vt 0.971531 0.520934 
vt 0.961003 0.53844 
vt 0.887697 0.538409 
vt 0.912933 0.520934 
vt 0.809221 0.538306 
vt 0.809372 0.520934 
vt 0.720627 0.520934 
vt 0.71835 0.538381 
vt 0.622663 0.53743 
vt 0.622866 0.52293 
vt 0.291907 0.520934 
vt 0.387862 0.522643 
vt 0.383051 0.537765 
vt 0.305111 0.53731 
vt 0.222659 0.537174 
vt 0.208126 0.520934 
vt 0.135485 0.537056 
vt 0.113474 0.520934 
vt 0.045424 0.520934 
vt 0.046096 0.53703 
vt 0.224395 0.629544 
vt 0.131317 0.652178 
vt 0.046177 0.649602 
vt 0.308711 0.647873 
vt 0.684046 0.183449 
vt 0.622112 0.186383 
vt 0.588432 0.077991 
vt 0.648965 0.031783 
vt 0.504781 0.192228 
vt 0.517949 0.162841 
vt 0.623115 0.22695 
vt 0.49177 0.22695 
vt 0.976363 0.227127 
vt 0.856861 0.227016 
vt 0.857757 0.179063 
vt 0.97333 0.153186 
vt 0.877981 0.053174 
vt 0.939069 0.090618 
vt 0.704849 0.016444 
vt 0.796328 0.023014 
vt 0.412345 0.883733 
vt 0.419162 0.912816 
vt 0.306858 0.89392 
vt 0.307145 0.874914 
vt 0.225007 0.871396 
vt 0.224954 0.860204 
vt 0.14334 0.846318 
vt 0.147259 0.83524 
vt 0.133207 0.779132 
vt 0.166127 0.791937 
vt 0.960103 0.852079 
vt 0.887841 0.852555 
vt 0.813748 0.867101 
vt 0.720763 0.888238 
vt 0.607855 0.900756 
vt 0.497106 0.902401 
vt 0.11987 0.326643 
vt 0.117371 0.371416 
vt 0.045286 0.372967 
vt 0.045197 0.326999 
vt 0.210547 0.326013 
vt 0.208953 0.370468 
vt 0.291929 0.325103 
vt 0.387869 0.325023 
vt 0.505051 0.325525 
vt 0.504639 0.371214 
vt 0.623033 0.326223 
vt 0.720573 0.32611 
vt 0.809374 0.372535 
vt 0.809375 0.327138 
vt 0.913954 0.328011 
vt 0.913484 0.373909 
vt 0.971591 0.376293 
vt 0.971447 0.329715 
vt 0.505488 0.536958 
vt 0.506408 0.523675 
vt 0.506976 0.417038 
vt 0.622967 0.428731 
vt 0.506828 0.429766 
vt 0.387882 0.429184 
vt 0.471493 0.033729 
vt 0.461618 0.089223 
vt 0.444827 0.148688 
vt 0.394684 0.202347 
vt 0.334299 0.225713 
vt 0.267036 0.239652 
vt 0.197772 0.226018 
vt 0.140942 0.197038 
vt 0.091249 0.148424 
vt 0.063505 0.107014 
vt 0.049401 0.031072 
vt 0.687473 0.226972 
vt 0.046177 0.811459 
vt 0.046177 0.76428 
vt 0.08118 0.765767 
vt 0.098815 0.805734 
vt 0.100551 0.706797 
vt 0.046177 0.697176 
vt 0.224896 0.810367 
vt 0.307877 0.828554 
vt 0.372753 0.834492 
vt 0.388417 0.708312 
vt 0.308704 0.663411 
vt 0.414971 0.804529 
vt 0.224421 0.643865 
vt 0.138098 0.665512 
vt 0.108695 0.711747 
vt 0.091511 0.76301 
vt 0.107202 0.799893 
vt 0.151121 0.8238 
vt 0.224931 0.849826 
vt 0.307251 0.864383 
vt 0.403198 0.872546 
vt 0.092806 0.826483 
vt 0.046177 0.823984 
vt 0.960103 0.864535 
vt 0.887774 0.865018 
vt 0.814415 0.882494 
vt 0.720904 0.908829 
vt 0.610419 0.925504 
vt 0.50229 0.926726 
vt 0.550453 0.116591 
vt 0.960103 0.869366 
vt 0.889346 0.870651 
vt 0.817011 0.889114 
vt 0.722039 0.913866 
vt 0.610793 0.930941 
vt 0.503377 0.93304 
vt 0.419011 0.920621 
vt 0.307196 0.89869 
vt 0.224977 0.875182 
vt 0.144067 0.85102 
vt 0.093283 0.837273 
vt 0.046177 0.831653 
vt 0.960103 0.879367 
vt 0.892193 0.881903 
vt 0.819743 0.899659 
vt 0.72392 0.920762 
vt 0.611409 0.934643 
vt 0.505306 0.940479 
vt 0.418878 0.926828 
vt 0.30811 0.907706 
vt 0.224871 0.883916 
vt 0.149203 0.861853 
vt 0.100174 0.850378 
vt 0.046177 0.846044 
vt 0.37598 0.720373 
vt 0.396 0.799564 
vt 0.308795 0.68064 
vt 0.224494 0.660908 
vt 0.149063 0.680156 
vt 0.121047 0.715144 
vt 0.106782 0.756657 
vt 0.120058 0.78997 
vt 0.158149 0.807582 
vt 0.224909 0.831256 
vt 0.307522 0.847079 
vt 0.388415 0.854166 
vt 0.045183 0.304601 
vt 0.121109 0.304432 
vt 0.211339 0.303629 
vt 0.291917 0.303158 
vt 0.387864 0.302577 
vt 0.504479 0.302972 
vt 0.623032 0.303639 
vt 0.72058 0.303302 
vt 0.809376 0.304733 
vt 0.914117 0.305567 
vt 0.971127 0.307216 
vt 0.045398 0.439389 
vt 0.113487 0.440968 
vt 0.208154 0.44055 
vt 0.291917 0.440664 
vt 0.387879 0.441027 
vt 0.506775 0.441666 
vt 0.622964 0.440668 
vt 0.720595 0.441624 
vt 0.809373 0.440531 
vt 0.912954 0.441414 
vt 0.971679 0.441249 
vt 0.971615 0.47548 
vt 0.971543 0.514362 
vt 0.912935 0.514375 
vt 0.912945 0.475574 
vt 0.809372 0.514302 
vt 0.809373 0.47507 
vt 0.720624 0.514393 
vt 0.720609 0.475694 
vt 0.622879 0.516145 
vt 0.622956 0.476006 
vt 0.506438 0.516911 
vt 0.506617 0.476896 
vt 0.387872 0.476087 
vt 0.387864 0.515912 
vt 0.291908 0.514313 
vt 0.291913 0.475146 
vt 0.208128 0.514304 
vt 0.208142 0.475081 
vt 0.113475 0.514338 
vt 0.113481 0.47532 
vt 0.045422 0.514588 
vt 0.045409 0.477042 
vt 0.913961 0.285945 
vt 0.967942 0.288353 
vt 0.809376 0.285819 
vt 0.720493 0.28699 
vt 0.623041 0.286141 
vt 0.506342 0.285551 
vt 0.387869 0.28711 
vt 0.291904 0.285608 
vt 0.21188 0.287379 
vt 0.122086 0.286741 
vt 0.044969 0.286108 
vt 0.294796 0.111248 
vt 0.304261 0.137351 
vt 0.337398 0.121758 
vt 0.31946 0.099642 
vt 0.363668 0.097527 
vt 0.339013 0.081607 
vt 0.374428 0.067043 
vt 0.34407 0.058924 
vt 0.398063 0.073364 
vt 0.155546 0.067485 
vt 0.183065 0.059276 
vt 0.17112 0.097948 
vt 0.1957 0.08192 
vt 0.197504 0.122064 
vt 0.215337 0.099869 
vt 0.230714 0.137511 
vt 0.240055 0.111367 
vt 0.2675 0.142779 
vt 0.267435 0.115288 
vt 0.802146 0.182067 
vt 0.747471 0.182288 
vt 0.606963 0.809265 
vt 0.720435 0.806277 
vt 0.719728 0.644196 
vt 0.604634 0.64236 
vt 0.496453 0.670244 
vt 0.495884 0.814803 
vt 0.427553 0.806989 
vt 0.395888 0.696201 
vt 0.30811 0.764959 
vt 0.376825 0.793634 
vt 0.362558 0.728068 
vt 0.308959 0.693558 
vt 0.224814 0.75057 
vt 0.224594 0.674837 
vt 0.158934 0.738758 
vt 0.160685 0.690997 
vt 0.133586 0.715629 
vt 0.121998 0.748642 
vt 0.888 0.794513 
vt 0.887703 0.647716 
vt 0.809706 0.64721 
vt 0.812163 0.801762 
vt 0.372873 0.169251 
vt 0.412594 0.129512 
vt 0.382862 0.109921 
vt 0.351363 0.138976 
vt 0.311629 0.157673 
vt 0.322969 0.189989 
vt 0.267611 0.197218 
vt 0.26755 0.164181 
vt 0.212221 0.190231 
vt 0.223442 0.157865 
vt 0.18362 0.139342 
vt 0.162219 0.169711 
vt 0.151984 0.110426 
vt 0.122346 0.130125 
vt 0.134121 0.073877 
vt 0.099134 0.084243 
vt 0.433118 0.083603 
vt 0.38786 0.369055 
vt 0.291925 0.367597 
vt 0.29192 0.41778 
vt 0.387885 0.420196 
vt 0.20817 0.417868 
vt 0.208158 0.428886 
vt 0.291918 0.429017 
vt 0.113491 0.418482 
vt 0.113489 0.429364 
vt 0.913051 0.416465 
vt 0.912957 0.429875 
vt 0.809373 0.415134 
vt 0.809373 0.428864 
vt 0.720583 0.416319 
vt 0.72059 0.430116 
vt 0.623028 0.370987 
vt 0.622969 0.418523 
vt 0.720577 0.37184 
vt 0.887697 0.538409 
vt 0.912933 0.520934 
vt 0.809221 0.538306 
vt 0.809372 0.520934 
vt 0.720627 0.520934 
vt 0.71835 0.538381 
vt 0.622663 0.53743 
vt 0.622866 0.52293 
vt 0.291907 0.520934 
vt 0.305111 0.53731 
vt 0.383051 0.537765 
vt 0.387862 0.522643 
vt 0.222659 0.537174 
vt 0.208126 0.520934 
vt 0.135485 0.537056 
vt 0.113474 0.520934 
vt 0.131317 0.652178 
vt 0.224395 0.629544 
vt 0.308711 0.647873 
vt 0.684046 0.183449 
vt 0.648965 0.031783 
vt 0.588432 0.077991 
vt 0.622112 0.186383 
vt 0.504781 0.192228 
vt 0.517949 0.162841 
vt 0.857757 0.179063 
vt 0.97333 0.153186 
vt 0.939069 0.090618 
vt 0.877981 0.053174 
vt 0.796328 0.023014 
vt 0.704849 0.016444 
vt 0.306858 0.89392 
vt 0.419162 0.912816 
vt 0.412345 0.883733 
vt 0.307145 0.874914 
vt 0.225007 0.871396 
vt 0.224954 0.860204 
vt 0.14334 0.846318 
vt 0.147259 0.83524 
vt 0.133207 0.779132 
vt 0.166127 0.791937 
vt 0.887841 0.852555 
vt 0.813748 0.867101 
vt 0.720763 0.888238 
vt 0.607855 0.900756 
vt 0.497106 0.902401 
vt 0.11987 0.326643 
vt 0.117371 0.371416 
vt 0.210547 0.326013 
vt 0.208953 0.370468 
vt 0.291929 0.325103 
vt 0.387869 0.325023 
vt 0.505051 0.325525 
vt 0.504639 0.371214 
vt 0.623033 0.326223 
vt 0.720573 0.32611 
vt 0.809374 0.372535 
vt 0.809375 0.327138 
vt 0.913954 0.328011 
vt 0.913484 0.373909 
vt 0.506408 0.523675 
vt 0.505488 0.536958 
vt 0.506976 0.417038 
vt 0.622967 0.428731 
vt 0.506828 0.429766 
vt 0.387882 0.429184 
vt 0.461618 0.089223 
vt 0.444827 0.148688 
vt 0.394684 0.202347 
vt 0.334299 0.225713 
vt 0.267036 0.239652 
vt 0.197772 0.226018 
vt 0.140942 0.197038 
vt 0.091249 0.148424 
vt 0.063505 0.107014 
vt 0.098815 0.805734 
vt 0.08118 0.765767 
vt 0.100551 0.706797 
vt 0.224896 0.810367 
vt 0.307877 0.828554 
vt 0.372753 0.834492 
vt 0.308704 0.663411 
vt 0.388417 0.708312 
vt 0.414971 0.804529 
vt 0.224421 0.643865 
vt 0.138098 0.665512 
vt 0.108695 0.711747 
vt 0.107202 0.799893 
vt 0.091511 0.76301 
vt 0.224931 0.849826 
vt 0.151121 0.8238 
vt 0.307251 0.864383 
vt 0.403198 0.872546 
vt 0.092806 0.826483 
vt 0.887774 0.865018 
vt 0.814415 0.882494 
vt 0.720904 0.908829 
vt 0.610419 0.925504 
vt 0.50229 0.926726 
vt 0.550453 0.116591 
vt 0.889346 0.870651 
vt 0.817011 0.889114 
vt 0.722039 0.913866 
vt 0.610793 0.930941 
vt 0.503377 0.93304 
vt 0.419011 0.920621 
vt 0.307196 0.89869 
vt 0.224977 0.875182 
vt 0.144067 0.85102 
vt 0.093283 0.837273 
vt 0.892193 0.881903 
vt 0.819743 0.899659 
vt 0.72392 0.920762 
vt 0.611409 0.934643 
vt 0.505306 0.940479 
vt 0.418878 0.926828 
vt 0.30811 0.907706 
vt 0.224871 0.883916 
vt 0.149203 0.861853 
vt 0.100174 0.850378 
vt 0.37598 0.720373 
vt 0.396 0.799564 
vt 0.308795 0.68064 
vt 0.224494 0.660908 
vt 0.149063 0.680156 
vt 0.121047 0.715144 
vt 0.106782 0.756657 
vt 0.120058 0.78997 
vt 0.158149 0.807582 
vt 0.224909 0.831256 
vt 0.307522 0.847079 
vt 0.388415 0.854166 
vt 0.121109 0.304432 
vt 0.211339 0.303629 
vt 0.291917 0.303158 
vt 0.387864 0.302577 
vt 0.504479 0.302972 
vt 0.623032 0.303639 
vt 0.72058 0.303302 
vt 0.809376 0.304733 
vt 0.914117 0.305567 
vt 0.113487 0.440968 
vt 0.208154 0.44055 
vt 0.291917 0.440664 
vt 0.387879 0.441027 
vt 0.506775 0.441666 
vt 0.622964 0.440668 
vt 0.720595 0.441624 
vt 0.809373 0.440531 
vt 0.912954 0.441414 
vt 0.912935 0.514375 
vt 0.912945 0.475574 
vt 0.809372 0.514302 
vt 0.809373 0.47507 
vt 0.720624 0.514393 
vt 0.720609 0.475694 
vt 0.622879 0.516145 
vt 0.622956 0.476006 
vt 0.506438 0.516911 
vt 0.506617 0.476896 
vt 0.387872 0.476087 
vt 0.387864 0.515912 
vt 0.291908 0.514313 
vt 0.291913 0.475146 
vt 0.208128 0.514304 
vt 0.208142 0.475081 
vt 0.113475 0.514338 
vt 0.113481 0.47532 
vt 0.913961 0.285945 
vt 0.809376 0.285819 
vt 0.720493 0.28699 
vt 0.623041 0.286141 
vt 0.506342 0.285551 
vt 0.387869 0.28711 
vt 0.291904 0.285608 
vt 0.21188 0.287379 
vt 0.122086 0.286741 

usemtl Handle1Mtl

f 1/1/1 2/2/2 3/3/3 
f 3/3/3 4/4/4 1/1/1 
f 2/2/2 5/5/5 6/6/6 
f 6/6/6 3/3/3 2/2/2 
f 5/5/5 7/7/7 8/8/8 
f 8/8/8 6/6/6 5/5/5 
f 8/8/8 9/9/9 10/10/10 
f 10/10/10 11/11/11 8/8/8 
f 12/12/12 13/13/13 14/14/14 
f 14/14/14 15/15/15 12/12/12 
f 13/13/13 16/16/16 17/17/17 
f 17/17/17 14/14/14 13/13/13 
f 16/16/16 18/18/18 19/19/19 
f 19/19/19 17/17/17 16/16/16 
f 18/18/18 20/20/20 21/21/21 
f 21/21/21 19/19/19 18/18/18 
f 20/20/20 22/22/22 23/23/23 
f 23/23/23 21/21/21 20/20/20 
f 22/22/22 1/1/1 4/4/4 
f 4/4/4 23/23/23 22/22/22 
f 2/2/2 1/1/1 24/24/24 
f 5/5/5 2/2/2 24/24/24 
f 7/7/7 5/5/5 24/24/24 
f 25/25/25 7/7/7 24/24/24 
f 13/13/13 12/12/12 24/24/24 
f 16/16/16 13/13/13 24/24/24 
f 18/18/18 16/16/16 24/24/24 
f 20/20/20 18/18/18 24/24/24 
f 22/22/22 20/20/20 24/24/24 
f 1/1/1 22/22/22 24/24/24 
f 26/26/26 27/27/27 28/28/28 
f 28/28/28 29/29/29 26/26/26 
f 30/30/30 31/31/31 32/32/32 
f 32/32/32 33/33/33 30/30/30 
f 34/34/34 33/33/33 32/32/32 
f 32/32/32 35/35/35 34/34/34 
f 34/34/34 35/35/35 36/36/36 
f 36/36/36 37/37/37 34/34/34 
f 38/38/38 39/39/39 40/40/40 
f 40/40/40 41/41/41 38/38/38 
f 41/41/41 40/40/40 42/42/42 
f 42/42/42 43/43/43 41/41/41 
f 43/43/43 42/42/42 44/44/44 
f 44/44/44 45/45/45 43/43/43 
f 46/46/46 45/45/45 44/44/44 
f 44/44/44 47/47/47 46/46/46 
f 48/48/48 49/49/49 50/50/50 
f 50/50/50 51/51/51 48/48/48 
f 52/52/52 51/51/51 50/50/50 
f 50/50/50 53/53/53 52/52/52 
f 52/52/52 53/53/53 31/31/31 
f 31/31/31 30/30/30 52/52/52 
f 54/54/54 55/55/55 56/56/56 
f 56/56/56 57/57/57 54/54/54 
f 58/58/58 57/57/57 56/56/56 
f 56/56/56 59/59/59 58/58/58 
f 60/60/60 61/61/61 58/58/58 
f 58/58/58 59/59/59 60/60/60 
f 61/61/61 60/60/60 62/62/62 
f 62/62/62 63/63/63 61/61/61 
f 64/64/64 63/63/63 62/62/62 
f 62/62/62 65/65/65 64/64/64 
f 66/66/66 64/64/64 65/65/65 
f 65/65/65 67/67/67 66/66/66 
f 68/68/68 66/66/66 67/67/67 
f 67/67/67 69/69/69 68/68/68 
f 70/70/70 71/71/71 68/68/68 
f 68/68/68 69/69/69 70/70/70 
f 11/11/11 10/10/10 72/72/72 
f 72/72/72 73/73/73 11/11/11 
f 11/11/11 73/73/73 55/55/55 
f 55/55/55 54/54/54 11/11/11 
f 74/74/74 75/75/75 76/76/76 
f 76/76/76 77/77/77 74/74/74 
f 78/78/78 79/79/79 74/74/74 
f 74/74/74 80/80/80 78/78/78 
f 81/81/81 82/82/82 79/79/79 
f 79/79/79 78/78/78 81/81/81 
f 81/81/81 83/83/83 84/84/84 
f 84/84/84 82/82/82 81/81/81 
f 85/85/85 86/86/86 87/87/87 
f 87/87/87 88/88/88 85/85/85 
f 89/89/89 90/90/90 87/87/87 
f 87/87/87 86/86/86 89/89/89 
f 89/89/89 91/91/91 92/92/92 
f 92/92/92 90/90/90 89/89/89 
f 92/92/92 93/93/93 94/94/94 
f 94/94/94 95/95/95 92/92/92 
f 96/96/96 97/97/97 98/98/98 
f 98/98/98 99/99/99 96/96/96 
f 99/99/99 98/98/98 100/100/100 
f 100/100/100 101/101/101 99/99/99 
f 102/102/102 101/101/101 100/100/100 
f 100/100/100 103/103/103 102/102/102 
f 102/102/102 103/103/103 104/104/104 
f 104/104/104 105/105/105 102/102/102 
f 106/106/106 107/107/107 108/108/108 
f 108/108/108 109/109/109 106/106/106 
f 106/106/106 109/109/109 110/110/110 
f 110/110/110 111/111/111 106/106/106 
f 111/111/111 110/110/110 112/112/112 
f 112/112/112 113/113/113 111/111/111 
f 114/114/114 113/113/113 112/112/112 
f 112/112/112 115/115/115 114/114/114 
f 112/112/112 110/110/110 116/116/116 
f 116/116/116 117/117/117 112/112/112 
f 115/115/115 112/112/112 117/117/117 
f 117/117/117 118/118/118 115/115/115 
f 97/97/97 48/48/48 51/51/51 
f 51/51/51 98/98/98 97/97/97 
f 98/98/98 51/51/51 52/52/52 
f 52/52/52 100/100/100 98/98/98 
f 100/100/100 52/52/52 30/30/30 
f 30/30/30 103/103/103 100/100/100 
f 103/103/103 30/30/30 33/33/33 
f 33/33/33 104/104/104 103/103/103 
f 108/108/108 37/37/37 119/119/119 
f 119/119/119 109/109/109 108/108/108 
f 109/109/109 119/119/119 116/116/116 
f 116/116/116 110/110/110 109/109/109 
f 120/120/120 121/121/121 122/122/122 
f 122/122/122 123/123/123 120/120/120 
f 124/124/124 125/125/125 121/121/121 
f 126/126/126 127/127/127 124/124/124 
f 124/124/124 121/121/121 126/126/126 
f 128/128/128 129/129/129 130/130/130 
f 130/130/130 131/131/131 128/128/128 
f 130/130/130 132/132/132 133/133/133 
f 133/133/133 131/131/131 130/130/130 
f 27/27/27 134/134/134 135/135/135 
f 135/135/135 28/28/28 27/27/27 
f 136/136/136 137/137/137 138/138/138 
f 138/138/138 139/139/139 136/136/136 
f 139/139/139 138/138/138 140/140/140 
f 140/140/140 141/141/141 139/139/139 
f 141/141/141 140/140/140 142/142/142 
f 142/142/142 143/143/143 141/141/141 
f 144/144/144 47/47/47 44/44/44 
f 44/44/44 145/145/145 144/144/144 
f 49/49/49 146/146/146 147/147/147 
f 147/147/147 50/50/50 49/49/49 
f 53/53/53 50/50/50 147/147/147 
f 147/147/147 148/148/148 53/53/53 
f 31/31/31 53/53/53 148/148/148 
f 148/148/148 149/149/149 31/31/31 
f 32/32/32 31/31/31 149/149/149 
f 149/149/149 150/150/150 32/32/32 
f 35/35/35 32/32/32 150/150/150 
f 150/150/150 151/151/151 35/35/35 
f 36/36/36 35/35/35 151/151/151 
f 151/151/151 136/136/136 36/36/36 
f 14/14/14 68/68/68 71/71/71 
f 71/71/71 15/15/15 14/14/14 
f 6/6/6 8/8/8 11/11/11 
f 11/11/11 54/54/54 6/6/6 
f 6/6/6 54/54/54 57/57/57 
f 57/57/57 3/3/3 6/6/6 
f 3/3/3 57/57/57 58/58/58 
f 58/58/58 4/4/4 3/3/3 
f 23/23/23 4/4/4 58/58/58 
f 58/58/58 61/61/61 23/23/23 
f 61/61/61 63/63/63 21/21/21 
f 21/21/21 23/23/23 61/61/61 
f 19/19/19 21/21/21 63/63/63 
f 63/63/63 64/64/64 19/19/19 
f 17/17/17 19/19/19 64/64/64 
f 64/64/64 66/66/66 17/17/17 
f 14/14/14 17/17/17 66/66/66 
f 66/66/66 68/68/68 14/14/14 
f 152/152/152 153/153/153 154/154/154 
f 154/154/154 155/155/155 152/152/152 
f 156/156/156 157/157/157 153/153/153 
f 153/153/153 152/152/152 156/156/156 
f 158/158/158 75/75/75 157/157/157 
f 157/157/157 156/156/156 158/158/158 
f 159/159/159 76/76/76 75/75/75 
f 75/75/75 158/158/158 159/159/159 
f 160/160/160 161/161/161 76/76/76 
f 76/76/76 159/159/159 160/160/160 
f 160/160/160 162/162/162 94/94/94 
f 94/94/94 161/161/161 160/160/160 
f 95/95/95 94/94/94 162/162/162 
f 162/162/162 163/163/163 95/95/95 
f 164/164/164 95/95/95 163/163/163 
f 163/163/163 165/165/165 164/164/164 
f 166/166/166 167/167/167 164/164/164 
f 164/164/164 165/165/165 166/166/166 
f 168/168/168 167/167/167 166/166/166 
f 166/166/166 169/169/169 168/168/168 
f 170/170/170 171/171/171 105/105/105 
f 105/105/105 104/104/104 170/170/170 
f 108/108/108 170/170/170 34/34/34 
f 34/34/34 37/37/37 108/108/108 
f 170/170/170 104/104/104 33/33/33 
f 33/33/33 34/34/34 170/170/170 
f 93/93/93 172/172/172 161/161/161 
f 161/161/161 94/94/94 93/93/93 
f 82/82/82 84/84/84 154/154/154 
f 154/154/154 153/153/153 82/82/82 
f 157/157/157 79/79/79 82/82/82 
f 82/82/82 153/153/153 157/157/157 
f 75/75/75 74/74/74 79/79/79 
f 79/79/79 157/157/157 75/75/75 
f 90/90/90 92/92/92 95/95/95 
f 95/95/95 164/164/164 90/90/90 
f 167/167/167 87/87/87 90/90/90 
f 90/90/90 164/164/164 167/167/167 
f 88/88/88 87/87/87 167/167/167 
f 167/167/167 168/168/168 88/88/88 
f 93/93/93 92/92/92 91/91/91 
f 91/91/91 173/173/173 93/93/93 
f 93/93/93 173/173/173 174/174/174 
f 174/174/174 172/172/172 93/93/93 
f 80/80/80 74/74/74 77/77/77 
f 77/77/77 175/175/175 80/80/80 
f 161/161/161 172/172/172 77/77/77 
f 77/77/77 76/76/76 161/161/161 
f 73/73/73 72/72/72 176/176/176 
f 176/176/176 177/177/177 73/73/73 
f 55/55/55 73/73/73 177/177/177 
f 177/177/177 178/178/178 55/55/55 
f 56/56/56 55/55/55 178/178/178 
f 178/178/178 179/179/179 56/56/56 
f 56/56/56 179/179/179 180/180/180 
f 180/180/180 59/59/59 56/56/56 
f 59/59/59 180/180/180 181/181/181 
f 181/181/181 60/60/60 59/59/59 
f 62/62/62 60/60/60 181/181/181 
f 181/181/181 182/182/182 62/62/62 
f 65/65/65 62/62/62 182/182/182 
f 182/182/182 183/183/183 65/65/65 
f 67/67/67 65/65/65 183/183/183 
f 183/183/183 184/184/184 67/67/67 
f 67/67/67 184/184/184 185/185/185 
f 185/185/185 69/69/69 67/67/67 
f 70/70/70 69/69/69 185/185/185 
f 185/185/185 186/186/186 70/70/70 
f 126/126/126 121/121/121 120/120/120 
f 120/120/120 187/187/187 126/126/126 
f 188/188/188 189/189/189 190/190/190 
f 190/190/190 191/191/191 188/188/188 
f 118/118/118 117/117/117 192/192/192 
f 192/192/192 193/193/193 118/118/118 
f 42/42/42 194/194/194 145/145/145 
f 145/145/145 44/44/44 42/42/42 
f 40/40/40 195/195/195 194/194/194 
f 194/194/194 42/42/42 40/40/40 
f 39/39/39 196/196/196 195/195/195 
f 195/195/195 40/40/40 39/39/39 
f 28/28/28 135/135/135 132/132/132 
f 132/132/132 130/130/130 28/28/28 
f 28/28/28 130/130/130 129/129/129 
f 129/129/129 29/29/29 28/28/28 
f 120/120/120 123/123/123 134/134/134 
f 134/134/134 27/27/27 120/120/120 
f 187/187/187 120/120/120 27/27/27 
f 27/27/27 26/26/26 187/187/187 
f 37/37/37 197/197/197 198/198/198 
f 198/198/198 119/119/119 37/37/37 
f 37/37/37 36/36/36 199/199/199 
f 199/199/199 197/197/197 37/37/37 
f 119/119/119 198/198/198 200/200/200 
f 200/200/200 116/116/116 119/119/119 
f 116/116/116 200/200/200 201/201/201 
f 201/201/201 117/117/117 116/116/116 
f 192/192/192 117/117/117 201/201/201 
f 201/201/201 202/202/202 192/192/192 
f 191/191/191 190/190/190 203/203/203 
f 203/203/203 204/204/204 191/191/191 
f 143/143/143 205/205/205 206/206/206 
f 206/206/206 141/141/141 143/143/143 
f 141/141/141 206/206/206 207/207/207 
f 207/207/207 139/139/139 141/141/141 
f 36/36/36 136/136/136 208/208/208 
f 208/208/208 199/199/199 36/36/36 
f 139/139/139 207/207/207 208/208/208 
f 208/208/208 136/136/136 139/139/139 
f 192/192/192 202/202/202 203/203/203 
f 203/203/203 190/190/190 192/192/192 
f 193/193/193 192/192/192 190/190/190 
f 190/190/190 189/189/189 193/193/193 
f 143/143/143 191/191/191 204/204/204 
f 204/204/204 205/205/205 143/143/143 
f 188/188/188 191/191/191 209/209/209 
f 209/209/209 210/210/210 188/188/188 
f 146/146/146 211/211/211 212/212/212 
f 212/212/212 147/147/147 146/146/146 
f 148/148/148 147/147/147 212/212/212 
f 212/212/212 213/213/213 148/148/148 
f 149/149/149 148/148/148 213/213/213 
f 213/213/213 214/214/214 149/149/149 
f 150/150/150 149/149/149 214/214/214 
f 214/214/214 215/215/215 150/150/150 
f 216/216/216 151/151/151 150/150/150 
f 150/150/150 215/215/215 216/216/216 
f 151/151/151 216/216/216 137/137/137 
f 137/137/137 136/136/136 151/151/151 
f 209/209/209 191/191/191 143/143/143 
f 143/143/143 142/142/142 209/209/209 
f 121/121/121 125/125/125 217/217/217 
f 217/217/217 122/122/122 121/121/121 
f 211/211/211 218/218/218 219/219/219 
f 219/219/219 212/212/212 211/211/211 
f 212/212/212 219/219/219 220/220/220 
f 220/220/220 213/213/213 212/212/212 
f 214/214/214 213/213/213 220/220/220 
f 220/220/220 221/221/221 214/214/214 
f 214/214/214 221/221/221 222/222/222 
f 222/222/222 215/215/215 214/214/214 
f 215/215/215 222/222/222 223/223/223 
f 223/223/223 216/216/216 215/215/215 
f 216/216/216 223/223/223 224/224/224 
f 224/224/224 137/137/137 216/216/216 
f 138/138/138 137/137/137 224/224/224 
f 224/224/224 225/225/225 138/138/138 
f 140/140/140 138/138/138 225/225/225 
f 225/225/225 226/226/226 140/140/140 
f 140/140/140 226/226/226 227/227/227 
f 227/227/227 142/142/142 140/140/140 
f 142/142/142 227/227/227 228/228/228 
f 228/228/228 209/209/209 142/142/142 
f 229/229/229 210/210/210 209/209/209 
f 209/209/209 228/228/228 229/229/229 
f 218/218/218 230/230/230 231/231/231 
f 231/231/231 219/219/219 218/218/218 
f 219/219/219 231/231/231 232/232/232 
f 232/232/232 220/220/220 219/219/219 
f 220/220/220 232/232/232 233/233/233 
f 233/233/233 221/221/221 220/220/220 
f 234/234/234 222/222/222 221/221/221 
f 221/221/221 233/233/233 234/234/234 
f 235/235/235 223/223/223 222/222/222 
f 222/222/222 234/234/234 235/235/235 
f 235/235/235 236/236/236 224/224/224 
f 224/224/224 223/223/223 235/235/235 
f 236/236/236 237/237/237 225/225/225 
f 225/225/225 224/224/224 236/236/236 
f 226/226/226 225/225/225 237/237/237 
f 237/237/237 238/238/238 226/226/226 
f 239/239/239 227/227/227 226/226/226 
f 226/226/226 238/238/238 239/239/239 
f 240/240/240 228/228/228 227/227/227 
f 227/227/227 239/239/239 240/240/240 
f 241/241/241 229/229/229 228/228/228 
f 228/228/228 240/240/240 241/241/241 
f 7/7/7 25/25/25 9/9/9 
f 9/9/9 8/8/8 7/7/7 
f 171/171/171 170/170/170 108/108/108 
f 108/108/108 107/107/107 171/171/171 
f 172/172/172 174/174/174 175/175/175 
f 175/175/175 77/77/77 172/172/172 
f 242/242/242 243/243/243 39/39/39 
f 39/39/39 38/38/38 242/242/242 
f 244/244/244 242/242/242 38/38/38 
f 38/38/38 41/41/41 244/244/244 
f 244/244/244 41/41/41 43/43/43 
f 43/43/43 245/245/245 244/244/244 
f 245/245/245 43/43/43 45/45/45 
f 45/45/45 246/246/246 245/245/245 
f 246/246/246 45/45/45 46/46/46 
f 46/46/46 247/247/247 246/246/246 
f 247/247/247 46/46/46 47/47/47 
f 47/47/47 248/248/248 247/247/247 
f 249/249/249 248/248/248 47/47/47 
f 47/47/47 144/144/144 249/249/249 
f 250/250/250 249/249/249 144/144/144 
f 144/144/144 145/145/145 250/250/250 
f 251/251/251 250/250/250 145/145/145 
f 145/145/145 194/194/194 251/251/251 
f 251/251/251 194/194/194 195/195/195 
f 195/195/195 252/252/252 251/251/251 
f 252/252/252 195/195/195 196/196/196 
f 196/196/196 253/253/253 252/252/252 
f 243/243/243 253/253/253 196/196/196 
f 196/196/196 39/39/39 243/243/243 
f 198/198/198 197/197/197 242/242/242 
f 242/242/242 244/244/244 198/198/198 
f 245/245/245 200/200/200 198/198/198 
f 198/198/198 244/244/244 245/245/245 
f 246/246/246 201/201/201 200/200/200 
f 200/200/200 245/245/245 246/246/246 
f 201/201/201 246/246/246 247/247/247 
f 247/247/247 202/202/202 201/201/201 
f 248/248/248 203/203/203 202/202/202 
f 202/202/202 247/247/247 248/248/248 
f 204/204/204 203/203/203 248/248/248 
f 248/248/248 249/249/249 204/204/204 
f 205/205/205 204/204/204 249/249/249 
f 249/249/249 250/250/250 205/205/205 
f 251/251/251 206/206/206 205/205/205 
f 205/205/205 250/250/250 251/251/251 
f 252/252/252 207/207/207 206/206/206 
f 206/206/206 251/251/251 252/252/252 
f 253/253/253 208/208/208 207/207/207 
f 207/207/207 252/252/252 253/253/253 
f 199/199/199 208/208/208 253/253/253 
f 253/253/253 243/243/243 199/199/199 
f 197/197/197 199/199/199 243/243/243 
f 243/243/243 242/242/242 197/197/197 
f 152/152/152 155/155/155 254/254/254 
f 254/254/254 255/255/255 152/152/152 
f 156/156/156 152/152/152 255/255/255 
f 255/255/255 256/256/256 156/156/156 
f 257/257/257 158/158/158 156/156/156 
f 156/156/156 256/256/256 257/257/257 
f 158/158/158 257/257/257 258/258/258 
f 258/258/258 159/159/159 158/158/158 
f 159/159/159 258/258/258 259/259/259 
f 259/259/259 160/160/160 159/159/159 
f 260/260/260 162/162/162 160/160/160 
f 160/160/160 259/259/259 260/260/260 
f 261/261/261 163/163/163 162/162/162 
f 162/162/162 260/260/260 261/261/261 
f 262/262/262 165/165/165 163/163/163 
f 163/163/163 261/261/261 262/262/262 
f 263/263/263 166/166/166 165/165/165 
f 165/165/165 262/262/262 263/263/263 
f 169/169/169 166/166/166 263/263/263 
f 263/263/263 264/264/264 169/169/169 
f 265/265/265 83/83/83 81/81/81 
f 81/81/81 266/266/266 265/265/265 
f 78/78/78 267/267/267 266/266/266 
f 266/266/266 81/81/81 78/78/78 
f 80/80/80 268/268/268 267/267/267 
f 267/267/267 78/78/78 80/80/80 
f 175/175/175 269/269/269 268/268/268 
f 268/268/268 80/80/80 175/175/175 
f 174/174/174 270/270/270 269/269/269 
f 269/269/269 175/175/175 174/174/174 
f 173/173/173 271/271/271 270/270/270 
f 270/270/270 174/174/174 173/173/173 
f 91/91/91 272/272/272 271/271/271 
f 271/271/271 173/173/173 91/91/91 
f 89/89/89 273/273/273 272/272/272 
f 272/272/272 91/91/91 89/89/89 
f 86/86/86 274/274/274 273/273/273 
f 273/273/273 89/89/89 86/86/86 
f 85/85/85 275/275/275 274/274/274 
f 274/274/274 86/86/86 85/85/85 
f 276/276/276 277/277/277 278/278/278 
f 278/278/278 279/279/279 276/276/276 
f 279/279/279 278/278/278 280/280/280 
f 280/280/280 281/281/281 279/279/279 
f 281/281/281 280/280/280 282/282/282 
f 282/282/282 283/283/283 281/281/281 
f 283/283/283 282/282/282 284/284/284 
f 284/284/284 285/285/285 283/283/283 
f 285/285/285 284/284/284 286/286/286 
f 286/286/286 287/287/287 285/285/285 
f 288/288/288 287/287/287 286/286/286 
f 286/286/286 289/289/289 288/288/288 
f 288/288/288 289/289/289 290/290/290 
f 290/290/290 291/291/291 288/288/288 
f 291/291/291 290/290/290 292/292/292 
f 292/292/292 293/293/293 291/291/291 
f 293/293/293 292/292/292 294/294/294 
f 294/294/294 295/295/295 293/293/293 
f 296/296/296 297/297/297 295/295/295 
f 295/295/295 294/294/294 296/296/296 
f 298/298/298 299/299/299 264/264/264 
f 264/264/264 263/263/263 298/298/298 
f 300/300/300 298/298/298 263/263/263 
f 263/263/263 262/262/262 300/300/300 
f 261/261/261 301/301/301 300/300/300 
f 300/300/300 262/262/262 261/261/261 
f 260/260/260 302/302/302 301/301/301 
f 301/301/301 261/261/261 260/260/260 
f 259/259/259 303/303/303 302/302/302 
f 302/302/302 260/260/260 259/259/259 
f 258/258/258 304/304/304 303/303/303 
f 303/303/303 259/259/259 258/258/258 
f 305/305/305 304/304/304 258/258/258 
f 258/258/258 257/257/257 305/305/305 
f 306/306/306 305/305/305 257/257/257 
f 257/257/257 256/256/256 306/306/306 
f 307/307/307 306/306/306 256/256/256 
f 256/256/256 255/255/255 307/307/307 
f 308/308/308 307/307/307 255/255/255 
f 255/255/255 254/254/254 308/308/308 
f 292/292/292 111/111/111 113/113/113 
f 113/113/113 294/294/294 292/292/292 
f 296/296/296 294/294/294 113/113/113 
f 113/113/113 114/114/114 296/296/296 
f 277/277/277 96/96/96 99/99/99 
f 99/99/99 278/278/278 277/277/277 
f 278/278/278 99/99/99 101/101/101 
f 101/101/101 280/280/280 278/278/278 
f 280/280/280 101/101/101 102/102/102 
f 102/102/102 282/282/282 280/280/280 
f 282/282/282 102/102/102 105/105/105 
f 105/105/105 284/284/284 282/282/282 
f 284/284/284 105/105/105 171/171/171 
f 171/171/171 286/286/286 284/284/284 
f 286/286/286 171/171/171 107/107/107 
f 107/107/107 289/289/289 286/286/286 
f 289/289/289 107/107/107 106/106/106 
f 106/106/106 290/290/290 289/289/289 
f 290/290/290 106/106/106 111/111/111 
f 111/111/111 292/292/292 290/290/290 
f 267/267/267 293/293/293 295/295/295 
f 295/295/295 266/266/266 267/267/267 
f 297/297/297 265/265/265 266/266/266 
f 266/266/266 295/295/295 297/297/297 
f 275/275/275 276/276/276 279/279/279 
f 279/279/279 274/274/274 275/275/275 
f 274/274/274 279/279/279 281/281/281 
f 281/281/281 273/273/273 274/274/274 
f 273/273/273 281/281/281 283/283/283 
f 283/283/283 272/272/272 273/273/273 
f 272/272/272 283/283/283 285/285/285 
f 285/285/285 271/271/271 272/272/272 
f 271/271/271 285/285/285 287/287/287 
f 287/287/287 270/270/270 271/271/271 
f 270/270/270 287/287/287 288/288/288 
f 288/288/288 269/269/269 270/270/270 
f 269/269/269 288/288/288 291/291/291 
f 291/291/291 268/268/268 269/269/269 
f 268/268/268 291/291/291 293/293/293 
f 293/293/293 267/267/267 268/268/268 
f 309/309/309 310/310/310 311/311/311 
f 311/311/311 312/312/312 309/309/309 
f 312/312/312 311/311/311 313/313/313 
f 313/313/313 314/314/314 312/312/312 
f 314/314/314 313/313/313 315/315/315 
f 315/315/315 316/316/316 314/314/314 
f 315/315/315 317/317/317 10/10/10 
f 10/10/10 9/9/9 315/315/315 
f 12/12/12 15/15/15 318/318/318 
f 318/318/318 319/319/319 12/12/12 
f 319/319/319 318/318/318 320/320/320 
f 320/320/320 321/321/321 319/319/319 
f 321/321/321 320/320/320 322/322/322 
f 322/322/322 323/323/323 321/321/321 
f 323/323/323 322/322/322 324/324/324 
f 324/324/324 325/325/325 323/323/323 
f 325/325/325 324/324/324 326/326/326 
f 326/326/326 327/327/327 325/325/325 
f 310/310/310 309/309/309 327/327/327 
f 327/327/327 326/326/326 310/310/310 
f 312/312/312 24/24/24 309/309/309 
f 314/314/314 24/24/24 312/312/312 
f 316/316/316 24/24/24 314/314/314 
f 25/25/25 24/24/24 316/316/316 
f 319/319/319 24/24/24 12/12/12 
f 321/321/321 24/24/24 319/319/319 
f 323/323/323 24/24/24 321/321/321 
f 325/325/325 24/24/24 323/323/323 
f 327/327/327 24/24/24 325/325/325 
f 309/309/309 24/24/24 327/327/327 
f 328/328/328 329/329/329 26/26/26 
f 26/26/26 29/29/29 328/328/328 
f 330/330/330 331/331/331 332/332/332 
f 332/332/332 333/333/333 330/330/330 
f 330/330/330 333/333/333 334/334/334 
f 334/334/334 335/335/335 330/330/330 
f 336/336/336 335/335/335 334/334/334 
f 334/334/334 337/337/337 336/336/336 
f 338/338/338 339/339/339 340/340/340 
f 340/340/340 341/341/341 338/338/338 
f 342/342/342 338/338/338 341/341/341 
f 341/341/341 343/343/343 342/342/342 
f 344/344/344 342/342/342 343/343/343 
f 343/343/343 345/345/345 344/344/344 
f 344/344/344 345/345/345 346/346/346 
f 346/346/346 347/347/347 344/344/344 
f 348/348/348 49/49/49 48/48/48 
f 48/48/48 349/349/349 348/348/348 
f 350/350/350 351/351/351 348/348/348 
f 348/348/348 349/349/349 350/350/350 
f 331/331/331 351/351/351 350/350/350 
f 350/350/350 332/332/332 331/331/331 
f 352/352/352 353/353/353 354/354/354 
f 354/354/354 355/355/355 352/352/352 
f 356/356/356 357/357/357 352/352/352 
f 352/352/352 355/355/355 356/356/356 
f 358/358/358 357/357/357 356/356/356 
f 356/356/356 359/359/359 358/358/358 
f 360/360/360 358/358/358 359/359/359 
f 359/359/359 361/361/361 360/360/360 
f 362/362/362 363/363/363 360/360/360 
f 360/360/360 361/361/361 362/362/362 
f 364/364/364 365/365/365 363/363/363 
f 363/363/363 362/362/362 364/364/364 
f 366/366/366 367/367/367 365/365/365 
f 365/365/365 364/364/364 366/366/366 
f 70/70/70 367/367/367 366/366/366 
f 366/366/366 71/71/71 70/70/70 
f 317/317/317 368/368/368 72/72/72 
f 72/72/72 10/10/10 317/317/317 
f 353/353/353 368/368/368 317/317/317 
f 317/317/317 354/354/354 353/353/353 
f 369/369/369 370/370/370 371/371/371 
f 371/371/371 372/372/372 369/369/369 
f 371/371/371 373/373/373 374/374/374 
f 374/374/374 375/375/375 371/371/371 
f 373/373/373 376/376/376 377/377/377 
f 377/377/377 374/374/374 373/373/373 
f 377/377/377 376/376/376 84/84/84 
f 84/84/84 83/83/83 377/377/377 
f 378/378/378 379/379/379 85/85/85 
f 85/85/85 88/88/88 378/378/378 
f 378/378/378 380/380/380 381/381/381 
f 381/381/381 379/379/379 378/378/378 
f 381/381/381 380/380/380 382/382/382 
f 382/382/382 383/383/383 381/381/381 
f 384/384/384 385/385/385 382/382/382 
f 382/382/382 386/386/386 384/384/384 
f 387/387/387 97/97/97 96/96/96 
f 96/96/96 388/388/388 387/387/387 
f 389/389/389 387/387/387 388/388/388 
f 388/388/388 390/390/390 389/389/389 
f 391/391/391 392/392/392 389/389/389 
f 389/389/389 390/390/390 391/391/391 
f 393/393/393 392/392/392 391/391/391 
f 391/391/391 394/394/394 393/393/393 
f 395/395/395 396/396/396 397/397/397 
f 397/397/397 398/398/398 395/395/395 
f 399/399/399 396/396/396 395/395/395 
f 395/395/395 400/400/400 399/399/399 
f 401/401/401 399/399/399 400/400/400 
f 400/400/400 402/402/402 401/401/401 
f 401/401/401 402/402/402 114/114/114 
f 114/114/114 115/115/115 401/401/401 
f 401/401/401 403/403/403 404/404/404 
f 404/404/404 399/399/399 401/401/401 
f 403/403/403 401/401/401 115/115/115 
f 115/115/115 118/118/118 403/403/403 
f 349/349/349 48/48/48 97/97/97 
f 97/97/97 387/387/387 349/349/349 
f 350/350/350 349/349/349 387/387/387 
f 387/387/387 389/389/389 350/350/350 
f 332/332/332 350/350/350 389/389/389 
f 389/389/389 392/392/392 332/332/332 
f 333/333/333 332/332/332 392/392/392 
f 392/392/392 393/393/393 333/333/333 
f 405/405/405 337/337/337 397/397/397 
f 397/397/397 396/396/396 405/405/405 
f 404/404/404 405/405/405 396/396/396 
f 396/396/396 399/399/399 404/404/404 
f 406/406/406 407/407/407 408/408/408 
f 408/408/408 409/409/409 406/406/406 
f 410/410/410 409/409/409 411/411/411 
f 126/126/126 409/409/409 410/410/410 
f 410/410/410 127/127/127 126/126/126 
f 412/412/412 129/129/129 128/128/128 
f 128/128/128 413/413/413 412/412/412 
f 414/414/414 415/415/415 412/412/412 
f 412/412/412 413/413/413 414/414/414 
f 329/329/329 328/328/328 416/416/416 
f 416/416/416 417/417/417 329/329/329 
f 418/418/418 419/419/419 420/420/420 
f 420/420/420 421/421/421 418/418/418 
f 422/422/422 418/418/418 421/421/421 
f 421/421/421 423/423/423 422/422/422 
f 424/424/424 422/422/422 423/423/423 
f 423/423/423 425/425/425 424/424/424 
f 344/344/344 347/347/347 426/426/426 
f 426/426/426 427/427/427 344/344/344 
f 428/428/428 146/146/146 49/49/49 
f 49/49/49 348/348/348 428/428/428 
f 351/351/351 429/429/429 428/428/428 
f 428/428/428 348/348/348 351/351/351 
f 331/331/331 430/430/430 429/429/429 
f 429/429/429 351/351/351 331/331/331 
f 330/330/330 431/431/431 430/430/430 
f 430/430/430 331/331/331 330/330/330 
f 431/431/431 330/330/330 335/335/335 
f 335/335/335 432/432/432 431/431/431 
f 336/336/336 420/420/420 432/432/432 
f 432/432/432 335/335/335 336/336/336 
f 71/71/71 366/366/366 318/318/318 
f 318/318/318 15/15/15 71/71/71 
f 313/313/313 354/354/354 317/317/317 
f 317/317/317 315/315/315 313/313/313 
f 355/355/355 354/354/354 313/313/313 
f 313/313/313 311/311/311 355/355/355 
f 356/356/356 355/355/355 311/311/311 
f 311/311/311 310/310/310 356/356/356 
f 356/356/356 310/310/310 326/326/326 
f 326/326/326 359/359/359 356/356/356 
f 324/324/324 361/361/361 359/359/359 
f 359/359/359 326/326/326 324/324/324 
f 322/322/322 362/362/362 361/361/361 
f 361/361/361 324/324/324 322/322/322 
f 320/320/320 364/364/364 362/362/362 
f 362/362/362 322/322/322 320/320/320 
f 318/318/318 366/366/366 364/364/364 
f 364/364/364 320/320/320 318/318/318 
f 433/433/433 155/155/155 154/154/154 
f 154/154/154 434/434/434 433/433/433 
f 435/435/435 433/433/433 434/434/434 
f 434/434/434 436/436/436 435/435/435 
f 437/437/437 435/435/435 436/436/436 
f 436/436/436 370/370/370 437/437/437 
f 438/438/438 437/437/437 370/370/370 
f 370/370/370 369/369/369 438/438/438 
f 439/439/439 438/438/438 369/369/369 
f 369/369/369 440/440/440 439/439/439 
f 384/384/384 441/441/441 439/439/439 
f 439/439/439 440/440/440 384/384/384 
f 441/441/441 384/384/384 386/386/386 
f 386/386/386 442/442/442 441/441/441 
f 442/442/442 386/386/386 443/443/443 
f 443/443/443 444/444/444 442/442/442 
f 445/445/445 444/444/444 443/443/443 
f 443/443/443 446/446/446 445/445/445 
f 445/445/445 446/446/446 168/168/168 
f 168/168/168 169/169/169 445/445/445 
f 394/394/394 447/447/447 448/448/448 
f 448/448/448 393/393/393 394/394/394 
f 397/397/397 337/337/337 334/334/334 
f 334/334/334 448/448/448 397/397/397 
f 448/448/448 334/334/334 333/333/333 
f 333/333/333 393/393/393 448/448/448 
f 440/440/440 449/449/449 385/385/385 
f 385/385/385 384/384/384 440/440/440 
f 154/154/154 84/84/84 376/376/376 
f 376/376/376 434/434/434 154/154/154 
f 436/436/436 434/434/434 376/376/376 
f 376/376/376 373/373/373 436/436/436 
f 370/370/370 436/436/436 373/373/373 
f 373/373/373 371/371/371 370/370/370 
f 386/386/386 382/382/382 380/380/380 
f 380/380/380 443/443/443 386/386/386 
f 446/446/446 443/443/443 380/380/380 
f 380/380/380 378/378/378 446/446/446 
f 446/446/446 378/378/378 88/88/88 
f 88/88/88 168/168/168 446/446/446 
f 385/385/385 450/450/450 383/383/383 
f 383/383/383 382/382/382 385/385/385 
f 385/385/385 449/449/449 451/451/451 
f 451/451/451 450/450/450 385/385/385 
f 372/372/372 371/371/371 375/375/375 
f 375/375/375 452/452/452 372/372/372 
f 372/372/372 449/449/449 440/440/440 
f 440/440/440 369/369/369 372/372/372 
f 368/368/368 453/453/453 176/176/176 
f 176/176/176 72/72/72 368/368/368 
f 353/353/353 454/454/454 453/453/453 
f 453/453/453 368/368/368 353/353/353 
f 352/352/352 455/455/455 454/454/454 
f 454/454/454 353/353/353 352/352/352 
f 456/456/456 455/455/455 352/352/352 
f 352/352/352 357/357/357 456/456/456 
f 457/457/457 456/456/456 357/357/357 
f 357/357/357 358/358/358 457/457/457 
f 360/360/360 458/458/458 457/457/457 
f 457/457/457 358/358/358 360/360/360 
f 363/363/363 459/459/459 458/458/458 
f 458/458/458 360/360/360 363/363/363 
f 365/365/365 460/460/460 459/459/459 
f 459/459/459 363/363/363 365/365/365 
f 461/461/461 460/460/460 365/365/365 
f 365/365/365 367/367/367 461/461/461 
f 461/461/461 367/367/367 70/70/70 
f 70/70/70 186/186/186 461/461/461 
f 406/406/406 409/409/409 126/126/126 
f 126/126/126 187/187/187 406/406/406 
f 188/188/188 462/462/462 463/463/463 
f 463/463/463 189/189/189 188/188/188 
f 464/464/464 403/403/403 118/118/118 
f 118/118/118 193/193/193 464/464/464 
f 427/427/427 465/465/465 342/342/342 
f 342/342/342 344/344/344 427/427/427 
f 465/465/465 466/466/466 338/338/338 
f 338/338/338 342/342/342 465/465/465 
f 466/466/466 467/467/467 339/339/339 
f 339/339/339 338/338/338 466/466/466 
f 415/415/415 416/416/416 328/328/328 
f 328/328/328 412/412/412 415/415/415 
f 129/129/129 412/412/412 328/328/328 
f 328/328/328 29/29/29 129/129/129 
f 417/417/417 407/407/407 406/406/406 
f 406/406/406 329/329/329 417/417/417 
f 329/329/329 406/406/406 187/187/187 
f 187/187/187 26/26/26 329/329/329 
f 468/468/468 469/469/469 337/337/337 
f 337/337/337 405/405/405 468/468/468 
f 337/337/337 469/469/469 470/470/470 
f 470/470/470 336/336/336 337/337/337 
f 471/471/471 468/468/468 405/405/405 
f 405/405/405 404/404/404 471/471/471 
f 472/472/472 471/471/471 404/404/404 
f 404/404/404 403/403/403 472/472/472 
f 464/464/464 473/473/473 472/472/472 
f 472/472/472 403/403/403 464/464/464 
f 462/462/462 474/474/474 475/475/475 
f 475/475/475 463/463/463 462/462/462 
f 476/476/476 477/477/477 425/425/425 
f 425/425/425 423/423/423 476/476/476 
f 478/478/478 476/476/476 423/423/423 
f 423/423/423 421/421/421 478/478/478 
f 336/336/336 470/470/470 479/479/479 
f 479/479/479 420/420/420 336/336/336 
f 479/479/479 478/478/478 421/421/421 
f 421/421/421 420/420/420 479/479/479 
f 475/475/475 473/473/473 464/464/464 
f 464/464/464 463/463/463 475/475/475 
f 463/463/463 464/464/464 193/193/193 
f 193/193/193 189/189/189 463/463/463 
f 425/425/425 477/477/477 474/474/474 
f 474/474/474 462/462/462 425/425/425 
f 480/480/480 462/462/462 188/188/188 
f 188/188/188 210/210/210 480/480/480 
f 481/481/481 211/211/211 146/146/146 
f 146/146/146 428/428/428 481/481/481 
f 429/429/429 482/482/482 481/481/481 
f 481/481/481 428/428/428 429/429/429 
f 430/430/430 483/483/483 482/482/482 
f 482/482/482 429/429/429 430/430/430 
f 431/431/431 484/484/484 483/483/483 
f 483/483/483 430/430/430 431/431/431 
f 485/485/485 484/484/484 431/431/431 
f 431/431/431 432/432/432 485/485/485 
f 419/419/419 485/485/485 432/432/432 
f 432/432/432 420/420/420 419/419/419 
f 480/480/480 424/424/424 425/425/425 
f 425/425/425 462/462/462 480/480/480 
f 409/409/409 408/408/408 486/486/486 
f 486/486/486 411/411/411 409/409/409 
f 487/487/487 218/218/218 211/211/211 
f 211/211/211 481/481/481 487/487/487 
f 488/488/488 487/487/487 481/481/481 
f 481/481/481 482/482/482 488/488/488 
f 483/483/483 489/489/489 488/488/488 
f 488/488/488 482/482/482 483/483/483 
f 490/490/490 489/489/489 483/483/483 
f 483/483/483 484/484/484 490/490/490 
f 491/491/491 490/490/490 484/484/484 
f 484/484/484 485/485/485 491/491/491 
f 492/492/492 491/491/491 485/485/485 
f 485/485/485 419/419/419 492/492/492 
f 418/418/418 493/493/493 492/492/492 
f 492/492/492 419/419/419 418/418/418 
f 422/422/422 494/494/494 493/493/493 
f 493/493/493 418/418/418 422/422/422 
f 495/495/495 494/494/494 422/422/422 
f 422/422/422 424/424/424 495/495/495 
f 496/496/496 495/495/495 424/424/424 
f 424/424/424 480/480/480 496/496/496 
f 229/229/229 496/496/496 480/480/480 
f 480/480/480 210/210/210 229/229/229 
f 497/497/497 230/230/230 218/218/218 
f 218/218/218 487/487/487 497/497/497 
f 498/498/498 497/497/497 487/487/487 
f 487/487/487 488/488/488 498/498/498 
f 499/499/499 498/498/498 488/488/488 
f 488/488/488 489/489/489 499/499/499 
f 489/489/489 490/490/490 500/500/500 
f 500/500/500 499/499/499 489/489/489 
f 501/501/501 500/500/500 490/490/490 
f 490/490/490 491/491/491 501/501/501 
f 501/501/501 491/491/491 492/492/492 
f 492/492/492 502/502/502 501/501/501 
f 502/502/502 492/492/492 493/493/493 
f 493/493/493 503/503/503 502/502/502 
f 503/503/503 493/493/493 494/494/494 
f 494/494/494 504/504/504 503/503/503 
f 505/505/505 504/504/504 494/494/494 
f 494/494/494 495/495/495 505/505/505 
f 506/506/506 505/505/505 495/495/495 
f 495/495/495 496/496/496 506/506/506 
f 241/241/241 506/506/506 496/496/496 
f 496/496/496 229/229/229 241/241/241 
f 9/9/9 25/25/25 316/316/316 
f 316/316/316 315/315/315 9/9/9 
f 397/397/397 448/448/448 447/447/447 
f 447/447/447 398/398/398 397/397/397 
f 452/452/452 451/451/451 449/449/449 
f 449/449/449 372/372/372 452/452/452 
f 507/507/507 340/340/340 339/339/339 
f 339/339/339 508/508/508 507/507/507 
f 509/509/509 341/341/341 340/340/340 
f 340/340/340 507/507/507 509/509/509 
f 343/343/343 341/341/341 509/509/509 
f 509/509/509 510/510/510 343/343/343 
f 345/345/345 343/343/343 510/510/510 
f 510/510/510 511/511/511 345/345/345 
f 346/346/346 345/345/345 511/511/511 
f 511/511/511 512/512/512 346/346/346 
f 347/347/347 346/346/346 512/512/512 
f 512/512/512 513/513/513 347/347/347 
f 514/514/514 426/426/426 347/347/347 
f 347/347/347 513/513/513 514/514/514 
f 515/515/515 427/427/427 426/426/426 
f 426/426/426 514/514/514 515/515/515 
f 516/516/516 465/465/465 427/427/427 
f 427/427/427 515/515/515 516/516/516 
f 466/466/466 465/465/465 516/516/516 
f 516/516/516 517/517/517 466/466/466 
f 467/467/467 466/466/466 517/517/517 
f 517/517/517 518/518/518 467/467/467 
f 508/508/508 339/339/339 467/467/467 
f 467/467/467 518/518/518 508/508/508 
f 507/507/507 469/469/469 468/468/468 
f 468/468/468 509/509/509 507/507/507 
f 510/510/510 509/509/509 468/468/468 
f 468/468/468 471/471/471 510/510/510 
f 511/511/511 510/510/510 471/471/471 
f 471/471/471 472/472/472 511/511/511 
f 512/512/512 511/511/511 472/472/472 
f 472/472/472 473/473/473 512/512/512 
f 513/513/513 512/512/512 473/473/473 
f 473/473/473 475/475/475 513/513/513 
f 474/474/474 514/514/514 513/513/513 
f 513/513/513 475/475/475 474/474/474 
f 514/514/514 474/474/474 477/477/477 
f 477/477/477 515/515/515 514/514/514 
f 516/516/516 515/515/515 477/477/477 
f 477/477/477 476/476/476 516/516/516 
f 517/517/517 516/516/516 476/476/476 
f 476/476/476 478/478/478 517/517/517 
f 518/518/518 517/517/517 478/478/478 
f 478/478/478 479/479/479 518/518/518 
f 518/518/518 479/479/479 470/470/470 
f 470/470/470 508/508/508 518/518/518 
f 508/508/508 470/470/470 469/469/469 
f 469/469/469 507/507/507 508/508/508 
f 254/254/254 155/155/155 433/433/433 
f 433/433/433 519/519/519 254/254/254 
f 519/519/519 433/433/433 435/435/435 
f 435/435/435 520/520/520 519/519/519 
f 521/521/521 520/520/520 435/435/435 
f 435/435/435 437/437/437 521/521/521 
f 522/522/522 521/521/521 437/437/437 
f 437/437/437 438/438/438 522/522/522 
f 523/523/523 522/522/522 438/438/438 
f 438/438/438 439/439/439 523/523/523 
f 524/524/524 523/523/523 439/439/439 
f 439/439/439 441/441/441 524/524/524 
f 525/525/525 524/524/524 441/441/441 
f 441/441/441 442/442/442 525/525/525 
f 526/526/526 525/525/525 442/442/442 
f 442/442/442 444/444/444 526/526/526 
f 527/527/527 526/526/526 444/444/444 
f 444/444/444 445/445/445 527/527/527 
f 527/527/527 445/445/445 169/169/169 
f 169/169/169 264/264/264 527/527/527 
f 265/265/265 528/528/528 377/377/377 
f 377/377/377 83/83/83 265/265/265 
f 528/528/528 529/529/529 374/374/374 
f 374/374/374 377/377/377 528/528/528 
f 529/529/529 530/530/530 375/375/375 
f 375/375/375 374/374/374 529/529/529 
f 530/530/530 531/531/531 452/452/452 
f 452/452/452 375/375/375 530/530/530 
f 531/531/531 532/532/532 451/451/451 
f 451/451/451 452/452/452 531/531/531 
f 532/532/532 533/533/533 450/450/450 
f 450/450/450 451/451/451 532/532/532 
f 533/533/533 534/534/534 383/383/383 
f 383/383/383 450/450/450 533/533/533 
f 534/534/534 535/535/535 381/381/381 
f 381/381/381 383/383/383 534/534/534 
f 535/535/535 536/536/536 379/379/379 
f 379/379/379 381/381/381 535/535/535 
f 536/536/536 275/275/275 85/85/85 
f 85/85/85 379/379/379 536/536/536 
f 537/537/537 277/277/277 276/276/276 
f 276/276/276 538/538/538 537/537/537 
f 539/539/539 537/537/537 538/538/538 
f 538/538/538 540/540/540 539/539/539 
f 541/541/541 539/539/539 540/540/540 
f 540/540/540 542/542/542 541/541/541 
f 543/543/543 541/541/541 542/542/542 
f 542/542/542 544/544/544 543/543/543 
f 545/545/545 543/543/543 544/544/544 
f 544/544/544 546/546/546 545/545/545 
f 547/547/547 548/548/548 545/545/545 
f 545/545/545 546/546/546 547/547/547 
f 549/549/549 548/548/548 547/547/547 
f 547/547/547 550/550/550 549/549/549 
f 551/551/551 549/549/549 550/550/550 
f 550/550/550 552/552/552 551/551/551 
f 553/553/553 551/551/551 552/552/552 
f 552/552/552 554/554/554 553/553/553 
f 296/296/296 553/553/553 554/554/554 
f 554/554/554 297/297/297 296/296/296 
f 264/264/264 299/299/299 555/555/555 
f 555/555/555 527/527/527 264/264/264 
f 527/527/527 555/555/555 556/556/556 
f 556/556/556 526/526/526 527/527/527 
f 525/525/525 526/526/526 556/556/556 
f 556/556/556 557/557/557 525/525/525 
f 524/524/524 525/525/525 557/557/557 
f 557/557/557 558/558/558 524/524/524 
f 523/523/523 524/524/524 558/558/558 
f 558/558/558 559/559/559 523/523/523 
f 522/522/522 523/523/523 559/559/559 
f 559/559/559 560/560/560 522/522/522 
f 522/522/522 560/560/560 561/561/561 
f 561/561/561 521/521/521 522/522/522 
f 521/521/521 561/561/561 562/562/562 
f 562/562/562 520/520/520 521/521/521 
f 520/520/520 562/562/562 563/563/563 
f 563/563/563 519/519/519 520/520/520 
f 519/519/519 563/563/563 308/308/308 
f 308/308/308 254/254/254 519/519/519 
f 402/402/402 400/400/400 551/551/551 
f 551/551/551 553/553/553 402/402/402 
f 402/402/402 553/553/553 296/296/296 
f 296/296/296 114/114/114 402/402/402 
f 388/388/388 96/96/96 277/277/277 
f 277/277/277 537/537/537 388/388/388 
f 390/390/390 388/388/388 537/537/537 
f 537/537/537 539/539/539 390/390/390 
f 391/391/391 390/390/390 539/539/539 
f 539/539/539 541/541/541 391/391/391 
f 394/394/394 391/391/391 541/541/541 
f 541/541/541 543/543/543 394/394/394 
f 447/447/447 394/394/394 543/543/543 
f 543/543/543 545/545/545 447/447/447 
f 398/398/398 447/447/447 545/545/545 
f 545/545/545 548/548/548 398/398/398 
f 395/395/395 398/398/398 548/548/548 
f 548/548/548 549/549/549 395/395/395 
f 400/400/400 395/395/395 549/549/549 
f 549/549/549 551/551/551 400/400/400 
f 554/554/554 552/552/552 529/529/529 
f 529/529/529 528/528/528 554/554/554 
f 297/297/297 554/554/554 528/528/528 
f 528/528/528 265/265/265 297/297/297 
f 538/538/538 276/276/276 275/275/275 
f 275/275/275 536/536/536 538/538/538 
f 540/540/540 538/538/538 536/536/536 
f 536/536/536 535/535/535 540/540/540 
f 542/542/542 540/540/540 535/535/535 
f 535/535/535 534/534/534 542/542/542 
f 544/544/544 542/542/542 534/534/534 
f 534/534/534 533/533/533 544/544/544 
f 546/546/546 544/544/544 533/533/533 
f 533/533/533 532/532/532 546/546/546 
f 547/547/547 546/546/546 532/532/532 
f 532/532/532 531/531/531 547/547/547 
f 550/550/550 547/547/547 531/531/531 
f 531/531/531 530/530/530 550/550/550 
f 552/552/552 550/550/550 530/530/530 
f 530/530/530 529/529/529 552/552/552 

