# This file is brought to you by Roblox Corporation
# Generated by Roblox Studio

mtllib GuestCap.mtl

g Handle1

v -136.24 259.455 -130.758 
v -136.231 259.464 -130.761 
v -136.239 259.459 -130.821 
v -136.245 259.452 -130.822 
v -136.26 259.438 -130.944 
v -136.251 259.449 -130.946 
v -136.255 259.445 -130.97 
v -136.264 259.432 -130.969 
v -136.248 259.454 -130.892 
v -136.248 259.453 -130.902 
v -136.255 259.444 -130.9 
v -136.254 259.446 -130.89 
v -136.24 259.459 -130.833 
v -136.247 259.451 -130.834 
v -136.251 259.449 -130.861 
v -136.244 259.457 -130.861 
v -136.278 259.415 -130.942 
v -136.277 259.417 -130.968 
v -136.282 259.41 -130.967 
v -136.284 259.407 -130.942 
v -136.285 259.406 -130.897 
v -136.286 259.405 -130.887 
v -136.28 259.413 -130.888 
v -136.28 259.413 -130.898 
v -136.287 259.403 -130.86 
v -136.281 259.411 -130.86 
v -136.289 259.4 -130.835 
v -136.291 259.397 -130.823 
v -136.284 259.407 -130.822 
v -136.283 259.408 -130.835 
v -136.272 259.4 -130.736 
v -136.255 259.418 -130.743 
v -136.271 259.401 -130.822 
v -136.278 259.391 -130.823 
v -136.31 259.367 -130.937 
v -136.315 259.359 -130.961 
v -136.306 259.373 -130.894 
v -136.305 259.375 -130.883 
v -136.298 259.386 -130.824 
v -136.299 259.384 -130.837 
v -136.284 259.38 -130.824 
v -136.278 259.39 -130.732 
v -136.317 259.356 -130.936 
v -136.322 259.347 -130.96 
v -136.313 259.363 -130.882 
v -136.313 259.362 -130.892 
v -136.307 259.372 -130.824 
v -136.308 259.371 -130.838 
v -136.286 259.377 -130.729 
v -136.293 259.366 -130.824 
v -136.3 259.356 -130.892 
v -136.301 259.353 -130.905 
v -136.31 259.34 -130.897 
v -136.308 259.342 -130.891 
v -136.308 259.342 -130.88 
v -136.299 259.357 -130.882 
v -136.307 259.344 -130.825 
v -136.294 259.365 -130.838 
v -136.307 259.344 -130.838 
v -136.303 259.35 -130.723 
v -136.244 259.457 -130.861 
v -136.251 259.449 -130.861 
v -136.296 259.361 -130.859 
v -136.308 259.343 -130.858 
v -136.302 259.379 -130.863 
v -136.31 259.367 -130.859 
v -136.292 259.367 -130.894 
v -136.294 259.365 -130.907 
v -136.272 259.4 -130.897 
v -136.271 259.401 -130.919 
v -136.266 259.407 -130.898 
v -136.265 259.408 -130.92 
v -136.25 259.451 -130.924 
v -136.257 259.442 -130.922 
v -136.302 259.352 -130.912 
v -136.309 259.34 -130.906 
v -136.37 259.241 -130.873 
v -136.371 259.239 -130.859 
v -136.336 259.321 -130.888 
v -136.336 259.321 -130.898 
v -136.332 259.329 -130.893 
v -136.333 259.328 -130.9 
v -136.319 259.322 -130.9 
v -136.318 259.323 -130.893 
v -136.318 259.324 -130.887 
v -136.318 259.325 -130.881 
v -136.336 259.321 -130.888 
v -136.335 259.321 -130.885 
v -136.332 259.33 -130.887 
v -136.332 259.329 -130.893 
v -136.335 259.322 -130.88 
v -136.331 259.331 -130.881 
v -136.295 259.364 -130.914 
v -136.271 259.401 -130.924 
v -136.265 259.409 -130.925 
v -136.25 259.451 -130.928 
v -136.257 259.441 -130.926 
v -136.323 259.347 -130.935 
v -136.332 259.329 -130.959 
v -136.333 259.328 -130.933 
v -136.336 259.321 -130.958 
v -136.336 259.321 -130.933 
v -136.363 259.258 -130.954 
v -136.366 259.25 -130.924 
v -136.336 259.321 -130.933 
v -136.336 259.321 -130.958 
v -136.265 259.409 -130.942 
v -136.27 259.402 -130.942 
v -136.296 259.361 -130.937 
v -136.303 259.35 -130.936 
v -136.309 259.341 -130.935 
v -136.319 259.322 -130.933 
v -136.322 259.315 -130.933 
v -136.322 259.315 -130.898 
v -136.353 259.244 -130.924 
v -136.356 259.235 -130.873 
v -136.369 259.244 -130.954 
v -136.372 259.237 -130.923 
v -136.378 259.222 -130.868 
v -136.38 259.217 -130.851 
v -136.244 259.435 -130.926 
v -136.246 259.433 -130.944 
v -136.243 259.436 -130.922 
v -136.241 259.439 -130.9 
v -136.266 259.407 -130.888 
v -136.241 259.44 -130.89 
v -136.267 259.406 -130.86 
v -136.237 259.443 -130.861 
v -136.269 259.403 -130.835 
v -136.233 259.445 -130.834 
v -136.231 259.447 -130.822 
v -136.226 259.449 -130.758 
v -136.317 259.356 -130.723 
v -136.319 259.353 -130.698 
v -136.301 259.382 -130.709 
v -136.3 259.383 -130.729 
v -136.287 259.403 -130.719 
v -136.292 259.396 -130.732 
v -136.285 259.405 -130.736 
v -136.262 259.433 -130.729 
v -136.269 259.424 -130.743 
v -136.24 259.457 -130.739 
v -136.232 259.465 -130.743 
v -136.317 259.326 -130.875 
v -136.335 259.321 -130.869 
v -136.331 259.331 -130.875 
v -136.315 259.33 -130.844 
v -136.316 259.328 -130.859 
v -136.321 259.317 -130.851 
v -136.32 259.319 -130.834 
v -136.353 259.243 -130.792 
v -136.35 259.249 -130.76 
v -136.372 259.237 -130.84 
v -136.37 259.241 -130.828 
v -136.364 259.218 -130.775 
v -136.357 259.221 -130.735 
v -136.382 259.212 -130.83 
v -136.38 259.217 -130.815 
v -136.383 259.205 -130.765 
v -136.373 259.206 -130.723 
v -136.37 259.226 -130.735 
v -136.377 259.224 -130.775 
v -136.39 259.195 -130.821 
v -136.388 259.198 -130.808 
v -136.322 259.315 -130.869 
v -136.356 259.235 -130.828 
v -136.367 259.211 -130.815 
v -136.329 259.337 -130.826 
v -136.329 259.336 -130.844 
v -136.334 259.325 -130.834 
v -136.333 259.326 -130.817 
v -136.363 259.255 -130.76 
v -136.361 259.26 -130.737 
v -136.361 259.26 -130.737 
v -136.363 259.255 -130.76 
v -136.365 259.234 -130.707 
v -136.364 259.206 -130.677 
v -136.315 259.331 -130.826 
v -136.315 259.332 -130.743 
v -136.335 259.322 -130.737 
v -136.328 259.337 -130.743 
v -136.231 259.447 -130.822 
v -136.226 259.449 -130.758 
v -136.195 259.449 -130.761 
v -136.203 259.444 -130.821 
v -136.215 259.434 -130.946 
v -136.219 259.429 -130.97 
v -136.229 259.417 -130.969 
v -136.241 259.439 -130.9 
v -136.241 259.44 -130.89 
v -136.212 259.438 -130.892 
v -136.212 259.438 -130.902 
v -136.233 259.445 -130.834 
v -136.204 259.443 -130.833 
v -136.237 259.443 -130.861 
v -136.209 259.441 -130.861 
v -136.241 259.401 -130.968 
v -136.246 259.394 -130.967 
v -136.27 259.402 -130.942 
v -136.265 259.409 -130.942 
v -136.279 259.343 -130.961 
v -136.296 259.361 -130.937 
v -136.287 259.332 -130.96 
v -136.303 259.35 -130.936 
v -136.237 259.443 -130.861 
v -136.209 259.441 -130.861 
v -136.243 259.436 -130.922 
v -136.214 259.436 -130.924 
v -136.322 259.315 -130.898 
v -136.356 259.235 -130.873 
v -136.335 259.224 -130.859 
v -136.3 259.305 -130.888 
v -136.318 259.323 -130.893 
v -136.319 259.322 -130.9 
v -136.318 259.324 -130.887 
v -136.318 259.323 -130.893 
v -136.3 259.305 -130.888 
v -136.299 259.306 -130.885 
v -136.318 259.325 -130.881 
v -136.299 259.306 -130.88 
v -136.244 259.435 -130.926 
v -136.214 259.435 -130.928 
v -136.309 259.341 -130.935 
v -136.319 259.322 -130.933 
v -136.296 259.314 -130.959 
v -136.322 259.315 -130.933 
v -136.3 259.305 -130.958 
v -136.353 259.244 -130.924 
v -136.322 259.315 -130.933 
v -136.3 259.305 -130.958 
v -136.327 259.242 -130.954 
v -136.246 259.433 -130.944 
v -136.333 259.228 -130.954 
v -136.336 259.222 -130.923 
v -136.342 259.206 -130.868 
v -136.344 259.202 -130.851 
v -136.286 259.377 -130.729 
v -136.303 259.35 -130.723 
v -136.283 259.338 -130.698 
v -136.265 259.366 -130.709 
v -136.278 259.39 -130.732 
v -136.251 259.388 -130.719 
v -136.272 259.4 -130.736 
v -136.255 259.418 -130.743 
v -136.226 259.417 -130.729 
v -136.204 259.442 -130.739 
v -136.196 259.45 -130.743 
v -136.317 259.326 -130.875 
v -136.322 259.315 -130.869 
v -136.336 259.221 -130.84 
v -136.356 259.235 -130.828 
v -136.346 259.197 -130.83 
v -136.367 259.211 -130.815 
v -136.357 259.221 -130.735 
v -136.364 259.218 -130.775 
v -136.347 259.189 -130.765 
v -136.338 259.191 -130.723 
v -136.354 259.18 -130.821 
v -136.352 259.183 -130.808 
v -136.315 259.33 -130.844 
v -136.32 259.319 -130.834 
v -136.315 259.331 -130.826 
v -136.35 259.249 -130.76 
v -136.325 259.245 -130.737 
v -136.298 259.31 -130.817 
v -136.35 259.249 -130.76 
v -136.329 259.218 -130.707 
v -136.325 259.245 -130.737 
v -136.328 259.19 -130.677 
v -136.315 259.332 -130.743 
v -136.299 259.306 -130.737 
v -136.266 259.407 -130.888 
v -136.266 259.407 -130.898 
v -136.272 259.4 -130.897 
v -136.267 259.406 -130.86 
v -136.272 259.399 -130.887 
v -136.273 259.397 -130.86 
v -136.271 259.401 -130.822 
v -136.269 259.403 -130.835 
v -136.278 259.391 -130.823 
v -136.292 259.367 -130.894 
v -136.291 259.369 -130.883 
v -136.276 259.394 -130.835 
v -136.286 259.378 -130.837 
v -136.284 259.38 -130.824 
v -136.3 259.356 -130.892 
v -136.299 259.357 -130.882 
v -136.294 259.365 -130.838 
v -136.293 259.366 -130.824 
v -136.289 259.373 -130.863 
v -136.296 259.361 -130.859 
v -135.753 259.555 -130.855 
v -135.753 259.549 -130.648 
v -135.689 259.549 -130.658 
v -135.632 259.549 -130.688 
v -135.586 259.549 -130.733 
v -135.557 259.549 -130.791 
v -135.547 259.549 -130.855 
v -135.557 259.549 -130.918 
v -135.586 259.549 -130.976 
v -135.632 259.549 -131.022 
v -135.689 259.549 -131.051 
v -135.753 259.549 -131.061 
v -135.817 259.549 -131.051 
v -135.753 259.555 -130.855 
v -135.817 259.549 -131.051 
v -135.874 259.549 -131.022 
v -135.92 259.549 -130.976 
v -135.949 259.549 -130.918 
v -135.96 259.549 -130.855 
v -135.949 259.549 -130.791 
v -135.92 259.549 -130.733 
v -135.874 259.549 -130.688 
v -135.817 259.549 -130.658 
v -135.817 259.549 -130.658 
v -135.66 259.533 -130.568 
v -135.753 259.533 -130.553 
v -135.753 259.496 -130.455 
v -135.629 259.496 -130.474 
v -135.576 259.533 -130.611 
v -135.518 259.496 -130.531 
v -135.509 259.533 -130.677 
v -135.43 259.496 -130.62 
v -135.466 259.533 -130.761 
v -135.373 259.496 -130.731 
v -135.452 259.533 -130.855 
v -135.353 259.496 -130.855 
v -135.466 259.533 -130.948 
v -135.373 259.496 -130.978 
v -135.509 259.533 -131.032 
v -135.43 259.496 -131.09 
v -135.576 259.533 -131.099 
v -135.518 259.496 -131.178 
v -135.66 259.533 -131.141 
v -135.629 259.496 -131.235 
v -135.753 259.533 -131.156 
v -135.753 259.496 -131.255 
v -135.846 259.533 -131.141 
v -135.877 259.496 -131.235 
v -135.93 259.533 -131.099 
v -135.846 259.533 -131.141 
v -135.877 259.496 -131.235 
v -135.988 259.496 -131.178 
v -135.997 259.533 -131.032 
v -136.077 259.496 -131.09 
v -136.04 259.533 -130.948 
v -136.133 259.496 -130.978 
v -136.055 259.533 -130.855 
v -136.153 259.496 -130.855 
v -136.04 259.533 -130.761 
v -136.133 259.496 -130.731 
v -135.997 259.533 -130.677 
v -136.077 259.496 -130.62 
v -135.93 259.533 -130.611 
v -135.988 259.496 -130.531 
v -135.846 259.533 -130.568 
v -135.877 259.496 -130.474 
v -135.846 259.533 -130.568 
v -135.877 259.496 -130.474 
v -135.753 259.431 -130.366 
v -135.602 259.431 -130.39 
v -135.466 259.431 -130.459 
v -135.358 259.431 -130.567 
v -135.288 259.431 -130.704 
v -135.264 259.431 -130.855 
v -135.288 259.431 -131.006 
v -135.358 259.431 -131.142 
v -135.466 259.431 -131.25 
v -135.602 259.431 -131.319 
v -135.753 259.431 -131.343 
v -135.904 259.431 -131.319 
v -135.904 259.431 -131.319 
v -136.04 259.431 -131.25 
v -136.148 259.431 -131.142 
v -136.133 259.496 -130.978 
v -136.077 259.496 -131.09 
v -136.148 259.431 -131.142 
v -136.218 259.431 -131.006 
v -136.153 259.496 -130.855 
v -136.242 259.431 -130.855 
v -136.133 259.496 -130.731 
v -136.218 259.431 -130.704 
v -136.077 259.496 -130.62 
v -136.148 259.431 -130.567 
v -136.148 259.431 -130.567 
v -136.04 259.431 -130.459 
v -135.904 259.431 -130.39 
v -135.904 259.431 -130.39 
v -135.753 259.331 -130.295 
v -135.58 259.331 -130.323 
v -135.424 259.331 -130.402 
v -135.301 259.331 -130.526 
v -135.221 259.331 -130.682 
v -135.194 259.331 -130.855 
v -135.221 259.331 -131.027 
v -135.301 259.331 -131.183 
v -135.424 259.331 -131.307 
v -135.58 259.331 -131.386 
v -135.753 259.331 -131.414 
v -135.926 259.331 -131.386 
v -135.926 259.331 -131.386 
v -136.082 259.331 -131.307 
v -136.206 259.331 -131.183 
v -136.206 259.331 -131.183 
v -136.285 259.331 -131.027 
v -136.312 259.331 -130.855 
v -136.285 259.331 -130.682 
v -136.206 259.331 -130.526 
v -136.206 259.331 -130.526 
v -136.082 259.331 -130.402 
v -135.926 259.331 -130.323 
v -135.926 259.331 -130.323 
v -135.753 259.205 -130.25 
v -135.566 259.205 -130.28 
v -135.398 259.205 -130.366 
v -135.264 259.205 -130.499 
v -135.178 259.205 -130.668 
v -135.149 259.205 -130.855 
v -135.178 259.205 -131.041 
v -135.264 259.205 -131.21 
v -135.398 259.205 -131.344 
v -135.566 259.205 -131.429 
v -135.753 259.205 -131.459 
v -135.94 259.205 -131.429 
v -135.94 259.205 -131.429 
v -136.108 259.205 -131.344 
v -136.242 259.205 -131.21 
v -136.242 259.205 -131.21 
v -136.328 259.205 -131.041 
v -136.358 259.205 -130.855 
v -136.328 259.205 -130.668 
v -136.242 259.205 -130.499 
v -136.242 259.205 -130.499 
v -136.108 259.205 -130.366 
v -135.94 259.205 -130.28 
v -135.94 259.205 -130.28 
v -135.562 259.067 -130.268 
v -135.753 259.067 -130.238 
v -135.753 259.044 -130.235 
v -135.561 259.044 -130.265 
v -135.391 259.067 -130.356 
v -135.389 259.044 -130.353 
v -135.254 259.067 -130.492 
v -135.251 259.044 -130.49 
v -135.167 259.067 -130.664 
v -135.163 259.044 -130.663 
v -135.136 259.067 -130.855 
v -135.133 259.044 -130.855 
v -135.167 259.067 -131.045 
v -135.163 259.044 -131.046 
v -135.254 259.067 -131.217 
v -135.251 259.044 -131.219 
v -135.391 259.067 -131.353 
v -135.389 259.044 -131.356 
v -135.562 259.067 -131.441 
v -135.561 259.044 -131.444 
v -135.753 259.067 -131.471 
v -135.753 259.044 -131.475 
v -135.944 259.066 -131.441 
v -135.945 259.044 -131.444 
v -136.507 258.984 -131.356 
v -136.507 258.995 -131.353 
v -136.312 258.986 -131.441 
v -136.311 258.971 -131.444 
v -136.647 258.998 -131.219 
v -136.646 259.011 -131.217 
v -136.739 259.017 -131.046 
v -136.738 259.031 -131.045 
v -136.772 259.029 -130.855 
v -136.77 259.04 -130.855 
v -136.738 259.031 -130.664 
v -136.739 259.017 -130.663 
v -136.646 259.011 -130.492 
v -136.647 258.998 -130.49 
v -136.507 258.995 -130.356 
v -136.507 258.984 -130.353 
v -136.311 258.971 -130.265 
v -136.312 258.986 -130.268 
v -135.944 259.066 -130.268 
v -135.945 259.044 -130.265 
v -136.252 259.121 -130.492 
v -136.115 259.094 -130.356 
v -136.339 259.155 -130.664 
v -136.252 259.121 -130.492 
v -136.37 259.169 -130.855 
v -136.339 259.155 -131.045 
v -136.252 259.121 -131.217 
v -136.252 259.121 -131.217 
v -136.115 259.094 -131.353 
v -135.944 259.066 -131.441 
v -135.944 259.066 -130.268 
v -135.944 259.066 -131.441 
v -135.945 259.044 -131.444 
v -136.311 258.971 -131.444 
v -135.945 259.044 -131.444 
v -136.118 259.062 -131.356 
v -136.507 258.984 -131.356 
v -136.312 258.986 -131.441 
v -136.507 258.995 -131.353 
v -136.115 259.094 -131.353 
v -135.944 259.066 -131.441 
v -136.255 259.098 -131.219 
v -136.647 258.998 -131.219 
v -136.646 259.011 -131.217 
v -136.252 259.121 -131.217 
v -136.343 259.141 -131.046 
v -136.739 259.017 -131.046 
v -136.738 259.031 -131.045 
v -136.339 259.155 -131.045 
v -136.373 259.158 -130.855 
v -136.772 259.029 -130.855 
v -136.77 259.04 -130.855 
v -136.37 259.169 -130.855 
v -136.739 259.017 -130.663 
v -136.343 259.141 -130.663 
v -136.738 259.031 -130.664 
v -136.339 259.155 -130.664 
v -136.647 258.998 -130.49 
v -136.255 259.098 -130.49 
v -136.646 259.011 -130.492 
v -136.252 259.121 -130.492 
v -136.507 258.984 -130.353 
v -136.118 259.062 -130.353 
v -136.507 258.995 -130.356 
v -136.115 259.094 -130.356 
v -136.312 258.986 -130.268 
v -135.944 259.066 -130.268 
v -136.311 258.971 -130.265 
v -135.945 259.044 -130.265 
v -135.945 259.044 -130.265 
v -135.944 259.066 -130.268 
v -135.561 259.044 -130.265 
v -135.753 259.044 -130.235 
v -135.753 259.101 -130.855 
v -135.389 259.044 -130.353 
v -135.251 259.044 -130.49 
v -135.163 259.044 -130.663 
v -135.133 259.044 -130.855 
v -135.163 259.044 -131.046 
v -135.251 259.044 -131.219 
v -135.389 259.044 -131.356 
v -135.561 259.044 -131.444 
v -135.753 259.044 -131.475 
v -135.717 259.561 -130.819 
v -135.714 259.55 -130.816 
v -135.698 259.55 -130.855 
v -135.702 259.561 -130.855 
v -135.714 259.55 -130.894 
v -135.717 259.561 -130.891 
v -135.753 259.55 -130.91 
v -135.753 259.561 -130.906 
v -135.792 259.55 -130.894 
v -135.789 259.561 -130.891 
v -135.808 259.55 -130.855 
v -135.804 259.561 -130.855 
v -135.792 259.55 -130.816 
v -135.789 259.561 -130.819 
v -135.753 259.55 -130.8 
v -135.753 259.561 -130.804 
v -135.726 259.569 -130.827 
v -135.714 259.569 -130.855 
v -135.726 259.569 -130.882 
v -135.753 259.569 -130.894 
v -135.781 259.569 -130.882 
v -135.792 259.569 -130.855 
v -135.781 259.569 -130.827 
v -135.753 259.569 -130.816 
v -135.738 259.575 -130.84 
v -135.732 259.575 -130.855 
v -135.738 259.575 -130.87 
v -135.753 259.575 -130.876 
v -135.768 259.575 -130.87 
v -135.774 259.575 -130.855 
v -135.768 259.575 -130.84 
v -135.753 259.575 -130.834 
v -135.753 259.577 -130.855 

vn -0.897638 0.188976 -0.393701 
vn -0.173228 0.984252 -0.0629921 
vn -0.220472 0.976378 -0.0393701 
vn -0.968504 -0.212598 0.133858 
vn -0.84252 0.314961 0.433071 
vn -0.23622 0.968504 -0.110236 
vn -0.251969 0.724409 -0.645669 
vn -0.574803 0.393701 -0.716535 
vn -0.251969 0.968504 -0.0629921 
vn -0.251969 0.968504 -0.0629921 
vn -0.96063 -0.23622 0.11811 
vn -0.96063 -0.23622 0.125984 
vn -0.228346 0.976378 -0.0314961 
vn -0.96063 -0.220472 0.173228 
vn -0.96063 -0.228346 0.149606 
vn -0.251969 0.968504 -0.0472441 
vn -0.535433 0.480315 0.692913 
vn -0.590551 0.370079 -0.716535 
vn -0.614173 0.362205 -0.700787 
vn -0.559055 0.464567 0.685039 
vn -0.622047 0.362205 -0.700787 
vn -0.889764 0.322835 0.314961 
vn -0.244094 0.968504 0.023622 
vn -0.212598 0.748031 -0.629921 
vn -0.968504 -0.228346 -0.0944882 
vn -0.23622 0.968504 0.0708661 
vn -0.874016 0.275591 -0.393701 
vn -0.606299 0.346457 0.716535 
vn -0.267717 0.724409 0.637795 
vn -0.259843 0.96063 0.102362 
vn -0.661417 0.228346 -0.708661 
vn -0.645669 0.267717 -0.716535 
vn -0.543307 0.779528 0.307087 
vn -0.614173 0.354331 0.708661 
vn -0.566929 0.433071 0.700787 
vn -0.622047 0.338583 -0.708661 
vn -0.629921 0.307087 -0.716535 
vn -0.629921 0.755906 0.19685 
vn -0.622047 0.346457 0.700787 
vn -0.582677 0.740157 -0.338583 
vn -0.614173 0.330709 0.716535 
vn -0.677165 0.19685 -0.708661 
vn -0.566929 0.433071 0.700787 
vn -0.637795 0.307087 -0.700787 
vn -0.944882 -0.291339 0.133858 
vn -0.818898 -0.307087 -0.488189 
vn -0.771654 -0.204724 0.598425 
vn -0.952756 -0.275591 0.125984 
vn -0.669291 0.244094 -0.708661 
vn -0.897638 0.188976 0.385827 
vn -0.937008 0.173228 -0.299213 
vn -0.84252 0.535433 0 
vn -0.866142 0.496063 0 
vn -0.858268 0.511811 0.00787402 
vn -0.858268 0.511811 0 
vn -0.952756 -0.275591 0.125984 
vn -0.850394 0.527559 0 
vn -0.944882 -0.299213 0.125984 
vn -0.850394 0.527559 0 
vn -0.440945 0.488189 -0.755906 
vn -0.251969 0.968504 -0.0472441 
vn -0.96063 -0.228346 0.149606 
vn -0.944882 -0.283465 0.149606 
vn -0.858268 0.519685 -0.00787402 
vn -0.307087 0.944882 -0.141732 
vn -0.944882 -0.283465 0.149606 
vn -0.629921 0.314961 -0.708661 
vn -0.84252 0.535433 0 
vn -0.598425 0.330709 -0.724409 
vn -0.818898 0.574803 0 
vn -0.590551 0.771654 -0.228346 
vn -0.787402 0.614173 0 
vn -0.244094 0.968504 -0.0708661 
vn -0.96063 -0.23622 0.11811 
vn -0.84252 0.535433 0 
vn -0.866142 0.496063 0 
vn -0.795276 0.566929 -0.228346 
vn -0.559055 0.480315 0.677165 
vn -0.937008 0.181102 0.299213 
vn -0.716535 0.110236 -0.685039 
vn -0.377953 0.913386 -0.141732 
vn -0.354331 0.629921 -0.692913 
vn -0.724409 0.598425 -0.354331 
vn -0.338583 0.929134 -0.149606 
vn -0.346457 0.929134 -0.11811 
vn -0.338583 0.937008 -0.0708661 
vn -0.937008 0.181102 0.299213 
vn -0.92126 -0.377953 0.0708661 
vn -0.362205 0.92126 -0.11811 
vn -0.377953 0.913386 -0.141732 
vn -0.968504 -0.0472441 -0.23622 
vn -0.362205 0.929134 -0.0708661 
vn -0.84252 0.535433 0 
vn -0.818898 0.574803 0 
vn -0.787402 0.614173 0 
vn -0.251969 0.96063 -0.0787402 
vn -0.96063 -0.228346 0.141732 
vn -0.590551 0.409449 0.692913 
vn -0.669291 0.275591 -0.692913 
vn -0.622047 0.362205 0.692913 
vn -0.661417 0.244094 -0.708661 
vn -0.622047 0.346457 0.700787 
vn -0.661417 0.244094 -0.708661 
vn -0.661417 0.653543 0.362205 
vn -0.622047 0.346457 0.700787 
vn -0.661417 0.244094 -0.708661 
vn -0.527559 0.472441 0.700787 
vn -0.535433 0.456693 0.708661 
vn -0.566929 0.433071 0.700787 
vn -0.566929 0.433071 0.700787 
vn -0.574803 0.409449 0.708661 
vn -0.606299 0.354331 0.708661 
vn -0.622047 0.346457 0.708661 
vn -0.724409 0.110236 -0.677165 
vn -0.330709 0.740157 0.590551 
vn -0.291339 0.732283 -0.614173 
vn -0.748031 -0.23622 -0.614173 
vn -0.92126 -0.338583 -0.181102 
vn -0.913386 -0.346457 -0.204724 
vn -0.740157 -0.314961 0.590551 
vn -0.96063 -0.244094 0.141732 
vn -0.76378 -0.125984 0.637795 
vn -0.96063 -0.23622 0.11811 
vn -0.96063 -0.23622 0.11811 
vn -0.251969 0.968504 0.023622 
vn -0.96063 -0.244094 0.125984 
vn -0.259843 0.96063 0.0708661 
vn -0.96063 -0.23622 0.149606 
vn -0.244094 0.96063 0.102362 
vn -0.96063 -0.220472 0.165354 
vn -0.968504 -0.220472 0.11811 
vn -0.88189 -0.220472 -0.425197 
vn -0.637795 0.566929 -0.519685 
vn -0.637795 0.0944882 0.76378 
vn -0.488189 0.574803 0.653543 
vn -0.669291 0.251969 -0.700787 
vn -0.496063 0.606299 0.622047 
vn -0.692913 0.220472 -0.685039 
vn -0.669291 0.267717 -0.692913 
vn -0.440945 0.629921 0.637795 
vn -0.645669 0.291339 -0.708661 
vn -0.425197 0.661417 0.614173 
vn -0.149606 0.889764 0.425197 
vn -0.574803 0.779528 0.251969 
vn -0.527559 0.559055 0.637795 
vn -0.275591 0.874016 0.409449 
vn -0.80315 0.543307 -0.244094 
vn -0.889764 0.448819 -0.00787402 
vn -0.92126 0.393701 0 
vn -0.84252 -0.141732 -0.519685 
vn -0.913386 0.401575 0.00787402 
vn -0.84252 -0.188976 -0.503937 
vn -0.755906 0.0393701 -0.653543 
vn -0.527559 0.566929 0.629921 
vn -0.362205 0.929134 -0.0708661 
vn -0.456693 0.503937 -0.732283 
vn -0.748031 0.023622 -0.661417 
vn -0.622047 0.748031 0.220472 
vn -0.913386 -0.362205 0.188976 
vn -0.88189 -0.440945 0.173228 
vn -0.913386 0.370079 -0.149606 
vn -0.409449 0.913386 -0.0472441 
vn -0.826772 -0.433071 -0.362205 
vn -0.92126 -0.354331 0.141732 
vn -0.527559 0.559055 0.637795 
vn -0.519685 0.566929 0.637795 
vn -0.259843 0.897638 0.362205 
vn -0.362205 0.929134 -0.023622 
vn -0.370079 0.527559 -0.76378 
vn -0.826772 -0.165354 -0.535433 
vn -0.929134 0.322835 0.165354 
vn -0.858268 -0.173228 -0.488189 
vn -0.496063 0.716535 0.496063 
vn -0.496063 0.716535 0.496063 
vn -0.858268 -0.173228 -0.488189 
vn -0.496063 0.661417 0.566929 
vn -0.503937 -0.0944882 0.858268 
vn -0.307087 0.952756 -0.023622 
vn -0.220472 0.929134 -0.307087 
vn -0.874016 -0.401575 0.275591 
vn -0.535433 0.826772 -0.173228 
vn -0.968504 -0.220472 0.11811 
vn -0.88189 -0.220472 -0.425197 
vn 0.393701 0.913386 -0.0787402 
vn 0.393701 0.913386 -0.11811 
vn 0.393701 0.905512 -0.165354 
vn 0.267717 0.629921 -0.732283 
vn -0.015748 -0.0472441 -1 
vn -0.96063 -0.23622 0.11811 
vn -0.96063 -0.244094 0.125984 
vn 0.393701 0.913386 -0.11811 
vn 0.393701 0.913386 -0.102362 
vn -0.96063 -0.220472 0.165354 
vn 0.393701 0.913386 -0.11811 
vn -0.96063 -0.23622 0.149606 
vn 0.393701 0.913386 -0.11811 
vn -0.0393701 -0.0944882 -0.992126 
vn -0.0393701 -0.0944882 -0.992126 
vn -0.535433 0.456693 0.708661 
vn -0.527559 0.472441 0.700787 
vn -0.0314961 -0.0708661 -1 
vn -0.566929 0.433071 0.700787 
vn -0.0314961 -0.0708661 -1 
vn -0.566929 0.433071 0.700787 
vn -0.96063 -0.23622 0.149606 
vn 0.393701 0.913386 -0.11811 
vn -0.96063 -0.23622 0.11811 
vn 0.393701 0.913386 -0.11811 
vn -0.724409 0.110236 -0.677165 
vn -0.291339 0.732283 -0.614173 
vn 0.11811 0.283465 0.952756 
vn -0.220472 -0.519685 0.826772 
vn -0.338583 0.929134 -0.149606 
vn -0.724409 0.598425 -0.354331 
vn -0.346457 0.929134 -0.11811 
vn -0.338583 0.929134 -0.149606 
vn -0.220472 -0.519685 0.826772 
vn -0.393701 -0.913386 0.102362 
vn -0.338583 0.937008 -0.0708661 
vn -0.346457 -0.80315 -0.488189 
vn -0.96063 -0.244094 0.141732 
vn 0.393701 0.913386 -0.11811 
vn -0.574803 0.409449 0.708661 
vn -0.606299 0.354331 0.708661 
vn -0.023622 -0.0551181 -1 
vn -0.622047 0.346457 0.708661 
vn -0.015748 -0.0472441 -1 
vn -0.330709 0.740157 0.590551 
vn -0.622047 0.346457 0.708661 
vn -0.015748 -0.0472441 -1 
vn -0.023622 -0.0472441 -1 
vn -0.76378 -0.125984 0.637795 
vn -0.251969 -0.590551 -0.76378 
vn -0.377953 -0.889764 -0.259843 
vn -0.377953 -0.88189 -0.291339 
vn -0.275591 -0.645669 0.716535 
vn -0.669291 0.244094 -0.708661 
vn -0.440945 0.488189 -0.755906 
vn -0.0866142 -0.19685 0.976378 
vn 0.133858 0.307087 0.944882 
vn -0.677165 0.19685 -0.708661 
vn 0.11811 0.275591 0.952756 
vn -0.661417 0.228346 -0.708661 
vn -0.645669 0.267717 -0.716535 
vn 0.110236 0.267717 0.96063 
vn 0.133858 0.314961 0.937008 
vn 0.354331 0.811024 0.464567 
vn -0.574803 0.779528 0.251969 
vn -0.527559 0.559055 0.637795 
vn -0.149606 -0.346457 -0.929134 
vn -0.519685 0.566929 0.637795 
vn -0.15748 -0.354331 -0.92126 
vn -0.259843 0.897638 0.362205 
vn -0.456693 0.503937 -0.732283 
vn -0.362205 0.929134 -0.0708661 
vn -0.393701 -0.905512 0.149606 
vn -0.393701 -0.913386 0.0944882 
vn -0.354331 -0.818898 -0.448819 
vn -0.385827 -0.897638 0.19685 
vn -0.80315 0.543307 -0.244094 
vn -0.84252 -0.141732 -0.519685 
vn -0.307087 0.952756 -0.023622 
vn -0.84252 -0.188976 -0.503937 
vn 0.299213 0.692913 0.653543 
vn -0.149606 -0.346457 0.929134 
vn -0.84252 -0.188976 -0.503937 
vn 0.299213 0.700787 0.645669 
vn 0.299213 0.692913 0.653543 
vn -0.15748 -0.370079 0.913386 
vn -0.220472 0.929134 -0.307087 
vn -0.370079 -0.866142 0.338583 
vn -0.251969 0.968504 0.023622 
vn -0.590551 0.771654 -0.228346 
vn -0.598425 0.330709 -0.724409 
vn -0.259843 0.96063 0.0708661 
vn -0.291339 -0.669291 0.685039 
vn -0.393701 -0.913386 -0.125984 
vn -0.543307 0.779528 0.307087 
vn -0.244094 0.96063 0.102362 
vn -0.614173 0.354331 0.708661 
vn -0.629921 0.314961 -0.708661 
vn 0.314961 0.732283 0.606299 
vn -0.259843 -0.598425 -0.755906 
vn 0.244094 0.574803 -0.779528 
vn -0.614173 0.330709 0.716535 
vn -0.937008 0.173228 -0.299213 
vn -0.952756 -0.275591 0.125984 
vn -0.944882 -0.299213 0.125984 
vn -0.897638 0.188976 0.385827 
vn 0.385827 0.897638 -0.220472 
vn -0.944882 -0.283465 0.149606 
vn 0 1 0 
vn 0 0.992126 0.102362 
vn 0.0314961 0.992126 0.102362 
vn 0.0629921 0.992126 0.0866142 
vn 0.0866142 0.992126 0.0629921 
vn 0.102362 0.992126 0.0314961 
vn 0.102362 0.992126 0 
vn 0.102362 0.992126 -0.0314961 
vn 0.0866142 0.992126 -0.0629921 
vn 0.0629921 0.992126 -0.0866142 
vn 0.0314961 0.992126 -0.102362 
vn 0 0.992126 -0.102362 
vn -0.0314961 0.992126 -0.102362 
vn 0 1 0 
vn -0.0314961 0.992126 -0.102362 
vn -0.0629921 0.992126 -0.0866142 
vn -0.0866142 0.992126 -0.0629921 
vn -0.102362 0.992126 -0.0314961 
vn -0.102362 0.992126 0 
vn -0.102362 0.992126 0.0314961 
vn -0.0866142 0.992126 0.0629921 
vn -0.0629921 0.992126 0.0866142 
vn -0.0314961 0.992126 0.102362 
vn -0.0314961 0.992126 0.102362 
vn 0.0787402 0.96063 0.251969 
vn 0 0.96063 0.267717 
vn 0 0.874016 0.480315 
vn 0.149606 0.874016 0.456693 
vn 0.15748 0.96063 0.220472 
vn 0.283465 0.874016 0.393701 
vn 0.220472 0.96063 0.15748 
vn 0.393701 0.874016 0.283465 
vn 0.251969 0.96063 0.0866142 
vn 0.456693 0.874016 0.149606 
vn 0.267717 0.96063 0 
vn 0.480315 0.874016 0 
vn 0.251969 0.96063 -0.0866142 
vn 0.456693 0.874016 -0.149606 
vn 0.220472 0.96063 -0.15748 
vn 0.393701 0.874016 -0.283465 
vn 0.15748 0.96063 -0.220472 
vn 0.283465 0.874016 -0.393701 
vn 0.0787402 0.96063 -0.251969 
vn 0.149606 0.874016 -0.456693 
vn 0 0.96063 -0.267717 
vn 0 0.874016 -0.480315 
vn -0.0787402 0.96063 -0.251969 
vn -0.149606 0.874016 -0.456693 
vn -0.15748 0.96063 -0.220472 
vn -0.0787402 0.96063 -0.251969 
vn -0.149606 0.874016 -0.456693 
vn -0.283465 0.874016 -0.393701 
vn -0.220472 0.96063 -0.15748 
vn -0.393701 0.874016 -0.283465 
vn -0.251969 0.96063 -0.0866142 
vn -0.456693 0.874016 -0.149606 
vn -0.267717 0.96063 0 
vn -0.480315 0.874016 0 
vn -0.251969 0.96063 0.0866142 
vn -0.456693 0.874016 0.149606 
vn -0.220472 0.96063 0.15748 
vn -0.393701 0.874016 0.283465 
vn -0.15748 0.96063 0.220472 
vn -0.283465 0.874016 0.393701 
vn -0.0787402 0.96063 0.251969 
vn -0.149606 0.874016 0.456693 
vn -0.0787402 0.96063 0.251969 
vn -0.149606 0.874016 0.456693 
vn 0 0.692913 0.716535 
vn 0.220472 0.692913 0.685039 
vn 0.425197 0.692913 0.582677 
vn 0.582677 0.692913 0.425197 
vn 0.685039 0.692913 0.220472 
vn 0.716535 0.692913 0 
vn 0.685039 0.692913 -0.220472 
vn 0.582677 0.692913 -0.425197 
vn 0.425197 0.692913 -0.582677 
vn 0.220472 0.692913 -0.685039 
vn 0 0.692913 -0.716535 
vn -0.220472 0.692913 -0.685039 
vn -0.220472 0.692913 -0.685039 
vn -0.425197 0.692913 -0.582677 
vn -0.582677 0.692913 -0.425197 
vn -0.456693 0.874016 -0.149606 
vn -0.393701 0.874016 -0.283465 
vn -0.582677 0.692913 -0.425197 
vn -0.685039 0.692913 -0.220472 
vn -0.480315 0.874016 0 
vn -0.716535 0.692913 0 
vn -0.456693 0.874016 0.149606 
vn -0.685039 0.692913 0.220472 
vn -0.393701 0.874016 0.283465 
vn -0.582677 0.692913 0.425197 
vn -0.582677 0.692913 0.425197 
vn -0.425197 0.692913 0.582677 
vn -0.220472 0.692913 0.685039 
vn -0.220472 0.692913 0.685039 
vn 0 0.456693 0.889764 
vn 0.275591 0.456693 0.850394 
vn 0.519685 0.456693 0.716535 
vn 0.724409 0.456693 0.519685 
vn 0.850394 0.456693 0.275591 
vn 0.889764 0.456693 0 
vn 0.850394 0.456693 -0.275591 
vn 0.724409 0.456693 -0.519685 
vn 0.519685 0.456693 -0.716535 
vn 0.275591 0.456693 -0.850394 
vn 0 0.456693 -0.889764 
vn -0.275591 0.456693 -0.850394 
vn -0.275591 0.456693 -0.850394 
vn -0.519685 0.456693 -0.716535 
vn -0.724409 0.456693 -0.519685 
vn -0.724409 0.456693 -0.519685 
vn -0.850394 0.456693 -0.275591 
vn -0.889764 0.456693 0 
vn -0.850394 0.456693 0.275591 
vn -0.724409 0.456693 0.519685 
vn -0.724409 0.456693 0.519685 
vn -0.519685 0.456693 0.716535 
vn -0.275591 0.456693 0.850394 
vn -0.275591 0.456693 0.850394 
vn 0 0.212598 0.976378 
vn 0.299213 0.212598 0.929134 
vn 0.574803 0.212598 0.787402 
vn 0.787402 0.212598 0.574803 
vn 0.929134 0.212598 0.299213 
vn 0.976378 0.212598 0 
vn 0.929134 0.212598 -0.299213 
vn 0.787402 0.212598 -0.574803 
vn 0.574803 0.212598 -0.787402 
vn 0.299213 0.212598 -0.929134 
vn 0 0.212598 -0.976378 
vn -0.299213 0.212598 -0.929134 
vn -0.299213 0.212598 -0.929134 
vn -0.566929 0.220472 -0.787402 
vn -0.779528 0.244094 -0.574803 
vn -0.779528 0.244094 -0.574803 
vn -0.905512 0.291339 -0.299213 
vn -0.944882 0.322835 0 
vn -0.905512 0.291339 0.299213 
vn -0.779528 0.244094 0.574803 
vn -0.779528 0.244094 0.574803 
vn -0.566929 0.220472 0.787402 
vn -0.299213 0.212598 0.929134 
vn -0.299213 0.212598 0.929134 
vn 0.307087 0.11811 0.944882 
vn 0 0.11811 0.992126 
vn 0 -0.645669 0.76378 
vn 0.23622 -0.645669 0.724409 
vn 0.582677 0.11811 0.80315 
vn 0.448819 -0.645669 0.614173 
vn 0.80315 0.11811 0.582677 
vn 0.614173 -0.645669 0.448819 
vn 0.944882 0.11811 0.307087 
vn 0.724409 -0.645669 0.23622 
vn 0.992126 0.11811 0 
vn 0.76378 -0.645669 0 
vn 0.944882 0.11811 -0.307087 
vn 0.724409 -0.645669 -0.23622 
vn 0.80315 0.11811 -0.582677 
vn 0.614173 -0.645669 -0.448819 
vn 0.582677 0.11811 -0.80315 
vn 0.448819 -0.645669 -0.614173 
vn 0.307087 0.11811 -0.944882 
vn 0.23622 -0.645669 -0.724409 
vn 0 0.11811 -0.992126 
vn 0 -0.645669 -0.76378 
vn -0.204724 0.188976 -0.96063 
vn -0.0629921 -0.708661 -0.700787 
vn -0.385827 -0.732283 -0.559055 
vn -0.448819 0.582677 -0.677165 
vn -0.228346 0.496063 -0.834646 
vn -0.0629921 -0.795276 -0.606299 
vn -0.551181 -0.755906 -0.354331 
vn -0.629921 0.574803 -0.519685 
vn -0.645669 -0.748031 -0.181102 
vn -0.748031 0.598425 -0.291339 
vn -0.716535 -0.700787 0 
vn -0.771654 0.637795 0 
vn -0.748031 0.598425 0.291339 
vn -0.645669 -0.748031 0.181102 
vn -0.629921 0.574803 0.519685 
vn -0.551181 -0.755906 0.354331 
vn -0.448819 0.582677 0.677165 
vn -0.385827 -0.732283 0.559055 
vn -0.0629921 -0.795276 0.606299 
vn -0.228346 0.496063 0.834646 
vn -0.204724 0.188976 0.96063 
vn -0.0629921 -0.708661 0.700787 
vn -0.566929 0.622047 0.543307 
vn -0.409449 0.527559 0.740157 
vn -0.669291 0.677165 0.307087 
vn -0.566929 0.622047 0.543307 
vn -0.692913 0.724409 0 
vn -0.669291 0.677165 -0.307087 
vn -0.566929 0.622047 -0.543307 
vn -0.566929 0.622047 -0.543307 
vn -0.409449 0.527559 -0.740157 
vn -0.204724 0.188976 -0.96063 
vn -0.204724 0.188976 0.96063 
vn -0.204724 0.188976 -0.96063 
vn -0.0629921 -0.708661 -0.700787 
vn -0.0629921 -0.795276 -0.606299 
vn -0.0629921 -0.708661 -0.700787 
vn 0.0629921 -0.944882 0.330709 
vn -0.385827 -0.732283 -0.559055 
vn -0.228346 0.496063 -0.834646 
vn -0.448819 0.582677 -0.677165 
vn -0.409449 0.527559 -0.740157 
vn -0.204724 0.188976 -0.96063 
vn 0.0629921 -0.952756 0.283465 
vn -0.551181 -0.755906 -0.354331 
vn -0.629921 0.574803 -0.519685 
vn -0.566929 0.622047 -0.543307 
vn 0.102362 -0.976378 0.19685 
vn -0.645669 -0.748031 -0.181102 
vn -0.748031 0.598425 -0.291339 
vn -0.669291 0.677165 -0.307087 
vn 0.125984 -0.992126 0 
vn -0.716535 -0.700787 0 
vn -0.771654 0.637795 0 
vn -0.692913 0.724409 0 
vn -0.645669 -0.748031 0.181102 
vn 0.102362 -0.976378 -0.19685 
vn -0.748031 0.598425 0.291339 
vn -0.669291 0.677165 0.307087 
vn -0.551181 -0.755906 0.354331 
vn 0.0629921 -0.952756 -0.283465 
vn -0.629921 0.574803 0.519685 
vn -0.566929 0.622047 0.543307 
vn -0.385827 -0.732283 0.559055 
vn 0.0629921 -0.944882 -0.330709 
vn -0.448819 0.582677 0.677165 
vn -0.409449 0.527559 0.740157 
vn -0.228346 0.496063 0.834646 
vn -0.204724 0.188976 0.96063 
vn -0.0629921 -0.795276 0.606299 
vn -0.0629921 -0.708661 0.700787 
vn -0.0629921 -0.708661 0.700787 
vn -0.204724 0.188976 0.96063 
vn 0.23622 -0.645669 0.724409 
vn 0 -0.645669 0.76378 
vn -0.0629921 -1 0 
vn 0.448819 -0.645669 0.614173 
vn 0.614173 -0.645669 0.448819 
vn 0.724409 -0.645669 0.23622 
vn 0.76378 -0.645669 0 
vn 0.724409 -0.645669 -0.23622 
vn 0.614173 -0.645669 -0.448819 
vn 0.448819 -0.645669 -0.614173 
vn 0.23622 -0.645669 -0.724409 
vn 0 -0.645669 -0.76378 
vn 0.574803 0.582677 0.574803 
vn 0.653543 0.377953 0.653543 
vn 0.929134 0.377953 0 
vn 0.811024 0.582677 0 
vn 0.653543 0.377953 -0.653543 
vn 0.574803 0.582677 -0.574803 
vn 0 0.377953 -0.929134 
vn 0 0.582677 -0.811024 
vn -0.653543 0.377953 -0.653543 
vn -0.574803 0.582677 -0.574803 
vn -0.929134 0.377953 0 
vn -0.811024 0.582677 0 
vn -0.653543 0.377953 0.653543 
vn -0.574803 0.582677 0.574803 
vn 0 0.377953 0.929134 
vn 0 0.582677 0.811024 
vn 0.338583 0.874016 0.346457 
vn 0.488189 0.874016 0 
vn 0.338583 0.874016 -0.338583 
vn 0 0.874016 -0.480315 
vn -0.338583 0.874016 -0.338583 
vn -0.488189 0.874016 0 
vn -0.338583 0.874016 0.346457 
vn 0 0.874016 0.480315 
vn 0.165354 0.976378 0.165354 
vn 0.228346 0.976378 0 
vn 0.165354 0.976378 -0.165354 
vn 0 0.976378 -0.228346 
vn -0.165354 0.976378 -0.165354 
vn -0.228346 0.976378 0 
vn -0.165354 0.976378 0.165354 
vn 0 0.976378 0.228346 
vn 0 1 0 

vt 0.76666 0.434065 
vt 0.768008 0.436069 
vt 0.768008 0.441302 
vt 0.76666 0.441302 
vt 0.7613 0.411674 
vt 0.762348 0.409336 
vt 0.762348 0.411754 
vt 0.762348 0.414738 
vt 0.762348 0.395035 
vt 0.762348 0.397281 
vt 0.7613 0.397281 
vt 0.7613 0.395035 
vt 0.768008 0.444795 
vt 0.76666 0.444795 
vt 0.7613 0.388197 
vt 0.762348 0.388197 
vt 0.7613 0.422114 
vt 0.762348 0.422114 
vt 0.762348 0.424555 
vt 0.7613 0.424555 
vt 0.781698 0.356331 
vt 0.780385 0.356331 
vt 0.780385 0.355346 
vt 0.781698 0.355346 
vt 0.777485 0.356331 
vt 0.777485 0.355346 
vt 0.77511 0.356331 
vt 0.774068 0.356331 
vt 0.774068 0.355346 
vt 0.77511 0.355346 
vt 0.820322 0.4507 
vt 0.819337 0.460838 
vt 0.801905 0.454589 
vt 0.8016 0.449566 
vt 0.7613 0.431201 
vt 0.762348 0.431201 
vt 0.781698 0.364961 
vt 0.780385 0.364961 
vt 0.774068 0.364961 
vt 0.77511 0.364961 
vt 0.801123 0.444294 
vt 0.820901 0.445859 
vt 0.7613 0.436409 
vt 0.762348 0.438453 
vt 0.780385 0.366512 
vt 0.781698 0.366512 
vt 0.774068 0.366512 
vt 0.77511 0.366512 
vt 0.821361 0.439337 
vt 0.800701 0.437621 
vt 0.785977 0.435009 
vt 0.783117 0.43425 
vt 0.784489 0.427511 
vt 0.785906 0.428231 
vt 0.788327 0.427987 
vt 0.788107 0.435214 
vt 0.800117 0.42657 
vt 0.797859 0.437378 
vt 0.79725 0.426947 
vt 0.822101 0.425779 
vt 0.768008 0.448565 
vt 0.76666 0.448565 
vt 0.793198 0.436344 
vt 0.792985 0.427444 
vt 0.777485 0.364961 
vt 0.777485 0.366512 
vt 0.785886 0.440698 
vt 0.782911 0.439978 
vt 0.785923 0.45682 
vt 0.781168 0.458339 
vt 0.785874 0.460703 
vt 0.781118 0.462177 
vt 0.762348 0.401972 
vt 0.7613 0.401972 
vt 0.781685 0.434102 
vt 0.782726 0.427893 
vt 0.767987 0.354626 
vt 0.766343 0.351781 
vt 0.766343 0.335642 
vt 0.767987 0.335642 
vt 0.767987 0.332363 
vt 0.767987 0.333767 
vt 0.783527 0.419012 
vt 0.785155 0.41938 
vt 0.786326 0.419655 
vt 0.787641 0.419767 
vt 0.761184 0.326733 
vt 0.761184 0.328278 
vt 0.759952 0.328278 
vt 0.759952 0.326733 
vt 0.761184 0.329551 
vt 0.759952 0.329551 
vt 0.781529 0.439819 
vt 0.7802 0.458581 
vt 0.780164 0.462407 
vt 0.762348 0.406185 
vt 0.7613 0.406185 
vt 0.7613 0.438453 
vt 0.762348 0.443188 
vt 0.7613 0.443188 
vt 0.762348 0.445349 
vt 0.7613 0.445349 
vt 0.766343 0.371827 
vt 0.767987 0.370289 
vt 0.767987 0.379659 
vt 0.766343 0.379659 
vt 0.7764 0.463274 
vt 0.776389 0.459487 
vt 0.77642 0.439381 
vt 0.776406 0.4337 
vt 0.776419 0.429242 
vt 0.776389 0.420267 
vt 0.776398 0.4171 
vt 0.78378 0.415794 
vt 0.776692 0.384172 
vt 0.787479 0.378238 
vt 0.766343 0.370794 
vt 0.766343 0.368532 
vt 0.766343 0.357448 
vt 0.766343 0.354449 
vt 0.780452 0.476384 
vt 0.776622 0.475548 
vt 0.781406 0.476485 
vt 0.786093 0.477005 
vt 0.788089 0.460245 
vt 0.7883 0.477244 
vt 0.79391 0.458476 
vt 0.794684 0.477936 
vt 0.799266 0.45603 
vt 0.800523 0.478585 
vt 0.803139 0.478885 
vt 0.816864 0.478205 
vt 0.76666 0.409504 
vt 0.768008 0.409504 
vt 0.768008 0.413665 
vt 0.76666 0.413665 
vt 0.768008 0.422426 
vt 0.76666 0.420951 
vt 0.76666 0.424161 
vt 0.768008 0.428382 
vt 0.76666 0.428382 
vt 0.768008 0.432841 
vt 0.768008 0.434405 
vt 0.789068 0.419702 
vt 0.759952 0.33159 
vt 0.759952 0.330698 
vt 0.795618 0.420749 
vt 0.792488 0.420249 
vt 0.793927 0.41495 
vt 0.797533 0.415106 
vt 0.804992 0.378543 
vt 0.811889 0.380573 
vt 0.761184 0.34007 
vt 0.759952 0.34007 
vt 0.808077 0.366561 
vt 0.816803 0.367284 
vt 0.761184 0.348127 
vt 0.759952 0.351191 
vt 0.761184 0.361922 
vt 0.761184 0.369158 
vt 0.759952 0.371569 
vt 0.759952 0.361922 
vt 0.761184 0.351378 
vt 0.761184 0.354003 
vt 0.789988 0.414779 
vt 0.797208 0.376369 
vt 0.799481 0.365152 
vt 0.76666 0.398928 
vt 0.76666 0.397496 
vt 0.76666 0.395887 
vt 0.768008 0.397141 
vt 0.76666 0.388856 
vt 0.768008 0.388856 
vt 0.761184 0.382955 
vt 0.759952 0.382955 
vt 0.761184 0.374446 
vt 0.761184 0.371627 
vt 0.799678 0.420487 
vt 0.817347 0.417524 
vt 0.768008 0.404754 
vt 0.76666 0.404754 
vt 0.765766 0.441302 
vt 0.765766 0.434065 
vt 0.768853 0.436069 
vt 0.768853 0.441302 
vt 0.763994 0.409336 
vt 0.763994 0.411754 
vt 0.763994 0.414738 
vt 0.759641 0.397281 
vt 0.759641 0.395035 
vt 0.763994 0.395035 
vt 0.763994 0.397281 
vt 0.765766 0.444795 
vt 0.768853 0.444795 
vt 0.759641 0.388197 
vt 0.763994 0.388197 
vt 0.763994 0.422114 
vt 0.763994 0.424555 
vt 0.759641 0.424555 
vt 0.759641 0.422114 
vt 0.763994 0.431201 
vt 0.759641 0.431201 
vt 0.763994 0.438453 
vt 0.759641 0.436409 
vt 0.765766 0.448565 
vt 0.768853 0.448565 
vt 0.759641 0.401972 
vt 0.763994 0.401972 
vt 0.769071 0.335642 
vt 0.769071 0.354626 
vt 0.765336 0.351781 
vt 0.765336 0.335642 
vt 0.769071 0.332363 
vt 0.769071 0.333767 
vt 0.758316 0.328278 
vt 0.758316 0.326733 
vt 0.762339 0.326733 
vt 0.762339 0.328278 
vt 0.758316 0.329551 
vt 0.762339 0.329551 
vt 0.759641 0.406185 
vt 0.763994 0.406185 
vt 0.759641 0.438453 
vt 0.759641 0.443188 
vt 0.763994 0.443188 
vt 0.759641 0.445349 
vt 0.763994 0.445349 
vt 0.769071 0.370289 
vt 0.769071 0.379659 
vt 0.765336 0.379659 
vt 0.765336 0.371827 
vt 0.759641 0.411674 
vt 0.765336 0.370794 
vt 0.765336 0.368532 
vt 0.765336 0.357448 
vt 0.765336 0.354449 
vt 0.765766 0.413665 
vt 0.765766 0.409504 
vt 0.768853 0.409504 
vt 0.768853 0.413665 
vt 0.765766 0.420951 
vt 0.768853 0.422426 
vt 0.765766 0.424161 
vt 0.765766 0.428382 
vt 0.768853 0.428382 
vt 0.768853 0.432841 
vt 0.768853 0.434405 
vt 0.758316 0.330775 
vt 0.758316 0.33159 
vt 0.762339 0.34007 
vt 0.758316 0.34007 
vt 0.762339 0.348127 
vt 0.758316 0.351183 
vt 0.758316 0.371569 
vt 0.758316 0.361922 
vt 0.762339 0.361922 
vt 0.762339 0.369158 
vt 0.762339 0.351342 
vt 0.762339 0.354003 
vt 0.765766 0.397496 
vt 0.765766 0.395887 
vt 0.765766 0.398928 
vt 0.765766 0.388856 
vt 0.768853 0.388856 
vt 0.768853 0.397141 
vt 0.758316 0.382955 
vt 0.762339 0.374446 
vt 0.762339 0.382955 
vt 0.762339 0.371627 
vt 0.765766 0.404754 
vt 0.768853 0.404754 
vt 0.780385 0.351393 
vt 0.783642 0.351393 
vt 0.783642 0.356331 
vt 0.777485 0.351393 
vt 0.779173 0.358038 
vt 0.777485 0.358038 
vt 0.772084 0.351393 
vt 0.77511 0.351393 
vt 0.772084 0.356331 
vt 0.783642 0.364961 
vt 0.779173 0.362978 
vt 0.776251 0.358038 
vt 0.776251 0.362978 
vt 0.772084 0.364961 
vt 0.783642 0.368154 
vt 0.780385 0.368154 
vt 0.77511 0.368154 
vt 0.772084 0.368154 
vt 0.777485 0.362978 
vt 0.777485 0.368154 
vt 0.880341 0.183628 
vt 0.859946 0.179717 
vt 0.86196 0.168877 
vt 0.865346 0.159663 
vt 0.869714 0.152656 
vt 0.874772 0.148172 
vt 0.880194 0.146711 
vt 0.885706 0.148112 
vt 0.890754 0.152682 
vt 0.895244 0.159536 
vt 0.898638 0.168837 
vt 0.900731 0.179724 
vt 0.900702 0.190966 
vt 0.880772 0.188106 
vt 0.905134 0.203996 
vt 0.901342 0.21782 
vt 0.895587 0.228797 
vt 0.888493 0.235839 
vt 0.880651 0.238248 
vt 0.872854 0.235746 
vt 0.865728 0.228582 
vt 0.860013 0.217525 
vt 0.856354 0.203718 
vt 0.8602 0.190952 
vt 0.854137 0.160476 
vt 0.85085 0.175764 
vt 0.841098 0.169837 
vt 0.845843 0.150175 
vt 0.859084 0.147562 
vt 0.852557 0.13409 
vt 0.865283 0.138243 
vt 0.860817 0.1223 
vt 0.872496 0.132327 
vt 0.87015 0.115175 
vt 0.880127 0.13042 
vt 0.880092 0.112788 
vt 0.887874 0.132318 
vt 0.890069 0.115222 
vt 0.895051 0.13831 
vt 0.89947 0.122383 
vt 0.901365 0.147625 
vt 0.907861 0.134122 
vt 0.906391 0.160436 
vt 0.91458 0.150174 
vt 0.909868 0.175776 
vt 0.919498 0.169803 
vt 0.910624 0.19231 
vt 0.921777 0.191471 
vt 0.910782 0.231706 
vt 0.916422 0.211777 
vt 0.928674 0.220858 
vt 0.920702 0.247077 
vt 0.902245 0.247994 
vt 0.909476 0.269222 
vt 0.891971 0.258285 
vt 0.895961 0.282789 
vt 0.880604 0.261829 
vt 0.880592 0.287432 
vt 0.869229 0.258087 
vt 0.865249 0.282512 
vt 0.858954 0.247681 
vt 0.851575 0.268667 
vt 0.850556 0.231373 
vt 0.840417 0.246638 
vt 0.845035 0.211367 
vt 0.832764 0.220327 
vt 0.850281 0.19231 
vt 0.83915 0.191487 
vt 0.831345 0.161644 
vt 0.837673 0.138263 
vt 0.846117 0.119717 
vt 0.856369 0.105733 
vt 0.867868 0.0974425 
vt 0.880093 0.0947355 
vt 0.892325 0.0974818 
vt 0.903882 0.105893 
vt 0.914223 0.119631 
vt 0.922814 0.138266 
vt 0.929298 0.161614 
vt 0.933096 0.18721 
vt 0.941123 0.231693 
vt 0.930968 0.262913 
vt 0.91789 0.290147 
vt 0.860751 0.46981 
vt 0.842502 0.479498 
vt 0.835773 0.449698 
vt 0.857546 0.438949 
vt 0.879886 0.467064 
vt 0.879971 0.435472 
vt 0.899012 0.469678 
vt 0.902443 0.43891 
vt 0.917166 0.479498 
vt 0.923931 0.449637 
vt 0.84312 0.289658 
vt 0.829939 0.262357 
vt 0.820201 0.230983 
vt 0.827751 0.187379 
vt 0.820885 0.150228 
vt 0.829099 0.12414 
vt 0.839525 0.102992 
vt 0.851825 0.0872673 
vt 0.865588 0.0778418 
vt 0.880167 0.0745009 
vt 0.89478 0.0778202 
vt 0.908538 0.0874127 
vt 0.920999 0.102902 
vt 0.931491 0.124128 
vt 0.939758 0.150162 
vt 0.945063 0.179214 
vt 0.954778 0.245335 
vt 0.942622 0.280643 
vt 0.928117 0.31222 
vt 0.82921 0.414787 
vt 0.854132 0.40369 
vt 0.87998 0.399489 
vt 0.90575 0.403873 
vt 0.93043 0.41517 
vt 0.83264 0.311929 
vt 0.818044 0.28004 
vt 0.80653 0.244524 
vt 0.815906 0.179204 
vt 0.810471 0.13597 
vt 0.820338 0.107518 
vt 0.832694 0.0843316 
vt 0.847262 0.0668706 
vt 0.863364 0.055953 
vt 0.880317 0.0525634 
vt 0.897225 0.0559455 
vt 0.913387 0.0669128 
vt 0.927991 0.084281 
vt 0.940536 0.107406 
vt 0.950468 0.13577 
vt 0.957819 0.167067 
vt 0.969012 0.262476 
vt 0.955514 0.300193 
vt 0.940382 0.334634 
vt 0.824254 0.37605 
vt 0.851765 0.364352 
vt 0.879955 0.360148 
vt 0.908169 0.364708 
vt 0.935547 0.376671 
vt 0.820345 0.334596 
vt 0.805111 0.299398 
vt 0.792086 0.261458 
vt 0.803197 0.167101 
vt 0.812237 0.089582 
vt 0.800581 0.120267 
vt 0.798947 0.117574 
vt 0.810944 0.0867611 
vt 0.826274 0.0640328 
vt 0.82536 0.0608209 
vt 0.842851 0.0447981 
vt 0.842308 0.041334 
vt 0.861085 0.0330555 
vt 0.860895 0.0293959 
vt 0.880504 0.0287012 
vt 0.88055 0.0249859 
vt 0.89973 0.0328014 
vt 0.89987 0.0291545 
vt 0.918126 0.0446196 
vt 0.918744 0.0411465 
vt 0.934944 0.0636147 
vt 0.935869 0.0604656 
vt 0.949052 0.0892277 
vt 0.950374 0.0863589 
vt 0.960657 0.119832 
vt 0.962261 0.11717 
vt 0.969569 0.15207 
vt 0.971292 0.1498 
vt 0.927043 0.016472 
vt 0.926815 0.0182439 
vt 0.944054 0.0228189 
vt 0.944467 0.0205047 
vt 0.911131 0.015625 
vt 0.910947 0.0178075 
vt 0.895161 0.0168588 
vt 0.895056 0.0191743 
vt 0.879356 0.0178872 
vt 0.879356 0.0196347 
vt 0.863656 0.0191743 
vt 0.863551 0.0168588 
vt 0.847765 0.0178075 
vt 0.847581 0.015625 
vt 0.831897 0.0182439 
vt 0.831669 0.016472 
vt 0.814245 0.0205047 
vt 0.814658 0.0228189 
vt 0.791389 0.152374 
vt 0.789642 0.150137 
vt 0.812372 0.348097 
vt 0.794263 0.315474 
vt 0.908983 0.350067 
vt 0.937993 0.35257 
vt 0.880023 0.348987 
vt 0.851006 0.349655 
vt 0.821894 0.35178 
vt 0.948259 0.348097 
vt 0.966473 0.316426 
vt 0.983032 0.282027 
vt 0.777826 0.28057 
vt 0.97142 0.0496914 
vt 0.971776 0.0462948 
vt 0.75891 0.22456 
vt 0.759601 0.204319 
vt 0.762039 0.213653 
vt 0.761373 0.235421 
vt 0.966578 0.480336 
vt 0.954986 0.467084 
vt 0.980265 0.468019 
vt 0.990133 0.482142 
vt 0.76574 0.221266 
vt 0.765244 0.243318 
vt 0.94697 0.448912 
vt 0.972585 0.449389 
vt 0.77061 0.22606 
vt 0.770281 0.248646 
vt 0.941867 0.426985 
vt 0.967984 0.427036 
vt 0.775877 0.227885 
vt 0.775746 0.25076 
vt 0.940128 0.403425 
vt 0.966437 0.403424 
vt 0.781271 0.249055 
vt 0.781197 0.226423 
vt 0.941867 0.379864 
vt 0.967983 0.379813 
vt 0.786366 0.244013 
vt 0.786199 0.221896 
vt 0.94697 0.357937 
vt 0.972584 0.35746 
vt 0.790344 0.236347 
vt 0.790088 0.214617 
vt 0.954986 0.339764 
vt 0.980265 0.338829 
vt 0.966578 0.326513 
vt 0.990133 0.324707 
vt 0.793055 0.22567 
vt 0.792653 0.205256 
vt 0.786935 0.0462948 
vt 0.787292 0.0496914 
vt 0.792721 0.184333 
vt 0.79352 0.19486 
vt 0.776177 0.193877 
vt 0.790306 0.174801 
vt 0.786533 0.167199 
vt 0.781761 0.162264 
vt 0.776489 0.160432 
vt 0.771174 0.161974 
vt 0.766328 0.166652 
vt 0.762442 0.174082 
vt 0.759874 0.183432 
vt 0.75891 0.193847 
vt 0.760058 0.459533 
vt 0.759784 0.458108 
vt 0.763887 0.458108 
vt 0.763555 0.459648 
vt 0.766605 0.463775 
vt 0.765851 0.464326 
vt 0.766594 0.471795 
vt 0.765803 0.471126 
vt 0.763655 0.477153 
vt 0.763382 0.475722 
vt 0.759546 0.477124 
vt 0.759881 0.47559 
vt 0.756855 0.471412 
vt 0.757598 0.47086 
vt 0.756878 0.463406 
vt 0.757657 0.464046 
vt 0.760508 0.461721 
vt 0.763082 0.461693 
vt 0.764744 0.465144 
vt 0.764751 0.470167 
vt 0.762933 0.473505 
vt 0.760356 0.473527 
vt 0.758703 0.470043 
vt 0.758702 0.464997 
vt 0.761022 0.464244 
vt 0.762454 0.464244 
vt 0.763456 0.466203 
vt 0.763446 0.468988 
vt 0.762426 0.470937 
vt 0.760994 0.470934 
vt 0.759991 0.46898 
vt 0.76 0.466199 
vt 0.761711 0.467602 

usemtl Handle1Mtl

f 1/1/1 2/2/2 3/3/3 
f 3/3/3 4/4/4 1/1/1 
f 5/5/5 6/6/6 7/7/7 
f 7/7/7 8/8/8 5/5/5 
f 9/9/9 10/10/10 11/11/11 
f 11/11/11 12/12/12 9/9/9 
f 4/4/4 3/3/3 13/13/13 
f 13/13/13 14/14/14 4/4/4 
f 15/15/15 16/16/16 9/9/9 
f 9/9/9 12/12/12 15/15/15 
f 17/17/17 18/18/18 19/19/19 
f 19/19/19 20/20/20 17/17/17 
f 21/21/21 22/22/22 23/23/23 
f 23/23/23 24/24/24 21/21/21 
f 22/22/22 25/25/25 26/26/26 
f 26/26/26 23/23/23 22/22/22 
f 27/27/27 28/28/28 29/29/29 
f 29/29/29 30/30/30 27/27/27 
f 31/31/31 32/32/32 33/33/33 
f 33/33/33 34/34/34 31/31/31 
f 35/35/35 20/20/20 19/19/19 
f 19/19/19 36/36/36 35/35/35 
f 37/37/37 38/38/38 22/22/22 
f 22/22/22 21/21/21 37/37/37 
f 39/39/39 28/28/28 27/27/27 
f 27/27/27 40/40/40 39/39/39 
f 41/41/41 42/42/42 31/31/31 
f 31/31/31 34/34/34 41/41/41 
f 43/43/43 35/35/35 36/36/36 
f 36/36/36 44/44/44 43/43/43 
f 45/45/45 38/38/38 37/37/37 
f 37/37/37 46/46/46 45/45/45 
f 47/47/47 39/39/39 40/40/40 
f 40/40/40 48/48/48 47/47/47 
f 49/49/49 42/42/42 41/41/41 
f 41/41/41 50/50/50 49/49/49 
f 51/51/51 52/52/52 53/53/53 
f 53/53/53 54/54/54 51/51/51 
f 54/54/54 55/55/55 56/56/56 
f 56/56/56 51/51/51 54/54/54 
f 57/57/57 50/50/50 58/58/58 
f 58/58/58 59/59/59 57/57/57 
f 60/60/60 49/49/49 50/50/50 
f 50/50/50 57/57/57 60/60/60 
f 25/25/25 27/27/27 30/30/30 
f 30/30/30 26/26/26 25/25/25 
f 14/14/14 13/13/13 61/61/61 
f 61/61/61 62/62/62 14/14/14 
f 59/59/59 58/58/58 63/63/63 
f 63/63/63 64/64/64 59/59/59 
f 48/48/48 40/40/40 65/65/65 
f 65/65/65 66/66/66 48/48/48 
f 51/51/51 67/67/67 68/68/68 
f 68/68/68 52/52/52 51/51/51 
f 69/69/69 70/70/70 68/68/68 
f 68/68/68 67/67/67 69/69/69 
f 71/71/71 72/72/72 70/70/70 
f 70/70/70 69/69/69 71/71/71 
f 10/10/10 73/73/73 74/74/74 
f 74/74/74 11/11/11 10/10/10 
f 52/52/52 75/75/75 76/76/76 
f 76/76/76 53/53/53 52/52/52 
f 77/77/77 78/78/78 79/79/79 
f 79/79/79 80/80/80 77/77/77 
f 80/80/80 79/79/79 81/81/81 
f 81/81/81 82/82/82 80/80/80 
f 83/83/83 84/84/84 53/53/53 
f 53/53/53 76/76/76 83/83/83 
f 85/85/85 54/54/54 53/53/53 
f 53/53/53 84/84/84 85/85/85 
f 86/86/86 55/55/55 54/54/54 
f 54/54/54 85/85/85 86/86/86 
f 87/87/87 88/88/88 89/89/89 
f 89/89/89 90/90/90 87/87/87 
f 88/88/88 91/91/91 92/92/92 
f 92/92/92 89/89/89 88/88/88 
f 68/68/68 93/93/93 75/75/75 
f 75/75/75 52/52/52 68/68/68 
f 70/70/70 94/94/94 93/93/93 
f 93/93/93 68/68/68 70/70/70 
f 72/72/72 95/95/95 94/94/94 
f 94/94/94 70/70/70 72/72/72 
f 73/73/73 96/96/96 97/97/97 
f 97/97/97 74/74/74 73/73/73 
f 44/44/44 98/98/98 43/43/43 
f 99/99/99 100/100/100 98/98/98 
f 98/98/98 44/44/44 99/99/99 
f 101/101/101 102/102/102 100/100/100 
f 100/100/100 99/99/99 101/101/101 
f 103/103/103 104/104/104 105/105/105 
f 105/105/105 106/106/106 103/103/103 
f 96/96/96 6/6/6 5/5/5 
f 5/5/5 97/97/97 96/96/96 
f 95/95/95 107/107/107 108/108/108 
f 108/108/108 94/94/94 95/95/95 
f 94/94/94 108/108/108 109/109/109 
f 109/109/109 93/93/93 94/94/94 
f 75/75/75 93/93/93 109/109/109 
f 109/109/109 110/110/110 75/75/75 
f 75/75/75 110/110/110 111/111/111 
f 111/111/111 76/76/76 75/75/75 
f 112/112/112 83/83/83 76/76/76 
f 76/76/76 111/111/111 112/112/112 
f 113/113/113 114/114/114 83/83/83 
f 83/83/83 112/112/112 113/113/113 
f 115/115/115 116/116/116 114/114/114 
f 114/114/114 113/113/113 115/115/115 
f 117/117/117 118/118/118 104/104/104 
f 104/104/104 103/103/103 117/117/117 
f 118/118/118 119/119/119 77/77/77 
f 77/77/77 104/104/104 118/118/118 
f 119/119/119 120/120/120 78/78/78 
f 78/78/78 77/77/77 119/119/119 
f 17/17/17 5/5/5 8/8/8 
f 8/8/8 18/18/18 17/17/17 
f 95/95/95 121/121/121 122/122/122 
f 122/122/122 107/107/107 95/95/95 
f 72/72/72 123/123/123 121/121/121 
f 121/121/121 95/95/95 72/72/72 
f 72/72/72 71/71/71 124/124/124 
f 124/124/124 123/123/123 72/72/72 
f 125/125/125 126/126/126 124/124/124 
f 124/124/124 71/71/71 125/125/125 
f 127/127/127 128/128/128 126/126/126 
f 126/126/126 125/125/125 127/127/127 
f 129/129/129 130/130/130 128/128/128 
f 128/128/128 127/127/127 129/129/129 
f 33/33/33 131/131/131 130/130/130 
f 130/130/130 129/129/129 33/33/33 
f 32/32/32 132/132/132 131/131/131 
f 131/131/131 33/33/33 32/32/32 
f 133/133/133 134/134/134 135/135/135 
f 135/135/135 136/136/136 133/133/133 
f 136/136/136 135/135/135 137/137/137 
f 137/137/137 138/138/138 136/136/136 
f 137/137/137 139/139/139 138/138/138 
f 137/137/137 140/140/140 141/141/141 
f 141/141/141 139/139/139 137/137/137 
f 140/140/140 142/142/142 1/1/1 
f 1/1/1 141/141/141 140/140/140 
f 1/1/1 142/142/142 143/143/143 
f 143/143/143 2/2/2 1/1/1 
f 55/55/55 86/86/86 144/144/144 
f 91/91/91 145/145/145 146/146/146 
f 146/146/146 92/92/92 91/91/91 
f 147/147/147 59/59/59 64/64/64 
f 64/64/64 148/148/148 147/147/147 
f 149/149/149 150/150/150 147/147/147 
f 147/147/147 148/148/148 149/149/149 
f 151/151/151 152/152/152 150/150/150 
f 150/150/150 149/149/149 151/151/151 
f 153/153/153 154/154/154 145/145/145 
f 145/145/145 91/91/91 153/153/153 
f 155/155/155 156/156/156 152/152/152 
f 152/152/152 151/151/151 155/155/155 
f 157/157/157 158/158/158 154/154/154 
f 154/154/154 153/153/153 157/157/157 
f 159/159/159 160/160/160 161/161/161 
f 161/161/161 162/162/162 159/159/159 
f 163/163/163 164/164/164 158/158/158 
f 158/158/158 157/157/157 163/163/163 
f 66/66/66 65/65/65 38/38/38 
f 38/38/38 45/45/45 66/66/66 
f 56/56/56 55/55/55 64/64/64 
f 64/64/64 63/63/63 56/56/56 
f 144/144/144 148/148/148 64/64/64 
f 64/64/64 55/55/55 144/144/144 
f 165/165/165 149/149/149 148/148/148 
f 148/148/148 144/144/144 165/165/165 
f 166/166/166 151/151/151 149/149/149 
f 149/149/149 165/165/165 166/166/166 
f 167/167/167 155/155/155 151/151/151 
f 151/151/151 166/166/166 167/167/167 
f 164/164/164 159/159/159 162/162/162 
f 162/162/162 158/158/158 164/164/164 
f 168/168/168 169/169/169 170/170/170 
f 170/170/170 171/171/171 168/168/168 
f 171/171/171 170/170/170 172/172/172 
f 172/172/172 173/173/173 171/171/171 
f 174/174/174 175/175/175 161/161/161 
f 161/161/161 176/176/176 174/174/174 
f 176/176/176 161/161/161 160/160/160 
f 160/160/160 177/177/177 176/176/176 
f 178/178/178 57/57/57 59/59/59 
f 59/59/59 147/147/147 178/178/178 
f 179/179/179 60/60/60 57/57/57 
f 57/57/57 178/178/178 179/179/179 
f 171/171/171 180/180/180 181/181/181 
f 181/181/181 168/168/168 171/171/171 
f 180/180/180 134/134/134 133/133/133 
f 133/133/133 181/181/181 180/180/180 
f 1/1/1 4/4/4 182/182/182 
f 182/182/182 183/183/183 1/1/1 
f 2/2/2 184/184/184 185/185/185 
f 185/185/185 3/3/3 2/2/2 
f 6/6/6 186/186/186 187/187/187 
f 187/187/187 7/7/7 6/6/6 
f 7/7/7 187/187/187 188/188/188 
f 188/188/188 8/8/8 7/7/7 
f 12/12/12 11/11/11 189/189/189 
f 189/189/189 190/190/190 12/12/12 
f 9/9/9 191/191/191 192/192/192 
f 192/192/192 10/10/10 9/9/9 
f 4/4/4 14/14/14 193/193/193 
f 193/193/193 182/182/182 4/4/4 
f 3/3/3 185/185/185 194/194/194 
f 194/194/194 13/13/13 3/3/3 
f 15/15/15 12/12/12 190/190/190 
f 190/190/190 195/195/195 15/15/15 
f 16/16/16 196/196/196 191/191/191 
f 191/191/191 9/9/9 16/16/16 
f 18/18/18 197/197/197 198/198/198 
f 198/198/198 19/19/19 18/18/18 
f 17/17/17 20/20/20 199/199/199 
f 199/199/199 200/200/200 17/17/17 
f 19/19/19 198/198/198 201/201/201 
f 201/201/201 36/36/36 19/19/19 
f 20/20/20 35/35/35 202/202/202 
f 202/202/202 199/199/199 20/20/20 
f 36/36/36 201/201/201 203/203/203 
f 203/203/203 44/44/44 36/36/36 
f 35/35/35 43/43/43 204/204/204 
f 204/204/204 202/202/202 35/35/35 
f 14/14/14 62/62/62 205/205/205 
f 205/205/205 193/193/193 14/14/14 
f 13/13/13 194/194/194 206/206/206 
f 206/206/206 61/61/61 13/13/13 
f 11/11/11 74/74/74 207/207/207 
f 207/207/207 189/189/189 11/11/11 
f 10/10/10 192/192/192 208/208/208 
f 208/208/208 73/73/73 10/10/10 
f 80/80/80 209/209/209 210/210/210 
f 210/210/210 77/77/77 80/80/80 
f 78/78/78 211/211/211 212/212/212 
f 212/212/212 79/79/79 78/78/78 
f 81/81/81 213/213/213 214/214/214 
f 214/214/214 82/82/82 81/81/81 
f 82/82/82 214/214/214 209/209/209 
f 209/209/209 80/80/80 82/82/82 
f 89/89/89 215/215/215 216/216/216 
f 216/216/216 90/90/90 89/89/89 
f 87/87/87 217/217/217 218/218/218 
f 218/218/218 88/88/88 87/87/87 
f 92/92/92 219/219/219 215/215/215 
f 215/215/215 89/89/89 92/92/92 
f 88/88/88 218/218/218 220/220/220 
f 220/220/220 91/91/91 88/88/88 
f 74/74/74 97/97/97 221/221/221 
f 221/221/221 207/207/207 74/74/74 
f 73/73/73 208/208/208 222/222/222 
f 222/222/222 96/96/96 73/73/73 
f 43/43/43 98/98/98 223/223/223 
f 223/223/223 204/204/204 43/43/43 
f 98/98/98 100/100/100 224/224/224 
f 224/224/224 223/223/223 98/98/98 
f 44/44/44 203/203/203 225/225/225 
f 225/225/225 99/99/99 44/44/44 
f 102/102/102 226/226/226 224/224/224 
f 224/224/224 100/100/100 102/102/102 
f 99/99/99 225/225/225 227/227/227 
f 227/227/227 101/101/101 99/99/99 
f 104/104/104 228/228/228 229/229/229 
f 229/229/229 105/105/105 104/104/104 
f 106/106/106 230/230/230 231/231/231 
f 231/231/231 103/103/103 106/106/106 
f 97/97/97 5/5/5 232/232/232 
f 232/232/232 221/221/221 97/97/97 
f 96/96/96 222/222/222 186/186/186 
f 186/186/186 6/6/6 96/96/96 
f 103/103/103 231/231/231 233/233/233 
f 233/233/233 117/117/117 103/103/103 
f 117/117/117 233/233/233 234/234/234 
f 234/234/234 118/118/118 117/117/117 
f 77/77/77 210/210/210 228/228/228 
f 228/228/228 104/104/104 77/77/77 
f 118/118/118 234/234/234 235/235/235 
f 235/235/235 119/119/119 118/118/118 
f 119/119/119 235/235/235 236/236/236 
f 236/236/236 120/120/120 119/119/119 
f 120/120/120 236/236/236 211/211/211 
f 211/211/211 78/78/78 120/120/120 
f 8/8/8 188/188/188 197/197/197 
f 197/197/197 18/18/18 8/8/8 
f 5/5/5 17/17/17 200/200/200 
f 200/200/200 232/232/232 5/5/5 
f 136/136/136 237/237/237 238/238/238 
f 238/238/238 133/133/133 136/136/136 
f 135/135/135 134/134/134 239/239/239 
f 239/239/239 240/240/240 135/135/135 
f 138/138/138 241/241/241 237/237/237 
f 237/237/237 136/136/136 138/138/138 
f 137/137/137 135/135/135 240/240/240 
f 240/240/240 242/242/242 137/137/137 
f 139/139/139 243/243/243 241/241/241 
f 241/241/241 138/138/138 139/139/139 
f 141/141/141 244/244/244 243/243/243 
f 243/243/243 139/139/139 141/141/141 
f 140/140/140 137/137/137 242/242/242 
f 242/242/242 245/245/245 140/140/140 
f 1/1/1 183/183/183 244/244/244 
f 244/244/244 141/141/141 1/1/1 
f 142/142/142 140/140/140 245/245/245 
f 245/245/245 246/246/246 142/142/142 
f 2/2/2 143/143/143 247/247/247 
f 247/247/247 184/184/184 2/2/2 
f 143/143/143 142/142/142 246/246/246 
f 246/246/246 247/247/247 143/143/143 
f 146/146/146 248/248/248 219/219/219 
f 219/219/219 92/92/92 146/146/146 
f 145/145/145 249/249/249 248/248/248 
f 248/248/248 146/146/146 145/145/145 
f 91/91/91 220/220/220 250/250/250 
f 250/250/250 153/153/153 91/91/91 
f 154/154/154 251/251/251 249/249/249 
f 249/249/249 145/145/145 154/154/154 
f 153/153/153 250/250/250 252/252/252 
f 252/252/252 157/157/157 153/153/153 
f 158/158/158 253/253/253 251/251/251 
f 251/251/251 154/154/154 158/158/158 
f 161/161/161 254/254/254 255/255/255 
f 255/255/255 162/162/162 161/161/161 
f 160/160/160 159/159/159 256/256/256 
f 256/256/256 257/257/257 160/160/160 
f 157/157/157 252/252/252 258/258/258 
f 258/258/258 163/163/163 157/157/157 
f 163/163/163 258/258/258 259/259/259 
f 259/259/259 164/164/164 163/163/163 
f 162/162/162 255/255/255 253/253/253 
f 253/253/253 158/158/158 162/162/162 
f 159/159/159 164/164/164 259/259/259 
f 259/259/259 256/256/256 159/159/159 
f 169/169/169 260/260/260 261/261/261 
f 261/261/261 170/170/170 169/169/169 
f 168/168/168 262/262/262 260/260/260 
f 260/260/260 169/169/169 168/168/168 
f 170/170/170 261/261/261 263/263/263 
f 263/263/263 172/172/172 170/170/170 
f 173/173/173 264/264/264 265/265/265 
f 265/265/265 171/171/171 173/173/173 
f 161/161/161 175/175/175 266/266/266 
f 266/266/266 254/254/254 161/161/161 
f 176/176/176 267/267/267 268/268/268 
f 268/268/268 174/174/174 176/176/176 
f 177/177/177 160/160/160 257/257/257 
f 257/257/257 269/269/269 177/177/177 
f 177/177/177 269/269/269 267/267/267 
f 267/267/267 176/176/176 177/177/177 
f 181/181/181 270/270/270 262/262/262 
f 262/262/262 168/168/168 181/181/181 
f 171/171/171 265/265/265 271/271/271 
f 271/271/271 180/180/180 171/171/171 
f 133/133/133 238/238/238 270/270/270 
f 270/270/270 181/181/181 133/133/133 
f 134/134/134 180/180/180 271/271/271 
f 271/271/271 239/239/239 134/134/134 
f 23/23/23 272/272/272 273/273/273 
f 273/273/273 24/24/24 23/23/23 
f 24/24/24 273/273/273 274/274/274 
f 274/274/274 21/21/21 24/24/24 
f 23/23/23 26/26/26 275/275/275 
f 275/275/275 272/272/272 23/23/23 
f 22/22/22 276/276/276 277/277/277 
f 277/277/277 25/25/25 22/22/22 
f 30/30/30 29/29/29 278/278/278 
f 278/278/278 279/279/279 30/30/30 
f 29/29/29 28/28/28 280/280/280 
f 280/280/280 278/278/278 29/29/29 
f 21/21/21 274/274/274 281/281/281 
f 281/281/281 37/37/37 21/21/21 
f 22/22/22 38/38/38 282/282/282 
f 282/282/282 276/276/276 22/22/22 
f 27/27/27 283/283/283 284/284/284 
f 284/284/284 40/40/40 27/27/27 
f 28/28/28 39/39/39 285/285/285 
f 285/285/285 280/280/280 28/28/28 
f 37/37/37 281/281/281 286/286/286 
f 286/286/286 46/46/46 37/37/37 
f 45/45/45 46/46/46 286/286/286 
f 286/286/286 287/287/287 45/45/45 
f 47/47/47 48/48/48 288/288/288 
f 288/288/288 289/289/289 47/47/47 
f 39/39/39 47/47/47 289/289/289 
f 289/289/289 285/285/285 39/39/39 
f 26/26/26 30/30/30 279/279/279 
f 279/279/279 275/275/275 26/26/26 
f 25/25/25 277/277/277 283/283/283 
f 283/283/283 27/27/27 25/25/25 
f 40/40/40 284/284/284 290/290/290 
f 290/290/290 65/65/65 40/40/40 
f 48/48/48 66/66/66 291/291/291 
f 291/291/291 288/288/288 48/48/48 
f 65/65/65 290/290/290 282/282/282 
f 282/282/282 38/38/38 65/65/65 
f 66/66/66 45/45/45 287/287/287 
f 287/287/287 291/291/291 66/66/66 
f 292/292/292 293/293/293 294/294/294 
f 292/292/292 294/294/294 295/295/295 
f 292/292/292 295/295/295 296/296/296 
f 292/292/292 296/296/296 297/297/297 
f 292/292/292 297/297/297 298/298/298 
f 292/292/292 298/298/298 299/299/299 
f 292/292/292 299/299/299 300/300/300 
f 292/292/292 300/300/300 301/301/301 
f 292/292/292 301/301/301 302/302/302 
f 292/292/292 302/302/302 303/303/303 
f 292/292/292 303/303/303 304/304/304 
f 305/305/305 306/306/306 307/307/307 
f 305/305/305 307/307/307 308/308/308 
f 305/305/305 308/308/308 309/309/309 
f 305/305/305 309/309/309 310/310/310 
f 305/305/305 310/310/310 311/311/311 
f 305/305/305 311/311/311 312/312/312 
f 305/305/305 312/312/312 313/313/313 
f 305/305/305 313/313/313 314/314/314 
f 292/292/292 315/315/315 293/293/293 
f 316/316/316 317/317/317 318/318/318 
f 318/318/318 319/319/319 316/316/316 
f 320/320/320 316/316/316 319/319/319 
f 319/319/319 321/321/321 320/320/320 
f 322/322/322 320/320/320 321/321/321 
f 321/321/321 323/323/323 322/322/322 
f 324/324/324 322/322/322 323/323/323 
f 323/323/323 325/325/325 324/324/324 
f 326/326/326 324/324/324 325/325/325 
f 325/325/325 327/327/327 326/326/326 
f 328/328/328 326/326/326 327/327/327 
f 327/327/327 329/329/329 328/328/328 
f 330/330/330 328/328/328 329/329/329 
f 329/329/329 331/331/331 330/330/330 
f 332/332/332 330/330/330 331/331/331 
f 331/331/331 333/333/333 332/332/332 
f 334/334/334 332/332/332 333/333/333 
f 333/333/333 335/335/335 334/334/334 
f 336/336/336 334/334/334 335/335/335 
f 335/335/335 337/337/337 336/336/336 
f 338/338/338 336/336/336 337/337/337 
f 337/337/337 339/339/339 338/338/338 
f 340/340/340 341/341/341 342/342/342 
f 342/342/342 343/343/343 340/340/340 
f 344/344/344 340/340/340 343/343/343 
f 343/343/343 345/345/345 344/344/344 
f 346/346/346 344/344/344 345/345/345 
f 345/345/345 347/347/347 346/346/346 
f 348/348/348 346/346/346 347/347/347 
f 347/347/347 349/349/349 348/348/348 
f 350/350/350 348/348/348 349/349/349 
f 349/349/349 351/351/351 350/350/350 
f 352/352/352 350/350/350 351/351/351 
f 351/351/351 353/353/353 352/352/352 
f 354/354/354 352/352/352 353/353/353 
f 353/353/353 355/355/355 354/354/354 
f 356/356/356 354/354/354 355/355/355 
f 355/355/355 357/357/357 356/356/356 
f 317/317/317 358/358/358 359/359/359 
f 359/359/359 318/318/318 317/317/317 
f 319/319/319 318/318/318 360/360/360 
f 360/360/360 361/361/361 319/319/319 
f 321/321/321 319/319/319 361/361/361 
f 361/361/361 362/362/362 321/321/321 
f 323/323/323 321/321/321 362/362/362 
f 362/362/362 363/363/363 323/323/323 
f 325/325/325 323/323/323 363/363/363 
f 363/363/363 364/364/364 325/325/325 
f 327/327/327 325/325/325 364/364/364 
f 364/364/364 365/365/365 327/327/327 
f 329/329/329 327/327/327 365/365/365 
f 365/365/365 366/366/366 329/329/329 
f 331/331/331 329/329/329 366/366/366 
f 366/366/366 367/367/367 331/331/331 
f 333/333/333 331/331/331 367/367/367 
f 367/367/367 368/368/368 333/333/333 
f 335/335/335 333/333/333 368/368/368 
f 368/368/368 369/369/369 335/335/335 
f 337/337/337 335/335/335 369/369/369 
f 369/369/369 370/370/370 337/337/337 
f 339/339/339 337/337/337 370/370/370 
f 370/370/370 371/371/371 339/339/339 
f 343/343/343 342/342/342 372/372/372 
f 372/372/372 373/373/373 343/343/343 
f 345/345/345 343/343/343 373/373/373 
f 373/373/373 374/374/374 345/345/345 
f 375/375/375 376/376/376 377/377/377 
f 377/377/377 378/378/378 375/375/375 
f 379/379/379 375/375/375 378/378/378 
f 378/378/378 380/380/380 379/379/379 
f 381/381/381 379/379/379 380/380/380 
f 380/380/380 382/382/382 381/381/381 
f 383/383/383 381/381/381 382/382/382 
f 382/382/382 384/384/384 383/383/383 
f 355/355/355 353/353/353 385/385/385 
f 385/385/385 386/386/386 355/355/355 
f 357/357/357 355/355/355 386/386/386 
f 386/386/386 387/387/387 357/357/357 
f 318/318/318 359/359/359 388/388/388 
f 388/388/388 360/360/360 318/318/318 
f 361/361/361 360/360/360 389/389/389 
f 389/389/389 390/390/390 361/361/361 
f 362/362/362 361/361/361 390/390/390 
f 390/390/390 391/391/391 362/362/362 
f 363/363/363 362/362/362 391/391/391 
f 391/391/391 392/392/392 363/363/363 
f 364/364/364 363/363/363 392/392/392 
f 392/392/392 393/393/393 364/364/364 
f 365/365/365 364/364/364 393/393/393 
f 393/393/393 394/394/394 365/365/365 
f 366/366/366 365/365/365 394/394/394 
f 394/394/394 395/395/395 366/366/366 
f 367/367/367 366/366/366 395/395/395 
f 395/395/395 396/396/396 367/367/367 
f 368/368/368 367/367/367 396/396/396 
f 396/396/396 397/397/397 368/368/368 
f 369/369/369 368/368/368 397/397/397 
f 397/397/397 398/398/398 369/369/369 
f 370/370/370 369/369/369 398/398/398 
f 398/398/398 399/399/399 370/370/370 
f 371/371/371 370/370/370 399/399/399 
f 399/399/399 400/400/400 371/371/371 
f 373/373/373 372/372/372 401/401/401 
f 401/401/401 402/402/402 373/373/373 
f 374/374/374 373/373/373 402/402/402 
f 402/402/402 403/403/403 374/374/374 
f 378/378/378 377/377/377 404/404/404 
f 404/404/404 405/405/405 378/378/378 
f 380/380/380 378/378/378 405/405/405 
f 405/405/405 406/406/406 380/380/380 
f 382/382/382 380/380/380 406/406/406 
f 406/406/406 407/407/407 382/382/382 
f 384/384/384 382/382/382 407/407/407 
f 407/407/407 408/408/408 384/384/384 
f 386/386/386 385/385/385 409/409/409 
f 409/409/409 410/410/410 386/386/386 
f 387/387/387 386/386/386 410/410/410 
f 410/410/410 411/411/411 387/387/387 
f 360/360/360 388/388/388 412/412/412 
f 412/412/412 389/389/389 360/360/360 
f 390/390/390 389/389/389 413/413/413 
f 413/413/413 414/414/414 390/390/390 
f 391/391/391 390/390/390 414/414/414 
f 414/414/414 415/415/415 391/391/391 
f 392/392/392 391/391/391 415/415/415 
f 415/415/415 416/416/416 392/392/392 
f 393/393/393 392/392/392 416/416/416 
f 416/416/416 417/417/417 393/393/393 
f 394/394/394 393/393/393 417/417/417 
f 417/417/417 418/418/418 394/394/394 
f 395/395/395 394/394/394 418/418/418 
f 418/418/418 419/419/419 395/395/395 
f 396/396/396 395/395/395 419/419/419 
f 419/419/419 420/420/420 396/396/396 
f 397/397/397 396/396/396 420/420/420 
f 420/420/420 421/421/421 397/397/397 
f 398/398/398 397/397/397 421/421/421 
f 421/421/421 422/422/422 398/398/398 
f 399/399/399 398/398/398 422/422/422 
f 422/422/422 423/423/423 399/399/399 
f 400/400/400 399/399/399 423/423/423 
f 423/423/423 424/424/424 400/400/400 
f 402/402/402 401/401/401 425/425/425 
f 425/425/425 426/426/426 402/402/402 
f 403/403/403 402/402/402 426/426/426 
f 426/426/426 427/427/427 403/403/403 
f 405/405/405 404/404/404 428/428/428 
f 428/428/428 429/429/429 405/405/405 
f 406/406/406 405/405/405 429/429/429 
f 429/429/429 430/430/430 406/406/406 
f 407/407/407 406/406/406 430/430/430 
f 430/430/430 431/431/431 407/407/407 
f 408/408/408 407/407/407 431/431/431 
f 431/431/431 432/432/432 408/408/408 
f 410/410/410 409/409/409 433/433/433 
f 433/433/433 434/434/434 410/410/410 
f 411/411/411 410/410/410 434/434/434 
f 434/434/434 435/435/435 411/411/411 
f 389/389/389 412/412/412 436/436/436 
f 436/436/436 413/413/413 389/389/389 
f 437/437/437 438/438/438 439/439/439 
f 439/439/439 440/440/440 437/437/437 
f 441/441/441 437/437/437 440/440/440 
f 440/440/440 442/442/442 441/441/441 
f 443/443/443 441/441/441 442/442/442 
f 442/442/442 444/444/444 443/443/443 
f 445/445/445 443/443/443 444/444/444 
f 444/444/444 446/446/446 445/445/445 
f 447/447/447 445/445/445 446/446/446 
f 446/446/446 448/448/448 447/447/447 
f 449/449/449 447/447/447 448/448/448 
f 448/448/448 450/450/450 449/449/449 
f 451/451/451 449/449/449 450/450/450 
f 450/450/450 452/452/452 451/451/451 
f 453/453/453 451/451/451 452/452/452 
f 452/452/452 454/454/454 453/453/453 
f 455/455/455 453/453/453 454/454/454 
f 454/454/454 456/456/456 455/455/455 
f 457/457/457 455/455/455 456/456/456 
f 456/456/456 458/458/458 457/457/457 
f 459/459/459 457/457/457 458/458/458 
f 458/458/458 460/460/460 459/459/459 
f 461/461/461 462/462/462 463/463/463 
f 463/463/463 464/464/464 461/461/461 
f 465/465/465 466/466/466 462/462/462 
f 462/462/462 461/461/461 465/465/465 
f 467/467/467 468/468/468 466/466/466 
f 466/466/466 465/465/465 467/467/467 
f 469/469/469 470/470/470 468/468/468 
f 468/468/468 467/467/467 469/469/469 
f 471/471/471 470/470/470 469/469/469 
f 469/469/469 472/472/472 471/471/471 
f 473/473/473 471/471/471 472/472/472 
f 472/472/472 474/474/474 473/473/473 
f 475/475/475 473/473/473 474/474/474 
f 474/474/474 476/476/476 475/475/475 
f 476/476/476 477/477/477 478/478/478 
f 478/478/478 475/475/475 476/476/476 
f 438/438/438 479/479/479 480/480/480 
f 480/480/480 439/439/439 438/438/438 
f 316/316/316 294/294/294 293/293/293 
f 293/293/293 317/317/317 316/316/316 
f 320/320/320 295/295/295 294/294/294 
f 294/294/294 316/316/316 320/320/320 
f 322/322/322 296/296/296 295/295/295 
f 295/295/295 320/320/320 322/322/322 
f 324/324/324 297/297/297 296/296/296 
f 296/296/296 322/322/322 324/324/324 
f 326/326/326 298/298/298 297/297/297 
f 297/297/297 324/324/324 326/326/326 
f 328/328/328 299/299/299 298/298/298 
f 298/298/298 326/326/326 328/328/328 
f 330/330/330 300/300/300 299/299/299 
f 299/299/299 328/328/328 330/330/330 
f 332/332/332 301/301/301 300/300/300 
f 300/300/300 330/330/330 332/332/332 
f 334/334/334 302/302/302 301/301/301 
f 301/301/301 332/332/332 334/334/334 
f 336/336/336 303/303/303 302/302/302 
f 302/302/302 334/334/334 336/336/336 
f 338/338/338 304/304/304 303/303/303 
f 303/303/303 336/336/336 338/338/338 
f 340/340/340 307/307/307 306/306/306 
f 306/306/306 341/341/341 340/340/340 
f 344/344/344 308/308/308 307/307/307 
f 307/307/307 340/340/340 344/344/344 
f 346/346/346 309/309/309 308/308/308 
f 308/308/308 344/344/344 346/346/346 
f 348/348/348 310/310/310 309/309/309 
f 309/309/309 346/346/346 348/348/348 
f 350/350/350 311/311/311 310/310/310 
f 310/310/310 348/348/348 350/350/350 
f 352/352/352 312/312/312 311/311/311 
f 311/311/311 350/350/350 352/352/352 
f 354/354/354 313/313/313 312/312/312 
f 312/312/312 352/352/352 354/354/354 
f 356/356/356 314/314/314 313/313/313 
f 313/313/313 354/354/354 356/356/356 
f 317/317/317 293/293/293 315/315/315 
f 315/315/315 358/358/358 317/317/317 
f 434/434/434 433/433/433 481/481/481 
f 481/481/481 482/482/482 434/434/434 
f 432/432/432 431/431/431 483/483/483 
f 483/483/483 484/484/484 432/432/432 
f 431/431/431 430/430/430 485/485/485 
f 485/485/485 483/483/483 431/431/431 
f 485/485/485 430/430/430 429/429/429 
f 429/429/429 486/486/486 485/485/485 
f 486/486/486 429/429/429 428/428/428 
f 428/428/428 487/487/487 486/486/486 
f 488/488/488 427/427/427 426/426/426 
f 426/426/426 489/489/489 488/488/488 
f 489/489/489 426/426/426 425/425/425 
f 425/425/425 490/490/490 489/489/489 
f 424/424/424 423/423/423 457/457/457 
f 457/457/457 459/459/459 424/424/424 
f 423/423/423 422/422/422 455/455/455 
f 455/455/455 457/457/457 423/423/423 
f 422/422/422 421/421/421 453/453/453 
f 453/453/453 455/455/455 422/422/422 
f 421/421/421 420/420/420 451/451/451 
f 451/451/451 453/453/453 421/421/421 
f 420/420/420 419/419/419 449/449/449 
f 449/449/449 451/451/451 420/420/420 
f 419/419/419 418/418/418 447/447/447 
f 447/447/447 449/449/449 419/419/419 
f 418/418/418 417/417/417 445/445/445 
f 445/445/445 447/447/447 418/418/418 
f 417/417/417 416/416/416 443/443/443 
f 443/443/443 445/445/445 417/417/417 
f 416/416/416 415/415/415 441/441/441 
f 441/441/441 443/443/443 416/416/416 
f 415/415/415 414/414/414 437/437/437 
f 437/437/437 441/441/441 415/415/415 
f 414/414/414 413/413/413 438/438/438 
f 438/438/438 437/437/437 414/414/414 
f 413/413/413 436/436/436 479/479/479 
f 479/479/479 438/438/438 413/413/413 
f 435/435/435 434/434/434 482/482/482 
f 482/482/482 491/491/491 435/435/435 
f 463/463/463 492/492/492 493/493/493 
f 493/493/493 464/464/464 463/463/463 
f 494/494/494 495/495/495 496/496/496 
f 496/496/496 497/497/497 494/494/494 
f 498/498/498 499/499/499 500/500/500 
f 500/500/500 501/501/501 498/498/498 
f 497/497/497 496/496/496 502/502/502 
f 502/502/502 503/503/503 497/497/497 
f 499/499/499 504/504/504 505/505/505 
f 505/505/505 500/500/500 499/499/499 
f 503/503/503 502/502/502 506/506/506 
f 506/506/506 507/507/507 503/503/503 
f 504/504/504 508/508/508 509/509/509 
f 509/509/509 505/505/505 504/504/504 
f 507/507/507 506/506/506 510/510/510 
f 510/510/510 511/511/511 507/507/507 
f 508/508/508 512/512/512 513/513/513 
f 513/513/513 509/509/509 508/508/508 
f 514/514/514 511/511/511 510/510/510 
f 510/510/510 515/515/515 514/514/514 
f 516/516/516 517/517/517 513/513/513 
f 513/513/513 512/512/512 516/516/516 
f 518/518/518 514/514/514 515/515/515 
f 515/515/515 519/519/519 518/518/518 
f 520/520/520 521/521/521 517/517/517 
f 517/517/517 516/516/516 520/520/520 
f 522/522/522 518/518/518 519/519/519 
f 519/519/519 523/523/523 522/522/522 
f 524/524/524 525/525/525 521/521/521 
f 521/521/521 520/520/520 524/524/524 
f 526/526/526 527/527/527 525/525/525 
f 525/525/525 524/524/524 526/526/526 
f 528/528/528 522/522/522 523/523/523 
f 523/523/523 529/529/529 528/528/528 
f 478/478/478 477/477/477 530/530/530 
f 530/530/530 531/531/531 478/478/478 
f 532/532/532 533/533/533 534/534/534 
f 535/535/535 532/532/532 534/534/534 
f 536/536/536 535/535/535 534/534/534 
f 537/537/537 536/536/536 534/534/534 
f 538/538/538 537/537/537 534/534/534 
f 539/539/539 538/538/538 534/534/534 
f 540/540/540 539/539/539 534/534/534 
f 541/541/541 540/540/540 534/534/534 
f 542/542/542 541/541/541 534/534/534 
f 543/543/543 542/542/542 534/534/534 
f 495/495/495 543/543/543 534/534/534 
f 496/496/496 495/495/495 534/534/534 
f 502/502/502 496/496/496 534/534/534 
f 506/506/506 502/502/502 534/534/534 
f 510/510/510 506/506/506 534/534/534 
f 515/515/515 510/510/510 534/534/534 
f 519/519/519 515/515/515 534/534/534 
f 523/523/523 519/519/519 534/534/534 
f 529/529/529 523/523/523 534/534/534 
f 533/533/533 529/529/529 534/534/534 
f 544/544/544 545/545/545 546/546/546 
f 546/546/546 547/547/547 544/544/544 
f 547/547/547 546/546/546 548/548/548 
f 548/548/548 549/549/549 547/547/547 
f 549/549/549 548/548/548 550/550/550 
f 550/550/550 551/551/551 549/549/549 
f 551/551/551 550/550/550 552/552/552 
f 552/552/552 553/553/553 551/551/551 
f 553/553/553 552/552/552 554/554/554 
f 554/554/554 555/555/555 553/553/553 
f 555/555/555 554/554/554 556/556/556 
f 556/556/556 557/557/557 555/555/555 
f 557/557/557 556/556/556 558/558/558 
f 558/558/558 559/559/559 557/557/557 
f 559/559/559 558/558/558 545/545/545 
f 545/545/545 544/544/544 559/559/559 
f 560/560/560 544/544/544 547/547/547 
f 547/547/547 561/561/561 560/560/560 
f 561/561/561 547/547/547 549/549/549 
f 549/549/549 562/562/562 561/561/561 
f 562/562/562 549/549/549 551/551/551 
f 551/551/551 563/563/563 562/562/562 
f 563/563/563 551/551/551 553/553/553 
f 553/553/553 564/564/564 563/563/563 
f 564/564/564 553/553/553 555/555/555 
f 555/555/555 565/565/565 564/564/564 
f 565/565/565 555/555/555 557/557/557 
f 557/557/557 566/566/566 565/565/565 
f 566/566/566 557/557/557 559/559/559 
f 559/559/559 567/567/567 566/566/566 
f 567/567/567 559/559/559 544/544/544 
f 544/544/544 560/560/560 567/567/567 
f 568/568/568 560/560/560 561/561/561 
f 561/561/561 569/569/569 568/568/568 
f 569/569/569 561/561/561 562/562/562 
f 562/562/562 570/570/570 569/569/569 
f 570/570/570 562/562/562 563/563/563 
f 563/563/563 571/571/571 570/570/570 
f 571/571/571 563/563/563 564/564/564 
f 564/564/564 572/572/572 571/571/571 
f 572/572/572 564/564/564 565/565/565 
f 565/565/565 573/573/573 572/572/572 
f 573/573/573 565/565/565 566/566/566 
f 566/566/566 574/574/574 573/573/573 
f 574/574/574 566/566/566 567/567/567 
f 567/567/567 575/575/575 574/574/574 
f 575/575/575 567/567/567 560/560/560 
f 560/560/560 568/568/568 575/575/575 
f 568/568/568 569/569/569 576/576/576 
f 569/569/569 570/570/570 576/576/576 
f 570/570/570 571/571/571 576/576/576 
f 571/571/571 572/572/572 576/576/576 
f 572/572/572 573/573/573 576/576/576 
f 573/573/573 574/574/574 576/576/576 
f 574/574/574 575/575/575 576/576/576 
f 575/575/575 568/568/568 576/576/576 

