# This file is brought to you by Roblox Corporation
# Generated by Roblox Studio

mtllib LongHairHeadBandBrown.mtl

g Handle1

v -89.3978 258.665 -83.3883 
v -89.4165 258.667 -83.4296 
v -89.5219 258.629 -83.3295 
v -89.4685 258.615 -83.2424 
v -89.4393 258.67 -83.4842 
v -89.5656 258.634 -83.434 
v -89.446 258.671 -83.5367 
v -89.5781 258.635 -83.541 
v -88.8252 258.728 -83.4083 
v -88.7396 258.643 -83.3176 
v -88.6812 258.638 -83.4227 
v -88.7981 258.731 -83.4571 
v -88.9268 258.753 -83.3288 
v -88.8643 258.653 -83.1379 
v -89.0656 258.773 -83.3133 
v -89.1793 258.751 -83.3347 
v -89.1917 258.688 -83.1404 
v -89.0168 258.663 -83.0984 
v -89.381 258.654 -83.1703 
v -89.2207 258.639 -83.1525 
v -89.2084 258.699 -83.3394 
v -89.3592 258.713 -83.3537 
v -89.3878 258.607 -83.1896 
v -89.5358 258.51 -83.1565 
v -89.4395 258.502 -83.0899 
v -89.6449 258.526 -83.2647 
v -89.7074 258.532 -83.3923 
v -89.7249 258.534 -83.5458 
v -88.6575 258.48 -83.2194 
v -88.5884 258.473 -83.3722 
v -88.8128 258.488 -83.0366 
v -89.2036 258.548 -83.0067 
v -88.9995 258.515 -82.9555 
v -89.3978 258.539 -83.0504 
v -89.2364 258.522 -83.0262 
v -89.5943 258.413 -83.1046 
v -89.4694 258.407 -83.0195 
v -89.7168 258.422 -83.232 
v -89.7833 258.428 -83.3736 
v -88.6284 258.321 -83.1776 
v -88.5607 258.315 -83.347 
v -88.7834 258.343 -82.9928 
v -89.2142 258.432 -82.9368 
v -88.9925 258.39 -82.9032 
v -89.4037 258.43 -82.9768 
v -89.2555 258.411 -82.96 
v -89.6308 258.272 -83.0749 
v -89.5151 258.243 -82.9751 
v -89.752 258.296 -83.2123 
v -89.8194 258.303 -83.3707 
v -88.6015 258.157 -83.1545 
v -88.5353 258.151 -83.3241 
v -88.7853 258.176 -82.9672 
v -89.2325 258.251 -82.8857 
v -88.9992 258.198 -82.8771 
v -89.3919 258.254 -82.9262 
v -89.2729 258.24 -82.9102 
v -88.4992 257.932 -83.3103 
v -88.5708 257.938 -83.1292 
v -88.5483 257.672 -83.1252 
v -88.4709 257.665 -83.3077 
v -88.7743 257.961 -82.9472 
v -88.6743 257.7 -82.9455 
v -89.0115 258.011 -82.8552 
v -89.014 257.76 -82.8459 
v -89.308 258.055 -82.8842 
v -89.2431 257.785 -82.8841 
v -89.3113 258.032 -82.9212 
v -89.5579 258.061 -82.9639 
v -89.439 257.759 -82.9271 
v -89.3928 258.67 -83.4839 
v -89.2647 257.537 -82.8742 
v -89.1707 257.583 -82.8648 
v -88.9759 257.373 -82.8393 
v -88.6492 257.412 -82.9354 
v -88.5278 257.387 -83.1236 
v -88.4553 257.38 -83.3064 
v -89.0606 257.294 -82.8326 
v -88.6277 257.096 -82.9352 
v -88.518 257.062 -83.107 
v -88.4554 257.056 -83.303 
v -89.8416 258.197 -83.3613 
v -89.7761 258.149 -83.2061 
v -89.6702 258.103 -83.062 
v -89.5579 258.061 -82.9639 
v -89.3337 258.639 -83.361 
v -89.3923 258.589 -83.1975 
v -89.4676 258.597 -83.2467 
v -89.3806 258.644 -83.3893 
v -89.5201 258.61 -83.3326 
v -89.4172 258.648 -83.4307 
v -89.5632 258.615 -83.4355 
v -89.4398 258.65 -83.4848 
v -89.5757 258.616 -83.5409 
v -89.4465 258.651 -83.5367 
v -88.8756 258.644 -83.4644 
v -88.6879 258.62 -83.4245 
v -88.7455 258.625 -83.3209 
v -88.9239 258.644 -83.4183 
v -88.878 258.599 -83.2112 
v -89.0393 258.61 -83.3703 
v -89.0514 258.555 -83.168 
v -89.1534 258.621 -83.3551 
v -89.2267 258.573 -83.1746 
v -89.2156 258.627 -83.3479 
v -89.3923 258.589 -83.1975 
v -89.3337 258.639 -83.361 
v -89.438 258.486 -83.0992 
v -89.5325 258.493 -83.1643 
v -89.6396 258.508 -83.2702 
v -89.7005 258.515 -83.3949 
v -89.718 258.517 -83.5455 
v -88.5993 258.457 -83.3757 
v -88.6669 258.463 -83.2256 
v -88.8311 258.473 -83.0983 
v -89.0184 258.443 -83.0548 
v -89.241 258.466 -83.0616 
v -89.438 258.486 -83.0992 
v -89.4664 258.4 -83.0311 
v -89.5885 258.406 -83.1144 
v -89.7081 258.414 -83.2385 
v -89.773 258.421 -83.3764 
v -89.7863 258.426 -83.5478 
v -88.5732 258.309 -83.3513 
v -88.6391 258.315 -83.1853 
v -88.8003 258.33 -83.0397 
v -89.0127 258.348 -82.9966 
v -89.2584 258.372 -83.0022 
v -89.4664 258.4 -83.0311 
v -89.5113 258.242 -82.9874 
v -89.6239 258.271 -83.0853 
v -89.742 258.295 -83.2189 
v -89.808 258.302 -83.3734 
v -89.8208 258.32 -83.5489 
v -88.5656 258.153 -83.3292 
v -88.6298 258.159 -83.1634 
v -88.7874 258.171 -82.9994 
v -89.0162 258.188 -82.9472 
v -89.2745 258.213 -82.955 
v -89.5113 258.242 -82.9874 
v -88.5597 257.937 -83.3167 
v -88.566 257.673 -83.3151 
v -88.6362 257.679 -83.1364 
v -88.629 257.944 -83.1395 
v -88.7839 257.705 -83.0107 
v -88.7851 257.957 -83.0153 
v -89.0315 257.755 -82.9171 
v -89.0281 258.007 -82.9268 
v -89.2461 257.782 -82.9193 
v -89.3109 258.031 -82.9346 
v -89.4366 257.757 -82.9399 
v -89.554 258.06 -82.976 
v -89.3806 258.644 -83.3893 
v -89.208 258.643 -83.5289 
v -89.4172 258.648 -83.4307 
v -89.4398 258.65 -83.4848 
v -89.4465 258.651 -83.5367 
v -89.1745 257.577 -82.8996 
v -89.2619 257.534 -82.8867 
v -88.9858 257.368 -82.8749 
v -88.7657 257.417 -82.9719 
v -88.6397 257.395 -83.1352 
v -88.5692 257.389 -83.3145 
v -89.0649 257.292 -82.8456 
v -88.8443 257.113 -82.8876 
v -88.7378 257.105 -82.9473 
v -88.569 257.064 -83.3111 
v -88.6299 257.07 -83.1185 
v -89.7658 258.148 -83.2129 
v -89.8287 258.195 -83.3632 
v -89.6627 258.102 -83.0724 
v -89.554 258.06 -82.976 
v -88.8363 257.115 -82.8765 
v -88.6998 256.478 -83.021 
v -88.6154 256.472 -83.0081 
v -88.6907 256.496 -82.9159 
v -88.7742 256.501 -82.9294 
v -88.5685 256.449 -83.3013 
v -88.4793 256.442 -83.2962 
v -88.5431 256.455 -83.1307 
v -88.6299 256.46 -83.1414 
v -89.2025 258.711 -83.4767 
v -89.3587 258.722 -83.4779 
v -89.3634 258.662 -83.3602 
v -89.3985 258.498 -83.0752 
v -89.4033 258.396 -83.006 
v -89.39 258.228 -82.9577 
v -89.3113 258.032 -82.9212 
v -89.3634 258.662 -83.3602 
v -89.3878 258.607 -83.1896 
v -89.3985 258.498 -83.0752 
v -89.4033 258.396 -83.006 
v -89.39 258.228 -82.9577 
v -89.066 258.79 -83.452 
v -89.1743 258.762 -83.4509 
v -89.3575 258.671 -83.4836 
v -88.9323 258.779 -83.4542 
v -88.9328 258.782 -83.52 
v -89.0716 258.794 -83.5245 
v -89.1711 258.768 -83.5277 
v -89.2003 258.715 -83.5287 
v -89.3592 258.727 -83.5339 
v -89.3638 258.675 -83.534 
v -89.3989 258.673 -83.5351 
v -88.7867 258.731 -83.5152 
v -89.3575 258.671 -83.4836 
v -89.3638 258.675 -83.534 
v -88.8695 258.644 -83.5179 
v -88.6764 258.619 -83.5116 
v -88.5863 258.456 -83.5087 
v -88.5594 258.308 -83.5078 
v -88.5511 258.152 -83.5075 
v -88.5448 257.936 -83.5073 
v -88.551 257.672 -83.5075 
v -88.5542 257.388 -83.5076 
v -88.5538 257.063 -83.5076 
v -88.6696 258.637 -83.5114 
v -88.5753 258.472 -83.5083 
v -88.5468 258.314 -83.5074 
v -88.5206 258.15 -83.5065 
v -88.4558 257.664 -83.5044 
v -88.4841 257.931 -83.5053 
v -88.4402 257.38 -83.5039 
v -88.4401 257.055 -83.5039 
v -88.5256 256.446 -83.5067 
v -88.4363 256.439 -83.5038 
v -89.3883 258.665 -83.6816 
v -89.4493 258.615 -83.8319 
v -89.5082 258.629 -83.7484 
v -89.4096 258.667 -83.6417 
v -89.5587 258.634 -83.647 
v -89.4359 258.67 -83.5886 
v -88.6754 258.638 -83.6007 
v -88.7269 258.643 -83.7093 
v -88.8181 258.728 -83.6244 
v -88.7943 258.731 -83.5739 
v -88.8401 258.653 -83.8811 
v -88.9144 258.753 -83.7103 
v -89.0519 258.773 -83.7348 
v -88.9892 258.663 -83.9461 
v -89.1664 258.688 -83.9155 
v -89.1667 258.751 -83.7209 
v -89.3573 258.654 -83.8981 
v -89.3475 258.713 -83.7136 
v -89.196 258.699 -83.7181 
v -89.1962 258.639 -83.9054 
v -89.3653 258.607 -83.8793 
v -89.4104 258.502 -83.9821 
v -89.5109 258.51 -83.9219 
v -89.6268 258.526 -83.8211 
v -89.6975 258.532 -83.6978 
v -88.5795 258.473 -83.645 
v -88.6385 258.48 -83.802 
v -88.7928 258.489 -83.991 
v -88.9627 258.515 -84.0875 
v -89.1696 258.548 -84.0498 
v -89.2036 258.522 -84.0324 
v -89.3663 258.539 -84.0188 
v -89.4357 258.407 -84.0543 
v -89.5659 258.413 -83.9776 
v -89.6964 258.422 -83.8583 
v -89.7719 258.428 -83.7214 
v -88.5503 258.315 -83.6683 
v -88.6068 258.321 -83.8418 
v -88.758 258.336 -84.0378 
v -88.955 258.396 -84.1389 
v -89.1756 258.432 -84.1202 
v -89.2183 258.411 -84.0998 
v -89.3674 258.43 -84.0927 
v -89.4784 258.243 -84.1015 
v -89.6003 258.272 -84.0095 
v -89.7302 258.296 -83.8803 
v -89.799 258.382 -83.7326 
v -88.5233 258.151 -83.6895 
v -88.5784 258.157 -83.863 
v -88.7269 258.176 -84.063 
v -88.9572 258.198 -84.1658 
v -89.1906 258.251 -84.1724 
v -89.2325 258.24 -84.1505 
v -89.3522 258.254 -84.1424 
v -88.4849 257.948 -83.7009 
v -88.4581 257.665 -83.7018 
v -88.5184 257.671 -83.8887 
v -88.5462 257.938 -83.8864 
v -88.6306 257.7 -84.0731 
v -88.7305 257.96 -84.0778 
v -88.9699 257.76 -84.1979 
v -88.968 258.011 -84.1884 
v -89.201 257.785 -84.1747 
v -89.2659 258.055 -84.1788 
v -89.2715 258.032 -84.1421 
v -89.3993 257.759 -84.1445 
v -89.5295 258.041 -84.1134 
v -89.3895 258.67 -83.5859 
v -89.2219 257.537 -84.186 
v -89.1276 257.583 -84.1892 
v -88.9315 257.373 -84.202 
v -88.6118 257.412 -84.0848 
v -88.5029 257.387 -83.8892 
v -88.4425 257.38 -83.702 
v -89.0156 257.294 -84.2142 
v -88.5902 257.096 -84.0837 
v -88.492 257.062 -83.9051 
v -88.4423 257.056 -83.7053 
v -89.7505 258.183 -83.8879 
v -89.8145 258.327 -83.7389 
v -89.6406 258.099 -84.0277 
v -89.5295 258.041 -84.1134 
v -89.3225 258.639 -83.7047 
v -89.3711 258.644 -83.6795 
v -89.4487 258.597 -83.8275 
v -89.3703 258.589 -83.8716 
v -89.4104 258.648 -83.6406 
v -89.5067 258.61 -83.7452 
v -89.4365 258.65 -83.5881 
v -89.5563 258.615 -83.6453 
v -88.8721 258.644 -83.5717 
v -88.9173 258.644 -83.6208 
v -88.7329 258.625 -83.7064 
v -88.6822 258.62 -83.5993 
v -89.0293 258.61 -83.6763 
v -88.858 258.599 -83.8245 
v -89.1422 258.621 -83.6988 
v -89.0282 258.555 -83.8789 
v -89.2038 258.627 -83.71 
v -89.2036 258.573 -83.8838 
v -89.3225 258.639 -83.7047 
v -89.3703 258.589 -83.8716 
v -89.5081 258.493 -83.9139 
v -89.4095 258.486 -83.9727 
v -89.6218 258.508 -83.8152 
v -89.6907 258.515 -83.6948 
v -88.6483 258.463 -83.7964 
v -88.5906 258.457 -83.6423 
v -88.8038 258.473 -83.9341 
v -88.9879 258.443 -83.9897 
v -89.2105 258.466 -83.9974 
v -89.4095 258.486 -83.9727 
v -89.5607 258.406 -83.9674 
v -89.4334 258.4 -84.0425 
v -89.6882 258.414 -83.8513 
v -89.7619 258.421 -83.718 
v -88.618 258.315 -83.8348 
v -88.563 258.309 -83.6649 
v -88.7693 258.33 -83.9906 
v -88.9785 258.348 -84.0474 
v -89.224 258.372 -84.0579 
v -89.4334 258.4 -84.0425 
v -89.5941 258.271 -83.9987 
v -89.4754 258.242 -84.0891 
v -89.7206 258.295 -83.8731 
v -89.7878 258.38 -83.7292 
v -88.6072 258.159 -83.8561 
v -88.554 258.153 -83.6864 
v -88.7538 258.171 -84.03 
v -88.9787 258.188 -84.097 
v -89.237 258.213 -84.1059 
v -89.4754 258.242 -84.0891 
v -88.6049 257.944 -83.8798 
v -88.6118 257.679 -83.8834 
v -88.5534 257.673 -83.7005 
v -88.5456 257.954 -83.6985 
v -88.7525 257.957 -84.0139 
v -88.7511 257.705 -84.0184 
v -88.9893 258.007 -84.1181 
v -88.992 257.755 -84.128 
v -89.272 258.031 -84.1287 
v -89.2064 257.782 -84.1397 
v -89.5263 258.04 -84.101 
v -89.3977 257.757 -84.1316 
v -89.3711 258.644 -83.6795 
v -89.4104 258.648 -83.6406 
v -89.4365 258.65 -83.5881 
v -89.22 257.534 -84.1734 
v -89.1336 257.577 -84.1547 
v -88.9437 257.368 -84.1671 
v -88.7304 257.417 -84.056 
v -88.6153 257.395 -83.8848 
v -88.5566 257.389 -83.7013 
v -89.0207 257.292 -84.2015 
v -88.8033 257.113 -84.1452 
v -88.7009 257.105 -84.0788 
v -88.6044 257.07 -83.9009 
v -88.5561 257.064 -83.7047 
v -89.8029 258.326 -83.7355 
v -89.7406 258.182 -83.8805 
v -89.6338 258.098 -84.0169 
v -89.5263 258.04 -84.101 
v -88.7947 257.115 -84.1558 
v -88.6519 256.496 -84.107 
v -88.5828 256.472 -84.0101 
v -88.6678 256.478 -84.0027 
v -88.7361 256.501 -84.0989 
v -88.5186 256.455 -83.883 
v -88.4657 256.442 -83.7137 
v -88.5551 256.449 -83.7145 
v -88.6059 256.46 -83.878 
v -89.1991 258.711 -83.5807 
v -89.355 258.722 -83.5896 
v -89.3521 258.662 -83.7075 
v -89.3685 258.498 -83.9941 
v -89.3688 258.396 -84.0634 
v -89.3525 258.228 -84.1108 
v -89.2715 258.032 -84.1421 
v -89.3521 258.662 -83.7075 
v -89.3653 258.607 -83.8793 
v -89.3685 258.498 -83.9941 
v -89.3688 258.396 -84.0634 
v -89.3525 258.228 -84.1108 
v -89.1693 258.762 -83.6046 
v -89.0613 258.79 -83.5964 
v -89.3543 258.671 -83.5839 
v -88.928 258.779 -83.5856 
v -89.3543 258.671 -83.5839 
v -89.8 258.425 -83.5491 
v -89.8388 258.322 -83.5441 
v -89.8397 258.249 -83.5468 
v -89.8571 258.251 -83.5447 

vn -0.0866142 0.984252 0.149606 
vn -0.11811 0.992126 0.0944882 
vn -0.354331 0.897638 0.267717 
vn -0.283465 0.858268 0.433071 
vn -0.141732 0.984252 0.0708661 
vn -0.409449 0.897638 0.141732 
vn -0.165354 0.984252 -0.00787402 
vn -0.433071 0.905512 -0.015748 
vn 0.433071 0.858268 0.275591 
vn 0.622047 0.708661 0.338583 
vn 0.716535 0.661417 0.212598 
vn 0.456693 0.866142 0.188976 
vn 0.283465 0.92126 0.283465 
vn 0.425197 0.740157 0.519685 
vn -0.00787402 0.96063 0.267717 
vn -0.590551 0.795276 0.133858 
vn -0.496063 0.748031 0.440945 
vn 0.0866142 0.795276 0.598425 
vn -0.606299 0.716535 0.338583 
vn -0.511811 0.740157 0.433071 
vn -0.496063 0.858268 0.15748 
vn -0.614173 0.779528 0.11811 
vn -0.787402 0.559055 0.259843 
vn -0.425197 0.669291 0.606299 
vn -0.291339 0.677165 0.677165 
vn -0.566929 0.700787 0.440945 
vn -0.661417 0.716535 0.212598 
vn -0.708661 0.708661 -0.023622 
vn 0.779528 0.417323 0.456693 
vn 0.897638 0.370079 0.23622 
vn 0.566929 0.440945 0.692913 
vn -0.417323 0.598425 0.685039 
vn 0.149606 0.535433 0.834646 
vn -0.700787 0.496063 0.511811 
vn -0.401575 0.598425 0.692913 
vn -0.551181 0.464567 0.692913 
vn -0.307087 0.464567 0.826772 
vn -0.732283 0.440945 0.519685 
vn -0.858268 0.440945 0.259843 
vn 0.834646 0.23622 0.503937 
vn 0.952756 0.19685 0.228346 
vn 0.606299 0.220472 0.76378 
vn -0.354331 0.409449 0.84252 
vn 0.188976 0.267717 0.944882 
vn -0.708661 0.299213 0.637795 
vn -0.338583 0.393701 0.850394 
vn -0.645669 0.259843 0.716535 
vn -0.362205 0.23622 0.905512 
vn -0.80315 0.23622 0.543307 
vn -0.929134 0.251969 0.267717 
vn 0.826772 0.181102 0.535433 
vn 0.96063 0.173228 0.220472 
vn 0.566929 0.11811 0.811024 
vn -0.291339 0.204724 0.937008 
vn 0.204724 0.11811 0.976378 
vn -0.732283 0.0314961 0.677165 
vn -0.346457 0.244094 0.905512 
vn 0.968504 0.133858 0.228346 
vn 0.826772 0.15748 0.535433 
vn 0.88189 0.0787402 0.472441 
vn 0.968504 0.0787402 0.228346 
vn 0.511811 0.141732 0.850394 
vn 0.582677 0.110236 0.80315 
vn 0.141732 0.0551181 0.992126 
vn 0.0787402 0.0472441 1 
vn -0.606299 -0.125984 0.787402 
vn -0.19685 0.0393701 0.976378 
vn -0.677165 -0.110236 0.724409 
vn -0.661417 -0.267717 0.700787 
vn -0.76378 -0.322835 0.566929 
vn -0.015748 1 0.0629921 
vn -0.629921 -0.377953 0.677165 
vn -0.125984 0.0393701 0.992126 
vn 0.133858 0.0314961 0.992126 
vn 0.598425 0.0551181 0.80315 
vn 0.889764 0.0551181 0.448819 
vn 0.976378 0.0314961 0.220472 
vn -0.370079 -0.401575 0.834646 
vn 0.606299 0.00787402 0.795276 
vn 0.905512 -0.00787402 0.433071 
vn 0.984252 -0.023622 0.19685 
vn -0.834646 -0.551181 0.0472441 
vn -0.771654 -0.566929 0.291339 
vn -0.708661 -0.527559 0.464567 
vn -0.661417 -0.267717 0.700787 
vn -0.023622 -0.976378 -0.19685 
vn 0.11811 -0.850394 -0.511811 
vn 0.275591 -0.858268 -0.433071 
vn 0.0393701 -0.984252 -0.165354 
vn 0.354331 -0.897638 -0.267717 
vn 0.0866142 -0.992126 -0.110236 
vn 0.417323 -0.897638 -0.141732 
vn 0.11811 -0.992126 -0.0551181 
vn 0.433071 -0.897638 0.015748 
vn 0.125984 -0.992126 0 
vn -0.0629921 -1 -0.015748 
vn -0.566929 -0.811024 -0.149606 
vn -0.393701 -0.850394 -0.354331 
vn 0.0472441 -0.992126 -0.141732 
vn -0.102362 -0.850394 -0.511811 
vn 0.0551181 -0.96063 -0.259843 
vn -0.015748 -0.850394 -0.535433 
vn -0.110236 -0.976378 -0.188976 
vn -0.0472441 -0.858268 -0.511811 
vn -0.0944882 -0.976378 -0.204724 
vn 0.11811 -0.850394 -0.511811 
vn -0.023622 -0.976378 -0.19685 
vn 0.228346 -0.677165 -0.700787 
vn 0.417323 -0.677165 -0.606299 
vn 0.559055 -0.700787 -0.440945 
vn 0.661417 -0.724409 -0.212598 
vn 0.700787 -0.708661 0.023622 
vn -0.897638 -0.362205 -0.23622 
vn -0.708661 -0.448819 -0.543307 
vn -0.338583 -0.566929 -0.748031 
vn -0.0629921 -0.614173 -0.787402 
vn 0.015748 -0.629921 -0.771654 
vn 0.228346 -0.677165 -0.700787 
vn 0.275591 -0.488189 -0.826772 
vn 0.543307 -0.480315 -0.685039 
vn 0.724409 -0.456693 -0.519685 
vn 0.858268 -0.456693 -0.251969 
vn 0.88189 -0.472441 0.015748 
vn -0.96063 -0.149606 -0.228346 
vn -0.80315 -0.220472 -0.559055 
vn -0.464567 -0.322835 -0.826772 
vn -0.102362 -0.393701 -0.913386 
vn 0.0314961 -0.425197 -0.905512 
vn 0.275591 -0.488189 -0.826772 
vn 0.362205 -0.244094 -0.897638 
vn 0.645669 -0.267717 -0.716535 
vn 0.80315 -0.244094 -0.543307 
vn 0.937008 -0.251969 -0.251969 
vn 0.96063 -0.283465 -0.00787402 
vn -0.968504 -0.0629921 -0.228346 
vn -0.826772 -0.0866142 -0.551181 
vn -0.503937 -0.110236 -0.858268 
vn -0.110236 -0.19685 -0.976378 
vn 0.0551181 -0.204724 -0.976378 
vn 0.362205 -0.244094 -0.897638 
vn -0.976378 -0.00787402 -0.228346 
vn -0.976378 0.015748 -0.228346 
vn -0.826772 -0.015748 -0.559055 
vn -0.80315 -0.0314961 -0.590551 
vn -0.511811 -0.0787402 -0.850394 
vn -0.511811 0 -0.858268 
vn -0.173228 -0.0787402 -0.984252 
vn -0.141732 -0.0551181 -0.984252 
vn 0.0551181 -0.0787402 -0.992126 
vn 0.0866142 -0.0866142 -0.992126 
vn -0.527559 -0.417323 -0.740157 
vn -0.165354 -0.574803 -0.80315 
vn 0.0393701 -0.984252 -0.165354 
vn -0.0472441 -1 0 
vn 0.0866142 -0.992126 -0.110236 
vn 0.11811 -0.992126 -0.0551181 
vn 0.125984 -0.992126 0 
vn -0.0393701 -0.141732 -0.992126 
vn -0.543307 -0.527559 -0.653543 
vn -0.259843 -0.15748 -0.952756 
vn -0.590551 -0.110236 -0.80315 
vn -0.874016 -0.0314961 -0.480315 
vn -0.976378 0 -0.220472 
vn -0.661417 -0.645669 -0.385827 
vn -0.850394 -0.433071 -0.307087 
vn -0.677165 -0.0629921 -0.732283 
vn -0.976378 -0.00787402 -0.19685 
vn -0.905512 -0.00787402 -0.425197 
vn 0.370079 -0.787402 -0.488189 
vn 0.488189 -0.795276 -0.362205 
vn 0.251969 -0.811024 -0.535433 
vn -0.165354 -0.574803 -0.80315 
vn -0.141732 -0.212598 0.968504 
vn -0.637795 -0.716535 -0.283465 
vn 0.511811 -0.708661 0.480315 
vn 0.251969 -0.582677 0.771654 
vn -0.811024 -0.519685 0.283465 
vn -0.685039 -0.708661 -0.165354 
vn 0.653543 -0.724409 0.212598 
vn 0.598425 -0.724409 0.354331 
vn -0.661417 -0.716535 -0.228346 
vn -0.480315 0.874016 0.0551181 
vn -0.677165 0.732283 0.0708661 
vn -0.740157 0.669291 0.0944882 
vn -0.787402 0.440945 0.440945 
vn -0.771654 0.244094 0.590551 
vn -0.669291 -0.0393701 0.740157 
vn -0.677165 -0.110236 0.724409 
vn -0.740157 0.669291 0.0944882 
vn -0.787402 0.559055 0.259843 
vn -0.787402 0.440945 0.440945 
vn -0.771654 0.244094 0.590551 
vn -0.669291 -0.0393701 0.740157 
vn -0.0629921 0.992126 0.0944882 
vn -0.614173 0.787402 0.0472441 
vn -0.732283 0.677165 0.0787402 
vn 0.212598 0.968504 0.11811 
vn 0.212598 0.976378 0.00787402 
vn -0.0944882 0.992126 0 
vn -0.598425 0.80315 -0.023622 
vn -0.496063 0.874016 -0.015748 
vn -0.637795 0.771654 -0.023622 
vn -0.692913 0.724409 -0.023622 
vn -0.0393701 1 0 
vn 0.488189 0.874016 0.015748 
vn -0.732283 0.677165 0.0787402 
vn -0.692913 0.724409 -0.023622 
vn -0.0629921 -1 0 
vn -0.582677 -0.811024 -0.015748 
vn -0.937008 -0.338583 -0.0314961 
vn -0.992126 -0.11811 -0.0314961 
vn -1 -0.0472441 -0.0314961 
vn -1 0 -0.0393701 
vn -1 0.015748 -0.0314961 
vn -1 0.00787402 -0.0314961 
vn -1 -0.023622 -0.0314961 
vn 0.76378 0.645669 0.023622 
vn 0.937008 0.346457 0.0314961 
vn 0.984252 0.173228 0.0314961 
vn 0.984252 0.165354 0.0393701 
vn 1 0.0787402 0.0314961 
vn 0.992126 0.133858 0.0393701 
vn 1 0.023622 0.0314961 
vn 1 -0.015748 0.0314961 
vn -0.685039 -0.724409 -0.023622 
vn 0.716535 -0.700787 0.023622 
vn -0.0787402 0.984252 -0.15748 
vn -0.251969 0.858268 -0.448819 
vn -0.338583 0.897638 -0.291339 
vn -0.110236 0.992126 -0.102362 
vn -0.401575 0.897638 -0.165354 
vn -0.141732 0.984252 -0.0787402 
vn 0.732283 0.661417 -0.165354 
vn 0.637795 0.708661 -0.314961 
vn 0.448819 0.858268 -0.244094 
vn 0.472441 0.866142 -0.15748 
vn 0.464567 0.724409 -0.503937 
vn 0.299213 0.913386 -0.267717 
vn 0.00787402 0.96063 -0.267717 
vn 0.165354 0.779528 -0.606299 
vn -0.464567 0.748031 -0.472441 
vn -0.582677 0.795276 -0.173228 
vn -0.582677 0.716535 -0.377953 
vn -0.606299 0.779528 -0.15748 
vn -0.488189 0.858268 -0.188976 
vn -0.480315 0.740157 -0.464567 
vn -0.76378 0.559055 -0.307087 
vn -0.244094 0.677165 -0.692913 
vn -0.385827 0.669291 -0.637795 
vn -0.535433 0.700787 -0.480315 
vn -0.653543 0.716535 -0.251969 
vn 0.913386 0.370079 -0.173228 
vn 0.80315 0.425197 -0.425197 
vn 0.590551 0.464567 -0.653543 
vn 0.23622 0.551181 -0.80315 
vn -0.377953 0.598425 -0.708661 
vn -0.354331 0.598425 -0.716535 
vn -0.669291 0.496063 -0.551181 
vn -0.251969 0.464567 -0.850394 
vn -0.503937 0.464567 -0.732283 
vn -0.677165 0.456693 -0.582677 
vn -0.779528 0.559055 -0.275591 
vn 0.968504 0.19685 -0.165354 
vn 0.858268 0.251969 -0.448819 
vn 0.629921 0.275591 -0.724409 
vn 0.259843 0.275591 -0.92126 
vn -0.307087 0.409449 -0.858268 
vn -0.283465 0.393701 -0.874016 
vn -0.669291 0.299213 -0.677165 
vn -0.299213 0.228346 -0.929134 
vn -0.598425 0.267717 -0.755906 
vn -0.740157 0.23622 -0.629921 
vn -0.858268 0.401575 -0.314961 
vn 0.968504 0.188976 -0.15748 
vn 0.866142 0.181102 -0.456693 
vn 0.637795 0.141732 -0.76378 
vn 0.251969 0.125984 -0.96063 
vn -0.228346 0.204724 -0.952756 
vn -0.283465 0.244094 -0.929134 
vn -0.692913 0.0314961 -0.724409 
vn 0.976378 0.141732 -0.15748 
vn 0.984252 0.0787402 -0.15748 
vn 0.913386 0.0787402 -0.409449 
vn 0.858268 0.165354 -0.488189 
vn 0.637795 0.110236 -0.76378 
vn 0.566929 0.11811 -0.811024 
vn 0.141732 0.0472441 -0.992126 
vn 0.19685 0.0472441 -0.976378 
vn -0.133858 0.0393701 -0.992126 
vn -0.551181 -0.125984 -0.818898 
vn -0.629921 -0.110236 -0.76378 
vn -0.708661 -0.330709 -0.622047 
vn -0.629921 -0.291339 -0.716535 
vn -0.00787402 1 -0.0629921 
vn -0.582677 -0.377953 -0.716535 
vn -0.0629921 0.0393701 -1 
vn 0.19685 0.0314961 -0.976378 
vn 0.645669 0.0551181 -0.76378 
vn 0.92126 0.0551181 -0.393701 
vn 0.984252 0.0314961 -0.149606 
vn -0.314961 -0.401575 -0.858268 
vn 0.661417 0.00787402 -0.755906 
vn 0.929134 -0.00787402 -0.370079 
vn 0.992126 -0.023622 -0.133858 
vn -0.850394 -0.496063 -0.165354 
vn -0.92126 -0.307087 -0.251969 
vn -0.740157 -0.488189 -0.456693 
vn -0.629921 -0.291339 -0.716535 
vn -0.0393701 -0.976378 0.19685 
vn 0.023622 -0.984252 0.165354 
vn 0.251969 -0.858268 0.448819 
vn 0.0866142 -0.850394 0.519685 
vn 0.0787402 -0.992126 0.11811 
vn 0.330709 -0.897638 0.291339 
vn 0.110236 -0.992126 0.0629921 
vn 0.401575 -0.897638 0.165354 
vn -0.0629921 -1 0.015748 
vn 0.0393701 -0.992126 0.141732 
vn -0.417323 -0.850394 0.330709 
vn -0.574803 -0.811024 0.11811 
vn 0.0393701 -0.96063 0.267717 
vn -0.133858 -0.850394 0.503937 
vn -0.125984 -0.976378 0.181102 
vn -0.0472441 -0.850394 0.527559 
vn -0.110236 -0.976378 0.19685 
vn -0.0787402 -0.858268 0.511811 
vn -0.0393701 -0.976378 0.19685 
vn 0.0866142 -0.850394 0.519685 
vn 0.377953 -0.677165 0.629921 
vn 0.181102 -0.677165 0.716535 
vn 0.527559 -0.700787 0.472441 
vn 0.645669 -0.724409 0.251969 
vn -0.748031 -0.448819 0.496063 
vn -0.913386 -0.362205 0.173228 
vn -0.385827 -0.566929 0.724409 
vn -0.110236 -0.614173 0.779528 
vn -0.0314961 -0.629921 0.771654 
vn 0.181102 -0.677165 0.716535 
vn 0.503937 -0.480315 0.724409 
vn 0.220472 -0.488189 0.84252 
vn 0.661417 -0.472441 0.574803 
vn 0.755906 -0.590551 0.275591 
vn -0.834646 -0.220472 0.503937 
vn -0.976378 -0.149606 0.165354 
vn -0.519685 -0.322835 0.795276 
vn -0.165354 -0.393701 0.905512 
vn -0.023622 -0.425197 0.905512 
vn 0.220472 -0.488189 0.84252 
vn 0.598425 -0.275591 0.755906 
vn 0.299213 -0.244094 0.92126 
vn 0.732283 -0.244094 0.629921 
vn 0.858268 -0.409449 0.307087 
vn -0.858268 -0.0944882 0.496063 
vn -0.984252 -0.0629921 0.165354 
vn -0.559055 -0.110236 0.818898 
vn -0.173228 -0.19685 0.968504 
vn -0.00787402 -0.204724 0.976378 
vn 0.299213 -0.244094 0.92126 
vn -0.84252 -0.0314961 0.543307 
vn -0.866142 -0.015748 0.503937 
vn -0.984252 0.015748 0.15748 
vn -0.984252 -0.00787402 0.15748 
vn -0.566929 0 0.826772 
vn -0.566929 -0.0787402 0.818898 
vn -0.212598 -0.0551181 0.976378 
vn -0.23622 -0.0787402 0.968504 
vn 0.023622 -0.0866142 1 
vn -0.015748 -0.0787402 1 
vn -0.259843 -0.566929 0.779528 
vn -0.566929 -0.433071 0.700787 
vn 0.023622 -0.984252 0.165354 
vn 0.0787402 -0.992126 0.11811 
vn 0.110236 -0.992126 0.0629921 
vn -0.582677 -0.527559 0.614173 
vn -0.102362 -0.141732 0.984252 
vn -0.322835 -0.15748 0.937008 
vn -0.637795 -0.110236 0.76378 
vn -0.905512 -0.0314961 0.425197 
vn -0.984252 0 0.149606 
vn -0.685039 -0.645669 0.346457 
vn -0.866142 -0.433071 0.244094 
vn -0.724409 -0.0629921 0.692913 
vn -0.929134 -0.00787402 0.362205 
vn -0.992126 -0.00787402 0.133858 
vn 0.606299 -0.724409 0.338583 
vn 0.165354 -0.700787 0.692913 
vn 0.102362 -0.779528 0.614173 
vn -0.259843 -0.566929 0.779528 
vn -0.0787402 -0.212598 -0.976378 
vn 0.299213 -0.582677 -0.755906 
vn 0.543307 -0.708661 -0.448819 
vn -0.653543 -0.716535 0.23622 
vn -0.787402 -0.519685 -0.330709 
vn 0.622047 -0.724409 -0.314961 
vn 0.669291 -0.724409 -0.173228 
vn -0.692913 -0.708661 0.11811 
vn -0.677165 -0.716535 0.188976 
vn -0.472441 0.874016 -0.0866142 
vn -0.669291 0.732283 -0.11811 
vn -0.732283 0.669291 -0.149606 
vn -0.755906 0.440945 -0.488189 
vn -0.732283 0.244094 -0.637795 
vn -0.622047 -0.0393701 -0.779528 
vn -0.629921 -0.110236 -0.76378 
vn -0.732283 0.669291 -0.149606 
vn -0.76378 0.559055 -0.307087 
vn -0.755906 0.440945 -0.488189 
vn -0.732283 0.244094 -0.637795 
vn -0.622047 -0.0393701 -0.779528 
vn -0.606299 0.787402 -0.0866142 
vn -0.0629921 0.992126 -0.102362 
vn -0.724409 0.677165 -0.125984 
vn 0.220472 0.968504 -0.110236 
vn -0.724409 0.677165 -0.125984 
vn -0.88189 0.464567 -0.015748 
vn -0.96063 0.291339 0.00787402 
vn 0.511811 -0.818898 -0.259843 
vn -0.834646 -0.503937 -0.212598 

vt 0.411085 0.344804 
vt 0.393108 0.344815 
vt 0.433198 0.319564 
vt 0.470162 0.315876 
vt 0.369156 0.344823 
vt 0.401139 0.322061 
vt 0.34512 0.344808 
vt 0.352022 0.321965 
vt 0.573809 0.931069 
vt 0.630568 0.900451 
vt 0.711801 0.900443 
vt 0.621396 0.950317 
vt 0.514289 0.932901 
vt 0.560396 0.899731 
vt 0.432142 0.932481 
vt 0.366448 0.912578 
vt 0.366639 0.88666 
vt 0.471255 0.890098 
vt 0.257187 0.870797 
vt 0.345566 0.87105 
vt 0.345714 0.895664 
vt 0.262934 0.895583 
vt 0.489215 0.315888 
vt 0.508129 0.264873 
vt 0.532525 0.265925 
vt 0.465192 0.267166 
vt 0.429835 0.268151 
vt 0.359368 0.26782 
vt 0.69012 0.837508 
vt 0.779084 0.837452 
vt 0.60218 0.83488 
vt 0.370419 0.829369 
vt 0.492791 0.830709 
vt 0.256356 0.82346 
vt 0.345593 0.823325 
vt 0.530844 0.215266 
vt 0.561917 0.218492 
vt 0.4923 0.215057 
vt 0.443234 0.216049 
vt 0.717249 0.774195 
vt 0.80507 0.774291 
vt 0.630634 0.773961 
vt 0.372342 0.782046 
vt 0.504214 0.781298 
vt 0.260684 0.778997 
vt 0.348941 0.777364 
vt 0.561476 0.148174 
vt 0.599928 0.140148 
vt 0.505784 0.153549 
vt 0.446402 0.155956 
vt 0.732716 0.708689 
vt 0.819658 0.708714 
vt 0.640854 0.707359 
vt 0.373179 0.707779 
vt 0.51307 0.709514 
vt 0.290149 0.708383 
vt 0.349666 0.707509 
vt 0.836314 0.621289 
vt 0.746404 0.621244 
vt 0.757771 0.513857 
vt 0.848131 0.513893 
vt 0.660573 0.621346 
vt 0.674837 0.519695 
vt 0.517289 0.63302 
vt 0.530656 0.531253 
vt 0.339564 0.630922 
vt 0.378827 0.532082 
vt 0.322892 0.629284 
vt 0.219167 0.642369 
vt 0.293749 0.522293 
vt 0.366121 0.34719 
vt 0.396359 0.430521 
vt 0.448903 0.452736 
vt 0.575732 0.375702 
vt 0.703353 0.40463 
vt 0.772354 0.398927 
vt 0.862739 0.399051 
vt 0.530901 0.340215 
vt 0.734515 0.224267 
vt 0.790358 0.213207 
vt 0.874663 0.213184 
vt 0.451772 0.105111 
vt 0.519485 0.086238 
vt 0.579242 0.070084 
vt 0.646868 0.061887 
vt 0.419269 0.335537 
vt 0.485715 0.307246 
vt 0.467974 0.307246 
vt 0.409303 0.335537 
vt 0.431542 0.31087 
vt 0.392515 0.335537 
vt 0.400178 0.313361 
vt 0.368823 0.335537 
vt 0.351795 0.313361 
vt 0.345042 0.335537 
vt 0.548087 0.894999 
vt 0.708877 0.892878 
vt 0.62815 0.892878 
vt 0.52068 0.89315 
vt 0.554155 0.876979 
vt 0.456039 0.874566 
vt 0.456039 0.85213 
vt 0.388875 0.874566 
vt 0.345507 0.85213 
vt 0.345507 0.874566 
vt 0.253827 0.85213 
vt 0.282127 0.874566 
vt 0.528018 0.2581 
vt 0.504136 0.256856 
vt 0.462165 0.259133 
vt 0.428075 0.260378 
vt 0.358906 0.260378 
vt 0.773602 0.830327 
vt 0.685462 0.830421 
vt 0.591182 0.827944 
vt 0.484064 0.808309 
vt 0.345515 0.808309 
vt 0.235011 0.808309 
vt 0.556268 0.215465 
vt 0.525812 0.212106 
vt 0.488627 0.212013 
vt 0.441217 0.213258 
vt 0.362087 0.214557 
vt 0.798014 0.771284 
vt 0.711202 0.771284 
vt 0.618708 0.771238 
vt 0.494089 0.769672 
vt 0.348692 0.769672 
vt 0.231421 0.772593 
vt 0.593944 0.139742 
vt 0.556144 0.147779 
vt 0.502002 0.153311 
vt 0.444388 0.155802 
vt 0.363369 0.167843 
vt 0.81203 0.708346 
vt 0.726212 0.708346 
vt 0.636369 0.707081 
vt 0.502408 0.704612 
vt 0.349457 0.704612 
vt 0.224227 0.704223 
vt 0.828369 0.621002 
vt 0.840229 0.513219 
vt 0.751106 0.513219 
vt 0.739727 0.621002 
vt 0.665461 0.51803 
vt 0.649959 0.620158 
vt 0.519368 0.528183 
vt 0.506369 0.630868 
vt 0.392026 0.530611 
vt 0.338338 0.629179 
vt 0.29502 0.521768 
vt 0.221293 0.642125 
vt 0.253827 0.874566 
vt 0.345507 0.881212 
vt 0.271164 0.874566 
vt 0.256744 0.874566 
vt 0.251776 0.874566 
vt 0.4464 0.450126 
vt 0.397936 0.429211 
vt 0.56955 0.37309 
vt 0.693741 0.401919 
vt 0.765668 0.397816 
vt 0.854982 0.397816 
vt 0.528291 0.338859 
vt 0.667155 0.222375 
vt 0.728846 0.223361 
vt 0.86713 0.211656 
vt 0.783747 0.21187 
vt 0.515623 0.086266 
vt 0.449998 0.105141 
vt 0.573871 0.069935 
vt 0.640904 0.061606 
vt 0.67187 0.223638 
vt 0.759765 0.036272 
vt 0.764969 0.037577 
vt 0.721272 0.044104 
vt 0.716557 0.042841 
vt 0.878871 0.039385 
vt 0.878723 0.041602 
vt 0.806029 0.033263 
vt 0.799418 0.031927 
vt 0.345775 0.940973 
vt 0.260423 0.939767 
vt 0.421839 0.3448 
vt 0.536559 0.265878 
vt 0.563606 0.216684 
vt 0.599359 0.138961 
vt 0.649615 0.059738 
vt 0.247914 0.882622 
vt 0.239578 0.858527 
vt 0.242435 0.815073 
vt 0.246896 0.773654 
vt 0.27673 0.705787 
vt 0.428308 0.961169 
vt 0.366529 0.954681 
vt 0.248502 0.931584 
vt 0.50716 0.968446 
vt 0.50545 0.989489 
vt 0.423386 0.982539 
vt 0.366581 0.977422 
vt 0.345797 0.958165 
vt 0.261424 0.955238 
vt 0.248164 0.94917 
vt 0.342605 0.348176 
vt 0.696023 0.958724 
vt 0.363815 0.348988 
vt 0.340729 0.350688 
vt 0.550667 0.894999 
vt 0.79738 0.892878 
vt 0.859742 0.830327 
vt 0.884153 0.771284 
vt 0.89817 0.708346 
vt 0.914509 0.621002 
vt 0.926368 0.513219 
vt 0.941122 0.397816 
vt 0.953269 0.211656 
vt 0.800304 0.900443 
vt 0.865224 0.837452 
vt 0.89121 0.774291 
vt 0.905798 0.708714 
vt 0.93427 0.513893 
vt 0.922454 0.621289 
vt 0.948879 0.399051 
vt 0.960803 0.213184 
vt 0.960296 0.044231 
vt 0.962807 0.04474 
vt 0.27341 0.344804 
vt 0.208598 0.318367 
vt 0.251743 0.322054 
vt 0.293554 0.344815 
vt 0.301176 0.322061 
vt 0.320174 0.344823 
vt 0.711801 0.900443 
vt 0.630568 0.900451 
vt 0.573809 0.931069 
vt 0.621396 0.950317 
vt 0.560396 0.899731 
vt 0.514289 0.932901 
vt 0.432142 0.932481 
vt 0.471255 0.890098 
vt 0.366639 0.88666 
vt 0.366448 0.912578 
vt 0.257187 0.870797 
vt 0.262934 0.895583 
vt 0.345714 0.895664 
vt 0.345566 0.87105 
vt 0.180615 0.318379 
vt 0.140871 0.267171 
vt 0.17592 0.266118 
vt 0.223966 0.268412 
vt 0.286469 0.268151 
vt 0.779084 0.837452 
vt 0.69012 0.837508 
vt 0.595624 0.83488 
vt 0.492791 0.830709 
vt 0.370419 0.829369 
vt 0.345593 0.823325 
vt 0.256356 0.82346 
vt 0.108377 0.221302 
vt 0.153215 0.218077 
vt 0.21081 0.222026 
vt 0.282888 0.241805 
vt 0.80507 0.774291 
vt 0.717249 0.774195 
vt 0.624077 0.773961 
vt 0.504214 0.781298 
vt 0.372342 0.782046 
vt 0.348941 0.777364 
vt 0.260685 0.778997 
vt 0.081203 0.142638 
vt 0.132737 0.150665 
vt 0.200607 0.172716 
vt 0.279256 0.218787 
vt 0.819658 0.708714 
vt 0.732716 0.708689 
vt 0.640854 0.707359 
vt 0.51307 0.709514 
vt 0.373179 0.707779 
vt 0.349666 0.707509 
vt 0.290149 0.708383 
vt 0.836315 0.621289 
vt 0.848131 0.513893 
vt 0.757771 0.513857 
vt 0.746404 0.621244 
vt 0.674837 0.519695 
vt 0.660573 0.621346 
vt 0.530656 0.531253 
vt 0.517289 0.63302 
vt 0.378827 0.532082 
vt 0.339564 0.630922 
vt 0.322892 0.629284 
vt 0.293749 0.522293 
vt 0.215042 0.634093 
vt 0.318224 0.34719 
vt 0.396359 0.430521 
vt 0.448903 0.452736 
vt 0.575732 0.375702 
vt 0.703353 0.40463 
vt 0.772354 0.398927 
vt 0.862739 0.399051 
vt 0.530901 0.340215 
vt 0.734515 0.224267 
vt 0.790358 0.213207 
vt 0.874663 0.213184 
vt 0.188468 0.120958 
vt 0.277058 0.192635 
vt 0.115141 0.086799 
vt 0.067129 0.064888 
vt 0.257959 0.335537 
vt 0.273111 0.335537 
vt 0.210509 0.309737 
vt 0.184431 0.309737 
vt 0.294016 0.335537 
vt 0.25302 0.313361 
vt 0.320349 0.335537 
vt 0.301679 0.313361 
vt 0.548087 0.894999 
vt 0.52068 0.89315 
vt 0.62815 0.892878 
vt 0.708877 0.892878 
vt 0.456039 0.874566 
vt 0.554155 0.876979 
vt 0.388875 0.874566 
vt 0.456039 0.85213 
vt 0.345507 0.874566 
vt 0.345507 0.85213 
vt 0.282127 0.874566 
vt 0.253827 0.85213 
vt 0.1794 0.258102 
vt 0.145073 0.259345 
vt 0.226246 0.260378 
vt 0.287309 0.260378 
vt 0.685462 0.830421 
vt 0.773602 0.830327 
vt 0.591182 0.827944 
vt 0.484064 0.808309 
vt 0.345515 0.808309 
vt 0.235011 0.808309 
vt 0.157577 0.214916 
vt 0.113669 0.218275 
vt 0.213495 0.218982 
vt 0.283741 0.239015 
vt 0.711202 0.771284 
vt 0.798014 0.771284 
vt 0.618708 0.771238 
vt 0.494089 0.769672 
vt 0.348692 0.769672 
vt 0.231421 0.772593 
vt 0.137345 0.15027 
vt 0.086809 0.142233 
vt 0.20332 0.172478 
vt 0.28004 0.218633 
vt 0.726212 0.708346 
vt 0.81203 0.708346 
vt 0.636369 0.707081 
vt 0.502408 0.704612 
vt 0.349457 0.704612 
vt 0.224227 0.704223 
vt 0.739727 0.621002 
vt 0.751106 0.513219 
vt 0.840229 0.513219 
vt 0.828369 0.621002 
vt 0.649959 0.620158 
vt 0.665461 0.51803 
vt 0.506369 0.630868 
vt 0.519368 0.528183 
vt 0.338338 0.629179 
vt 0.392026 0.530611 
vt 0.217168 0.633849 
vt 0.29502 0.521768 
vt 0.253827 0.874566 
vt 0.271164 0.874566 
vt 0.256744 0.874566 
vt 0.397936 0.429211 
vt 0.4464 0.450126 
vt 0.56955 0.37309 
vt 0.693741 0.401919 
vt 0.765668 0.397816 
vt 0.854982 0.397816 
vt 0.528291 0.338859 
vt 0.667155 0.222375 
vt 0.728846 0.223361 
vt 0.783747 0.21187 
vt 0.86713 0.211656 
vt 0.277883 0.192772 
vt 0.191236 0.120986 
vt 0.119738 0.086649 
vt 0.072704 0.064607 
vt 0.67187 0.223638 
vt 0.721272 0.044104 
vt 0.764969 0.037577 
vt 0.759765 0.036272 
vt 0.716557 0.042841 
vt 0.806029 0.033263 
vt 0.874781 0.040839 
vt 0.881809 0.04016 
vt 0.799418 0.031927 
vt 0.345775 0.940973 
vt 0.260423 0.939767 
vt 0.258826 0.3448 
vt 0.132338 0.267124 
vt 0.099429 0.219494 
vt 0.06813 0.141452 
vt 0.035926 0.072255 
vt 0.247914 0.882622 
vt 0.239578 0.858527 
vt 0.242435 0.815073 
vt 0.246896 0.773654 
vt 0.27673 0.705787 
vt 0.366529 0.954681 
vt 0.428308 0.961169 
vt 0.248502 0.931584 
vt 0.50716 0.968446 
vt 0.316742 0.348988 
vt 0.362422 0.213469 
vt 0.366876 0.167914 
vt 0.365269 0.133815 
vt 0.367475 0.13385 

usemtl Handle1Mtl

f 1/1/1 2/2/2 3/3/3 
f 3/3/3 4/4/4 1/1/1 
f 2/2/2 5/5/5 6/6/6 
f 6/6/6 3/3/3 2/2/2 
f 5/5/5 7/7/7 8/8/8 
f 8/8/8 6/6/6 5/5/5 
f 9/9/9 10/10/10 11/11/11 
f 11/11/11 12/12/12 9/9/9 
f 13/13/13 14/14/14 10/10/10 
f 10/10/10 9/9/9 13/13/13 
f 15/15/15 16/16/16 17/17/17 
f 17/17/17 18/18/18 15/15/15 
f 19/19/19 20/20/20 21/21/21 
f 21/21/21 22/22/22 19/19/19 
f 23/23/23 4/4/4 24/24/24 
f 24/24/24 25/25/25 23/23/23 
f 4/4/4 3/3/3 26/26/26 
f 26/26/26 24/24/24 4/4/4 
f 6/6/6 27/27/27 26/26/26 
f 26/26/26 3/3/3 6/6/6 
f 6/6/6 8/8/8 28/28/28 
f 28/28/28 27/27/27 6/6/6 
f 10/10/10 29/29/29 30/30/30 
f 30/30/30 11/11/11 10/10/10 
f 14/14/14 31/31/31 29/29/29 
f 29/29/29 10/10/10 14/14/14 
f 18/18/18 17/17/17 32/32/32 
f 32/32/32 33/33/33 18/18/18 
f 20/20/20 19/19/19 34/34/34 
f 34/34/34 35/35/35 20/20/20 
f 25/25/25 24/24/24 36/36/36 
f 36/36/36 37/37/37 25/25/25 
f 26/26/26 38/38/38 36/36/36 
f 36/36/36 24/24/24 26/26/26 
f 27/27/27 39/39/39 38/38/38 
f 38/38/38 26/26/26 27/27/27 
f 29/29/29 40/40/40 41/41/41 
f 41/41/41 30/30/30 29/29/29 
f 31/31/31 42/42/42 40/40/40 
f 40/40/40 29/29/29 31/31/31 
f 33/33/33 32/32/32 43/43/43 
f 43/43/43 44/44/44 33/33/33 
f 35/35/35 34/34/34 45/45/45 
f 45/45/45 46/46/46 35/35/35 
f 37/37/37 36/36/36 47/47/47 
f 47/47/47 48/48/48 37/37/37 
f 36/36/36 38/38/38 49/49/49 
f 49/49/49 47/47/47 36/36/36 
f 38/38/38 39/39/39 50/50/50 
f 50/50/50 49/49/49 38/38/38 
f 40/40/40 51/51/51 52/52/52 
f 52/52/52 41/41/41 40/40/40 
f 40/40/40 42/42/42 53/53/53 
f 53/53/53 51/51/51 40/40/40 
f 44/44/44 43/43/43 54/54/54 
f 54/54/54 55/55/55 44/44/44 
f 46/46/46 45/45/45 56/56/56 
f 56/56/56 57/57/57 46/46/46 
f 58/58/58 59/59/59 60/60/60 
f 60/60/60 61/61/61 58/58/58 
f 59/59/59 62/62/62 63/63/63 
f 63/63/63 60/60/60 59/59/59 
f 62/62/62 64/64/64 65/65/65 
f 65/65/65 63/63/63 62/62/62 
f 64/64/64 66/66/66 67/67/67 
f 67/67/67 65/65/65 64/64/64 
f 68/68/68 69/69/69 70/70/70 
f 70/70/70 67/67/67 68/68/68 
f 2/2/2 1/1/1 71/71/71 
f 71/71/71 5/5/5 2/2/2 
f 67/67/67 70/70/70 72/72/72 
f 72/72/72 73/73/73 67/67/67 
f 65/65/65 67/67/67 73/73/73 
f 73/73/73 74/74/74 65/65/65 
f 63/63/63 65/65/65 74/74/74 
f 74/74/74 75/75/75 63/63/63 
f 60/60/60 63/63/63 75/75/75 
f 75/75/75 76/76/76 60/60/60 
f 61/61/61 60/60/60 76/76/76 
f 76/76/76 77/77/77 61/61/61 
f 78/78/78 74/74/74 73/73/73 
f 73/73/73 72/72/72 78/78/78 
f 75/75/75 74/74/74 79/79/79 
f 76/76/76 75/75/75 79/79/79 
f 79/79/79 80/80/80 76/76/76 
f 77/77/77 76/76/76 80/80/80 
f 80/80/80 81/81/81 77/77/77 
f 49/49/49 50/50/50 82/82/82 
f 82/82/82 83/83/83 49/49/49 
f 47/47/47 49/49/49 83/83/83 
f 83/83/83 84/84/84 47/47/47 
f 48/48/48 47/47/47 84/84/84 
f 84/84/84 85/85/85 48/48/48 
f 57/57/57 56/56/56 66/66/66 
f 54/54/54 66/66/66 64/64/64 
f 64/64/64 55/55/55 54/54/54 
f 51/51/51 53/53/53 62/62/62 
f 62/62/62 59/59/59 51/51/51 
f 52/52/52 51/51/51 59/59/59 
f 59/59/59 58/58/58 52/52/52 
f 86/86/86 87/87/87 88/88/88 
f 88/88/88 89/89/89 86/86/86 
f 89/89/89 88/88/88 90/90/90 
f 90/90/90 91/91/91 89/89/89 
f 91/91/91 90/90/90 92/92/92 
f 92/92/92 93/93/93 91/91/91 
f 93/93/93 92/92/92 94/94/94 
f 94/94/94 95/95/95 93/93/93 
f 96/96/96 97/97/97 98/98/98 
f 98/98/98 99/99/99 96/96/96 
f 99/99/99 98/98/98 100/100/100 
f 100/100/100 101/101/101 99/99/99 
f 101/101/101 100/100/100 102/102/102 
f 102/102/102 103/103/103 101/101/101 
f 103/103/103 102/102/102 104/104/104 
f 104/104/104 105/105/105 103/103/103 
f 104/104/104 106/106/106 107/107/107 
f 107/107/107 105/105/105 104/104/104 
f 87/87/87 108/108/108 109/109/109 
f 109/109/109 88/88/88 87/87/87 
f 88/88/88 109/109/109 110/110/110 
f 110/110/110 90/90/90 88/88/88 
f 110/110/110 111/111/111 92/92/92 
f 92/92/92 90/90/90 110/110/110 
f 92/92/92 111/111/111 112/112/112 
f 112/112/112 94/94/94 92/92/92 
f 113/113/113 114/114/114 98/98/98 
f 98/98/98 97/97/97 113/113/113 
f 114/114/114 115/115/115 100/100/100 
f 100/100/100 98/98/98 114/114/114 
f 115/115/115 116/116/116 102/102/102 
f 102/102/102 100/100/100 115/115/115 
f 102/102/102 116/116/116 117/117/117 
f 117/117/117 104/104/104 102/102/102 
f 117/117/117 118/118/118 106/106/106 
f 106/106/106 104/104/104 117/117/117 
f 108/108/108 119/119/119 120/120/120 
f 120/120/120 109/109/109 108/108/108 
f 120/120/120 121/121/121 110/110/110 
f 110/110/110 109/109/109 120/120/120 
f 121/121/121 122/122/122 111/111/111 
f 111/111/111 110/110/110 121/121/121 
f 111/111/111 122/122/122 123/123/123 
f 123/123/123 112/112/112 111/111/111 
f 124/124/124 125/125/125 114/114/114 
f 114/114/114 113/113/113 124/124/124 
f 125/125/125 126/126/126 115/115/115 
f 115/115/115 114/114/114 125/125/125 
f 115/115/115 126/126/126 127/127/127 
f 127/127/127 116/116/116 115/115/115 
f 116/116/116 127/127/127 128/128/128 
f 128/128/128 117/117/117 116/116/116 
f 128/128/128 129/129/129 118/118/118 
f 118/118/118 117/117/117 128/128/128 
f 119/119/119 130/130/130 131/131/131 
f 131/131/131 120/120/120 119/119/119 
f 120/120/120 131/131/131 132/132/132 
f 132/132/132 121/121/121 120/120/120 
f 121/121/121 132/132/132 133/133/133 
f 133/133/133 122/122/122 121/121/121 
f 122/122/122 133/133/133 134/134/134 
f 134/134/134 123/123/123 122/122/122 
f 135/135/135 136/136/136 125/125/125 
f 125/125/125 124/124/124 135/135/135 
f 136/136/136 137/137/137 126/126/126 
f 126/126/126 125/125/125 136/136/136 
f 126/126/126 137/137/137 138/138/138 
f 138/138/138 127/127/127 126/126/126 
f 127/127/127 138/138/138 139/139/139 
f 139/139/139 128/128/128 127/127/127 
f 139/139/139 140/140/140 129/129/129 
f 129/129/129 128/128/128 139/139/139 
f 141/141/141 142/142/142 143/143/143 
f 143/143/143 144/144/144 141/141/141 
f 144/144/144 143/143/143 145/145/145 
f 145/145/145 146/146/146 144/144/144 
f 146/146/146 145/145/145 147/147/147 
f 147/147/147 148/148/148 146/146/146 
f 148/148/148 147/147/147 149/149/149 
f 149/149/149 150/150/150 148/148/148 
f 150/150/150 149/149/149 151/151/151 
f 151/151/151 152/152/152 150/150/150 
f 153/153/153 154/154/154 107/107/107 
f 155/155/155 154/154/154 153/153/153 
f 156/156/156 154/154/154 155/155/155 
f 157/157/157 154/154/154 156/156/156 
f 99/99/99 154/154/154 96/96/96 
f 101/101/101 154/154/154 99/99/99 
f 103/103/103 154/154/154 101/101/101 
f 105/105/105 154/154/154 103/103/103 
f 107/107/107 154/154/154 105/105/105 
f 149/149/149 158/158/158 159/159/159 
f 159/159/159 151/151/151 149/149/149 
f 147/147/147 160/160/160 158/158/158 
f 158/158/158 149/149/149 147/147/147 
f 145/145/145 161/161/161 160/160/160 
f 160/160/160 147/147/147 145/145/145 
f 143/143/143 162/162/162 161/161/161 
f 161/161/161 145/145/145 143/143/143 
f 142/142/142 163/163/163 162/162/162 
f 162/162/162 143/143/143 142/142/142 
f 164/164/164 159/159/159 158/158/158 
f 158/158/158 160/160/160 164/164/164 
f 165/165/165 164/164/164 160/160/160 
f 160/160/160 166/166/166 165/165/165 
f 163/163/163 167/167/167 168/168/168 
f 168/168/168 162/162/162 163/163/163 
f 132/132/132 169/169/169 170/170/170 
f 170/170/170 133/133/133 132/132/132 
f 131/131/131 171/171/171 169/169/169 
f 169/169/169 132/132/132 131/131/131 
f 130/130/130 172/172/172 171/171/171 
f 171/171/171 131/131/131 130/130/130 
f 150/150/150 152/152/152 140/140/140 
f 140/140/140 139/139/139 150/150/150 
f 148/148/148 150/150/150 139/139/139 
f 139/139/139 138/138/138 148/148/148 
f 137/137/137 146/146/146 148/148/148 
f 148/148/148 138/138/138 137/137/137 
f 136/136/136 144/144/144 146/146/146 
f 146/146/146 137/137/137 136/136/136 
f 141/141/141 144/144/144 136/136/136 
f 136/136/136 135/135/135 141/141/141 
f 152/152/152 151/151/151 70/70/70 
f 70/70/70 69/69/69 152/152/152 
f 151/151/151 159/159/159 72/72/72 
f 72/72/72 70/70/70 151/151/151 
f 164/164/164 78/78/78 72/72/72 
f 72/72/72 159/159/159 164/164/164 
f 165/165/165 173/173/173 78/78/78 
f 78/78/78 164/164/164 165/165/165 
f 174/174/174 175/175/175 176/176/176 
f 176/176/176 177/177/177 174/174/174 
f 178/178/178 179/179/179 180/180/180 
f 180/180/180 181/181/181 178/178/178 
f 170/170/170 169/169/169 83/83/83 
f 83/83/83 82/82/82 170/170/170 
f 171/171/171 84/84/84 83/83/83 
f 83/83/83 169/169/169 171/171/171 
f 172/172/172 85/85/85 84/84/84 
f 84/84/84 171/171/171 172/172/172 
f 166/166/166 174/174/174 177/177/177 
f 177/177/177 165/165/165 166/166/166 
f 79/79/79 173/173/173 176/176/176 
f 176/176/176 175/175/175 79/79/79 
f 173/173/173 165/165/165 177/177/177 
f 177/177/177 176/176/176 173/173/173 
f 167/167/167 178/178/178 181/181/181 
f 181/181/181 168/168/168 167/167/167 
f 81/81/81 80/80/80 180/180/180 
f 180/180/180 179/179/179 81/81/81 
f 74/74/74 78/78/78 173/173/173 
f 173/173/173 79/79/79 74/74/74 
f 161/161/161 166/166/166 160/160/160 
f 162/162/162 168/168/168 166/166/166 
f 166/166/166 161/161/161 162/162/162 
f 174/174/174 166/166/166 168/168/168 
f 168/168/168 181/181/181 174/174/174 
f 175/175/175 174/174/174 181/181/181 
f 181/181/181 180/180/180 175/175/175 
f 80/80/80 79/79/79 175/175/175 
f 175/175/175 180/180/180 80/80/80 
f 22/22/22 21/21/21 182/182/182 
f 182/182/182 183/183/183 22/22/22 
f 184/184/184 1/1/1 4/4/4 
f 4/4/4 23/23/23 184/184/184 
f 185/185/185 23/23/23 25/25/25 
f 185/185/185 25/25/25 37/37/37 
f 37/37/37 186/186/186 185/185/185 
f 186/186/186 37/37/37 48/48/48 
f 48/48/48 187/187/187 186/186/186 
f 187/187/187 48/48/48 85/85/85 
f 85/85/85 188/188/188 187/187/187 
f 13/13/13 15/15/15 18/18/18 
f 18/18/18 14/14/14 13/13/13 
f 189/189/189 190/190/190 19/19/19 
f 19/19/19 22/22/22 189/189/189 
f 14/14/14 18/18/18 33/33/33 
f 33/33/33 31/31/31 14/14/14 
f 190/190/190 191/191/191 34/34/34 
f 34/34/34 19/19/19 190/190/190 
f 31/31/31 33/33/33 44/44/44 
f 44/44/44 42/42/42 31/31/31 
f 191/191/191 192/192/192 45/45/45 
f 45/45/45 34/34/34 191/191/191 
f 42/42/42 44/44/44 55/55/55 
f 55/55/55 53/53/53 42/42/42 
f 192/192/192 193/193/193 56/56/56 
f 56/56/56 45/45/45 192/192/192 
f 68/68/68 67/67/67 66/66/66 
f 194/194/194 195/195/195 16/16/16 
f 16/16/16 15/15/15 194/194/194 
f 193/193/193 68/68/68 66/66/66 
f 66/66/66 56/56/56 193/193/193 
f 53/53/53 55/55/55 64/64/64 
f 64/64/64 62/62/62 53/53/53 
f 189/189/189 22/22/22 183/183/183 
f 183/183/183 196/196/196 189/189/189 
f 21/21/21 20/20/20 17/17/17 
f 17/17/17 16/16/16 21/21/21 
f 20/20/20 35/35/35 32/32/32 
f 32/32/32 17/17/17 20/20/20 
f 35/35/35 46/46/46 43/43/43 
f 43/43/43 32/32/32 35/35/35 
f 46/46/46 57/57/57 54/54/54 
f 54/54/54 43/43/43 46/46/46 
f 21/21/21 16/16/16 195/195/195 
f 195/195/195 182/182/182 21/21/21 
f 57/57/57 66/66/66 54/54/54 
f 13/13/13 197/197/197 194/194/194 
f 194/194/194 15/15/15 13/13/13 
f 194/194/194 197/197/197 198/198/198 
f 198/198/198 199/199/199 194/194/194 
f 195/195/195 194/194/194 199/199/199 
f 199/199/199 200/200/200 195/195/195 
f 182/182/182 195/195/195 200/200/200 
f 200/200/200 201/201/201 182/182/182 
f 183/183/183 182/182/182 201/201/201 
f 201/201/201 202/202/202 183/183/183 
f 203/203/203 196/196/196 183/183/183 
f 183/183/183 202/202/202 203/203/203 
f 5/5/5 71/71/71 204/204/204 
f 204/204/204 7/7/7 5/5/5 
f 197/197/197 13/13/13 9/9/9 
f 9/9/9 12/12/12 197/197/197 
f 198/198/198 197/197/197 12/12/12 
f 12/12/12 205/205/205 198/198/198 
f 1/1/1 184/184/184 206/206/206 
f 206/206/206 71/71/71 1/1/1 
f 71/71/71 206/206/206 207/207/207 
f 207/207/207 204/204/204 71/71/71 
f 96/96/96 154/154/154 208/208/208 
f 96/96/96 208/208/208 209/209/209 
f 209/209/209 97/97/97 96/96/96 
f 97/97/97 209/209/209 210/210/210 
f 210/210/210 113/113/113 97/97/97 
f 113/113/113 210/210/210 211/211/211 
f 211/211/211 124/124/124 113/113/113 
f 124/124/124 211/211/211 212/212/212 
f 212/212/212 135/135/135 124/124/124 
f 141/141/141 213/213/213 214/214/214 
f 214/214/214 142/142/142 141/141/141 
f 142/142/142 214/214/214 215/215/215 
f 215/215/215 163/163/163 142/142/142 
f 163/163/163 215/215/215 216/216/216 
f 216/216/216 167/167/167 163/163/163 
f 135/135/135 212/212/212 213/213/213 
f 213/213/213 141/141/141 135/135/135 
f 11/11/11 217/217/217 205/205/205 
f 205/205/205 12/12/12 11/11/11 
f 11/11/11 30/30/30 218/218/218 
f 218/218/218 217/217/217 11/11/11 
f 30/30/30 41/41/41 219/219/219 
f 219/219/219 218/218/218 30/30/30 
f 41/41/41 52/52/52 220/220/220 
f 220/220/220 219/219/219 41/41/41 
f 61/61/61 221/221/221 222/222/222 
f 222/222/222 58/58/58 61/61/61 
f 77/77/77 223/223/223 221/221/221 
f 221/221/221 61/61/61 77/77/77 
f 81/81/81 224/224/224 223/223/223 
f 223/223/223 77/77/77 81/81/81 
f 52/52/52 58/58/58 222/222/222 
f 222/222/222 220/220/220 52/52/52 
f 167/167/167 216/216/216 225/225/225 
f 225/225/225 178/178/178 167/167/167 
f 179/179/179 226/226/226 224/224/224 
f 224/224/224 81/81/81 179/179/179 
f 227/227/227 228/228/228 229/229/229 
f 229/229/229 230/230/230 227/227/227 
f 230/230/230 229/229/229 231/231/231 
f 231/231/231 232/232/232 230/230/230 
f 232/232/232 231/231/231 8/8/8 
f 8/8/8 7/7/7 232/232/232 
f 233/233/233 234/234/234 235/235/235 
f 235/235/235 236/236/236 233/233/233 
f 234/234/234 237/237/237 238/238/238 
f 238/238/238 235/235/235 234/234/234 
f 239/239/239 240/240/240 241/241/241 
f 241/241/241 242/242/242 239/239/239 
f 243/243/243 244/244/244 245/245/245 
f 245/245/245 246/246/246 243/243/243 
f 247/247/247 248/248/248 249/249/249 
f 249/249/249 228/228/228 247/247/247 
f 228/228/228 249/249/249 250/250/250 
f 250/250/250 229/229/229 228/228/228 
f 250/250/250 251/251/251 231/231/231 
f 231/231/231 229/229/229 250/250/250 
f 231/231/231 251/251/251 28/28/28 
f 28/28/28 8/8/8 231/231/231 
f 252/252/252 253/253/253 234/234/234 
f 234/234/234 233/233/233 252/252/252 
f 253/253/253 254/254/254 237/237/237 
f 237/237/237 234/234/234 253/253/253 
f 240/240/240 255/255/255 256/256/256 
f 256/256/256 241/241/241 240/240/240 
f 246/246/246 257/257/257 258/258/258 
f 258/258/258 243/243/243 246/246/246 
f 248/248/248 259/259/259 260/260/260 
f 260/260/260 249/249/249 248/248/248 
f 260/260/260 261/261/261 250/250/250 
f 250/250/250 249/249/249 260/260/260 
f 261/261/261 262/262/262 251/251/251 
f 251/251/251 250/250/250 261/261/261 
f 263/263/263 264/264/264 253/253/253 
f 253/253/253 252/252/252 263/263/263 
f 264/264/264 265/265/265 254/254/254 
f 254/254/254 253/253/253 264/264/264 
f 255/255/255 266/266/266 267/267/267 
f 267/267/267 256/256/256 255/255/255 
f 257/257/257 268/268/268 269/269/269 
f 269/269/269 258/258/258 257/257/257 
f 259/259/259 270/270/270 271/271/271 
f 271/271/271 260/260/260 259/259/259 
f 260/260/260 271/271/271 272/272/272 
f 272/272/272 261/261/261 260/260/260 
f 261/261/261 272/272/272 273/273/273 
f 273/273/273 262/262/262 261/261/261 
f 274/274/274 275/275/275 264/264/264 
f 264/264/264 263/263/263 274/274/274 
f 264/264/264 275/275/275 276/276/276 
f 276/276/276 265/265/265 264/264/264 
f 266/266/266 277/277/277 278/278/278 
f 278/278/278 267/267/267 266/266/266 
f 268/268/268 279/279/279 280/280/280 
f 280/280/280 269/269/269 268/268/268 
f 281/281/281 282/282/282 283/283/283 
f 283/283/283 284/284/284 281/281/281 
f 284/284/284 283/283/283 285/285/285 
f 285/285/285 286/286/286 284/284/284 
f 286/286/286 285/285/285 287/287/287 
f 287/287/287 288/288/288 286/286/286 
f 288/288/288 287/287/287 289/289/289 
f 289/289/289 290/290/290 288/288/288 
f 291/291/291 289/289/289 292/292/292 
f 292/292/292 293/293/293 291/291/291 
f 294/294/294 227/227/227 230/230/230 
f 230/230/230 232/232/232 294/294/294 
f 295/295/295 292/292/292 289/289/289 
f 289/289/289 296/296/296 295/295/295 
f 287/287/287 297/297/297 296/296/296 
f 296/296/296 289/289/289 287/287/287 
f 285/285/285 298/298/298 297/297/297 
f 297/297/297 287/287/287 285/285/285 
f 283/283/283 299/299/299 298/298/298 
f 298/298/298 285/285/285 283/283/283 
f 282/282/282 300/300/300 299/299/299 
f 299/299/299 283/283/283 282/282/282 
f 296/296/296 297/297/297 301/301/301 
f 301/301/301 295/295/295 296/296/296 
f 298/298/298 302/302/302 297/297/297 
f 299/299/299 303/303/303 302/302/302 
f 302/302/302 298/298/298 299/299/299 
f 300/300/300 304/304/304 303/303/303 
f 303/303/303 299/299/299 300/300/300 
f 272/272/272 305/305/305 306/306/306 
f 306/306/306 273/273/273 272/272/272 
f 271/271/271 307/307/307 305/305/305 
f 305/305/305 272/272/272 271/271/271 
f 270/270/270 308/308/308 307/307/307 
f 307/307/307 271/271/271 270/270/270 
f 279/279/279 290/290/290 280/280/280 
f 288/288/288 290/290/290 278/278/278 
f 278/278/278 277/277/277 288/288/288 
f 275/275/275 284/284/284 286/286/286 
f 286/286/286 276/276/276 275/275/275 
f 281/281/281 284/284/284 275/275/275 
f 275/275/275 274/274/274 281/281/281 
f 309/309/309 310/310/310 311/311/311 
f 311/311/311 312/312/312 309/309/309 
f 310/310/310 313/313/313 314/314/314 
f 314/314/314 311/311/311 310/310/310 
f 313/313/313 315/315/315 316/316/316 
f 316/316/316 314/314/314 313/313/313 
f 315/315/315 95/95/95 94/94/94 
f 94/94/94 316/316/316 315/315/315 
f 317/317/317 318/318/318 319/319/319 
f 319/319/319 320/320/320 317/317/317 
f 318/318/318 321/321/321 322/322/322 
f 322/322/322 319/319/319 318/318/318 
f 321/321/321 323/323/323 324/324/324 
f 324/324/324 322/322/322 321/321/321 
f 323/323/323 325/325/325 326/326/326 
f 326/326/326 324/324/324 323/323/323 
f 327/327/327 328/328/328 326/326/326 
f 326/326/326 325/325/325 327/327/327 
f 312/312/312 311/311/311 329/329/329 
f 329/329/329 330/330/330 312/312/312 
f 311/311/311 314/314/314 331/331/331 
f 331/331/331 329/329/329 311/311/311 
f 316/316/316 332/332/332 331/331/331 
f 331/331/331 314/314/314 316/316/316 
f 316/316/316 94/94/94 112/112/112 
f 112/112/112 332/332/332 316/316/316 
f 319/319/319 333/333/333 334/334/334 
f 334/334/334 320/320/320 319/319/319 
f 322/322/322 335/335/335 333/333/333 
f 333/333/333 319/319/319 322/322/322 
f 324/324/324 336/336/336 335/335/335 
f 335/335/335 322/322/322 324/324/324 
f 324/324/324 326/326/326 337/337/337 
f 337/337/337 336/336/336 324/324/324 
f 328/328/328 338/338/338 337/337/337 
f 337/337/337 326/326/326 328/328/328 
f 330/330/330 329/329/329 339/339/339 
f 339/339/339 340/340/340 330/330/330 
f 331/331/331 341/341/341 339/339/339 
f 339/339/339 329/329/329 331/331/331 
f 332/332/332 342/342/342 341/341/341 
f 341/341/341 331/331/331 332/332/332 
f 332/332/332 112/112/112 123/123/123 
f 123/123/123 342/342/342 332/332/332 
f 333/333/333 343/343/343 344/344/344 
f 344/344/344 334/334/334 333/333/333 
f 335/335/335 345/345/345 343/343/343 
f 343/343/343 333/333/333 335/335/335 
f 335/335/335 336/336/336 346/346/346 
f 346/346/346 345/345/345 335/335/335 
f 336/336/336 337/337/337 347/347/347 
f 347/347/347 346/346/346 336/336/336 
f 338/338/338 348/348/348 347/347/347 
f 347/347/347 337/337/337 338/338/338 
f 340/340/340 339/339/339 349/349/349 
f 349/349/349 350/350/350 340/340/340 
f 339/339/339 341/341/341 351/351/351 
f 351/351/351 349/349/349 339/339/339 
f 341/341/341 342/342/342 352/352/352 
f 352/352/352 351/351/351 341/341/341 
f 123/123/123 134/134/134 352/352/352 
f 352/352/352 342/342/342 123/123/123 
f 343/343/343 353/353/353 354/354/354 
f 354/354/354 344/344/344 343/343/343 
f 345/345/345 355/355/355 353/353/353 
f 353/353/353 343/343/343 345/345/345 
f 345/345/345 346/346/346 356/356/356 
f 356/356/356 355/355/355 345/345/345 
f 346/346/346 347/347/347 357/357/357 
f 357/357/357 356/356/356 346/346/346 
f 348/348/348 358/358/358 357/357/357 
f 357/357/357 347/347/347 348/348/348 
f 359/359/359 360/360/360 361/361/361 
f 361/361/361 362/362/362 359/359/359 
f 359/359/359 363/363/363 364/364/364 
f 364/364/364 360/360/360 359/359/359 
f 363/363/363 365/365/365 366/366/366 
f 366/366/366 364/364/364 363/363/363 
f 365/365/365 367/367/367 368/368/368 
f 368/368/368 366/366/366 365/365/365 
f 367/367/367 369/369/369 370/370/370 
f 370/370/370 368/368/368 367/367/367 
f 371/371/371 327/327/327 154/154/154 
f 372/372/372 371/371/371 154/154/154 
f 373/373/373 372/372/372 154/154/154 
f 157/157/157 373/373/373 154/154/154 
f 318/318/318 317/317/317 154/154/154 
f 321/321/321 318/318/318 154/154/154 
f 323/323/323 321/321/321 154/154/154 
f 325/325/325 323/323/323 154/154/154 
f 327/327/327 325/325/325 154/154/154 
f 368/368/368 370/370/370 374/374/374 
f 374/374/374 375/375/375 368/368/368 
f 366/366/366 368/368/368 375/375/375 
f 375/375/375 376/376/376 366/366/366 
f 364/364/364 366/366/366 376/376/376 
f 376/376/376 377/377/377 364/364/364 
f 360/360/360 364/364/364 377/377/377 
f 377/377/377 378/378/378 360/360/360 
f 361/361/361 360/360/360 378/378/378 
f 378/378/378 379/379/379 361/361/361 
f 375/375/375 374/374/374 380/380/380 
f 380/380/380 376/376/376 375/375/375 
f 376/376/376 380/380/380 381/381/381 
f 381/381/381 382/382/382 376/376/376 
f 379/379/379 378/378/378 383/383/383 
f 383/383/383 384/384/384 379/379/379 
f 351/351/351 352/352/352 385/385/385 
f 385/385/385 386/386/386 351/351/351 
f 349/349/349 351/351/351 386/386/386 
f 386/386/386 387/387/387 349/349/349 
f 350/350/350 349/349/349 387/387/387 
f 387/387/387 388/388/388 350/350/350 
f 358/358/358 369/369/369 367/367/367 
f 367/367/367 357/357/357 358/358/358 
f 357/357/357 367/367/367 365/365/365 
f 365/365/365 356/356/356 357/357/357 
f 355/355/355 356/356/356 365/365/365 
f 365/365/365 363/363/363 355/355/355 
f 353/353/353 355/355/355 363/363/363 
f 363/363/363 359/359/359 353/353/353 
f 353/353/353 359/359/359 362/362/362 
f 362/362/362 354/354/354 353/353/353 
f 369/369/369 293/293/293 292/292/292 
f 292/292/292 370/370/370 369/369/369 
f 370/370/370 292/292/292 295/295/295 
f 295/295/295 374/374/374 370/370/370 
f 295/295/295 301/301/301 380/380/380 
f 380/380/380 374/374/374 295/295/295 
f 301/301/301 389/389/389 381/381/381 
f 381/381/381 380/380/380 301/301/301 
f 390/390/390 391/391/391 392/392/392 
f 392/392/392 393/393/393 390/390/390 
f 394/394/394 395/395/395 396/396/396 
f 396/396/396 397/397/397 394/394/394 
f 306/306/306 305/305/305 386/386/386 
f 386/386/386 385/385/385 306/306/306 
f 305/305/305 307/307/307 387/387/387 
f 387/387/387 386/386/386 305/305/305 
f 307/307/307 308/308/308 388/388/388 
f 388/388/388 387/387/387 307/307/307 
f 393/393/393 392/392/392 382/382/382 
f 382/382/382 381/381/381 393/393/393 
f 390/390/390 389/389/389 302/302/302 
f 302/302/302 391/391/391 390/390/390 
f 389/389/389 390/390/390 393/393/393 
f 393/393/393 381/381/381 389/389/389 
f 397/397/397 396/396/396 384/384/384 
f 384/384/384 383/383/383 397/397/397 
f 304/304/304 395/395/395 394/394/394 
f 394/394/394 303/303/303 304/304/304 
f 389/389/389 301/301/301 297/297/297 
f 297/297/297 302/302/302 389/389/389 
f 377/377/377 376/376/376 382/382/382 
f 378/378/378 377/377/377 382/382/382 
f 382/382/382 383/383/383 378/378/378 
f 392/392/392 397/397/397 383/383/383 
f 383/383/383 382/382/382 392/392/392 
f 391/391/391 394/394/394 397/397/397 
f 397/397/397 392/392/392 391/391/391 
f 303/303/303 394/394/394 391/391/391 
f 391/391/391 302/302/302 303/303/303 
f 398/398/398 245/245/245 244/244/244 
f 244/244/244 399/399/399 398/398/398 
f 228/228/228 227/227/227 400/400/400 
f 400/400/400 247/247/247 228/228/228 
f 401/401/401 248/248/248 247/247/247 
f 259/259/259 248/248/248 401/401/401 
f 401/401/401 402/402/402 259/259/259 
f 270/270/270 259/259/259 402/402/402 
f 402/402/402 403/403/403 270/270/270 
f 308/308/308 270/270/270 403/403/403 
f 403/403/403 404/404/404 308/308/308 
f 240/240/240 239/239/239 238/238/238 
f 238/238/238 237/237/237 240/240/240 
f 405/405/405 244/244/244 243/243/243 
f 243/243/243 406/406/406 405/405/405 
f 254/254/254 255/255/255 240/240/240 
f 240/240/240 237/237/237 254/254/254 
f 406/406/406 243/243/243 258/258/258 
f 258/258/258 407/407/407 406/406/406 
f 266/266/266 255/255/255 254/254/254 
f 254/254/254 265/265/265 266/266/266 
f 407/407/407 258/258/258 269/269/269 
f 269/269/269 408/408/408 407/407/407 
f 277/277/277 266/266/266 265/265/265 
f 265/265/265 276/276/276 277/277/277 
f 408/408/408 269/269/269 280/280/280 
f 280/280/280 409/409/409 408/408/408 
f 291/291/291 290/290/290 289/289/289 
f 242/242/242 410/410/410 411/411/411 
f 411/411/411 239/239/239 242/242/242 
f 409/409/409 280/280/280 290/290/290 
f 290/290/290 291/291/291 409/409/409 
f 288/288/288 277/277/277 276/276/276 
f 276/276/276 286/286/286 288/288/288 
f 399/399/399 244/244/244 405/405/405 
f 405/405/405 412/412/412 399/399/399 
f 245/245/245 242/242/242 241/241/241 
f 241/241/241 246/246/246 245/245/245 
f 246/246/246 241/241/241 256/256/256 
f 256/256/256 257/257/257 246/246/246 
f 257/257/257 256/256/256 267/267/267 
f 267/267/267 268/268/268 257/257/257 
f 268/268/268 267/267/267 278/278/278 
f 278/278/278 279/279/279 268/268/268 
f 410/410/410 242/242/242 245/245/245 
f 245/245/245 398/398/398 410/410/410 
f 279/279/279 278/278/278 290/290/290 
f 411/411/411 413/413/413 238/238/238 
f 238/238/238 239/239/239 411/411/411 
f 411/411/411 199/199/199 198/198/198 
f 198/198/198 413/413/413 411/411/411 
f 410/410/410 200/200/200 199/199/199 
f 199/199/199 411/411/411 410/410/410 
f 200/200/200 410/410/410 398/398/398 
f 398/398/398 201/201/201 200/200/200 
f 201/201/201 398/398/398 399/399/399 
f 399/399/399 202/202/202 201/201/201 
f 203/203/203 202/202/202 399/399/399 
f 399/399/399 412/412/412 203/203/203 
f 232/232/232 7/7/7 204/204/204 
f 204/204/204 294/294/294 232/232/232 
f 413/413/413 236/236/236 235/235/235 
f 235/235/235 238/238/238 413/413/413 
f 198/198/198 205/205/205 236/236/236 
f 236/236/236 413/413/413 198/198/198 
f 414/414/414 400/400/400 227/227/227 
f 227/227/227 294/294/294 414/414/414 
f 207/207/207 414/414/414 294/294/294 
f 294/294/294 204/204/204 207/207/207 
f 317/317/317 208/208/208 154/154/154 
f 209/209/209 208/208/208 317/317/317 
f 317/317/317 320/320/320 209/209/209 
f 210/210/210 209/209/209 320/320/320 
f 320/320/320 334/334/334 210/210/210 
f 211/211/211 210/210/210 334/334/334 
f 334/334/334 344/344/344 211/211/211 
f 212/212/212 211/211/211 344/344/344 
f 344/344/344 354/354/354 212/212/212 
f 361/361/361 214/214/214 213/213/213 
f 213/213/213 362/362/362 361/361/361 
f 215/215/215 214/214/214 361/361/361 
f 361/361/361 379/379/379 215/215/215 
f 216/216/216 215/215/215 379/379/379 
f 379/379/379 384/384/384 216/216/216 
f 362/362/362 213/213/213 212/212/212 
f 212/212/212 354/354/354 362/362/362 
f 205/205/205 217/217/217 233/233/233 
f 233/233/233 236/236/236 205/205/205 
f 233/233/233 217/217/217 218/218/218 
f 218/218/218 252/252/252 233/233/233 
f 252/252/252 218/218/218 219/219/219 
f 219/219/219 263/263/263 252/252/252 
f 263/263/263 219/219/219 220/220/220 
f 220/220/220 274/274/274 263/263/263 
f 222/222/222 221/221/221 282/282/282 
f 282/282/282 281/281/281 222/222/222 
f 221/221/221 223/223/223 300/300/300 
f 300/300/300 282/282/282 221/221/221 
f 223/223/223 224/224/224 304/304/304 
f 304/304/304 300/300/300 223/223/223 
f 220/220/220 222/222/222 281/281/281 
f 281/281/281 274/274/274 220/220/220 
f 225/225/225 216/216/216 384/384/384 
f 384/384/384 396/396/396 225/225/225 
f 224/224/224 226/226/226 395/395/395 
f 395/395/395 304/304/304 224/224/224 
f 262/262/262 415/415/415 28/28/28 
f 28/28/28 251/251/251 262/262/262 
f 273/273/273 416/416/416 415/415/415 
f 415/415/415 262/262/262 273/273/273 
f 28/28/28 415/415/415 39/39/39 
f 39/39/39 27/27/27 28/28/28 
f 416/416/416 50/50/50 39/39/39 
f 39/39/39 415/415/415 416/416/416 
f 133/133/133 170/170/170 417/417/417 
f 417/417/417 134/134/134 133/133/133 
f 134/134/134 417/417/417 385/385/385 
f 385/385/385 352/352/352 134/134/134 
f 416/416/416 273/273/273 306/306/306 
f 306/306/306 418/418/418 416/416/416 
f 50/50/50 416/416/416 418/418/418 
f 418/418/418 82/82/82 50/50/50 
f 306/306/306 385/385/385 417/417/417 
f 417/417/417 418/418/418 306/306/306 
f 418/418/418 417/417/417 170/170/170 
f 170/170/170 82/82/82 418/418/418 
f 179/179/179 178/178/178 225/225/225 
f 225/225/225 226/226/226 179/179/179 
f 395/395/395 226/226/226 225/225/225 
f 225/225/225 396/396/396 395/395/395 

