# This file is brought to you by Roblox Corporation
# Generated by Roblox Studio

mtllib MessyHair.mtl

g Handle1

v -89.6268 257.649 -81.0217 
v -89.6269 257.649 -81.1886 
v -89.3776 257.674 -81.1052 
v -89.5315 257.649 -80.8868 
v -89.3775 257.649 -80.8353 
v -89.2235 257.649 -80.8869 
v -89.1284 257.649 -81.0219 
v -89.1285 257.649 -81.1887 
v -89.2237 257.649 -81.3236 
v -89.3779 257.649 -81.3752 
v -89.5319 257.649 -81.3237 
v -89.8066 257.58 -80.9614 
v -89.9094 257.463 -80.9273 
v -89.9099 257.463 -81.2818 
v -89.8064 257.58 -81.248 
v -89.6426 257.58 -80.7292 
v -89.7059 257.463 -80.6393 
v -89.3774 257.58 -80.6406 
v -89.3774 257.463 -80.5296 
v -89.3774 257.58 -80.6406 
v -89.1123 257.58 -80.7294 
v -89.0489 257.463 -80.6396 
v -89.3774 257.463 -80.5296 
v -88.9486 257.58 -80.9618 
v -88.8462 257.463 -80.9274 
v -88.9487 257.58 -81.249 
v -88.8465 257.463 -81.2833 
v -89.1127 257.58 -81.4812 
v -89.0495 257.463 -81.5712 
v -89.3781 257.58 -81.5699 
v -89.3782 257.462 -81.6813 
v -89.6378 257.584 -81.4821 
v -89.662 257.474 -81.5803 
v -89.6378 257.584 -81.4821 
v -89.662 257.474 -81.5803 
v -89.9644 257.336 -80.9099 
v -89.9631 257.365 -81.292 
v -89.74 257.336 -80.5922 
v -89.3773 257.336 -80.471 
v -89.0148 257.336 -80.5925 
v -89.3773 257.336 -80.471 
v -88.7908 257.337 -80.9101 
v -88.7966 257.318 -81.3066 
v -89.0133 257.346 -81.6226 
v -89.3619 257.374 -81.7218 
v -89.6284 257.405 -81.6331 
v -89.6284 257.405 -81.6331 
v -89.4514 257.239 -81.7339 
v -89.7378 257.181 -81.6644 
v -89.3774 257.124 -81.7297 
v -89.5929 257.321 -81.6647 
v -89.5922 257.363 -81.6513 
v -89.3745 257.284 -81.7137 
v -89.123 257.18 -81.6162 
v -89.9415 257.153 -81.294 
v -89.9411 257.155 -80.9188 
v -89.7261 257.106 -80.6134 
v -89.3771 257.088 -80.4967 
v -89.0287 257.106 -80.6138 
v -89.3771 257.088 -80.4967 
v -88.8141 257.155 -80.9187 
v -88.8143 257.155 -81.295 
v -89.0378 257.188 -81.6083 
v -89.6464 257.362 -81.6419 
v -89.849 257.064 -81.4963 
v -89.6912 257.281 -81.6175 
v -89.994 256.99 -81.3167 
v -89.9764 257.053 -81.1261 
v -89.9946 256.989 -80.9074 
v -89.7495 256.883 -80.5731 
v -89.5849 256.895 -80.5301 
v -89.1646 256.895 -80.5196 
v -89.3768 256.85 -80.4452 
v -88.7605 256.989 -80.905 
v -88.9961 256.897 -80.5732 
v -88.7611 256.935 -81.0532 
v -88.7608 256.991 -81.3173 
v -89.0472 257.134 -81.6651 
v -88.9551 257.029 -81.498 
v -89.5319 257.649 -81.3237 
v -89.6269 257.649 -81.1886 
v -89.3779 257.649 -81.3752 
v -89.5319 257.649 -81.3237 
v -89.2237 257.649 -81.3236 
v -89.1285 257.649 -81.1887 
v -89.1284 257.649 -81.0219 
v -89.2235 257.649 -80.8869 
v -89.3775 257.649 -80.8353 
v -89.5315 257.649 -80.8868 
v -89.3775 257.649 -80.8353 
v -89.6268 257.649 -81.0217 
v -89.9948 256.993 -81.0523 
v -89.3768 256.85 -80.4452 
v -89.6395 257.687 -81.0174 
v -89.3776 257.713 -81.1052 
v -89.6396 257.687 -81.1927 
v -89.5394 257.687 -80.8756 
v -89.3775 257.687 -80.8215 
v -89.2156 257.687 -80.8757 
v -89.1156 257.687 -81.0177 
v -89.1157 257.687 -81.193 
v -89.2158 257.687 -81.3348 
v -89.3778 257.687 -81.3889 
v -89.5396 257.687 -81.3346 
v -89.948 257.482 -81.2958 
v -89.9478 257.482 -80.9141 
v -89.8349 257.61 -80.9519 
v -89.835 257.61 -81.258 
v -89.7299 257.482 -80.6054 
v -89.6601 257.61 -80.7044 
v -89.3773 257.482 -80.4876 
v -89.3774 257.61 -80.6099 
v -89.0249 257.482 -80.6057 
v -89.0948 257.61 -80.7046 
v -89.3774 257.61 -80.6099 
v -89.3773 257.482 -80.4876 
v -88.8073 257.482 -80.9146 
v -88.9202 257.61 -80.9524 
v -88.8074 257.482 -81.2963 
v -88.9204 257.61 -81.2585 
v -89.0254 257.482 -81.605 
v -89.0952 257.61 -81.506 
v -89.3476 257.488 -81.7211 
v -89.3779 257.61 -81.6005 
v -89.6847 257.494 -81.6146 
v -89.6558 257.614 -81.5069 
v -89.6558 257.614 -81.5069 
v -89.6847 257.494 -81.6146 
v -90.0063 257.371 -81.3074 
v -90.0082 257.341 -80.8953 
v -89.7671 257.341 -80.5539 
v -89.3773 257.341 -80.4236 
v -88.9876 257.341 -80.5542 
v -89.3773 257.341 -80.4236 
v -88.7469 257.341 -80.8958 
v -88.7528 257.322 -81.3216 
v -88.9881 257.341 -81.6594 
v -89.3378 257.378 -81.7692 
v -89.6751 257.434 -81.6776 
v -89.6751 257.434 -81.6776 
v -89.4549 257.244 -81.7811 
v -89.3739 257.122 -81.7755 
v -89.7491 257.186 -81.7087 
v -89.5956 257.337 -81.6909 
v -89.5921 257.379 -81.6619 
v -89.3738 257.285 -81.7614 
v -89.1095 257.18 -81.6615 
v -89.9851 257.157 -81.3097 
v -89.9849 257.157 -80.9032 
v -89.7527 257.108 -80.5744 
v -89.3773 257.09 -80.449 
v -89.002 257.108 -80.5748 
v -89.3773 257.09 -80.449 
v -88.7702 257.157 -80.9037 
v -88.7704 257.157 -81.3103 
v -89.0026 257.184 -81.6389 
v -89.683 257.369 -81.6733 
v -89.8845 257.068 -81.5246 
v -90.0349 256.998 -81.3315 
v -89.7427 257.272 -81.6701 
v -90.0211 257.063 -81.1264 
v -90.0347 256.998 -80.8916 
v -89.7737 256.89 -80.5357 
v -89.5984 256.901 -80.485 
v -89.1509 256.902 -80.4748 
v -89.3773 256.856 -80.4002 
v -88.7204 256.998 -80.8922 
v -88.9712 256.904 -80.5363 
v -88.716 256.945 -81.0546 
v -88.7206 256.998 -81.3321 
v -88.9209 257.03 -81.5297 
v -89.0077 257.129 -81.699 
v -89.6396 257.687 -81.1927 
v -89.5396 257.687 -81.3346 
v -89.5396 257.687 -81.3346 
v -89.3778 257.687 -81.3889 
v -89.2158 257.687 -81.3348 
v -89.1157 257.687 -81.193 
v -89.1156 257.687 -81.0177 
v -89.2156 257.687 -80.8757 
v -89.3775 257.687 -80.8215 
v -89.3775 257.687 -80.8215 
v -89.5394 257.687 -80.8756 
v -89.6395 257.687 -81.0174 
v -90.0395 257.003 -81.0508 
v -89.3773 256.856 -80.4002 
v -89.3774 257.124 -81.7297 
v -89.7378 257.181 -81.6644 
v -89.5929 257.321 -81.6647 
v -89.7378 257.181 -81.6644 
v -89.6284 257.405 -81.6331 
v -89.5922 257.363 -81.6513 
v -89.0133 257.346 -81.6226 
v -89.123 257.18 -81.6162 
v -89.0133 257.346 -81.6226 
v -89.0378 257.188 -81.6083 
v -89.6284 257.405 -81.6331 
v -89.6464 257.362 -81.6419 
v -89.849 257.064 -81.4963 
v -89.6912 257.281 -81.6175 
v -89.994 256.99 -81.3167 
v -89.9946 256.989 -80.9074 
v -89.7495 256.883 -80.5731 
v -89.5849 256.895 -80.5301 
v -89.3768 256.85 -80.4452 
v -89.1646 256.895 -80.5196 
v -88.7605 256.989 -80.905 
v -88.9961 256.897 -80.5732 
v -88.7608 256.991 -81.3173 
v -88.7611 256.935 -81.0532 
v -89.0472 257.134 -81.6651 
v -88.9551 257.029 -81.498 
v -89.0472 257.134 -81.6651 
v -89.9764 257.053 -81.1261 
v -89.9948 256.993 -81.0523 
v -89.9764 257.053 -81.1261 
v -89.3768 256.85 -80.4452 

vn 0.23622 -0.968504 -0.0708661 
vn 0.23622 -0.968504 0.0708661 
vn 0 -1 0 
vn 0.141732 -0.968504 -0.19685 
vn 0 -0.968504 -0.23622 
vn -0.141732 -0.968504 -0.19685 
vn -0.23622 -0.968504 -0.0708661 
vn -0.23622 -0.968504 0.0708661 
vn -0.141732 -0.968504 0.19685 
vn 0 -0.968504 0.23622 
vn 0.141732 -0.968504 0.188976 
vn 0.559055 -0.811024 -0.173228 
vn 0.795276 -0.543307 -0.259843 
vn 0.779528 -0.566929 0.275591 
vn 0.559055 -0.811024 0.173228 
vn 0.346457 -0.818898 -0.464567 
vn 0.503937 -0.543307 -0.669291 
vn 0 -0.818898 -0.574803 
vn 0 -0.551181 -0.834646 
vn 0 -0.818898 -0.574803 
vn -0.346457 -0.818898 -0.464567 
vn -0.503937 -0.543307 -0.669291 
vn 0 -0.551181 -0.834646 
vn -0.559055 -0.811024 -0.173228 
vn -0.80315 -0.543307 -0.251969 
vn -0.559055 -0.811024 0.173228 
vn -0.818898 -0.519685 0.251969 
vn -0.346457 -0.818898 0.464567 
vn -0.488189 -0.574803 0.661417 
vn -0.00787402 -0.818898 0.574803 
vn 0.00787402 -0.551181 0.834646 
vn 0.362205 -0.80315 0.464567 
vn 0.519685 -0.480315 0.708661 
vn 0.362205 -0.80315 0.464567 
vn 0.519685 -0.480315 0.708661 
vn 0.944882 -0.133858 -0.307087 
vn 0.92126 -0.188976 0.330709 
vn 0.590551 -0.149606 -0.787402 
vn 0 -0.15748 -0.984252 
vn -0.598425 -0.149606 -0.787402 
vn 0 -0.15748 -0.984252 
vn -0.944882 -0.141732 -0.291339 
vn -0.944882 -0.102362 0.307087 
vn -0.590551 -0.338583 0.732283 
vn -0.0393701 -0.15748 0.984252 
vn 0.409449 -0.748031 0.519685 
vn 0.409449 -0.748031 0.519685 
vn 0.0787402 -0.165354 0.984252 
vn -0.661417 -0.338583 0.669291 
vn -0.0866142 -0.795276 0.598425 
vn -0.314961 0.00787402 0.944882 
vn -0.543307 -0.291339 0.787402 
vn -0.125984 -0.0629921 0.992126 
vn 0.228346 -0.582677 0.779528 
vn 0.937008 -0.15748 0.307087 
vn 0.944882 -0.0866142 -0.314961 
vn 0.582677 -0.0551181 -0.811024 
vn 0.00787402 -0.0629921 -1 
vn -0.582677 -0.0787402 -0.811024 
vn 0.00787402 -0.0629921 -1 
vn -0.952756 -0.0787402 -0.299213 
vn -0.944882 -0.0787402 0.314961 
vn -0.984252 0.15748 0.023622 
vn 0.897638 -0.409449 -0.181102 
vn 0.653543 -0.755906 -0.023622 
vn 0.850394 -0.519685 -0.0551181 
vn 0.314961 -0.937008 0.11811 
vn 0.653543 -0.748031 -0.0944882 
vn 0.346457 -0.905512 -0.244094 
vn 0.149606 -0.905512 -0.401575 
vn 0.149606 -0.779528 -0.606299 
vn -0.110236 -0.811024 -0.574803 
vn 0.00787402 -0.913386 -0.409449 
vn -0.433071 -0.897638 -0.0629921 
vn -0.141732 -0.905512 -0.401575 
vn -0.472441 -0.88189 0.0629921 
vn -0.401575 -0.913386 -0.015748 
vn -0.897638 -0.133858 -0.417323 
vn -0.669291 -0.708661 0.220472 
vn 0.141732 -0.968504 0.188976 
vn 0.23622 -0.968504 0.0708661 
vn 0 -0.968504 0.23622 
vn 0.141732 -0.968504 0.188976 
vn -0.141732 -0.968504 0.19685 
vn -0.23622 -0.968504 0.0708661 
vn -0.23622 -0.968504 -0.0708661 
vn -0.141732 -0.968504 -0.19685 
vn 0 -0.968504 -0.23622 
vn 0.141732 -0.968504 -0.19685 
vn 0 -0.968504 -0.23622 
vn 0.23622 -0.968504 -0.0708661 
vn 0.417323 -0.866142 -0.275591 
vn 0.00787402 -0.913386 -0.409449 
vn -0.23622 0.968504 0.0787402 
vn 0 1 0 
vn -0.23622 0.968504 -0.0708661 
vn -0.149606 0.968504 0.19685 
vn 0 0.968504 0.244094 
vn 0.149606 0.968504 0.19685 
vn 0.23622 0.968504 0.0787402 
vn 0.23622 0.968504 -0.0708661 
vn 0.149606 0.968504 -0.19685 
vn 0 0.968504 -0.244094 
vn -0.149606 0.968504 -0.188976 
vn -0.779528 0.559055 -0.275591 
vn -0.795276 0.543307 0.259843 
vn -0.559055 0.811024 0.173228 
vn -0.559055 0.811024 -0.173228 
vn -0.503937 0.543307 0.669291 
vn -0.346457 0.811024 0.464567 
vn 0 0.543307 0.834646 
vn 0 0.818898 0.574803 
vn 0.503937 0.543307 0.669291 
vn 0.346457 0.811024 0.464567 
vn 0 0.818898 0.574803 
vn 0 0.543307 0.834646 
vn 0.80315 0.535433 0.251969 
vn 0.559055 0.811024 0.173228 
vn 0.818898 0.519685 -0.251969 
vn 0.559055 0.811024 -0.173228 
vn 0.511811 0.551181 -0.661417 
vn 0.354331 0.818898 -0.456693 
vn 0.0472441 0.559055 -0.826772 
vn -0.00787402 0.826772 -0.566929 
vn -0.480315 0.614173 -0.629921 
vn -0.362205 0.80315 -0.464567 
vn -0.362205 0.80315 -0.464567 
vn -0.480315 0.614173 -0.629921 
vn -0.929134 0.181102 -0.330709 
vn -0.944882 0.133858 0.299213 
vn -0.590551 0.149606 0.787402 
vn 0 0.15748 0.984252 
vn 0.598425 0.149606 0.787402 
vn 0 0.15748 0.984252 
vn 0.944882 0.133858 0.291339 
vn 0.944882 0.102362 -0.307087 
vn 0.559055 0.00787402 -0.826772 
vn 0.0472441 0.133858 -0.992126 
vn -0.393701 0.188976 -0.897638 
vn -0.393701 0.188976 -0.897638 
vn -0.0944882 0.220472 -0.968504 
vn 0.133858 -0.716535 -0.685039 
vn -0.905512 -0.188976 -0.385827 
vn -0.653543 0.559055 -0.511811 
vn -0.661417 -0.354331 -0.661417 
vn 0.0708661 0.102362 -0.992126 
vn 0.590551 -0.700787 -0.393701 
vn -0.937008 0.149606 -0.307087 
vn -0.944882 0.0944882 0.314961 
vn -0.582677 0.0551181 0.811024 
vn -0.00787402 0.0629921 1 
vn 0.590551 0.0787402 0.80315 
vn -0.00787402 0.0629921 1 
vn 0.952756 0.0787402 0.299213 
vn 0.944882 0.0787402 -0.314961 
vn 0.283465 0.338583 -0.897638 
vn -0.0314961 -0.141732 -0.992126 
vn -0.393701 -0.527559 -0.748031 
vn -0.811024 -0.535433 -0.244094 
vn -0.181102 -0.181102 -0.968504 
vn -0.96063 -0.251969 -0.110236 
vn -0.874016 -0.417323 0.23622 
vn -0.511811 -0.559055 0.653543 
vn -0.299213 -0.559055 0.771654 
vn 0.322835 -0.535433 0.779528 
vn -0.015748 -0.574803 0.818898 
vn 0.889764 -0.354331 0.291339 
vn 0.551181 -0.527559 0.645669 
vn 0.80315 -0.598425 0.0472441 
vn 0.811024 -0.425197 -0.393701 
vn 0.377953 -0.708661 -0.598425 
vn 0.125984 -0.11811 -0.984252 
vn -0.23622 0.968504 -0.0708661 
vn -0.149606 0.968504 -0.188976 
vn -0.149606 0.968504 -0.188976 
vn 0 0.968504 -0.244094 
vn 0.149606 0.968504 -0.19685 
vn 0.23622 0.968504 -0.0708661 
vn 0.23622 0.968504 0.0787402 
vn 0.149606 0.968504 0.19685 
vn 0 0.968504 0.244094 
vn 0 0.968504 0.244094 
vn -0.149606 0.968504 0.19685 
vn -0.23622 0.968504 0.0787402 
vn -0.818898 -0.511811 -0.251969 
vn -0.015748 -0.574803 0.818898 
vn -0.0866142 -0.795276 0.598425 
vn -0.661417 -0.338583 0.669291 
vn -0.314961 0.00787402 0.944882 
vn -0.661417 -0.338583 0.669291 
vn 0.409449 -0.748031 0.519685 
vn -0.543307 -0.291339 0.787402 
vn -0.590551 -0.338583 0.732283 
vn 0.228346 -0.582677 0.779528 
vn -0.590551 -0.338583 0.732283 
vn -0.984252 0.15748 0.023622 
vn 0.409449 -0.748031 0.519685 
vn 0.897638 -0.409449 -0.181102 
vn 0.653543 -0.755906 -0.023622 
vn 0.850394 -0.519685 -0.0551181 
vn 0.314961 -0.937008 0.11811 
vn 0.346457 -0.905512 -0.244094 
vn 0.149606 -0.905512 -0.401575 
vn 0.149606 -0.779528 -0.606299 
vn 0.00787402 -0.913386 -0.409449 
vn -0.110236 -0.811024 -0.574803 
vn -0.433071 -0.897638 -0.0629921 
vn -0.141732 -0.905512 -0.401575 
vn -0.401575 -0.913386 -0.015748 
vn -0.472441 -0.88189 0.0629921 
vn -0.897638 -0.133858 -0.417323 
vn -0.669291 -0.708661 0.220472 
vn -0.897638 -0.133858 -0.417323 
vn 0.653543 -0.748031 -0.0944882 
vn 0.417323 -0.866142 -0.275591 
vn 0.653543 -0.748031 -0.0944882 
vn 0.00787402 -0.913386 -0.409449 

vt 0.058332 0.946141 
vt 0.058501 0.909488 
vt 0.11478 0.928104 
vt 0.079714 0.975874 
vt 0.114492 0.987359 
vt 0.149377 0.976209 
vt 0.171043 0.946687 
vt 0.171221 0.910068 
vt 0.149843 0.880335 
vt 0.115033 0.868827 
vt 0.080147 0.879942 
vt 0.138649 0.509731 
vt 0.114795 0.512276 
vt 0.116508 0.46808 
vt 0.140483 0.472533 
vt 0.148112 0.545788 
vt 0.125899 0.555256 
vt 0.168664 0.577929 
vt 0.148596 0.596511 
vt 0.962714 0.132898 
vt 0.931467 0.145185 
vt 0.920892 0.127711 
vt 0.957668 0.109867 
vt 0.907168 0.165539 
vt 0.892116 0.152273 
vt 0.890046 0.191563 
vt 0.871299 0.183476 
vt 0.882056 0.221935 
vt 0.86029 0.220976 
vt 0.887996 0.253507 
vt 0.868468 0.260696 
vt 0.906243 0.280576 
vt 0.887807 0.291179 
vt 0.154329 0.435644 
vt 0.13456 0.419146 
vt 0.093351 0.514286 
vt 0.099086 0.466877 
vt 0.105154 0.562117 
vt 0.127628 0.609574 
vt 0.910127 0.112979 
vt 0.949529 0.090397 
vt 0.878504 0.140616 
vt 0.852542 0.174927 
vt 0.841267 0.21969 
vt 0.854837 0.263694 
vt 0.874816 0.295908 
vt 0.12137 0.409225 
vt 0.825441 0.285629 
vt 0.814236 0.322761 
vt 0.810328 0.276618 
vt 0.837397 0.303812 
vt 0.855729 0.299019 
vt 0.837004 0.273735 
vt 0.820412 0.239546 
vt 0.064748 0.462774 
vt 0.064589 0.517243 
vt 0.069275 0.572411 
vt 0.085906 0.623448 
vt 0.889917 0.087565 
vt 0.927025 0.059952 
vt 0.859306 0.123915 
vt 0.832842 0.163008 
vt 0.814756 0.20763 
vt 0.099447 0.403566 
vt 0.043204 0.423229 
vt 0.073985 0.406105 
vt 0.036759 0.459671 
vt 0.046965 0.487551 
vt 0.036344 0.519649 
vt 0.032999 0.583871 
vt 0.04376 0.606598 
vt 0.888837 0.050523 
vt 0.908552 0.029444 
vt 0.840151 0.107685 
vt 0.870368 0.062954 
vt 0.823193 0.118645 
vt 0.81094 0.15075 
vt 0.783704 0.210069 
vt 0.80403 0.184011 
vt 0.175895 0.45722 
vt 0.167889 0.480027 
vt 0.910924 0.243521 
vt 0.922344 0.260564 
vt 0.907596 0.222217 
vt 0.913294 0.200909 
vt 0.925726 0.182003 
vt 0.942915 0.167506 
vt 0.962802 0.16045 
vt 0.173375 0.532237 
vt 0.186239 0.552605 
vt 0.167735 0.506473 
vt 0.037172 0.498851 
vt 0.047926 0.640128 
vt 0.821816 0.35678 
vt 0.877695 0.434546 
vt 0.786776 0.404473 
vt 0.878196 0.338786 
vt 0.934389 0.357372 
vt 0.968927 0.405437 
vt 0.968613 0.464617 
vt 0.933573 0.51231 
vt 0.877194 0.530305 
vt 0.821 0.511719 
vt 0.786463 0.463654 
vt 0.253421 0.274018 
vt 0.397927 0.271211 
vt 0.389042 0.349175 
vt 0.267049 0.352006 
vt 0.538567 0.306763 
vt 0.507216 0.380126 
vt 0.677034 0.380551 
vt 0.613884 0.449194 
vt 0.701036 0.621289 
vt 0.657451 0.574047 
vt 0.720298 0.490017 
vt 0.786003 0.526014 
vt 0.604018 0.686284 
vt 0.577078 0.629559 
vt 0.494572 0.722161 
vt 0.485879 0.659192 
vt 0.372806 0.724458 
vt 0.388454 0.657637 
vt 0.260724 0.667113 
vt 0.299045 0.613566 
vt 0.183901 0.582555 
vt 0.232549 0.534881 
vt 0.144711 0.39645 
vt 0.090767 0.32767 
vt 0.249969 0.21565 
vt 0.404835 0.20027 
vt 0.561269 0.238038 
vt 0.720926 0.307894 
vt 0.736704 0.666637 
vt 0.838427 0.56865 
vt 0.627588 0.737568 
vt 0.504104 0.785772 
vt 0.359312 0.789105 
vt 0.23862 0.707579 
vt 0.153625 0.622386 
vt 0.058357 0.274905 
vt 0.152446 0.772051 
vt 0.171459 0.823386 
vt 0.038021 0.786023 
vt 0.104588 0.721948 
vt 0.131845 0.67356 
vt 0.196535 0.749814 
vt 0.283699 0.826377 
vt 0.238499 0.110479 
vt 0.414079 0.110243 
vt 0.591987 0.126609 
vt 0.761351 0.173986 
vt 0.791335 0.742028 
vt 0.905946 0.655898 
vt 0.65911 0.803715 
vt 0.522227 0.849958 
vt 0.376074 0.872238 
vt 0.051294 0.210612 
vt 0.116439 0.046791 
vt 0.227415 0.030495 
vt 0.063722 0.13744 
vt 0.31831 0.053475 
vt 0.421326 0.027475 
vt 0.623007 0.020032 
vt 0.697333 0.043876 
vt 0.895522 0.773519 
vt 0.974213 0.730726 
vt 0.688066 0.868579 
vt 0.841651 0.81229 
vt 0.64033 0.90671 
vt 0.539728 0.916621 
vt 0.437034 0.920873 
vt 0.345868 0.959226 
vt 0.291267 0.447902 
vt 0.215671 0.474287 
vt 0.308355 0.502251 
vt 0.349545 0.551078 
vt 0.409483 0.578498 
vt 0.476618 0.579826 
vt 0.541912 0.558154 
vt 0.59849 0.518993 
vt 0.635854 0.46569 
vt 0.527377 0.5101 
vt 0.461365 0.465707 
vt 0.377599 0.445201 
vt 0.356955 0.0285 
vt 0.805077 0.056662 
vt 0.169319 0.838614 
vt 0.035203 0.801908 
vt 0.091298 0.712088 
vt 0.028891 0.772866 
vt 0.138028 0.62051 
vt 0.11643 0.667167 
vt 0.36251 0.804738 
vt 0.286997 0.842543 
vt 0.344233 0.792887 
vt 0.359263 0.871074 
vt 0.03859 0.276771 
vt 0.031393 0.210227 
vt 0.105328 0.03003 
vt 0.045045 0.12942 
vt 0.22701 0.012035 
vt 0.422415 0.00825399 
vt 0.623263 0.001302 
vt 0.700489 0.023718 
vt 0.977644 0.746265 
vt 0.903952 0.787945 
vt 0.696504 0.881353 
vt 0.84714 0.826652 
vt 0.540283 0.931403 
vt 0.646239 0.92186 
vt 0.35225 0.974624 
vt 0.439866 0.937359 
vt 0.330029 0.953873 
vt 0.319753 0.033154 
vt 0.35218 0.00972301 
vt 0.31074 0.03404 
vt 0.801373 0.037272 

usemtl Handle1Mtl

f 1/1/1 2/2/2 3/3/3 
f 3/3/3 4/4/4 1/1/1 
f 3/3/3 5/5/5 4/4/4 
f 3/3/3 6/6/6 5/5/5 
f 3/3/3 7/7/7 6/6/6 
f 3/3/3 8/8/8 7/7/7 
f 3/3/3 9/9/9 8/8/8 
f 3/3/3 10/10/10 9/9/9 
f 3/3/3 11/11/11 10/10/10 
f 3/3/3 2/2/2 11/11/11 
f 12/12/12 13/13/13 14/14/14 
f 14/14/14 15/15/15 12/12/12 
f 12/12/12 16/16/16 17/17/17 
f 17/17/17 13/13/13 12/12/12 
f 16/16/16 18/18/18 19/19/19 
f 19/19/19 17/17/17 16/16/16 
f 20/20/20 21/21/21 22/22/22 
f 22/22/22 23/23/23 20/20/20 
f 21/21/21 24/24/24 25/25/25 
f 25/25/25 22/22/22 21/21/21 
f 24/24/24 26/26/26 27/27/27 
f 27/27/27 25/25/25 24/24/24 
f 26/26/26 28/28/28 29/29/29 
f 29/29/29 27/27/27 26/26/26 
f 28/28/28 30/30/30 31/31/31 
f 31/31/31 29/29/29 28/28/28 
f 30/30/30 32/32/32 33/33/33 
f 33/33/33 31/31/31 30/30/30 
f 34/34/34 15/15/15 14/14/14 
f 14/14/14 35/35/35 34/34/34 
f 13/13/13 36/36/36 37/37/37 
f 37/37/37 14/14/14 13/13/13 
f 13/13/13 17/17/17 38/38/38 
f 38/38/38 36/36/36 13/13/13 
f 17/17/17 19/19/19 39/39/39 
f 39/39/39 38/38/38 17/17/17 
f 23/23/23 22/22/22 40/40/40 
f 40/40/40 41/41/41 23/23/23 
f 22/22/22 25/25/25 42/42/42 
f 42/42/42 40/40/40 22/22/22 
f 42/42/42 25/25/25 27/27/27 
f 27/27/27 43/43/43 42/42/42 
f 27/27/27 29/29/29 44/44/44 
f 44/44/44 43/43/43 27/27/27 
f 29/29/29 31/31/31 45/45/45 
f 45/45/45 44/44/44 29/29/29 
f 31/31/31 33/33/33 46/46/46 
f 46/46/46 45/45/45 31/31/31 
f 35/35/35 14/14/14 37/37/37 
f 37/37/37 47/47/47 35/35/35 
f 48/48/48 49/49/49 50/50/50 
f 51/51/51 49/49/49 48/48/48 
f 45/45/45 46/46/46 52/52/52 
f 52/52/52 53/53/53 45/45/45 
f 54/54/54 44/44/44 45/45/45 
f 45/45/45 53/53/53 54/54/54 
f 55/55/55 37/37/37 36/36/36 
f 36/36/36 56/56/56 55/55/55 
f 56/56/56 36/36/36 38/38/38 
f 38/38/38 57/57/57 56/56/56 
f 57/57/57 38/38/38 39/39/39 
f 39/39/39 58/58/58 57/57/57 
f 41/41/41 40/40/40 59/59/59 
f 59/59/59 60/60/60 41/41/41 
f 40/40/40 42/42/42 61/61/61 
f 61/61/61 59/59/59 40/40/40 
f 61/61/61 42/42/42 43/43/43 
f 43/43/43 62/62/62 61/61/61 
f 43/43/43 44/44/44 63/63/63 
f 63/63/63 62/62/62 43/43/43 
f 64/64/64 47/47/47 37/37/37 
f 37/37/37 55/55/55 64/64/64 
f 65/65/65 66/66/66 55/55/55 
f 55/55/55 67/67/67 65/65/65 
f 56/56/56 68/68/68 55/55/55 
f 69/69/69 56/56/56 57/57/57 
f 57/57/57 70/70/70 69/69/69 
f 71/71/71 70/70/70 57/57/57 
f 60/60/60 59/59/59 72/72/72 
f 72/72/72 73/73/73 60/60/60 
f 59/59/59 61/61/61 74/74/74 
f 74/74/74 75/75/75 59/59/59 
f 76/76/76 61/61/61 62/62/62 
f 62/62/62 77/77/77 76/76/76 
f 63/63/63 78/78/78 79/79/79 
f 80/80/80 81/81/81 15/15/15 
f 15/15/15 34/34/34 80/80/80 
f 82/82/82 83/83/83 32/32/32 
f 32/32/32 30/30/30 82/82/82 
f 84/84/84 82/82/82 30/30/30 
f 30/30/30 28/28/28 84/84/84 
f 85/85/85 84/84/84 28/28/28 
f 28/28/28 26/26/26 85/85/85 
f 86/86/86 85/85/85 26/26/26 
f 26/26/26 24/24/24 86/86/86 
f 87/87/87 86/86/86 24/24/24 
f 24/24/24 21/21/21 87/87/87 
f 88/88/88 87/87/87 21/21/21 
f 21/21/21 20/20/20 88/88/88 
f 89/89/89 90/90/90 18/18/18 
f 18/18/18 16/16/16 89/89/89 
f 91/91/91 89/89/89 16/16/16 
f 16/16/16 12/12/12 91/91/91 
f 12/12/12 15/15/15 81/81/81 
f 81/81/81 91/91/91 12/12/12 
f 50/50/50 54/54/54 53/53/53 
f 53/53/53 48/48/48 50/50/50 
f 48/48/48 53/53/53 52/52/52 
f 52/52/52 51/51/51 48/48/48 
f 55/55/55 66/66/66 64/64/64 
f 62/62/62 63/63/63 79/79/79 
f 79/79/79 77/77/77 62/62/62 
f 68/68/68 67/67/67 55/55/55 
f 56/56/56 69/69/69 92/92/92 
f 56/56/56 92/92/92 68/68/68 
f 71/71/71 57/57/57 58/58/58 
f 58/58/58 93/93/93 71/71/71 
f 59/59/59 75/75/75 72/72/72 
f 76/76/76 74/74/74 61/61/61 
f 94/94/94 95/95/95 96/96/96 
f 95/95/95 94/94/94 97/97/97 
f 95/95/95 97/97/97 98/98/98 
f 95/95/95 98/98/98 99/99/99 
f 95/95/95 99/99/99 100/100/100 
f 95/95/95 100/100/100 101/101/101 
f 95/95/95 101/101/101 102/102/102 
f 95/95/95 102/102/102 103/103/103 
f 95/95/95 103/103/103 104/104/104 
f 95/95/95 104/104/104 96/96/96 
f 105/105/105 106/106/106 107/107/107 
f 107/107/107 108/108/108 105/105/105 
f 109/109/109 110/110/110 107/107/107 
f 107/107/107 106/106/106 109/109/109 
f 111/111/111 112/112/112 110/110/110 
f 110/110/110 109/109/109 111/111/111 
f 113/113/113 114/114/114 115/115/115 
f 115/115/115 116/116/116 113/113/113 
f 117/117/117 118/118/118 114/114/114 
f 114/114/114 113/113/113 117/117/117 
f 119/119/119 120/120/120 118/118/118 
f 118/118/118 117/117/117 119/119/119 
f 121/121/121 122/122/122 120/120/120 
f 120/120/120 119/119/119 121/121/121 
f 123/123/123 124/124/124 122/122/122 
f 122/122/122 121/121/121 123/123/123 
f 125/125/125 126/126/126 124/124/124 
f 124/124/124 123/123/123 125/125/125 
f 105/105/105 108/108/108 127/127/127 
f 127/127/127 128/128/128 105/105/105 
f 106/106/106 105/105/105 129/129/129 
f 129/129/129 130/130/130 106/106/106 
f 131/131/131 109/109/109 106/106/106 
f 106/106/106 130/130/130 131/131/131 
f 132/132/132 111/111/111 109/109/109 
f 109/109/109 131/131/131 132/132/132 
f 133/133/133 113/113/113 116/116/116 
f 116/116/116 134/134/134 133/133/133 
f 135/135/135 117/117/117 113/113/113 
f 113/113/113 133/133/133 135/135/135 
f 135/135/135 136/136/136 119/119/119 
f 119/119/119 117/117/117 135/135/135 
f 137/137/137 121/121/121 119/119/119 
f 119/119/119 136/136/136 137/137/137 
f 138/138/138 123/123/123 121/121/121 
f 121/121/121 137/137/137 138/138/138 
f 139/139/139 125/125/125 123/123/123 
f 123/123/123 138/138/138 139/139/139 
f 129/129/129 105/105/105 128/128/128 
f 128/128/128 140/140/140 129/129/129 
f 141/141/141 142/142/142 143/143/143 
f 144/144/144 141/141/141 143/143/143 
f 145/145/145 139/139/139 138/138/138 
f 138/138/138 146/146/146 145/145/145 
f 147/147/147 146/146/146 138/138/138 
f 138/138/138 137/137/137 147/147/147 
f 148/148/148 149/149/149 130/130/130 
f 130/130/130 129/129/129 148/148/148 
f 149/149/149 150/150/150 131/131/131 
f 131/131/131 130/130/130 149/149/149 
f 150/150/150 151/151/151 132/132/132 
f 132/132/132 131/131/131 150/150/150 
f 152/152/152 133/133/133 134/134/134 
f 134/134/134 153/153/153 152/152/152 
f 154/154/154 135/135/135 133/133/133 
f 133/133/133 152/152/152 154/154/154 
f 154/154/154 155/155/155 136/136/136 
f 136/136/136 135/135/135 154/154/154 
f 156/156/156 137/137/137 136/136/136 
f 136/136/136 155/155/155 156/156/156 
f 157/157/157 148/148/148 129/129/129 
f 129/129/129 140/140/140 157/157/157 
f 158/158/158 159/159/159 148/148/148 
f 148/148/148 160/160/160 158/158/158 
f 149/149/149 148/148/148 161/161/161 
f 162/162/162 163/163/163 150/150/150 
f 150/150/150 149/149/149 162/162/162 
f 164/164/164 150/150/150 163/163/163 
f 165/165/165 152/152/152 153/153/153 
f 153/153/153 166/166/166 165/165/165 
f 167/167/167 154/154/154 152/152/152 
f 152/152/152 168/168/168 167/167/167 
f 169/169/169 170/170/170 155/155/155 
f 155/155/155 154/154/154 169/169/169 
f 156/156/156 171/171/171 172/172/172 
f 108/108/108 173/173/173 174/174/174 
f 174/174/174 127/127/127 108/108/108 
f 126/126/126 175/175/175 176/176/176 
f 176/176/176 124/124/124 126/126/126 
f 124/124/124 176/176/176 177/177/177 
f 177/177/177 122/122/122 124/124/124 
f 122/122/122 177/177/177 178/178/178 
f 178/178/178 120/120/120 122/122/122 
f 120/120/120 178/178/178 179/179/179 
f 179/179/179 118/118/118 120/120/120 
f 118/118/118 179/179/179 180/180/180 
f 180/180/180 114/114/114 118/118/118 
f 114/114/114 180/180/180 181/181/181 
f 181/181/181 115/115/115 114/114/114 
f 112/112/112 182/182/182 183/183/183 
f 183/183/183 110/110/110 112/112/112 
f 110/110/110 183/183/183 184/184/184 
f 184/184/184 107/107/107 110/110/110 
f 173/173/173 108/108/108 107/107/107 
f 107/107/107 184/184/184 173/173/173 
f 142/142/142 141/141/141 146/146/146 
f 146/146/146 147/147/147 142/142/142 
f 141/141/141 144/144/144 145/145/145 
f 145/145/145 146/146/146 141/141/141 
f 148/148/148 157/157/157 160/160/160 
f 171/171/171 156/156/156 155/155/155 
f 155/155/155 170/170/170 171/171/171 
f 161/161/161 148/148/148 159/159/159 
f 149/149/149 185/185/185 162/162/162 
f 149/149/149 161/161/161 185/185/185 
f 164/164/164 186/186/186 151/151/151 
f 151/151/151 150/150/150 164/164/164 
f 152/152/152 165/165/165 168/168/168 
f 169/169/169 154/154/154 167/167/167 
f 143/143/143 142/142/142 187/187/187 
f 187/187/187 188/188/188 143/143/143 
f 189/189/189 144/144/144 143/143/143 
f 143/143/143 190/190/190 189/189/189 
f 191/191/191 139/139/139 145/145/145 
f 145/145/145 192/192/192 191/191/191 
f 147/147/147 137/137/137 193/193/193 
f 193/193/193 194/194/194 147/147/147 
f 195/195/195 137/137/137 156/156/156 
f 156/156/156 196/196/196 195/195/195 
f 157/157/157 140/140/140 197/197/197 
f 197/197/197 198/198/198 157/157/157 
f 199/199/199 158/158/158 160/160/160 
f 160/160/160 200/200/200 199/199/199 
f 201/201/201 159/159/159 158/158/158 
f 158/158/158 199/199/199 201/201/201 
f 163/163/163 162/162/162 202/202/202 
f 202/202/202 203/203/203 163/163/163 
f 164/164/164 163/163/163 203/203/203 
f 203/203/203 204/204/204 164/164/164 
f 165/165/165 166/166/166 205/205/205 
f 205/205/205 206/206/206 165/165/165 
f 207/207/207 167/167/167 168/168/168 
f 168/168/168 208/208/208 207/207/207 
f 209/209/209 170/170/170 169/169/169 
f 169/169/169 210/210/210 209/209/209 
f 211/211/211 172/172/172 171/171/171 
f 171/171/171 212/212/212 211/211/211 
f 156/156/156 172/172/172 213/213/213 
f 213/213/213 196/196/196 156/156/156 
f 187/187/187 142/142/142 147/147/147 
f 147/147/147 194/194/194 187/187/187 
f 192/192/192 145/145/145 144/144/144 
f 144/144/144 189/189/189 192/192/192 
f 200/200/200 160/160/160 157/157/157 
f 157/157/157 198/198/198 200/200/200 
f 171/171/171 170/170/170 209/209/209 
f 209/209/209 212/212/212 171/171/171 
f 161/161/161 159/159/159 201/201/201 
f 201/201/201 214/214/214 161/161/161 
f 202/202/202 162/162/162 185/185/185 
f 185/185/185 215/215/215 202/202/202 
f 215/215/215 185/185/185 161/161/161 
f 161/161/161 216/216/216 215/215/215 
f 217/217/217 186/186/186 164/164/164 
f 164/164/164 204/204/204 217/217/217 
f 208/208/208 168/168/168 165/165/165 
f 165/165/165 206/206/206 208/208/208 
f 169/169/169 167/167/167 207/207/207 
f 207/207/207 210/210/210 169/169/169 

