# This file is brought to you by Roblox Corporation
# Generated by Roblox Studio

mtllib obj.mtl

g Meshpart1

v -89.4161 270.732 -98.5968 
v -89.2199 270.724 -98.5841 
v -89.2315 270.807 -98.6495 
v -89.3681 270.839 -98.6868 
v -89.5413 270.855 -98.7787 
v -89.6054 270.739 -98.6871 
v -89.6262 270.633 -98.6574 
v -89.4271 270.632 -98.5635 
v -89.2176 270.63 -98.5517 
v -89.755 270.732 -98.8341 
v -89.6868 270.839 -98.9099 
v -89.7686 270.807 -99.0256 
v -89.834 270.724 -99.0141 
v -89.8653 270.63 -99.0052 
v -89.7825 270.632 -98.8123 
v -89.2611 270.907 -98.8174 
v -89.1158 270.839 -98.7313 
v -89.133 270.93 -98.9808 
v -88.9845 270.855 -98.8768 
v -89.312 270.955 -99.1061 
v -89.4375 270.931 -98.9268 
v -89.0232 270.907 -99.157 
v -88.8926 270.839 -99.05 
v -88.8553 270.807 -99.1866 
v -88.9365 270.84 -99.3031 
v -89.1867 270.93 -99.2851 
v -89.0852 270.852 -99.4297 
v -89.3629 270.907 -99.3949 
v -89.2558 270.839 -99.5255 
v -89.3925 270.807 -99.5628 
v -89.5082 270.839 -99.481 
v -89.4909 270.93 -99.2314 
v -89.6394 270.855 -99.3354 
v -89.6007 270.907 -99.0552 
v -89.7313 270.839 -99.1623 
v -88.8981 270.714 -99.341 
v -88.79 270.724 -99.1982 
v -88.8546 270.606 -99.3512 
v -88.7587 270.63 -99.207 
v -89.0532 270.61 -99.4944 
v -89.0618 270.719 -99.4828 
v -89.2248 270.722 -99.5829 
v -89.404 270.724 -99.6281 
v -89.2138 270.62 -99.6043 
v -89.4064 270.63 -99.6605 
v -88.8027 270.732 -99.002 
v -88.8929 270.739 -98.8127 
v -88.8634 270.633 -98.792 
v -88.7693 270.632 -98.9935 
v -89.0399 270.732 -98.6631 
v -89.0206 270.632 -98.6346 
v -89.8213 270.732 -99.2102 
v -89.731 270.739 -99.3995 
v -89.7606 270.633 -99.4202 
v -89.8547 270.632 -99.2187 
v -89.584 270.732 -99.5491 
v -89.6034 270.632 -99.5776 
v -89.5465 270.59 -98.7712 
v -89.6195 270.59 -98.667 
v -89.7728 270.59 -98.8153 
v -89.8527 270.59 -98.9906 
v -89.312 270.59 -99.1061 
v -89.7503 270.59 -99.413 
v -89.5884 270.59 -99.5726 
v -89.1837 270.59 -99.2893 
v -89.3884 270.59 -99.6537 
v -89.0594 270.571 -99.5092 
v -89.2078 270.582 -99.6071 
v -89.0549 270.573 -99.5003 
v -88.7713 270.59 -99.2216 
v -88.8568 270.566 -99.3611 
v -88.7791 270.59 -99.0059 
v -88.8736 270.59 -98.7992 
v -89.2355 270.59 -98.5585 
v -89.4276 270.59 -98.5737 
v -89.4402 270.59 -98.9229 
v -89.8449 270.59 -99.2063 
v -89.0356 270.59 -98.6396 
v -89.4276 270.59 -98.5737 
v -89.6195 270.59 -98.667 
v -89.7728 270.59 -98.8153 
v -89.2355 270.59 -98.5585 
v -89.0356 270.59 -98.6396 
v -89.8527 270.59 -98.9906 
v -89.8449 270.59 -99.2063 
v -89.2078 270.582 -99.6071 
v -89.0549 270.573 -99.5003 
v -88.8568 270.566 -99.3611 
v -88.7713 270.59 -99.2216 
v -88.7791 270.59 -99.0059 
v -89.3884 270.59 -99.6537 
v -89.5884 270.59 -99.5726 
v -88.8736 270.59 -98.7992 
v -89.7503 270.59 -99.413 
v -89.2164 270.249 -98.5642 
v -89.4202 270.247 -98.5758 
v -89.3756 270.185 -98.6294 
v -89.2225 270.194 -98.5986 
v -89.2171 270.34 -98.5493 
v -89.4276 270.339 -98.5611 
v -89.6177 270.245 -98.6695 
v -89.6276 270.339 -98.6554 
v -89.5737 270.182 -98.7324 
v -89.7382 270.185 -98.8832 
v -89.7733 270.247 -98.823 
v -89.8539 270.249 -99.0106 
v -89.8195 270.194 -99.0166 
v -89.7845 270.339 -98.8111 
v -89.8677 270.34 -99.0048 
v -88.8858 270.185 -99.329 
v -88.8513 270.248 -99.3812 
v -88.7701 270.249 -99.2017 
v -88.8044 270.194 -99.1956 
v -89.0667 270.197 -99.453 
v -89.0499 270.266 -99.48 
v -89.0482 270.344 -99.4927 
v -88.8342 270.337 -99.3886 
v -88.7563 270.34 -99.2074 
v -89.4075 270.249 -99.648 
v -89.224 270.264 -99.6007 
v -89.261 270.21 -99.5561 
v -89.4015 270.194 -99.6137 
v -89.4068 270.34 -99.6629 
v -89.2109 270.346 -99.619 
v -88.9738 270.166 -99.1657 
v -88.8352 270.185 -99.0424 
v -89.102 270.162 -98.9591 
v -88.9382 270.182 -98.8444 
v -89.312 270.157 -99.1061 
v -89.1649 270.162 -99.3161 
v -89.2524 270.166 -98.7679 
v -89.0891 270.185 -98.6799 
v -89.459 270.162 -98.8961 
v -89.6501 270.166 -99.0465 
v -89.7887 270.185 -99.1698 
v -89.522 270.162 -99.2531 
v -89.6857 270.182 -99.3678 
v -89.3716 270.166 -99.4443 
v -89.5349 270.185 -99.5323 
v -88.7816 270.247 -98.9979 
v -88.7669 270.339 -98.993 
v -88.8614 270.339 -98.7906 
v -88.8754 270.245 -98.8004 
v -89.0289 270.247 -98.6448 
v -89.0193 270.339 -98.6326 
v -89.8423 270.247 -99.2143 
v -89.857 270.339 -99.2192 
v -89.7625 270.339 -99.4216 
v -89.7486 270.245 -99.4118 
v -89.5951 270.247 -99.5675 
v -89.6046 270.339 -99.5796 
v -89.7728 270.375 -98.8153 
v -89.6195 270.375 -98.667 
v -89.5465 270.375 -98.7712 
v -89.8527 270.375 -98.9906 
v -89.5884 270.375 -99.5726 
v -89.7503 270.375 -99.413 
v -89.312 270.375 -99.1061 
v -89.1837 270.375 -99.2893 
v -89.4276 270.375 -98.5737 
v -89.2355 270.375 -98.5585 
v -88.8736 270.375 -98.7992 
v -88.7791 270.375 -99.0059 
v -88.7713 270.375 -99.2216 
v -89.0657 270.357 -99.5168 
v -89.3884 270.375 -99.6537 
v -88.8388 270.366 -99.3906 
v -89.0523 270.373 -99.4983 
v -89.2037 270.377 -99.6196 
v -89.4402 270.375 -98.9229 
v -89.0356 270.375 -98.6396 
v -89.8449 270.375 -99.2063 
v -89.7728 270.375 -98.8153 
v -89.6195 270.375 -98.667 
v -89.4276 270.375 -98.5737 
v -89.2355 270.375 -98.5585 
v -89.0356 270.375 -98.6396 
v -89.8527 270.375 -98.9906 
v -89.8449 270.375 -99.2063 
v -88.8388 270.366 -99.3906 
v -89.0523 270.373 -99.4983 
v -89.2037 270.377 -99.6196 
v -88.7713 270.375 -99.2216 
v -88.7791 270.375 -99.0059 
v -89.3884 270.375 -99.6537 
v -89.5884 270.375 -99.5726 
v -88.8736 270.375 -98.7992 
v -89.7503 270.375 -99.413 
v -89.7785 270.583 -98.8156 
v -89.6233 270.583 -98.6615 
v -89.5405 270.583 -98.7797 
v -89.8611 270.583 -99.0093 
v -89.6025 270.583 -99.5726 
v -89.7566 270.583 -99.4174 
v -89.312 270.583 -99.1061 
v -89.1884 270.583 -99.2827 
v -89.4254 270.583 -98.5683 
v -89.2151 270.583 -98.557 
v -88.8673 270.583 -98.7948 
v -88.7742 270.583 -98.9927 
v -88.7628 270.583 -99.2029 
v -89.0595 270.565 -99.5103 
v -89.4088 270.583 -99.6553 
v -88.8464 270.56 -99.3602 
v -89.0546 270.566 -99.5004 
v -89.2087 270.574 -99.6084 
v -89.0215 270.583 -98.6396 
v -89.4356 270.583 -98.9296 
v -89.8497 270.583 -99.2196 
v -89.7785 270.512 -98.8156 
v -89.8611 270.512 -99.0093 
v -89.5405 270.512 -98.7797 
v -89.6233 270.512 -98.6615 
v -89.6025 270.512 -99.5726 
v -89.1884 270.512 -99.2827 
v -89.312 270.512 -99.1061 
v -89.7566 270.512 -99.4174 
v -89.2151 270.512 -98.557 
v -89.4254 270.512 -98.5683 
v -88.7742 270.512 -98.9927 
v -88.8673 270.512 -98.7948 
v -89.0591 270.515 -99.517 
v -88.7628 270.512 -99.2029 
v -89.4088 270.512 -99.6553 
v -89.0554 270.509 -99.5075 
v -88.8353 270.49 -99.3729 
v -89.2025 270.505 -99.6136 
v -89.0215 270.512 -98.6396 
v -89.4356 270.512 -98.9296 
v -89.8497 270.512 -99.2196 
v -89.8611 270.512 -99.0093 
v -89.6025 270.512 -99.5726 
v -89.7566 270.512 -99.4174 
v -89.4254 270.512 -98.5683 
v -89.2151 270.512 -98.557 
v -88.8673 270.512 -98.7948 
v -88.7742 270.512 -98.9927 
v -88.7628 270.512 -99.2029 
v -89.4088 270.512 -99.6553 
v -88.8353 270.49 -99.3729 
v -89.0554 270.509 -99.5075 
v -89.2025 270.505 -99.6136 
v -89.0215 270.512 -98.6396 
v -89.8497 270.512 -99.2196 
v -89.8115 270.494 -98.777 
v -89.6242 270.499 -98.6216 
v -89.5737 270.499 -98.7476 
v -89.8452 270.495 -98.9389 
v -89.5524 270.495 -99.5733 
v -89.7242 270.491 -99.3896 
v -89.3137 270.494 -99.1102 
v -89.163 270.501 -99.3077 
v -89.4471 270.492 -98.5216 
v -89.2872 270.494 -98.5322 
v -88.909 270.491 -98.8168 
v -88.7951 270.489 -99.035 
v -88.7718 270.501 -99.2778 
v -89.0589 270.513 -99.5166 
v -89.3308 270.498 -99.6772 
v -88.8187 270.47 -99.3772 
v -89.0539 270.475 -99.5045 
v -89.2048 270.465 -99.6176 
v -89.4561 270.499 -98.8982 
v -89.0736 270.5 -98.6266 
v -89.8176 270.492 -99.1675 
v -89.8142 270.377 -98.7842 
v -89.8567 270.379 -98.9342 
v -89.5702 270.365 -98.7336 
v -89.6546 270.375 -98.6323 
v -89.5483 270.374 -99.5799 
v -89.1688 270.37 -99.3163 
v -89.3116 270.371 -99.1209 
v -89.7129 270.374 -99.3855 
v -89.2819 270.374 -98.538 
v -89.4413 270.368 -98.5236 
v -88.792 270.365 -99.0479 
v -88.9162 270.365 -98.8394 
v -89.0667 270.365 -99.5194 
v -88.7713 270.377 -99.2755 
v -89.333 270.378 -99.6725 
v -89.0495 270.371 -99.4947 
v -88.823 270.37 -99.3899 
v -89.2025 270.385 -99.6196 
v -89.112 270.364 -98.6701 
v -89.4604 270.357 -98.907 
v -89.8272 270.379 -99.1653 
v -89.9364 270.464 -98.9883 
v -89.9507 270.409 -98.9953 
v -89.8452 270.407 -98.7784 
v -89.8495 270.442 -98.7658 
v -89.6694 270.399 -98.6063 
v -89.6588 270.458 -98.5876 
v -89.637 270.455 -99.6426 
v -89.6424 270.414 -99.6443 
v -89.8247 270.41 -99.4694 
v -89.8157 270.456 -99.4512 
v -89.4371 270.406 -98.4818 
v -89.4517 270.46 -98.4866 
v -89.2036 270.459 -98.4824 
v -89.1916 270.415 -98.4806 
v -88.6973 270.453 -98.9728 
v -88.8079 270.464 -98.7427 
v -88.8061 270.406 -98.7467 
v -88.6971 270.41 -98.9802 
v -88.6633 270.451 -99.2154 
v -88.677 270.412 -99.2234 
v -89.4193 270.463 -99.7286 
v -89.421 270.408 -99.7354 
v -88.7941 270.443 -99.3888 
v -88.78 270.404 -99.4083 
v -89.0331 270.393 -99.4768 
v -89.0403 270.423 -99.4828 
v -89.2211 270.402 -99.6249 
v -89.2216 270.445 -99.6223 
v -88.9838 270.468 -98.5781 
v -88.9698 270.402 -98.5744 
v -89.9277 270.413 -99.2457 
v -89.9234 270.46 -99.2309 
v -89.9234 270.46 -99.2309 
v -89.9364 270.464 -98.9883 
v -89.8495 270.442 -98.7658 
v -89.6588 270.458 -98.5876 
v -89.4517 270.46 -98.4866 
v -89.4193 270.463 -99.7286 
v -89.637 270.455 -99.6426 
v -89.8157 270.456 -99.4512 
v -89.2036 270.459 -98.4824 
v -88.9838 270.468 -98.5781 
v -88.6633 270.451 -99.2154 
v -88.6973 270.453 -98.9728 
v -88.8079 270.464 -98.7427 
v -88.7941 270.443 -99.3888 
v -89.2216 270.445 -99.6223 
v -89.0403 270.423 -99.4828 
v -88.829 270.507 -99.1913 
v -89.2268 270.507 -98.6232 
v -89.0309 270.506 -98.5979 
v -88.7383 270.506 -99.0158 
v -89.8202 270.506 -98.825 
v -89.4023 270.506 -98.5324 
v -89.7949 270.507 -99.021 
v -88.7947 270.5 -99.3739 
v -89.2441 270.488 -99.6248 
v -89.3971 270.507 -99.5891 
v -89.5931 270.506 -99.6143 
v -89.8857 270.506 -99.1964 
v -89.996 270.443 -98.9855 
v -89.9469 270.482 -98.9277 
v -89.9571 270.483 -98.9924 
v -89.9696 270.482 -99.0566 
v -89.4326 270.443 -99.7902 
v -89.4257 270.483 -99.7513 
v -89.3615 270.482 -99.7637 
v -88.6279 270.443 -99.2267 
v -88.6668 270.483 -99.2199 
v -88.6544 270.482 -99.1556 
v -89.1914 270.443 -98.4221 
v -89.1982 270.483 -98.461 
v -89.2625 270.482 -98.4485 
v -89.1336 270.482 -98.4712 
v -88.6771 270.482 -99.2845 
v -89.4904 270.482 -99.741 
v -89.0322 270.493 -98.6018 
v -89.2296 270.494 -98.639 
v -88.8449 270.494 -99.1885 
v -88.7424 270.493 -99.0157 
v -89.4024 270.493 -98.5366 
v -89.8163 270.493 -98.8264 
v -89.7791 270.494 -99.0238 
v -89.3943 270.494 -99.5732 
v -89.2418 270.478 -99.6252 
v -88.7965 270.487 -99.3757 
v -89.8815 270.493 -99.1965 
v -89.5917 270.493 -99.6104 
v -89.9865 270.433 -98.9872 
v -89.9464 270.472 -98.9942 
v -89.939 270.471 -98.9291 
v -89.9617 270.471 -99.058 
v -89.4309 270.433 -99.7807 
v -89.3601 270.471 -99.7558 
v -89.4238 270.472 -99.7405 
v -88.6374 270.433 -99.2251 
v -88.6622 270.471 -99.1542 
v -88.6776 270.472 -99.218 
v -89.193 270.433 -98.4316 
v -89.2639 270.471 -98.4564 
v -89.2001 270.472 -98.4717 
v -89.135 270.471 -98.4791 
v -88.685 270.471 -99.2831 
v -89.489 270.471 -99.7331 
v -89.0322 270.493 -98.6018 
v -88.7424 270.493 -99.0157 
v -88.7965 270.487 -99.3757 
v -89.2418 270.478 -99.6252 
v -89.5917 270.493 -99.6104 
v -89.8815 270.493 -99.1965 
v -89.9617 270.471 -99.058 
v -89.9865 270.433 -98.9872 
v -89.3601 270.471 -99.7558 
v -89.4309 270.433 -99.7807 
v -88.6622 270.471 -99.1542 
v -88.6374 270.433 -99.2251 
v -89.193 270.433 -98.4316 
v -89.135 270.471 -98.4791 
v -88.6374 270.433 -99.2251 
v -88.685 270.471 -99.2831 
v -89.4309 270.433 -99.7807 
v -89.489 270.471 -99.7331 

vn -0.212598 0.503937 0.84252 
vn 0.15748 0.464567 0.874016 
vn 0.11811 0.732283 0.677165 
vn -0.110236 0.80315 0.590551 
vn -0.330709 0.818898 0.464567 
vn -0.488189 0.511811 0.700787 
vn -0.574803 0.0314961 0.818898 
vn -0.244094 0.0551181 0.968504 
vn 0.188976 0.0393701 0.984252 
vn -0.716535 0.503937 0.488189 
vn -0.519685 0.80315 0.307087 
vn -0.677165 0.732283 0.11811 
vn -0.874016 0.464567 0.149606 
vn -0.984252 0.0393701 0.15748 
vn -0.826772 0.0551181 0.559055 
vn 0.0629921 0.937008 0.338583 
vn 0.307087 0.80315 0.511811 
vn 0.204724 0.968504 0.141732 
vn 0.464567 0.826772 0.322835 
vn 0 1 0 
vn -0.141732 0.968504 0.204724 
vn 0.338583 0.937008 -0.0551181 
vn 0.590551 0.80315 0.110236 
vn 0.685039 0.700787 -0.188976 
vn 0.590551 0.685039 -0.417323 
vn 0.149606 0.968504 -0.212598 
vn 0.409449 0.700787 -0.582677 
vn -0.0629921 0.937008 -0.338583 
vn 0.188976 0.716535 -0.677165 
vn -0.0708661 0.708661 -0.700787 
vn -0.307087 0.80315 -0.511811 
vn -0.204724 0.968504 -0.141732 
vn -0.464567 0.826772 -0.322835 
vn -0.338583 0.937008 0.0551181 
vn -0.590551 0.80315 -0.110236 
vn 0.669291 0.362205 -0.645669 
vn 0.84252 0.472441 -0.267717 
vn 0.716535 0.212598 -0.669291 
vn 0.968504 0.0551181 -0.244094 
vn 0.582677 0.133858 -0.80315 
vn 0.566929 0.283465 -0.771654 
vn 0.362205 0.370079 -0.850394 
vn -0.0629921 0.464567 -0.88189 
vn 0.409449 0.165354 -0.897638 
vn -0.102362 0.0472441 -0.992126 
vn 0.84252 0.496063 0.212598 
vn 0.700787 0.511811 0.488189 
vn 0.818898 0.023622 0.574803 
vn 0.968504 0.015748 0.251969 
vn 0.488189 0.496063 0.716535 
vn 0.566929 0.015748 0.826772 
vn -0.84252 0.496063 -0.212598 
vn -0.700787 0.511811 -0.488189 
vn -0.818898 0.023622 -0.574803 
vn -0.968504 0.015748 -0.251969 
vn -0.488189 0.496063 -0.716535 
vn -0.566929 0.015748 -0.826772 
vn 0 -1 0 
vn -0.370079 -0.76378 0.527559 
vn -0.535433 -0.748031 0.385827 
vn -0.653543 -0.740157 0.165354 
vn 0 -1 0 
vn -0.519685 -0.771654 -0.362205 
vn -0.338583 -0.76378 -0.543307 
vn -0.015748 -1 0.023622 
vn 0.015748 -0.692913 -0.724409 
vn 0.614173 -0.283465 -0.732283 
vn 0.314961 -0.606299 -0.732283 
vn 0.488189 0.566929 -0.661417 
vn 0.677165 -0.700787 -0.228346 
vn 0.480315 -0.76378 -0.425197 
vn 0.629921 -0.76378 0.133858 
vn 0.519685 -0.771654 0.362205 
vn 0.0708661 -0.740157 0.669291 
vn -0.173228 -0.748031 0.637795 
vn 0 -1 0 
vn -0.629921 -0.76378 -0.133858 
vn 0.338583 -0.76378 0.543307 
vn -0.173228 -0.748031 0.637795 
vn -0.370079 -0.76378 0.527559 
vn -0.535433 -0.748031 0.385827 
vn 0.0708661 -0.740157 0.669291 
vn 0.338583 -0.76378 0.543307 
vn -0.653543 -0.740157 0.165354 
vn -0.629921 -0.76378 -0.133858 
vn 0.314961 -0.606299 -0.732283 
vn 0.488189 0.566929 -0.661417 
vn 0.480315 -0.76378 -0.425197 
vn 0.677165 -0.700787 -0.228346 
vn 0.629921 -0.76378 0.133858 
vn 0.015748 -0.692913 -0.724409 
vn -0.338583 -0.76378 -0.543307 
vn 0.519685 -0.771654 0.362205 
vn -0.519685 -0.771654 -0.362205 
vn 0.165354 -0.370079 0.913386 
vn -0.228346 -0.456693 0.858268 
vn -0.102362 -0.88189 0.456693 
vn 0.110236 -0.787402 0.606299 
vn 0.188976 0.0866142 0.976378 
vn -0.251969 0.0708661 0.968504 
vn -0.496063 -0.496063 0.708661 
vn -0.574803 0.0866142 0.818898 
vn -0.23622 -0.913386 0.330709 
vn -0.393701 -0.88189 0.251969 
vn -0.732283 -0.456693 0.511811 
vn -0.913386 -0.370079 0.15748 
vn -0.606299 -0.787402 0.110236 
vn -0.826772 0.0708661 0.566929 
vn -0.984252 0.0866142 0.15748 
vn 0.377953 -0.866142 -0.314961 
vn 0.637795 -0.433071 -0.637795 
vn 0.913386 -0.370079 -0.165354 
vn 0.606299 -0.787402 -0.110236 
vn 0.267717 -0.795276 -0.535433 
vn 0.480315 -0.283465 -0.834646 
vn 0.511811 -0.125984 -0.850394 
vn 0.740157 -0.0551181 -0.669291 
vn 0.984252 0.0866142 -0.15748 
vn -0.0551181 -0.377953 -0.92126 
vn 0.362205 -0.456693 -0.811024 
vn 0.212598 -0.850394 -0.472441 
vn 0.015748 -0.779528 -0.629921 
vn -0.110236 0.0708661 -0.992126 
vn 0.401575 -0.173228 -0.897638 
vn 0.0944882 -0.992126 -0.015748 
vn 0.456693 -0.88189 0.102362 
vn 0.0472441 -1 0.0314961 
vn 0.330709 -0.913386 0.23622 
vn 0 -1 0 
vn 0.0472441 -0.992126 -0.102362 
vn 0.015748 -0.992126 0.0944882 
vn 0.251969 -0.88189 0.393701 
vn -0.0393701 -1 0.0472441 
vn -0.0944882 -0.992126 0.015748 
vn -0.456693 -0.88189 -0.102362 
vn -0.0472441 -1 -0.0393701 
vn -0.330709 -0.913386 -0.23622 
vn 0.0393701 -0.992126 -0.133858 
vn -0.251969 -0.88189 -0.393701 
vn 0.858268 -0.456693 0.228346 
vn 0.96063 0.110236 0.251969 
vn 0.811024 0.102362 0.566929 
vn 0.716535 -0.496063 0.496063 
vn 0.511811 -0.456693 0.732283 
vn 0.566929 0.110236 0.818898 
vn -0.858268 -0.456693 -0.228346 
vn -0.96063 0.110236 -0.251969 
vn -0.811024 0.102362 -0.566929 
vn -0.716535 -0.496063 -0.496063 
vn -0.511811 -0.456693 -0.732283 
vn -0.566929 0.110236 -0.818898 
vn -0.511811 0.779528 0.362205 
vn -0.346457 0.795276 0.496063 
vn 0 1 0 
vn -0.622047 0.76378 0.15748 
vn -0.314961 0.795276 -0.511811 
vn -0.488189 0.80315 -0.346457 
vn 0 1 0 
vn 0.015748 1 -0.023622 
vn -0.165354 0.779528 0.606299 
vn 0.0629921 0.76378 0.637795 
vn 0.488189 0.80315 0.346457 
vn 0.590551 0.795276 0.125984 
vn 0.614173 0.771654 -0.165354 
vn -0.472441 0.606299 0.637795 
vn 0.00787402 0.740157 -0.677165 
vn 0.527559 0.645669 -0.559055 
vn 0.204724 -0.96063 -0.19685 
vn 0.354331 0.708661 -0.606299 
vn 0 1 0 
vn 0.314961 0.795276 0.511811 
vn -0.590551 0.795276 -0.125984 
vn -0.511811 0.779528 0.362205 
vn -0.346457 0.795276 0.496063 
vn -0.165354 0.779528 0.606299 
vn 0.0629921 0.76378 0.637795 
vn 0.314961 0.795276 0.511811 
vn -0.622047 0.76378 0.15748 
vn -0.590551 0.795276 -0.125984 
vn 0.527559 0.645669 -0.559055 
vn 0.204724 -0.96063 -0.19685 
vn 0.354331 0.708661 -0.606299 
vn 0.614173 0.771654 -0.165354 
vn 0.590551 0.795276 0.125984 
vn 0.00787402 0.740157 -0.677165 
vn -0.314961 0.795276 -0.511811 
vn 0.488189 0.80315 0.346457 
vn -0.488189 0.80315 -0.346457 
vn -0.614173 0.669291 0.417323 
vn -0.425197 0.669291 0.606299 
vn 0 1 0 
vn -0.740157 0.661417 0.133858 
vn -0.417323 0.669291 -0.614173 
vn -0.606299 0.669291 -0.425197 
vn 0 1 0 
vn 0.015748 1 -0.023622 
vn -0.181102 0.669291 0.724409 
vn 0.133858 0.661417 0.740157 
vn 0.606299 0.669291 0.425197 
vn 0.724409 0.669291 0.181102 
vn 0.732283 0.653543 -0.181102 
vn -0.527559 0.173228 0.834646 
vn -0.0551181 0.645669 -0.76378 
vn 0.574803 0.614173 -0.535433 
vn 0.346457 -0.779528 -0.527559 
vn 0.307087 0.700787 -0.645669 
vn 0.417323 0.669291 0.614173 
vn 0 1 0 
vn -0.724409 0.669291 -0.181102 
vn -0.614173 -0.669291 0.417323 
vn -0.740157 -0.661417 0.133858 
vn 0 -1 0 
vn -0.425197 -0.669291 0.606299 
vn -0.417323 -0.669291 -0.614173 
vn 0 -1 0 
vn 0 -1 0 
vn -0.606299 -0.669291 -0.425197 
vn 0.133858 -0.661417 0.740157 
vn -0.181102 -0.669291 0.724409 
vn 0.724409 -0.669291 0.181102 
vn 0.606299 -0.669291 0.425197 
vn -0.574803 -0.409449 0.708661 
vn 0.748031 -0.645669 -0.149606 
vn -0.0708661 -0.645669 -0.76378 
vn -0.0393701 0.944882 -0.338583 
vn 0.559055 -0.677165 -0.472441 
vn 0.299213 -0.708661 -0.637795 
vn 0.417323 -0.669291 0.614173 
vn 0 -1 0 
vn -0.724409 -0.669291 -0.181102 
vn -0.740157 -0.661417 0.133858 
vn -0.417323 -0.669291 -0.614173 
vn -0.606299 -0.669291 -0.425197 
vn -0.181102 -0.669291 0.724409 
vn 0.133858 -0.661417 0.740157 
vn 0.606299 -0.669291 0.425197 
vn 0.724409 -0.669291 0.181102 
vn 0.748031 -0.645669 -0.149606 
vn -0.0708661 -0.645669 -0.76378 
vn 0.559055 -0.677165 -0.472441 
vn -0.0393701 0.944882 -0.338583 
vn 0.299213 -0.708661 -0.637795 
vn 0.417323 -0.669291 0.614173 
vn -0.724409 -0.669291 -0.181102 
vn -0.448819 0.850394 0.259843 
vn -0.19685 0.929134 0.307087 
vn 0 1 0 
vn -0.244094 0.968504 0.0787402 
vn -0.125984 0.976378 -0.165354 
vn -0.141732 0.984252 -0.0944882 
vn 0 1 0 
vn -0.015748 1 0.0314961 
vn -0.0944882 0.905512 0.417323 
vn 0.015748 0.944882 0.314961 
vn 0.11811 0.992126 0.0551181 
vn 0.181102 0.984252 0.0629921 
vn 0.346457 0.92126 -0.188976 
vn 0.393701 0.685039 -0.614173 
vn 0.244094 0.740157 -0.629921 
vn 0.409449 0.685039 -0.598425 
vn 0.527559 -0.19685 -0.826772 
vn 0.527559 -0.015748 -0.850394 
vn 0 1 -0.00787402 
vn 0.102362 0.976378 0.165354 
vn -0.141732 0.992126 -0.0393701 
vn -0.393701 -0.889764 0.23622 
vn -0.251969 -0.968504 0.0629921 
vn -0.0393701 -1 0.0314961 
vn -0.23622 -0.92126 0.307087 
vn -0.110236 -0.976378 -0.165354 
vn -0.00787402 -1 0 
vn 0 -1 -0.023622 
vn -0.11811 -0.992126 -0.0787402 
vn 0.0551181 -0.944882 0.314961 
vn -0.0787402 -0.905512 0.417323 
vn 0.212598 -0.976378 0.0393701 
vn 0.125984 -0.992126 0.0787402 
vn 0.622047 -0.385827 -0.685039 
vn 0.259843 -0.96063 -0.0866142 
vn 0.204724 -0.834646 -0.503937 
vn 0.480315 0.566929 -0.661417 
vn 0.228346 -0.92126 -0.307087 
vn 0.527559 -0.251969 -0.811024 
vn 0.0629921 -0.992126 0.133858 
vn -0.00787402 -1 -0.015748 
vn -0.165354 -0.984252 -0.0393701 
vn -0.755906 0.637795 0.149606 
vn -0.88189 -0.448819 0.125984 
vn -0.748031 -0.496063 0.433071 
vn -0.834646 0.173228 0.519685 
vn -0.519685 -0.488189 0.700787 
vn -0.527559 0.330709 0.779528 
vn -0.456693 0.582677 -0.669291 
vn -0.496063 -0.503937 -0.708661 
vn -0.732283 -0.440945 -0.519685 
vn -0.590551 0.700787 -0.393701 
vn -0.165354 -0.377953 0.913386 
vn -0.228346 0.401575 0.889764 
vn 0.15748 0.535433 0.834646 
vn 0.220472 -0.464567 0.858268 
vn 0.80315 0.543307 0.244094 
vn 0.661417 0.598425 0.448819 
vn 0.677165 -0.582677 0.448819 
vn 0.795276 -0.566929 0.228346 
vn 0.913386 0.370079 -0.173228 
vn 0.771654 -0.598425 -0.228346 
vn 0 0.527559 -0.850394 
vn 0 -0.448819 -0.897638 
vn 0.496063 0.559055 -0.661417 
vn 0.645669 -0.173228 -0.748031 
vn 0.464567 0.125984 -0.874016 
vn 0.511811 -0.110236 -0.850394 
vn 0.496063 0.102362 -0.858268 
vn 0.511811 -0.0472441 -0.858268 
vn 0.433071 0.629921 0.645669 
vn 0.472441 -0.527559 0.708661 
vn -0.834646 -0.496063 -0.259843 
vn -0.748031 0.637795 -0.188976 
vn -0.748031 0.637795 -0.188976 
vn -0.755906 0.637795 0.149606 
vn -0.834646 0.173228 0.519685 
vn -0.527559 0.330709 0.779528 
vn -0.228346 0.401575 0.889764 
vn 0 0.527559 -0.850394 
vn -0.456693 0.582677 -0.669291 
vn -0.590551 0.700787 -0.393701 
vn 0.15748 0.535433 0.834646 
vn 0.433071 0.629921 0.645669 
vn 0.913386 0.370079 -0.173228 
vn 0.80315 0.543307 0.244094 
vn 0.661417 0.598425 0.448819 
vn 0.496063 0.559055 -0.661417 
vn 0.511811 -0.0472441 -0.858268 
vn 0.511811 -0.110236 -0.850394 
vn 0.0629921 1 -0.023622 
vn 0.00787402 1 0.0629921 
vn 0.614173 0.606299 0.503937 
vn 0.685039 0.606299 0.409449 
vn -0.503937 0.606299 0.614173 
vn -0.409449 0.606299 0.685039 
vn -0.0629921 1 0.00787402 
vn 0.425197 0.692913 -0.574803 
vn 0.409449 0.748031 -0.519685 
vn 0.0314961 1 -0.0866142 
vn -0.614173 0.606299 -0.503937 
vn -0.685039 0.606299 -0.409449 
vn -0.976378 -0.149606 0.173228 
vn -0.645669 0.456693 0.614173 
vn -0.440945 0.897638 0.0787402 
vn -0.818898 0.456693 -0.354331 
vn -0.173228 -0.149606 -0.976378 
vn -0.0787402 0.897638 -0.440945 
vn 0.464567 0.464567 -0.755906 
vn 0.976378 -0.149606 -0.173228 
vn 0.440945 0.897638 -0.0787402 
vn 0.818898 0.456693 0.354331 
vn 0.173228 -0.149606 0.976378 
vn 0.0787402 0.897638 0.440945 
vn -0.354331 0.456693 0.818898 
vn 0.614173 0.456693 0.645669 
vn 0.637795 0.456693 -0.622047 
vn -0.614173 0.456693 -0.645669 
vn 0.519685 -0.779528 0.346457 
vn -0.00787402 -1 -0.0551181 
vn -0.0551181 -1 0.023622 
vn 0.496063 -0.779528 0.370079 
vn -0.370079 -0.779528 0.496063 
vn -0.346457 -0.779528 0.519685 
vn 0.0551181 -1 -0.00787402 
vn -0.023622 -1 0.0708661 
vn 0.425197 -0.732283 -0.535433 
vn 0.393701 -0.677165 -0.622047 
vn -0.496063 -0.779528 -0.370079 
vn -0.519685 -0.779528 -0.346457 
vn -0.165354 -0.984252 0.0314961 
vn 0.417323 -0.905512 -0.0708661 
vn -0.181102 -0.858268 0.480315 
vn -0.330709 -0.858268 -0.385827 
vn -0.0314961 -0.984252 -0.165354 
vn 0.480315 -0.811024 -0.338583 
vn 0.0708661 -0.905512 0.417323 
vn 0.165354 -0.984252 -0.0314961 
vn 0.330709 -0.858268 0.385827 
vn -0.417323 -0.905512 0.0708661 
vn 0.0314961 -0.984252 0.165354 
vn -0.385827 -0.858268 0.330709 
vn -0.0708661 -0.905512 -0.417323 
vn 0.480315 -0.858268 0.181102 
vn 0.181102 -0.858268 -0.480315 
vn -0.480315 -0.858268 -0.181102 
vn 0.519685 -0.779528 0.346457 
vn 0.496063 -0.779528 0.370079 
vn 0.393701 -0.677165 -0.622047 
vn 0.425197 -0.732283 -0.535433 
vn -0.519685 -0.779528 -0.346457 
vn -0.496063 -0.779528 -0.370079 
vn -0.330709 -0.858268 -0.385827 
vn -0.165354 -0.984252 0.0314961 
vn 0.480315 -0.811024 -0.338583 
vn -0.0314961 -0.984252 -0.165354 
vn 0.330709 -0.858268 0.385827 
vn 0.165354 -0.984252 -0.0314961 
vn 0.0314961 -0.984252 0.165354 
vn 0.480315 -0.858268 0.181102 
vn 0.165354 -0.984252 -0.0314961 
vn 0.181102 -0.858268 -0.480315 
vn -0.0314961 -0.984252 -0.165354 
vn -0.480315 -0.858268 -0.181102 

vt 0.123276 0.643188 
vt 0.0784 0.616135 
vt 0.097488 0.597046 
vt 0.131134 0.608902 
vt 0.176895 0.614609 
vt 0.176895 0.65155 
vt 0.176895 0.678864 
vt 0.113571 0.666504 
vt 0.062149 0.632401 
vt 0.230515 0.643188 
vt 0.222656 0.608902 
vt 0.256302 0.597046 
vt 0.275391 0.616135 
vt 0.291626 0.632401 
vt 0.240219 0.666504 
vt 0.128723 0.565765 
vt 0.085693 0.563309 
vt 0.125397 0.517487 
vt 0.080002 0.517487 
vt 0.176895 0.517487 
vt 0.176895 0.569092 
vt 0.128723 0.469193 
vt 0.085693 0.471649 
vt 0.097488 0.437912 
vt 0.131134 0.426056 
vt 0.176895 0.465866 
vt 0.176895 0.420349 
vt 0.225067 0.469193 
vt 0.222656 0.426056 
vt 0.256302 0.437912 
vt 0.268097 0.471649 
vt 0.228394 0.517487 
vt 0.273788 0.517487 
vt 0.225067 0.565765 
vt 0.268097 0.563309 
vt 0.123276 0.391769 
vt 0.0784 0.418823 
vt 0.113571 0.368469 
vt 0.062149 0.402557 
vt 0.176895 0.356094 
vt 0.176895 0.383408 
vt 0.230515 0.391769 
vt 0.275391 0.418823 
vt 0.240219 0.368469 
vt 0.291626 0.402557 
vt 0.051514 0.463837 
vt 0.043167 0.517487 
vt 0.015961 0.517487 
vt 0.02832 0.454269 
vt 0.051514 0.571121 
vt 0.02832 0.580688 
vt 0.302277 0.571121 
vt 0.310623 0.517487 
vt 0.33783 0.517487 
vt 0.32547 0.580688 
vt 0.302277 0.463837 
vt 0.32547 0.454269 
vt 0.922134 0.946823 
vt 0.936508 0.966614 
vt 0.897888 0.985733 
vt 0.862381 0.990234 
vt 0.874313 0.881012 
vt 0.788727 0.943192 
vt 0.768967 0.902725 
vt 0.848251 0.845139 
vt 0.766754 0.858612 
vt 0.826492 0.815201 
vt 0.782013 0.826233 
vt 0.812119 0.795425 
vt 0.886246 0.77179 
vt 0.850739 0.776291 
vt 0.927521 0.787537 
vt 0.959915 0.818832 
vt 0.981873 0.903412 
vt 0.966614 0.935806 
vt 0.900391 0.916901 
vt 0.821106 0.974487 
vt 0.97966 0.859299 
vt 0.111221 0.672272 
vt 0.176895 0.68512 
vt 0.242569 0.672272 
vt 0.062576 0.641068 
vt 0.023682 0.585236 
vt 0.291199 0.641068 
vt 0.330109 0.585236 
vt 0.242569 0.362686 
vt 0.176895 0.349854 
vt 0.111221 0.362686 
vt 0.062576 0.39389 
vt 0.023682 0.449738 
vt 0.291199 0.39389 
vt 0.330109 0.449738 
vt 0.009766 0.517487 
vt 0.344025 0.517487 
vt 0.615005 0.620392 
vt 0.571655 0.648636 
vt 0.572525 0.631714 
vt 0.60495 0.610336 
vt 0.632645 0.638077 
vt 0.581512 0.672195 
vt 0.518616 0.657822 
vt 0.518616 0.684219 
vt 0.518616 0.640488 
vt 0.464706 0.631714 
vt 0.465576 0.648636 
vt 0.422226 0.620392 
vt 0.432266 0.610336 
vt 0.455719 0.672195 
vt 0.404572 0.638077 
vt 0.572525 0.415955 
vt 0.571655 0.399033 
vt 0.615005 0.427277 
vt 0.604965 0.437332 
vt 0.518616 0.407181 
vt 0.518616 0.389847 
vt 0.518616 0.363449 
vt 0.581512 0.375473 
vt 0.632645 0.409607 
vt 0.422226 0.427277 
vt 0.465576 0.399033 
vt 0.464706 0.415955 
vt 0.432266 0.437332 
vt 0.404572 0.409607 
vt 0.455719 0.375473 
vt 0.577438 0.464905 
vt 0.626266 0.469864 
vt 0.58226 0.523834 
vt 0.635025 0.523834 
vt 0.518616 0.523834 
vt 0.518616 0.460068 
vt 0.577438 0.582764 
vt 0.626266 0.577805 
vt 0.518616 0.587601 
vt 0.459793 0.582764 
vt 0.410965 0.577805 
vt 0.454971 0.523834 
vt 0.402206 0.523834 
vt 0.459793 0.464905 
vt 0.410965 0.469864 
vt 0.643082 0.470764 
vt 0.66655 0.461029 
vt 0.678574 0.523834 
vt 0.652252 0.523834 
vt 0.643082 0.576904 
vt 0.66655 0.586639 
vt 0.39415 0.576904 
vt 0.370682 0.586639 
vt 0.358658 0.523834 
vt 0.384979 0.523834 
vt 0.39415 0.470764 
vt 0.370682 0.461029 
vt 0.837601 0.763138 
vt 0.80748 0.793961 
vt 0.793106 0.77417 
vt 0.852859 0.730759 
vt 0.798508 0.614899 
vt 0.830887 0.646179 
vt 0.745285 0.708359 
vt 0.719223 0.672485 
vt 0.76886 0.81308 
vt 0.733353 0.817581 
vt 0.659698 0.770554 
vt 0.639954 0.730072 
vt 0.637726 0.685959 
vt 0.697479 0.642548 
vt 0.757233 0.599152 
vt 0.652985 0.65358 
vt 0.683105 0.622757 
vt 0.721725 0.603638 
vt 0.771362 0.744247 
vt 0.692093 0.801834 
vt 0.850632 0.686646 
vt 0.453705 0.67691 
vt 0.518616 0.689453 
vt 0.583511 0.67691 
vt 0.63147 0.645935 
vt 0.67012 0.59082 
vt 0.405762 0.645935 
vt 0.367111 0.59082 
vt 0.583527 0.370758 
vt 0.518616 0.358231 
vt 0.453705 0.370758 
vt 0.63147 0.401733 
vt 0.67012 0.456863 
vt 0.405762 0.401733 
vt 0.367111 0.456863 
vt 0.683746 0.523834 
vt 0.353485 0.523834 
vt 0.808319 0.304291 
vt 0.862839 0.306427 
vt 0.855392 0.341568 
vt 0.758682 0.321121 
vt 0.700027 0.462601 
vt 0.702026 0.408569 
vt 0.83493 0.437378 
vt 0.823761 0.489532 
vt 0.913315 0.327667 
vt 0.951889 0.363373 
vt 0.967896 0.466003 
vt 0.947617 0.516006 
vt 0.911453 0.552994 
vt 0.814438 0.533005 
vt 0.717819 0.511246 
vt 0.861801 0.569595 
vt 0.806946 0.567932 
vt 0.756271 0.546844 
vt 0.969803 0.412033 
vt 0.8461 0.385162 
vt 0.722412 0.358398 
vt 0.806854 0.287231 
vt 0.760406 0.263962 
vt 0.85997 0.252502 
vt 0.865479 0.289673 
vt 0.714645 0.112137 
vt 0.841125 0.096893 
vt 0.847702 0.151535 
vt 0.712112 0.167816 
vt 0.959259 0.238831 
vt 0.918045 0.272369 
vt 0.96759 0.08139 
vt 0.983231 0.134659 
vt 0.835663 0.051422 
vt 0.934952 0.039352 
vt 0.736374 0.063416 
vt 0.831268 0.014999 
vt 0.886505 0.017548 
vt 0.778244 0.030655 
vt 0.980698 0.190109 
vt 0.85434 0.20639 
vt 0.727829 0.221405 
vt 0.750305 0.307175 
vt 0.683594 0.465454 
vt 0.685608 0.405029 
vt 0.922302 0.313614 
vt 0.965286 0.354156 
vt 0.98436 0.469528 
vt 0.961441 0.52536 
vt 0.919937 0.566956 
vt 0.704361 0.520477 
vt 0.864258 0.586105 
vt 0.803436 0.584198 
vt 0.747238 0.560883 
vt 0.986206 0.409149 
vt 0.708649 0.34906 
vt 0.235077 0.316422 
vt 0.175858 0.326752 
vt 0.175858 0.29393 
vt 0.277664 0.293671 
vt 0.312225 0.117706 
vt 0.32338 0.179871 
vt 0.175858 0.179871 
vt 0.175858 0.117676 
vt 0.116653 0.316422 
vt 0.074066 0.293671 
vt 0.028351 0.179871 
vt 0.039505 0.117706 
vt 0.074066 0.066055 
vt 0.175858 0.065796 
vt 0.277664 0.066055 
vt 0.116653 0.043304 
vt 0.175858 0.032974 
vt 0.235077 0.043304 
vt 0.175858 0.24205 
vt 0.039505 0.24202 
vt 0.312225 0.24202 
vt 0.455933 0.311752 
vt 0.413483 0.289536 
vt 0.514679 0.290283 
vt 0.514679 0.322525 
vt 0.378769 0.116516 
vt 0.514679 0.116348 
vt 0.514679 0.177719 
vt 0.367508 0.177719 
vt 0.61586 0.289536 
vt 0.57341 0.311752 
vt 0.650574 0.116516 
vt 0.661835 0.177719 
vt 0.514679 0.065155 
vt 0.61586 0.065903 
vt 0.413483 0.065903 
vt 0.514679 0.032913 
vt 0.57341 0.043671 
vt 0.455933 0.043671 
vt 0.650574 0.238907 
vt 0.514679 0.23909 
vt 0.378769 0.238907 
vt 0.391556 0.299866 
vt 0.399231 0.291962 
vt 0.451828 0.323044 
vt 0.447845 0.333633 
vt 0.514679 0.334351 
vt 0.514679 0.345673 
vt 0.35611 0.110901 
vt 0.366562 0.115067 
vt 0.355453 0.177719 
vt 0.344086 0.177719 
vt 0.577515 0.323044 
vt 0.581497 0.333633 
vt 0.637787 0.299866 
vt 0.630112 0.291962 
vt 0.673233 0.110901 
vt 0.685257 0.177719 
vt 0.673889 0.177719 
vt 0.662781 0.115067 
vt 0.637787 0.055573 
vt 0.630112 0.063461 
vt 0.391556 0.055573 
vt 0.399231 0.063461 
vt 0.581497 0.02179 
vt 0.577515 0.032394 
vt 0.514679 0.021088 
vt 0.514679 0.00976598 
vt 0.451828 0.032394 
vt 0.447845 0.02179 
vt 0.673233 0.244537 
vt 0.662781 0.240372 
vt 0.366562 0.240372 
vt 0.35611 0.244537 
vt 0.325073 0.243454 
vt 0.292648 0.296509 
vt 0.23941 0.328278 
vt 0.175858 0.339264 
vt 0.11232 0.328278 
vt 0.292648 0.063217 
vt 0.325073 0.116272 
vt 0.335922 0.179871 
vt 0.059082 0.296509 
vt 0.026657 0.243454 
vt 0.059082 0.063217 
vt 0.026657 0.116272 
vt 0.015808 0.179871 
vt 0.112305 0.031464 
vt 0.23941 0.031464 
vt 0.175858 0.020477 
vt 0.54657 0.733368 
vt 0.325012 0.732651 
vt 0.343735 0.714737 
vt 0.527206 0.715683 
vt 0.307816 0.93486 
vt 0.308426 0.752274 
vt 0.324326 0.954559 
vt 0.564224 0.75264 
vt 0.563675 0.935944 
vt 0.545898 0.955109 
vt 0.526428 0.972687 
vt 0.342941 0.97258 
vt 0.307663 0.96875 
vt 0.307266 0.945816 
vt 0.318848 0.959305 
vt 0.33107 0.972153 
vt 0.560944 0.970367 
vt 0.550858 0.960144 
vt 0.5634 0.947433 
vt 0.561707 0.718201 
vt 0.551559 0.728363 
vt 0.538742 0.715927 
vt 0.308456 0.718384 
vt 0.31958 0.727875 
vt 0.307938 0.741318 
vt 0.331879 0.715103 
vt 0.564026 0.74115 
vt 0.537964 0.972504 
vt 0.269531 0.714676 
vt 0.284164 0.737244 
vt 0.072388 0.736786 
vt 0.087341 0.714493 
vt 0.305923 0.752243 
vt 0.305298 0.934875 
vt 0.283417 0.949692 
vt 0.071609 0.948563 
vt 0.049316 0.933563 
vt 0.049988 0.751602 
vt 0.2686 0.972168 
vt 0.086395 0.970963 
vt 0.302383 0.968033 
vt 0.291382 0.957687 
vt 0.303787 0.945633 
vt 0.279312 0.970276 
vt 0.053757 0.966156 
vt 0.051392 0.943848 
vt 0.063965 0.95607 
vt 0.054672 0.71904 
vt 0.076996 0.716599 
vt 0.064804 0.729218 
vt 0.303223 0.71907 
vt 0.304474 0.74147 
vt 0.292175 0.729324 
vt 0.280197 0.716644 
vt 0.052124 0.741333 
vt 0.07605 0.968781 
vt 0.343399 0.71167 
vt 0.527405 0.712601 
vt 0.567322 0.752396 
vt 0.566757 0.936203 
vt 0.526611 0.975769 
vt 0.34259 0.975647 
vt 0.33049 0.975479 
vt 0.307739 0.97226 
vt 0.566788 0.947922 
vt 0.564377 0.970566 
vt 0.5392 0.712524 
vt 0.561874 0.714767 
vt 0.308548 0.714874 
vt 0.331314 0.711777 
vt 0.56514 0.718018 
vt 0.567413 0.740677 
vt 0.561096 0.973801 
vt 0.538406 0.975906 

usemtl Meshpart1Mtl

f 1/1/1 2/2/2 3/3/3 
f 3/3/3 4/4/4 1/1/1 
f 1/1/1 4/4/4 5/5/5 
f 5/5/5 6/6/6 1/1/1 
f 1/1/1 6/6/6 7/7/7 
f 7/7/7 8/8/8 1/1/1 
f 1/1/1 8/8/8 9/9/9 
f 9/9/9 2/2/2 1/1/1 
f 10/10/10 11/11/11 12/12/12 
f 12/12/12 13/13/13 10/10/10 
f 10/10/10 13/13/13 14/14/14 
f 14/14/14 15/15/15 10/10/10 
f 10/10/10 15/15/15 7/7/7 
f 7/7/7 6/6/6 10/10/10 
f 10/10/10 6/6/6 5/5/5 
f 5/5/5 11/11/11 10/10/10 
f 16/16/16 4/4/4 3/3/3 
f 3/3/3 17/17/17 16/16/16 
f 18/18/18 16/16/16 17/17/17 
f 17/17/17 19/19/19 18/18/18 
f 16/16/16 18/18/18 20/20/20 
f 20/20/20 21/21/21 16/16/16 
f 4/4/4 16/16/16 21/21/21 
f 21/21/21 5/5/5 4/4/4 
f 22/22/22 23/23/23 24/24/24 
f 24/24/24 25/25/25 22/22/22 
f 26/26/26 22/22/22 25/25/25 
f 25/25/25 27/27/27 26/26/26 
f 22/22/22 26/26/26 20/20/20 
f 20/20/20 18/18/18 22/22/22 
f 23/23/23 22/22/22 18/18/18 
f 18/18/18 19/19/19 23/23/23 
f 28/28/28 29/29/29 30/30/30 
f 30/30/30 31/31/31 28/28/28 
f 32/32/32 28/28/28 31/31/31 
f 31/31/31 33/33/33 32/32/32 
f 28/28/28 32/32/32 20/20/20 
f 20/20/20 26/26/26 28/28/28 
f 29/29/29 28/28/28 26/26/26 
f 26/26/26 27/27/27 29/29/29 
f 34/34/34 35/35/35 12/12/12 
f 12/12/12 11/11/11 34/34/34 
f 21/21/21 34/34/34 11/11/11 
f 11/11/11 5/5/5 21/21/21 
f 34/34/34 21/21/21 20/20/20 
f 20/20/20 32/32/32 34/34/34 
f 35/35/35 34/34/34 32/32/32 
f 32/32/32 33/33/33 35/35/35 
f 36/36/36 25/25/25 24/24/24 
f 24/24/24 37/37/37 36/36/36 
f 38/38/38 36/36/36 37/37/37 
f 37/37/37 39/39/39 38/38/38 
f 36/36/36 38/38/38 40/40/40 
f 40/40/40 41/41/41 36/36/36 
f 36/36/36 41/41/41 27/27/27 
f 27/27/27 25/25/25 36/36/36 
f 42/42/42 43/43/43 30/30/30 
f 30/30/30 29/29/29 42/42/42 
f 41/41/41 42/42/42 29/29/29 
f 29/29/29 27/27/27 41/41/41 
f 44/44/44 42/42/42 41/41/41 
f 41/41/41 40/40/40 44/44/44 
f 42/42/42 44/44/44 45/45/45 
f 45/45/45 43/43/43 42/42/42 
f 46/46/46 37/37/37 24/24/24 
f 24/24/24 23/23/23 46/46/46 
f 46/46/46 23/23/23 19/19/19 
f 19/19/19 47/47/47 46/46/46 
f 46/46/46 47/47/47 48/48/48 
f 48/48/48 49/49/49 46/46/46 
f 37/37/37 46/46/46 49/49/49 
f 49/49/49 39/39/39 37/37/37 
f 50/50/50 17/17/17 3/3/3 
f 3/3/3 2/2/2 50/50/50 
f 51/51/51 50/50/50 2/2/2 
f 2/2/2 9/9/9 51/51/51 
f 50/50/50 51/51/51 48/48/48 
f 48/48/48 47/47/47 50/50/50 
f 50/50/50 47/47/47 19/19/19 
f 19/19/19 17/17/17 50/50/50 
f 52/52/52 13/13/13 12/12/12 
f 12/12/12 35/35/35 52/52/52 
f 52/52/52 35/35/35 33/33/33 
f 33/33/33 53/53/53 52/52/52 
f 52/52/52 53/53/53 54/54/54 
f 54/54/54 55/55/55 52/52/52 
f 13/13/13 52/52/52 55/55/55 
f 55/55/55 14/14/14 13/13/13 
f 56/56/56 31/31/31 30/30/30 
f 30/30/30 43/43/43 56/56/56 
f 57/57/57 56/56/56 43/43/43 
f 43/43/43 45/45/45 57/57/57 
f 56/56/56 57/57/57 54/54/54 
f 54/54/54 53/53/53 56/56/56 
f 56/56/56 53/53/53 33/33/33 
f 33/33/33 31/31/31 56/56/56 
f 58/58/58 59/59/59 60/60/60 
f 60/60/60 61/61/61 58/58/58 
f 62/62/62 63/63/63 64/64/64 
f 64/64/64 65/65/65 62/62/62 
f 66/66/66 67/67/67 65/65/65 
f 65/65/65 64/64/64 66/66/66 
f 68/68/68 69/69/69 67/67/67 
f 67/67/67 66/66/66 68/68/68 
f 70/70/70 67/67/67 69/69/69 
f 69/69/69 71/71/71 70/70/70 
f 65/65/65 67/67/67 70/70/70 
f 70/70/70 72/72/72 65/65/65 
f 72/72/72 73/73/73 62/62/62 
f 62/62/62 65/65/65 72/72/72 
f 58/58/58 74/74/74 75/75/75 
f 75/75/75 59/59/59 58/58/58 
f 62/62/62 76/76/76 77/77/77 
f 77/77/77 63/63/63 62/62/62 
f 62/62/62 73/73/73 78/78/78 
f 78/78/78 76/76/76 62/62/62 
f 76/76/76 58/58/58 61/61/61 
f 61/61/61 77/77/77 76/76/76 
f 76/76/76 78/78/78 74/74/74 
f 74/74/74 58/58/58 76/76/76 
f 79/79/79 8/8/8 7/7/7 
f 7/7/7 80/80/80 79/79/79 
f 81/81/81 80/80/80 7/7/7 
f 7/7/7 15/15/15 81/81/81 
f 82/82/82 9/9/9 8/8/8 
f 8/8/8 79/79/79 82/82/82 
f 83/83/83 51/51/51 9/9/9 
f 9/9/9 82/82/82 83/83/83 
f 84/84/84 81/81/81 15/15/15 
f 15/15/15 14/14/14 84/84/84 
f 85/85/85 84/84/84 14/14/14 
f 14/14/14 55/55/55 85/85/85 
f 86/86/86 44/44/44 40/40/40 
f 40/40/40 87/87/87 86/86/86 
f 88/88/88 87/87/87 40/40/40 
f 40/40/40 38/38/38 88/88/88 
f 89/89/89 88/88/88 38/38/38 
f 38/38/38 39/39/39 89/89/89 
f 90/90/90 89/89/89 39/39/39 
f 39/39/39 49/49/49 90/90/90 
f 91/91/91 45/45/45 44/44/44 
f 44/44/44 86/86/86 91/91/91 
f 92/92/92 57/57/57 45/45/45 
f 45/45/45 91/91/91 92/92/92 
f 49/49/49 48/48/48 93/93/93 
f 93/93/93 90/90/90 49/49/49 
f 51/51/51 83/83/83 93/93/93 
f 93/93/93 48/48/48 51/51/51 
f 55/55/55 54/54/54 94/94/94 
f 94/94/94 85/85/85 55/55/55 
f 57/57/57 92/92/92 94/94/94 
f 94/94/94 54/54/54 57/57/57 
f 95/95/95 96/96/96 97/97/97 
f 97/97/97 98/98/98 95/95/95 
f 96/96/96 95/95/95 99/99/99 
f 99/99/99 100/100/100 96/96/96 
f 101/101/101 96/96/96 100/100/100 
f 100/100/100 102/102/102 101/101/101 
f 96/96/96 101/101/101 103/103/103 
f 103/103/103 97/97/97 96/96/96 
f 104/104/104 105/105/105 106/106/106 
f 106/106/106 107/107/107 104/104/104 
f 105/105/105 104/104/104 103/103/103 
f 103/103/103 101/101/101 105/105/105 
f 108/108/108 105/105/105 101/101/101 
f 101/101/101 102/102/102 108/108/108 
f 105/105/105 108/108/108 109/109/109 
f 109/109/109 106/106/106 105/105/105 
f 110/110/110 111/111/111 112/112/112 
f 112/112/112 113/113/113 110/110/110 
f 111/111/111 110/110/110 114/114/114 
f 114/114/114 115/115/115 111/111/111 
f 111/111/111 115/115/115 116/116/116 
f 116/116/116 117/117/117 111/111/111 
f 112/112/112 111/111/111 117/117/117 
f 117/117/117 118/118/118 112/112/112 
f 119/119/119 120/120/120 121/121/121 
f 121/121/121 122/122/122 119/119/119 
f 120/120/120 119/119/119 123/123/123 
f 123/123/123 124/124/124 120/120/120 
f 120/120/120 124/124/124 116/116/116 
f 116/116/116 115/115/115 120/120/120 
f 120/120/120 115/115/115 114/114/114 
f 114/114/114 121/121/121 120/120/120 
f 125/125/125 110/110/110 113/113/113 
f 113/113/113 126/126/126 125/125/125 
f 127/127/127 125/125/125 126/126/126 
f 126/126/126 128/128/128 127/127/127 
f 125/125/125 127/127/127 129/129/129 
f 129/129/129 130/130/130 125/125/125 
f 110/110/110 125/125/125 130/130/130 
f 130/130/130 114/114/114 110/110/110 
f 131/131/131 132/132/132 98/98/98 
f 98/98/98 97/97/97 131/131/131 
f 133/133/133 131/131/131 97/97/97 
f 97/97/97 103/103/103 133/133/133 
f 131/131/131 133/133/133 129/129/129 
f 129/129/129 127/127/127 131/131/131 
f 132/132/132 131/131/131 127/127/127 
f 127/127/127 128/128/128 132/132/132 
f 134/134/134 104/104/104 107/107/107 
f 107/107/107 135/135/135 134/134/134 
f 136/136/136 134/134/134 135/135/135 
f 135/135/135 137/137/137 136/136/136 
f 134/134/134 136/136/136 129/129/129 
f 129/129/129 133/133/133 134/134/134 
f 104/104/104 134/134/134 133/133/133 
f 133/133/133 103/103/103 104/104/104 
f 138/138/138 139/139/139 122/122/122 
f 122/122/122 121/121/121 138/138/138 
f 130/130/130 138/138/138 121/121/121 
f 121/121/121 114/114/114 130/130/130 
f 138/138/138 130/130/130 129/129/129 
f 129/129/129 136/136/136 138/138/138 
f 139/139/139 138/138/138 136/136/136 
f 136/136/136 137/137/137 139/139/139 
f 112/112/112 140/140/140 126/126/126 
f 126/126/126 113/113/113 112/112/112 
f 141/141/141 140/140/140 112/112/112 
f 112/112/112 118/118/118 141/141/141 
f 140/140/140 141/141/141 142/142/142 
f 142/142/142 143/143/143 140/140/140 
f 140/140/140 143/143/143 128/128/128 
f 128/128/128 126/126/126 140/140/140 
f 132/132/132 144/144/144 95/95/95 
f 95/95/95 98/98/98 132/132/132 
f 144/144/144 132/132/132 128/128/128 
f 128/128/128 143/143/143 144/144/144 
f 144/144/144 143/143/143 142/142/142 
f 142/142/142 145/145/145 144/144/144 
f 95/95/95 144/144/144 145/145/145 
f 145/145/145 99/99/99 95/95/95 
f 106/106/106 146/146/146 135/135/135 
f 135/135/135 107/107/107 106/106/106 
f 147/147/147 146/146/146 106/106/106 
f 106/106/106 109/109/109 147/147/147 
f 146/146/146 147/147/147 148/148/148 
f 148/148/148 149/149/149 146/146/146 
f 146/146/146 149/149/149 137/137/137 
f 137/137/137 135/135/135 146/146/146 
f 139/139/139 150/150/150 119/119/119 
f 119/119/119 122/122/122 139/139/139 
f 150/150/150 139/139/139 137/137/137 
f 137/137/137 149/149/149 150/150/150 
f 150/150/150 149/149/149 148/148/148 
f 148/148/148 151/151/151 150/150/150 
f 119/119/119 150/150/150 151/151/151 
f 151/151/151 123/123/123 119/119/119 
f 152/152/152 153/153/153 154/154/154 
f 154/154/154 155/155/155 152/152/152 
f 156/156/156 157/157/157 158/158/158 
f 158/158/158 159/159/159 156/156/156 
f 154/154/154 153/153/153 160/160/160 
f 160/160/160 161/161/161 154/154/154 
f 158/158/158 162/162/162 163/163/163 
f 163/163/163 159/159/159 158/158/158 
f 159/159/159 163/163/163 164/164/164 
f 164/164/164 165/165/165 159/159/159 
f 159/159/159 165/165/165 166/166/166 
f 166/166/166 156/156/156 159/159/159 
f 167/167/167 168/168/168 165/165/165 
f 165/165/165 164/164/164 167/167/167 
f 169/169/169 166/166/166 165/165/165 
f 165/165/165 168/168/168 169/169/169 
f 158/158/158 170/170/170 171/171/171 
f 171/171/171 162/162/162 158/158/158 
f 172/172/172 170/170/170 158/158/158 
f 158/158/158 157/157/157 172/172/172 
f 170/170/170 154/154/154 161/161/161 
f 161/161/161 171/171/171 170/170/170 
f 155/155/155 154/154/154 170/170/170 
f 170/170/170 172/172/172 155/155/155 
f 173/173/173 108/108/108 102/102/102 
f 102/102/102 174/174/174 173/173/173 
f 175/175/175 174/174/174 102/102/102 
f 102/102/102 100/100/100 175/175/175 
f 176/176/176 175/175/175 100/100/100 
f 100/100/100 99/99/99 176/176/176 
f 177/177/177 176/176/176 99/99/99 
f 99/99/99 145/145/145 177/177/177 
f 178/178/178 109/109/109 108/108/108 
f 108/108/108 173/173/173 178/178/178 
f 179/179/179 147/147/147 109/109/109 
f 109/109/109 178/178/178 179/179/179 
f 180/180/180 117/117/117 116/116/116 
f 116/116/116 181/181/181 180/180/180 
f 124/124/124 182/182/182 181/181/181 
f 181/181/181 116/116/116 124/124/124 
f 183/183/183 118/118/118 117/117/117 
f 117/117/117 180/180/180 183/183/183 
f 184/184/184 141/141/141 118/118/118 
f 118/118/118 183/183/183 184/184/184 
f 185/185/185 182/182/182 124/124/124 
f 124/124/124 123/123/123 185/185/185 
f 186/186/186 185/185/185 123/123/123 
f 123/123/123 151/151/151 186/186/186 
f 145/145/145 142/142/142 187/187/187 
f 187/187/187 177/177/177 145/145/145 
f 141/141/141 184/184/184 187/187/187 
f 187/187/187 142/142/142 141/141/141 
f 151/151/151 148/148/148 188/188/188 
f 188/188/188 186/186/186 151/151/151 
f 147/147/147 179/179/179 188/188/188 
f 188/188/188 148/148/148 147/147/147 
f 189/189/189 190/190/190 191/191/191 
f 191/191/191 192/192/192 189/189/189 
f 193/193/193 194/194/194 195/195/195 
f 195/195/195 196/196/196 193/193/193 
f 197/197/197 198/198/198 191/191/191 
f 191/191/191 190/190/190 197/197/197 
f 195/195/195 199/199/199 200/200/200 
f 200/200/200 196/196/196 195/195/195 
f 196/196/196 200/200/200 201/201/201 
f 201/201/201 202/202/202 196/196/196 
f 203/203/203 193/193/193 196/196/196 
f 196/196/196 202/202/202 203/203/203 
f 204/204/204 205/205/205 202/202/202 
f 202/202/202 201/201/201 204/204/204 
f 203/203/203 202/202/202 205/205/205 
f 205/205/205 206/206/206 203/203/203 
f 207/207/207 199/199/199 195/195/195 
f 195/195/195 208/208/208 207/207/207 
f 209/209/209 208/208/208 195/195/195 
f 195/195/195 194/194/194 209/209/209 
f 198/198/198 207/207/207 208/208/208 
f 208/208/208 191/191/191 198/198/198 
f 192/192/192 191/191/191 208/208/208 
f 208/208/208 209/209/209 192/192/192 
f 210/210/210 211/211/211 212/212/212 
f 212/212/212 213/213/213 210/210/210 
f 214/214/214 215/215/215 216/216/216 
f 216/216/216 217/217/217 214/214/214 
f 212/212/212 218/218/218 219/219/219 
f 219/219/219 213/213/213 212/212/212 
f 216/216/216 215/215/215 220/220/220 
f 220/220/220 221/221/221 216/216/216 
f 215/215/215 222/222/222 223/223/223 
f 223/223/223 220/220/220 215/215/215 
f 215/215/215 214/214/214 224/224/224 
f 224/224/224 222/222/222 215/215/215 
f 223/223/223 222/222/222 225/225/225 
f 225/225/225 226/226/226 223/223/223 
f 227/227/227 225/225/225 222/222/222 
f 222/222/222 224/224/224 227/227/227 
f 216/216/216 221/221/221 228/228/228 
f 228/228/228 229/229/229 216/216/216 
f 230/230/230 217/217/217 216/216/216 
f 216/216/216 229/229/229 230/230/230 
f 229/229/229 228/228/228 218/218/218 
f 218/218/218 212/212/212 229/229/229 
f 211/211/211 230/230/230 229/229/229 
f 229/229/229 212/212/212 211/211/211 
f 192/192/192 231/231/231 210/210/210 
f 210/210/210 189/189/189 192/192/192 
f 189/189/189 210/210/210 213/213/213 
f 213/213/213 190/190/190 189/189/189 
f 193/193/193 232/232/232 233/233/233 
f 233/233/233 194/194/194 193/193/193 
f 190/190/190 213/213/213 234/234/234 
f 234/234/234 197/197/197 190/190/190 
f 197/197/197 234/234/234 235/235/235 
f 235/235/235 198/198/198 197/197/197 
f 199/199/199 236/236/236 237/237/237 
f 237/237/237 200/200/200 199/199/199 
f 200/200/200 237/237/237 238/238/238 
f 238/238/238 201/201/201 200/200/200 
f 203/203/203 239/239/239 232/232/232 
f 232/232/232 193/193/193 203/203/203 
f 204/204/204 201/201/201 238/238/238 
f 238/238/238 240/240/240 204/204/204 
f 204/204/204 240/240/240 241/241/241 
f 241/241/241 205/205/205 204/204/204 
f 206/206/206 205/205/205 241/241/241 
f 241/241/241 242/242/242 206/206/206 
f 206/206/206 242/242/242 239/239/239 
f 239/239/239 203/203/203 206/206/206 
f 207/207/207 243/243/243 236/236/236 
f 236/236/236 199/199/199 207/207/207 
f 194/194/194 233/233/233 244/244/244 
f 244/244/244 209/209/209 194/194/194 
f 198/198/198 235/235/235 243/243/243 
f 243/243/243 207/207/207 198/198/198 
f 209/209/209 244/244/244 231/231/231 
f 231/231/231 192/192/192 209/209/209 
f 245/245/245 246/246/246 247/247/247 
f 247/247/247 248/248/248 245/245/245 
f 249/249/249 250/250/250 251/251/251 
f 251/251/251 252/252/252 249/249/249 
f 247/247/247 246/246/246 253/253/253 
f 253/253/253 254/254/254 247/247/247 
f 251/251/251 255/255/255 256/256/256 
f 256/256/256 252/252/252 251/251/251 
f 252/252/252 256/256/256 257/257/257 
f 257/257/257 258/258/258 252/252/252 
f 252/252/252 258/258/258 259/259/259 
f 259/259/259 249/249/249 252/252/252 
f 258/258/258 257/257/257 260/260/260 
f 260/260/260 261/261/261 258/258/258 
f 258/258/258 261/261/261 262/262/262 
f 262/262/262 259/259/259 258/258/258 
f 251/251/251 263/263/263 264/264/264 
f 264/264/264 255/255/255 251/251/251 
f 265/265/265 263/263/263 251/251/251 
f 251/251/251 250/250/250 265/265/265 
f 263/263/263 247/247/247 254/254/254 
f 254/254/254 264/264/264 263/263/263 
f 248/248/248 247/247/247 263/263/263 
f 263/263/263 265/265/265 248/248/248 
f 266/266/266 267/267/267 268/268/268 
f 268/268/268 269/269/269 266/266/266 
f 270/270/270 271/271/271 272/272/272 
f 272/272/272 273/273/273 270/270/270 
f 268/268/268 274/274/274 275/275/275 
f 275/275/275 269/269/269 268/268/268 
f 272/272/272 271/271/271 276/276/276 
f 276/276/276 277/277/277 272/272/272 
f 271/271/271 278/278/278 279/279/279 
f 279/279/279 276/276/276 271/271/271 
f 271/271/271 270/270/270 280/280/280 
f 280/280/280 278/278/278 271/271/271 
f 279/279/279 278/278/278 281/281/281 
f 281/281/281 282/282/282 279/279/279 
f 283/283/283 281/281/281 278/278/278 
f 278/278/278 280/280/280 283/283/283 
f 272/272/272 277/277/277 284/284/284 
f 284/284/284 285/285/285 272/272/272 
f 286/286/286 273/273/273 272/272/272 
f 272/272/272 285/285/285 286/286/286 
f 285/285/285 284/284/284 274/274/274 
f 274/274/274 268/268/268 285/285/285 
f 267/267/267 286/286/286 285/285/285 
f 285/285/285 268/268/268 267/267/267 
f 287/287/287 288/288/288 289/289/289 
f 289/289/289 290/290/290 287/287/287 
f 290/290/290 289/289/289 291/291/291 
f 291/291/291 292/292/292 290/290/290 
f 293/293/293 294/294/294 295/295/295 
f 295/295/295 296/296/296 293/293/293 
f 292/292/292 291/291/291 297/297/297 
f 297/297/297 298/298/298 292/292/292 
f 299/299/299 298/298/298 297/297/297 
f 297/297/297 300/300/300 299/299/299 
f 301/301/301 302/302/302 303/303/303 
f 303/303/303 304/304/304 301/301/301 
f 305/305/305 301/301/301 304/304/304 
f 304/304/304 306/306/306 305/305/305 
f 293/293/293 307/307/307 308/308/308 
f 308/308/308 294/294/294 293/293/293 
f 309/309/309 305/305/305 306/306/306 
f 306/306/306 310/310/310 309/309/309 
f 309/309/309 310/310/310 311/311/311 
f 311/311/311 312/312/312 309/309/309 
f 312/312/312 311/311/311 313/313/313 
f 313/313/313 314/314/314 312/312/312 
f 314/314/314 313/313/313 308/308/308 
f 308/308/308 307/307/307 314/314/314 
f 302/302/302 315/315/315 316/316/316 
f 316/316/316 303/303/303 302/302/302 
f 296/296/296 295/295/295 317/317/317 
f 317/317/317 318/318/318 296/296/296 
f 315/315/315 299/299/299 300/300/300 
f 300/300/300 316/316/316 315/315/315 
f 318/318/318 317/317/317 288/288/288 
f 288/288/288 287/287/287 318/318/318 
f 266/266/266 269/269/269 291/291/291 
f 291/291/291 289/289/289 266/266/266 
f 275/275/275 297/297/297 291/291/291 
f 291/291/291 269/269/269 275/275/275 
f 274/274/274 300/300/300 297/297/297 
f 297/297/297 275/275/275 274/274/274 
f 284/284/284 316/316/316 300/300/300 
f 300/300/300 274/274/274 284/284/284 
f 267/267/267 266/266/266 289/289/289 
f 289/289/289 288/288/288 267/267/267 
f 286/286/286 267/267/267 288/288/288 
f 288/288/288 317/317/317 286/286/286 
f 282/282/282 281/281/281 311/311/311 
f 311/311/311 310/310/310 282/282/282 
f 313/313/313 311/311/311 281/281/281 
f 281/281/281 283/283/283 313/313/313 
f 279/279/279 282/282/282 310/310/310 
f 310/310/310 306/306/306 279/279/279 
f 276/276/276 279/279/279 306/306/306 
f 306/306/306 304/304/304 276/276/276 
f 280/280/280 308/308/308 313/313/313 
f 313/313/313 283/283/283 280/280/280 
f 270/270/270 294/294/294 308/308/308 
f 308/308/308 280/280/280 270/270/270 
f 316/316/316 284/284/284 277/277/277 
f 277/277/277 303/303/303 316/316/316 
f 304/304/304 303/303/303 277/277/277 
f 277/277/277 276/276/276 304/304/304 
f 294/294/294 270/270/270 273/273/273 
f 273/273/273 295/295/295 294/294/294 
f 317/317/317 295/295/295 273/273/273 
f 273/273/273 286/286/286 317/317/317 
f 265/265/265 319/319/319 320/320/320 
f 320/320/320 248/248/248 265/265/265 
f 321/321/321 245/245/245 248/248/248 
f 248/248/248 320/320/320 321/321/321 
f 322/322/322 246/246/246 245/245/245 
f 245/245/245 321/321/321 322/322/322 
f 323/323/323 253/253/253 246/246/246 
f 246/246/246 322/322/322 323/323/323 
f 324/324/324 325/325/325 249/249/249 
f 249/249/249 259/259/259 324/324/324 
f 250/250/250 249/249/249 325/325/325 
f 325/325/325 326/326/326 250/250/250 
f 319/319/319 265/265/265 250/250/250 
f 250/250/250 326/326/326 319/319/319 
f 254/254/254 253/253/253 323/323/323 
f 323/323/323 327/327/327 254/254/254 
f 264/264/264 254/254/254 327/327/327 
f 327/327/327 328/328/328 264/264/264 
f 329/329/329 257/257/257 256/256/256 
f 256/256/256 330/330/330 329/329/329 
f 255/255/255 331/331/331 330/330/330 
f 330/330/330 256/256/256 255/255/255 
f 328/328/328 331/331/331 255/255/255 
f 255/255/255 264/264/264 328/328/328 
f 332/332/332 260/260/260 257/257/257 
f 257/257/257 329/329/329 332/332/332 
f 333/333/333 324/324/324 259/259/259 
f 259/259/259 262/262/262 333/333/333 
f 334/334/334 261/261/261 260/260/260 
f 260/260/260 332/332/332 334/334/334 
f 333/333/333 262/262/262 261/261/261 
f 261/261/261 334/334/334 333/333/333 
f 335/335/335 336/336/336 337/337/337 
f 337/337/337 338/338/338 335/335/335 
f 339/339/339 340/340/340 336/336/336 
f 336/336/336 341/341/341 339/339/339 
f 335/335/335 342/342/342 343/343/343 
f 343/343/343 344/344/344 335/335/335 
f 345/345/345 346/346/346 341/341/341 
f 341/341/341 344/344/344 345/345/345 
f 347/347/347 348/348/348 349/349/349 
f 347/347/347 349/349/349 350/350/350 
f 351/351/351 352/352/352 353/353/353 
f 354/354/354 355/355/355 356/356/356 
f 357/357/357 358/358/358 359/359/359 
f 360/360/360 358/358/358 357/357/357 
f 361/361/361 355/355/355 354/354/354 
f 362/362/362 352/352/352 351/351/351 
f 344/344/344 341/341/341 336/336/336 
f 336/336/336 335/335/335 344/344/344 
f 336/336/336 358/358/358 360/360/360 
f 360/360/360 337/337/337 336/336/336 
f 335/335/335 338/338/338 356/356/356 
f 356/356/356 355/355/355 335/335/335 
f 336/336/336 340/340/340 359/359/359 
f 359/359/359 358/358/358 336/336/336 
f 341/341/341 349/349/349 348/348/348 
f 348/348/348 339/339/339 341/341/341 
f 344/344/344 343/343/343 353/353/353 
f 353/353/353 352/352/352 344/344/344 
f 335/335/335 355/355/355 361/361/361 
f 361/361/361 342/342/342 335/335/335 
f 341/341/341 346/346/346 350/350/350 
f 350/350/350 349/349/349 341/341/341 
f 344/344/344 352/352/352 362/362/362 
f 362/362/362 345/345/345 344/344/344 
f 363/363/363 364/364/364 365/365/365 
f 365/365/365 366/366/366 363/363/363 
f 364/364/364 367/367/367 368/368/368 
f 368/368/368 369/369/369 364/364/364 
f 365/365/365 370/370/370 371/371/371 
f 371/371/371 372/372/372 365/365/365 
f 369/369/369 373/373/373 374/374/374 
f 374/374/374 370/370/370 369/369/369 
f 375/375/375 376/376/376 377/377/377 
f 375/375/375 378/378/378 376/376/376 
f 379/379/379 380/380/380 381/381/381 
f 382/382/382 383/383/383 384/384/384 
f 385/385/385 386/386/386 387/387/387 
f 388/388/388 385/385/385 387/387/387 
f 389/389/389 382/382/382 384/384/384 
f 390/390/390 379/379/379 381/381/381 
f 364/364/364 369/369/369 370/370/370 
f 370/370/370 365/365/365 364/364/364 
f 388/388/388 387/387/387 364/364/364 
f 364/364/364 363/363/363 388/388/388 
f 365/365/365 384/384/384 383/383/383 
f 383/383/383 366/366/366 365/365/365 
f 364/364/364 387/387/387 386/386/386 
f 386/386/386 367/367/367 364/364/364 
f 377/377/377 376/376/376 369/369/369 
f 369/369/369 368/368/368 377/377/377 
f 370/370/370 381/381/381 380/380/380 
f 380/380/380 371/371/371 370/370/370 
f 389/389/389 384/384/384 365/365/365 
f 365/365/365 372/372/372 389/389/389 
f 369/369/369 376/376/376 378/378/378 
f 378/378/378 373/373/373 369/369/369 
f 390/390/390 381/381/381 370/370/370 
f 370/370/370 374/374/374 390/390/390 
f 337/337/337 391/391/391 392/392/392 
f 392/392/392 338/338/338 337/337/337 
f 339/339/339 368/368/368 367/367/367 
f 367/367/367 340/340/340 339/339/339 
f 342/342/342 393/393/393 394/394/394 
f 394/394/394 343/343/343 342/342/342 
f 345/345/345 395/395/395 396/396/396 
f 396/396/396 346/346/346 345/345/345 
f 347/347/347 375/375/375 377/377/377 
f 377/377/377 348/348/348 347/347/347 
f 347/347/347 350/350/350 397/397/397 
f 397/397/397 398/398/398 347/347/347 
f 351/351/351 353/353/353 399/399/399 
f 399/399/399 400/400/400 351/351/351 
f 354/354/354 356/356/356 401/401/401 
f 401/401/401 402/402/402 354/354/354 
f 357/357/357 359/359/359 386/386/386 
f 386/386/386 385/385/385 357/357/357 
f 357/357/357 403/403/403 404/404/404 
f 404/404/404 360/360/360 357/357/357 
f 354/354/354 405/405/405 406/406/406 
f 406/406/406 361/361/361 354/354/354 
f 351/351/351 407/407/407 408/408/408 
f 408/408/408 362/362/362 351/351/351 
f 337/337/337 360/360/360 404/404/404 
f 404/404/404 391/391/391 337/337/337 
f 338/338/338 392/392/392 401/401/401 
f 401/401/401 356/356/356 338/338/338 
f 340/340/340 367/367/367 386/386/386 
f 386/386/386 359/359/359 340/340/340 
f 339/339/339 348/348/348 377/377/377 
f 377/377/377 368/368/368 339/339/339 
f 343/343/343 394/394/394 399/399/399 
f 399/399/399 353/353/353 343/343/343 
f 342/342/342 361/361/361 406/406/406 
f 406/406/406 393/393/393 342/342/342 
f 346/346/346 396/396/396 397/397/397 
f 397/397/397 350/350/350 346/346/346 
f 345/345/345 362/362/362 408/408/408 
f 408/408/408 395/395/395 345/345/345 

