# This file is brought to you by Roblox Corporation
# Generated by Roblox Studio

mtllib Ultra-Fabulous hair brown.mtl

g Handle1

v -89.1763 255.344 -81.9703 
v -89.2651 255.138 -82.0132 
v -89.0667 255.149 -81.872 
v -88.9807 255.356 -81.8496 
v -88.7569 255.311 -81.9029 
v -88.7775 255.076 -81.8139 
v -88.5371 255.146 -81.9195 
v -88.5583 255.352 -81.9339 
v -88.3474 255.275 -82.0318 
v -88.3323 255.134 -82.0556 
v -87.9764 255.103 -82.9035 
v -88.093 255.308 -82.6499 
v -88.3917 255.203 -82.9889 
v -88.2257 255.113 -83.0312 
v -88.2863 255.171 -83.1174 
v -88.6002 255.35 -83.1296 
v -88.9108 255.33 -83.1548 
v -88.5927 255.212 -83.1505 
v -88.9012 255.103 -83.1757 
v -89.0234 255.274 -83.199 
v -89.0384 255.362 -83.1466 
v -88.8571 255.557 -83.2732 
v -89.3997 255.26 -82.877 
v -89.3712 255.162 -82.8942 
v -89.5628 255.091 -82.4915 
v -89.5875 255.249 -82.4973 
v -89.4988 255.307 -82.2859 
v -89.4957 255.128 -82.2962 
v -89.4296 255.143 -82.1367 
v -89.3683 255.345 -82.0813 
v -88.8999 255.635 -82.1357 
v -88.7275 255.688 -82.0988 
v -88.7807 255.533 -82.0776 
v -88.5841 255.519 -82.1036 
v -88.2159 255.326 -82.1949 
v -87.9541 255.396 -82.3566 
v -88.1631 255.33 -82.4421 
v -87.869 255.283 -82.4964 
v -88.3739 255.52 -82.9283 
v -88.1652 255.398 -82.8444 
v -88.1685 255.277 -83.0013 
v -88.5812 255.524 -83.1608 
v -88.2338 255.638 -83.2531 
v -89.0027 255.577 -83.069 
v -88.8721 255.628 -83.1648 
v -89.4956 255.434 -82.5135 
v -89.3229 255.449 -82.839 
v -89.3963 255.481 -82.3685 
v -89.2718 255.523 -82.2228 
v -88.8619 255.764 -82.2762 
v -88.704 255.825 -82.2446 
v -88.7144 255.67 -82.2364 
v -88.497 255.661 -82.258 
v -88.2908 255.606 -82.1846 
v -88.0494 255.469 -82.6943 
v -88.3701 255.632 -82.6243 
v -88.1927 255.631 -82.9484 
v -88.6015 255.645 -82.9717 
v -89.0282 255.667 -82.9147 
v -88.7726 255.872 -83.003 
v -89.2893 255.628 -82.5407 
v -89.1984 255.621 -82.7747 
v -89.219 255.645 -82.4298 
v -89.1561 255.659 -82.3305 
v -88.8342 255.819 -82.4405 
v -88.7034 255.95 -82.4236 
v -88.5652 255.75 -82.4279 
v -88.8274 255.743 -82.4011 
v -88.3911 255.691 -82.417 
v -88.2994 255.734 -82.7837 
v -88.3652 255.752 -82.4836 
v -88.5862 255.738 -82.8032 
v -88.8669 255.8 -82.7462 
v -88.7434 255.986 -82.7975 
v -88.9154 255.616 -82.9422 
v -88.9296 255.497 -83.0724 
v -88.8744 255.716 -82.7782 
v -88.5917 255.739 -82.6137 
v -88.2467 255.017 -82.8197 
v -88.085 255.114 -82.6414 
v -88.2032 254.858 -82.6862 
v -88.2465 254.854 -82.7589 
v -89.3575 254.933 -82.8851 
v -89.4365 254.843 -82.6539 
v -89.4661 255.012 -82.6807 
v -88.2244 254.722 -82.6955 
v -88.2477 254.723 -82.7711 
v -89.444 254.705 -82.5696 
v -89.4682 254.848 -82.5579 
v -89.4332 254.7 -82.6678 
v -88.1669 255.145 -82.2391 
v -88.2269 254.899 -82.214 
v -88.2035 254.966 -82.458 
v -88.1155 255.17 -82.4508 
v -89.4443 254.967 -82.3268 
v -89.3625 254.858 -82.1691 
v -89.0632 254.885 -81.876 
v -89.2142 254.867 -82.0243 
v -88.56 254.884 -81.902 
v -88.7923 254.787 -81.7934 
v -88.3622 254.885 -82.0733 
v -89.185 254.591 -82.0109 
v -89.0481 254.571 -81.9163 
v -88.776 254.598 -81.84 
v -88.5063 254.568 -81.9696 
v -88.3655 254.602 -82.0984 
v -88.6882 255.928 -82.6152 
v -88.903 255.843 -82.5823 
v -88.8477 255.723 -82.5897 
v -89.195 255.186 -83.0885 
v -89.0283 255.704 -82.6889 
v -89.0647 255.712 -82.5672 
v -89.0054 255.726 -82.4555 
v -89.009 255.712 -82.3033 
v -89.0371 255.591 -82.1689 
v -89.4359 254.559 -82.6265 
v -89.4299 254.556 -82.6817 
v -88.2467 254.568 -82.7469 
v -88.2492 254.566 -82.7857 
v -89.3238 254.679 -82.1268 
v -88.2485 254.633 -82.2155 
v -88.6222 255.657 -82.0807 
v -88.5994 255.764 -82.062 
v -88.6103 255.696 -82.188 
v -88.5679 255.853 -82.1742 
v -88.447 255.911 -82.0376 
v -88.6775 255.806 -82.6286 
v -88.5932 255.929 -82.6217 
v -88.6132 255.951 -82.43 
v -88.6615 255.825 -82.44 
v -88.3763 256.04 -82.6642 
v -88.8953 255.848 -82.3106 
v -88.8918 255.862 -82.4628 
v -88.7482 255.901 -82.2835 
v -88.7205 255.955 -82.4477 
v -88.7104 256.051 -82.3169 
v -88.8217 255.518 -83.163 
v -88.7231 255.779 -83.3741 
v -88.9673 255.782 -83.0201 
v -88.9602 255.877 -82.6853 
v -88.3737 255.92 -82.9495 
v -88.3717 254.945 -82.9853 
v -87.9809 255.538 -82.8051 
v -87.7632 255.162 -82.6829 
v -88.0116 255.152 -82.3006 
v -87.9563 255.112 -82.4997 
v -87.9729 255.191 -82.494 
v -88.0519 255.228 -82.2518 
v -87.8421 255.01 -82.3997 
v -88.5689 255.559 -83.2207 
v -88.7662 254.446 -81.9086 
v -88.1569 255.869 -82.6256 
v -88.6131 255.179 -83.0979 
v -88.4444 255.171 -82.9545 
v -88.8948 255.079 -83.1209 
v -89.1631 255.155 -83.0412 
v -89.324 255.133 -82.8638 
v -88.4113 254.935 -82.9471 
v -89.3115 254.924 -82.8556 
v -89.3836 254.842 -82.6444 
v -88.297 254.852 -82.7403 
v -88.2575 254.855 -82.6739 
v -88.2768 254.731 -82.6824 
v -88.2981 254.732 -82.7514 
v -88.2995 254.589 -82.7648 
v -88.2972 254.591 -82.7294 
v -89.3806 254.711 -82.6571 
v -89.4125 254.846 -82.5568 
v -89.3905 254.715 -82.5675 
v -89.3776 254.58 -82.6699 
v -89.383 254.583 -82.6194 
v -88.2577 254.954 -82.4656 
v -89.3907 254.955 -82.3457 
v -89.154 254.611 -82.0573 
v -89.2807 254.691 -82.1631 
v -88.7715 254.479 -81.9639 
v -89.0303 254.592 -81.9841 
v -88.5356 254.59 -82.0329 
v -88.4056 254.622 -82.1372 
v -89.316 254.855 -82.2018 
v -88.2988 254.65 -82.2441 
v -88.2791 254.892 -82.2428 
v -88.6237 255.436 -82.8306 
v -88.7301 255.44 -82.921 
v -88.6131 255.179 -83.0979 
v -88.4444 255.171 -82.9545 
v -88.9076 255.378 -82.9354 
v -88.8948 255.079 -83.1209 
v -89.1781 255.412 -82.7734 
v -89.324 255.133 -82.8638 
v -89.1631 255.155 -83.0412 
v -89.0767 255.425 -82.8852 
v -88.6029 255.287 -82.8259 
v -88.4113 254.935 -82.9471 
v -89.1702 255.28 -82.7682 
v -89.3115 254.924 -82.8556 
v -89.2156 255.228 -82.6352 
v -89.3836 254.842 -82.6444 
v -88.5309 255.234 -82.6956 
v -88.297 254.852 -82.7403 
v -88.5182 255.158 -82.6591 
v -88.2768 254.731 -82.6824 
v -88.2575 254.855 -82.6739 
v -88.506 255.237 -82.6537 
v -88.5316 255.159 -82.7026 
v -88.2981 254.732 -82.7514 
v -88.5324 255.068 -82.711 
v -88.2995 254.589 -82.7648 
v -88.2972 254.591 -82.7294 
v -88.531 255.07 -82.6887 
v -89.2138 255.146 -82.6432 
v -89.3806 254.711 -82.6571 
v -89.22 255.148 -82.5867 
v -89.2339 255.231 -82.5799 
v -89.4125 254.846 -82.5568 
v -89.3905 254.715 -82.5675 
v -89.2153 255.065 -82.6194 
v -89.383 254.583 -82.6194 
v -89.3776 254.58 -82.6699 
v -89.2119 255.063 -82.6512 
v -88.2577 254.954 -82.4656 
v -88.5061 255.299 -82.5225 
v -89.2201 255.299 -82.4469 
v -89.3907 254.955 -82.3457 
v -89.071 255.083 -82.2652 
v -89.154 254.611 -82.0573 
v -89.2807 254.691 -82.1631 
v -89.1508 255.133 -82.3318 
v -88.8299 255 -82.2063 
v -88.7715 254.479 -81.9639 
v -89.0303 254.592 -81.9841 
v -88.993 255.071 -82.2191 
v -88.6812 255.069 -82.2498 
v -88.5993 255.089 -82.3155 
v -88.4056 254.622 -82.1372 
v -88.5356 254.59 -82.0329 
v -89.316 254.855 -82.2018 
v -89.1731 255.236 -82.3562 
v -88.532 255.107 -82.3829 
v -88.5196 255.26 -82.3821 
v -88.2791 254.892 -82.2428 
v -88.2988 254.65 -82.2441 
v -88.8661 255.213 -82.5757 
v -87.8852 254.943 -83.1018 

vn -0.488189 0.409449 0.771654 
vn -0.598425 -0.0629921 0.795276 
vn -0.417323 0.023622 0.913386 
vn -0.15748 0.425197 0.889764 
vn 0.212598 0.433071 0.874016 
vn 0.125984 0.11811 0.984252 
vn 0.433071 0.0629921 0.897638 
vn 0.291339 0.440945 0.850394 
vn 0.614173 0.267717 0.740157 
vn 0.661417 -0.0787402 0.748031 
vn 0.480315 -0.559055 0.677165 
vn 0.488189 -0.858268 -0.141732 
vn -0.0314961 -0.834646 -0.551181 
vn -0.393701 -0.866142 0.314961 
vn -0.251969 -0.456693 -0.850394 
vn 0.283465 -0.149606 -0.944882 
vn 0.330709 -0.149606 -0.929134 
vn 0.393701 -0.338583 -0.858268 
vn -0.00787402 -0.598425 -0.80315 
vn -0.291339 -0.015748 -0.952756 
vn -0.692913 0.299213 -0.661417 
vn -0.0866142 -0.141732 -0.984252 
vn -0.787402 0.125984 -0.606299 
vn -0.629921 -0.267717 -0.732283 
vn -0.968504 -0.244094 -0.00787402 
vn -0.992126 0.125984 -0.0551181 
vn -0.874016 0.299213 0.385827 
vn -0.905512 -0.204724 0.385827 
vn -0.795276 -0.11811 0.598425 
vn -0.637795 0.377953 0.669291 
vn -0.362205 0.724409 0.590551 
vn -0.275591 0.488189 0.826772 
vn 0.559055 0.259843 0.787402 
vn 0.220472 0.653543 0.724409 
vn 0.614173 0.259843 0.748031 
vn 0.80315 0.0629921 0.590551 
vn 0.897638 -0.393701 0.188976 
vn 0.787402 -0.362205 0.496063 
vn 0.80315 -0.330709 -0.496063 
vn 0.0629921 -0.212598 -0.976378 
vn 0.590551 0.645669 -0.480315 
vn 0.23622 0.834646 -0.503937 
vn 0.637795 0.259843 -0.724409 
vn -0.606299 0.464567 -0.645669 
vn 0.0944882 0.992126 0.023622 
vn -0.811024 0.574803 -0.0629921 
vn -0.716535 0.488189 -0.496063 
vn -0.669291 0.677165 0.299213 
vn -0.503937 0.724409 0.472441 
vn -0.259843 0.598425 0.755906 
vn 0.220472 0.944882 -0.228346 
vn 0.84252 0.527559 -0.0944882 
vn 0.102362 0.858268 0.503937 
vn 0.456693 0.543307 0.700787 
vn 0.543307 0.76378 -0.338583 
vn 0.913386 0.354331 0.204724 
vn 0.629921 0.346457 -0.692913 
vn -0.00787402 0.669291 -0.740157 
vn 0.0393701 0.952756 0.299213 
vn 0.566929 0.692913 -0.448819 
vn -0.614173 0.795276 0 
vn -0.614173 0.732283 -0.291339 
vn -0.480315 0.858268 0.181102 
vn -0.433071 0.84252 0.322835 
vn -0.181102 0.80315 -0.566929 
vn -0.23622 0.771654 0.582677 
vn 0.0629921 0.976378 0.212598 
vn 0.952756 0.291339 0.0708661 
vn 0.606299 0.732283 0.291339 
vn 0.503937 0.818898 -0.267717 
vn 0.645669 0.543307 0.535433 
vn 0.149606 0.96063 0.228346 
vn -0.629921 0.76378 -0.11811 
vn 0.338583 0.897638 -0.283465 
vn 0.779528 0.299213 -0.551181 
vn 0.795276 0.590551 -0.15748 
vn 0.850394 0.496063 -0.19685 
vn -0.125984 0.992126 0 
vn 0.795276 -0.110236 -0.598425 
vn 0.96063 -0.181102 -0.204724 
vn 0.866142 -0.496063 0.0787402 
vn 0.582677 -0.338583 -0.740157 
vn -0.220472 -0.448819 -0.866142 
vn -0.708661 -0.354331 -0.614173 
vn -0.905512 -0.149606 -0.401575 
vn 0.834646 -0.19685 0.511811 
vn 0.448819 0.0629921 -0.889764 
vn -0.700787 -0.220472 0.677165 
vn -0.826772 -0.503937 0.259843 
vn -0.598425 0.0629921 -0.795276 
vn 0.716535 -0.354331 0.606299 
vn 0.92126 -0.362205 0.15748 
vn 0.692913 -0.700787 0.141732 
vn 0.740157 -0.629921 -0.23622 
vn -0.732283 -0.637795 0.251969 
vn -0.874016 -0.464567 0.141732 
vn -0.472441 -0.0629921 0.88189 
vn -0.685039 -0.0866142 0.724409 
vn 0.527559 -0.0314961 0.850394 
vn 0.0708661 -0.0944882 0.992126 
vn 0.677165 -0.0787402 0.732283 
vn -0.519685 -0.811024 0.275591 
vn -0.440945 -0.740157 0.511811 
vn 0.102362 -0.299213 0.952756 
vn 0.543307 -0.716535 0.433071 
vn 0.503937 -0.811024 0.291339 
vn -0.15748 0.787402 -0.598425 
vn -0.488189 0.874016 0.00787402 
vn 0.850394 0.385827 -0.362205 
vn -0.677165 -0.19685 -0.708661 
vn 0.0629921 0.740157 -0.669291 
vn -0.307087 0.866142 0.385827 
vn -0.543307 0.834646 0.0787402 
vn -0.480315 0.771654 0.409449 
vn -0.370079 0.716535 0.590551 
vn -0.511811 -0.755906 0.409449 
vn -0.354331 -0.677165 -0.645669 
vn 0.527559 -0.76378 0.377953 
vn 0.338583 -0.661417 -0.669291 
vn -0.826772 -0.566929 -0.015748 
vn 0.771654 -0.614173 -0.181102 
vn 0.472441 -0.677165 0.566929 
vn -0.346457 0.283465 0.889764 
vn 0.637795 -0.519685 -0.574803 
vn 0.267717 0.818898 -0.503937 
vn 0.653543 0.637795 0.409449 
vn 0.267717 -0.614173 -0.748031 
vn -0.314961 0.669291 -0.669291 
vn 0.401575 0.559055 0.724409 
vn 0.527559 -0.590551 0.614173 
vn 0.787402 0.472441 -0.393701 
vn -0.606299 0.551181 0.566929 
vn -0.448819 0.417323 -0.787402 
vn 0.574803 -0.244094 0.779528 
vn 0.622047 0.228346 -0.748031 
vn 0.409449 0.858268 0.314961 
vn 0.929134 -0.181102 0.322835 
vn 0.433071 0.700787 -0.566929 
vn 0.480315 0.80315 -0.346457 
vn 0.598425 0.787402 -0.149606 
vn 0.787402 0.582677 -0.188976 
vn 0.11811 -0.440945 -0.889764 
vn 0.96063 -0.267717 0.102362 
vn 0.779528 -0.598425 -0.19685 
vn -0.0472441 -0.826772 0.566929 
vn 0.0787402 -0.527559 -0.850394 
vn 0.440945 0.551181 -0.708661 
vn 0.629921 0.338583 0.700787 
vn 0.700787 -0.708661 0.0787402 
vn 0.574803 0.614173 -0.543307 
vn 0.0472441 -0.952756 0.299213 
vn 0.874016 0.464567 0.125984 
vn 0.11811 -0.984252 0.11811 
vn -0.559055 -0.535433 -0.629921 
vn 0.0551181 -0.976378 0.204724 
vn -0.015748 -0.984252 0.165354 
vn 0.551181 -0.417323 -0.724409 
vn -0.661417 -0.661417 -0.362205 
vn 0.653543 -0.598425 -0.464567 
vn 0.188976 -0.322835 -0.929134 
vn -0.338583 -0.362205 -0.866142 
vn -0.0629921 -0.440945 0.897638 
vn -0.0472441 -0.220472 0.976378 
vn -0.19685 0.0944882 -0.976378 
vn -0.677165 -0.535433 -0.503937 
vn -0.448819 -0.645669 0.614173 
vn 0.00787402 0.0944882 -0.992126 
vn 0.259843 -0.385827 0.889764 
vn 0.322835 -0.220472 0.92126 
vn 0.669291 -0.511811 -0.543307 
vn 0.559055 -0.614173 0.559055 
vn -0.401575 -0.913386 0.0708661 
vn 0.393701 -0.897638 -0.181102 
vn 0.173228 -0.740157 -0.645669 
vn -0.110236 -0.566929 -0.818898 
vn -0.0629921 -0.732283 -0.677165 
vn -0.023622 -0.755906 -0.653543 
vn -0.0708661 -0.755906 -0.653543 
vn -0.314961 -0.755906 -0.574803 
vn -0.267717 -0.511811 -0.818898 
vn 0.015748 -0.551181 -0.834646 
vn 0.299213 -0.488189 -0.818898 
vn -0.488189 -0.826772 -0.275591 
vn 0.0314961 -0.952756 0.307087 
vn 0.11811 -0.984252 0.11811 
vn -0.559055 -0.535433 -0.629921 
vn 0.0787402 -0.913386 0.401575 
vn 0.0551181 -0.976378 0.204724 
vn 0.551181 -0.755906 -0.354331 
vn 0.551181 -0.417323 -0.724409 
vn -0.015748 -0.984252 0.165354 
vn 0.110236 -0.944882 0.299213 
vn -0.708661 -0.417323 -0.574803 
vn -0.661417 -0.661417 -0.362205 
vn 0.637795 -0.307087 -0.708661 
vn 0.653543 -0.598425 -0.464567 
vn 0.574803 -0.551181 -0.606299 
vn 0.188976 -0.322835 -0.929134 
vn -0.606299 -0.590551 -0.527559 
vn -0.338583 -0.362205 -0.866142 
vn 0.0551181 -0.165354 0.984252 
vn -0.0472441 -0.220472 0.976378 
vn -0.0629921 -0.440945 0.897638 
vn -0.259843 -0.598425 0.755906 
vn -0.188976 0.0944882 -0.976378 
vn -0.19685 0.0944882 -0.976378 
vn -0.543307 -0.338583 -0.771654 
vn -0.677165 -0.535433 -0.503937 
vn -0.448819 -0.645669 0.614173 
vn -0.472441 -0.598425 0.645669 
vn 0.00787402 0.0944882 -0.992126 
vn 0.00787402 0.0944882 -0.992126 
vn 0.165354 -0.15748 0.976378 
vn 0.448819 -0.559055 0.700787 
vn 0.259843 -0.385827 0.889764 
vn 0.322835 -0.220472 0.92126 
vn 0.653543 -0.511811 0.551181 
vn 0.559055 -0.614173 0.559055 
vn 0.669291 -0.511811 -0.543307 
vn 0.425197 -0.346457 -0.834646 
vn -0.401575 -0.913386 0.0708661 
vn -0.330709 -0.944882 0.0551181 
vn 0.370079 -0.92126 -0.133858 
vn 0.393701 -0.897638 -0.181102 
vn 0.220472 -0.700787 -0.677165 
vn 0.173228 -0.740157 -0.645669 
vn -0.110236 -0.566929 -0.818898 
vn -0.204724 -0.488189 -0.850394 
vn -0.0787402 -0.614173 -0.787402 
vn -0.0629921 -0.732283 -0.677165 
vn -0.023622 -0.755906 -0.653543 
vn 0.0393701 -0.716535 -0.700787 
vn -0.11811 -0.716535 -0.685039 
vn -0.322835 -0.748031 -0.574803 
vn -0.314961 -0.755906 -0.574803 
vn -0.0708661 -0.755906 -0.653543 
vn -0.267717 -0.511811 -0.818898 
vn -0.0393701 -0.622047 -0.779528 
vn 0.15748 -0.393701 -0.905512 
vn -0.0708661 -0.677165 -0.732283 
vn 0.299213 -0.488189 -0.818898 
vn 0.015748 -0.551181 -0.834646 
vn -0.023622 -0.905512 -0.433071 
vn 0.708661 -0.622047 -0.338583 

vt 0.369307 0.529511 
vt 0.355006 0.590372 
vt 0.305765 0.538535 
vt 0.331221 0.491586 
vt 0.302055 0.454433 
vt 0.254343 0.482218 
vt 0.249643 0.417082 
vt 0.291741 0.4097 
vt 0.274034 0.365802 
vt 0.242294 0.359096 
vt 0.347569 0.204716 
vt 0.30818 0.226868 
vt 0.398289 0.12891 
vt 0.391347 0.149294 
vt 0.434514 0.168369 
vt 0.478439 0.153486 
vt 0.586715 0.2366 
vt 0.48844 0.11807 
vt 0.658734 0.155404 
vt 0.637827 0.254868 
vt 0.623173 0.295509 
vt 0.548175 0.300806 
vt 0.700608 0.470785 
vt 0.76477 0.481516 
vt 0.568702 0.662656 
vt 0.554217 0.596529 
vt 0.481238 0.58704 
vt 0.479844 0.654175 
vt 0.414737 0.628016 
vt 0.417417 0.56141 
vt 0.407036 0.445735 
vt 0.396526 0.41767 
vt 0.359419 0.427314 
vt 0.331353 0.389577 
vt 0.289202 0.317632 
vt 0.32203 0.275568 
vt 0.295969 0.2655 
vt 0.32332 0.26115 
vt 0.384658 0.220461 
vt 0.345983 0.2317 
vt 0.382016 0.206562 
vt 0.476673 0.223401 
vt 0.426886 0.239046 
vt 0.555823 0.343895 
vt 0.536415 0.31346 
vt 0.535396 0.536143 
vt 0.609595 0.437711 
vt 0.48982 0.528597 
vt 0.446161 0.512374 
vt 0.433581 0.422876 
vt 0.415673 0.395938 
vt 0.387594 0.377996 
vt 0.365755 0.339401 
vt 0.343586 0.31981 
vt 0.34257 0.257048 
vt 0.388851 0.278011 
vt 0.411081 0.251969 
vt 0.462004 0.272238 
vt 0.538813 0.380949 
vt 0.495042 0.34743 
vt 0.506048 0.476262 
vt 0.542235 0.41753 
vt 0.4802 0.474577 
vt 0.45486 0.472259 
vt 0.448881 0.401609 
vt 0.440596 0.381467 
vt 0.396447 0.330367 
vt 0.419905 0.361581 
vt 0.376668 0.307727 
vt 0.412776 0.273317 
vt 0.38946 0.298436 
vt 0.446175 0.293754 
vt 0.48792 0.38193 
vt 0.474454 0.358138 
vt 0.496681 0.295862 
vt 0.52147 0.280467 
vt 0.46463 0.326472 
vt 0.419852 0.315493 
vt 0.29073 0.142206 
vt 0.272445 0.208659 
vt 0.194978 0.145853 
vt 0.217896 0.095167 
vt 0.82957 0.596891 
vt 0.749899 0.786832 
vt 0.691175 0.651418 
vt 0.120045 0.103737 
vt 0.138711 0.059376 
vt 0.716544 0.905522 
vt 0.665315 0.803389 
vt 0.772788 0.892788 
vt 0.251766 0.293384 
vt 0.175531 0.305331 
vt 0.21283 0.229492 
vt 0.267066 0.257383 
vt 0.465501 0.738536 
vt 0.333317 0.750355 
vt 0.24002 0.579307 
vt 0.274164 0.656707 
vt 0.185436 0.440974 
vt 0.179939 0.517667 
vt 0.172528 0.36624 
vt 0.167729 0.690371 
vt 0.131288 0.631971 
vt 0.125431 0.531474 
vt 0.079593 0.442451 
vt 0.086848 0.375637 
vt 0.452317 0.367729 
vt 0.470499 0.397412 
vt 0.445546 0.340852 
vt 0.731284 0.319061 
vt 0.507516 0.410533 
vt 0.490891 0.429116 
vt 0.468412 0.427218 
vt 0.435564 0.447587 
vt 0.415298 0.466511 
vt 0.760767 0.948989 
vt 0.770919 0.942751 
vt 0.072562 0.047039 
vt 0.076218 0.039228 
vt 0.232517 0.749812 
vt 0.098708 0.3326 
vt 0.393096 0.408176 
vt 0.397051 0.406609 
vt 0.393537 0.400995 
vt 0.398041 0.40413 
vt 0.397356 0.404707 
vt 0.443726 0.366174 
vt 0.444709 0.370008 
vt 0.442497 0.374122 
vt 0.437984 0.372084 
vt 0.44307 0.371112 
vt 0.447935 0.41734 
vt 0.451909 0.41304 
vt 0.447666 0.414297 
vt 0.448113 0.4142 
vt 0.447831 0.414429 
vt 0.543137 0.295007 
vt 0.546262 0.301341 
vt 0.549021 0.375699 
vt 0.507484 0.424358 
vt 0.457987 0.288823 
vt 0.313 0.087565 
vt 0.402509 0.259216 
vt 0.32646 0.255836 
vt 0.277359 0.276366 
vt 0.278126 0.27182 
vt 0.27777 0.272575 
vt 0.281366 0.282057 
vt 0.278051 0.271352 
vt 0.489658 0.223911 
vt 0.081946 0.53907 
vt 0.406101 0.286429 
vt 0.491893 0.088487 
vt 0.393602 0.102138 
vt 0.685992 0.123517 
vt 0.766624 0.302859 
vt 0.80883 0.476539 
vt 0.311145 0.070373 
vt 0.865828 0.604994 
vt 0.795511 0.787533 
vt 0.219869 0.058326 
vt 0.164951 0.16126 
vt 0.093889 0.130144 
vt 0.151707 0.031153 
vt 0.060355 0.01671 
vt 0.038504 0.038207 
vt 0.811712 0.88502 
vt 0.637664 0.839515 
vt 0.689215 0.923552 
vt 0.792096 0.963313 
vt 0.754999 0.978279 
vt 0.196371 0.223862 
vt 0.46296 0.777624 
vt 0.147364 0.711767 
vt 0.22153 0.781333 
vt 0.060227 0.544491 
vt 0.107543 0.648725 
vt 0.056621 0.439514 
vt 0.063708 0.37006 
vt 0.334284 0.789265 
vt 0.086132 0.31995 
vt 0.163769 0.289171 
vt 0.76552 0.145985 
vt 0.765031 0.15809 
vt 0.726999 0.156111 
vt 0.735314 0.12267 
vt 0.772368 0.174878 
vt 0.736416 0.198279 
vt 0.797317 0.190075 
vt 0.802117 0.220811 
vt 0.770691 0.216045 
vt 0.785668 0.186932 
vt 0.764471 0.131616 
vt 0.725763 0.093116 
vt 0.807083 0.195728 
vt 0.823245 0.237855 
vt 0.824301 0.194989 
vt 0.848884 0.233664 
vt 0.77343 0.114109 
vt 0.746536 0.06248 
vt 0.799284 0.089794 
vt 0.77067 0.036217 
vt 0.787333 0.042846 
vt 0.809343 0.091259 
vt 0.775553 0.10382 
vt 0.74718 0.047053 
vt 0.777014 0.089441 
vt 0.74695 0.032161 
vt 0.753415 0.029236 
vt 0.784858 0.086331 
vt 0.83671 0.200298 
vt 0.866597 0.243574 
vt 0.861147 0.191702 
vt 0.863399 0.183763 
vt 0.890932 0.223658 
vt 0.890874 0.239279 
vt 0.859313 0.20335 
vt 0.891148 0.251556 
vt 0.886227 0.255236 
vt 0.852947 0.208187 
vt 0.820687 0.044318 
vt 0.821969 0.0899 
vt 0.869022 0.173883 
vt 0.905658 0.18844 
vt 0.888573 0.144702 
vt 0.951864 0.133467 
vt 0.943278 0.155086 
vt 0.884548 0.157222 
vt 0.886445 0.112564 
vt 0.95195 0.074682 
vt 0.95195 0.114831 
vt 0.888603 0.13388 
vt 0.869958 0.098828 
vt 0.859253 0.091453 
vt 0.903553 0.038892 
vt 0.922761 0.052809 
vt 0.923572 0.167528 
vt 0.874053 0.165704 
vt 0.849291 0.085328 
vt 0.833988 0.087675 
vt 0.857017 0.039806 
vt 0.885863 0.028029 
vt 0.823094 0.143163 
vt 0.378372 0.187392 

usemtl Handle1Mtl

f 1/1/1 2/2/2 3/3/3 
f 3/3/3 4/4/4 1/1/1 
f 5/5/5 6/6/6 7/7/7 
f 7/7/7 8/8/8 5/5/5 
f 9/9/9 8/8/8 7/7/7 
f 7/7/7 10/10/10 9/9/9 
f 11/11/11 12/12/12 13/13/13 
f 13/13/13 14/14/14 11/11/11 
f 15/15/15 14/14/14 13/13/13 
f 13/13/13 16/16/16 15/15/15 
f 17/17/17 16/16/16 18/18/18 
f 18/18/18 19/19/19 17/17/17 
f 20/20/20 21/21/21 22/22/22 
f 23/23/23 24/24/24 25/25/25 
f 25/25/25 26/26/26 23/23/23 
f 27/27/27 28/28/28 29/29/29 
f 29/29/29 30/30/30 27/27/27 
f 31/31/31 4/4/4 32/32/32 
f 33/33/33 5/5/5 8/8/8 
f 8/8/8 34/34/34 33/33/33 
f 34/34/34 35/35/35 36/36/36 
f 36/36/36 35/35/35 37/37/37 
f 37/37/37 38/38/38 36/36/36 
f 12/12/12 39/39/39 40/40/40 
f 39/39/39 41/41/41 15/15/15 
f 15/15/15 16/16/16 39/39/39 
f 16/16/16 42/42/42 43/43/43 
f 44/44/44 45/45/45 22/22/22 
f 22/22/22 21/21/21 44/44/44 
f 46/46/46 47/47/47 23/23/23 
f 23/23/23 26/26/26 46/46/46 
f 48/48/48 27/27/27 30/30/30 
f 30/30/30 49/49/49 48/48/48 
f 50/50/50 31/31/31 32/32/32 
f 32/32/32 51/51/51 50/50/50 
f 52/52/52 33/33/33 34/34/34 
f 34/34/34 53/53/53 52/52/52 
f 34/34/34 36/36/36 54/54/54 
f 36/36/36 55/55/55 56/56/56 
f 56/56/56 55/55/55 40/40/40 
f 40/40/40 39/39/39 56/56/56 
f 57/57/57 43/43/43 58/58/58 
f 43/43/43 42/42/42 58/58/58 
f 59/59/59 60/60/60 45/45/45 
f 45/45/45 44/44/44 59/59/59 
f 61/61/61 62/62/62 47/47/47 
f 47/47/47 46/46/46 61/61/61 
f 63/63/63 48/48/48 49/49/49 
f 49/49/49 64/64/64 63/63/63 
f 65/65/65 50/50/50 51/51/51 
f 51/51/51 66/66/66 65/65/65 
f 67/67/67 68/68/68 52/52/52 
f 52/52/52 53/53/53 67/67/67 
f 69/69/69 67/67/67 53/53/53 
f 53/53/53 54/54/54 69/69/69 
f 56/56/56 70/70/70 71/71/71 
f 71/71/71 69/69/69 56/56/56 
f 70/70/70 57/57/57 58/58/58 
f 58/58/58 72/72/72 70/70/70 
f 73/73/73 74/74/74 60/60/60 
f 60/60/60 59/59/59 73/73/73 
f 45/45/45 60/60/60 75/75/75 
f 75/75/75 76/76/76 45/45/45 
f 60/60/60 74/74/74 77/77/77 
f 77/77/77 75/75/75 60/60/60 
f 71/71/71 78/78/78 67/67/67 
f 67/67/67 69/69/69 71/71/71 
f 79/79/79 80/80/80 81/81/81 
f 81/81/81 82/82/82 79/79/79 
f 83/83/83 84/84/84 85/85/85 
f 85/85/85 24/24/24 83/83/83 
f 86/86/86 87/87/87 82/82/82 
f 82/82/82 81/81/81 86/86/86 
f 88/88/88 89/89/89 84/84/84 
f 84/84/84 90/90/90 88/88/88 
f 91/91/91 92/92/92 93/93/93 
f 93/93/93 94/94/94 91/91/91 
f 29/29/29 28/28/28 95/95/95 
f 95/95/95 96/96/96 29/29/29 
f 97/97/97 3/3/3 2/2/2 
f 2/2/2 98/98/98 97/97/97 
f 99/99/99 7/7/7 6/6/6 
f 6/6/6 100/100/100 99/99/99 
f 101/101/101 10/10/10 7/7/7 
f 7/7/7 99/99/99 101/101/101 
f 102/102/102 103/103/103 97/97/97 
f 97/97/97 98/98/98 102/102/102 
f 104/104/104 105/105/105 99/99/99 
f 99/99/99 100/100/100 104/104/104 
f 105/105/105 106/106/106 101/101/101 
f 101/101/101 99/99/99 105/105/105 
f 68/68/68 66/66/66 51/51/51 
f 51/51/51 52/52/52 68/68/68 
f 4/4/4 33/33/33 32/32/32 
f 4/4/4 3/3/3 6/6/6 
f 6/6/6 5/5/5 4/4/4 
f 97/97/97 100/100/100 6/6/6 
f 6/6/6 3/3/3 97/97/97 
f 103/103/103 104/104/104 100/100/100 
f 100/100/100 97/97/97 103/103/103 
f 65/65/65 66/66/66 107/107/107 
f 107/107/107 108/108/108 65/65/65 
f 73/73/73 108/108/108 107/107/107 
f 107/107/107 74/74/74 73/73/73 
f 78/78/78 72/72/72 77/77/77 
f 77/77/77 109/109/109 78/78/78 
f 78/78/78 109/109/109 68/68/68 
f 68/68/68 67/67/67 78/78/78 
f 107/107/107 109/109/109 77/77/77 
f 77/77/77 74/74/74 107/107/107 
f 20/20/20 17/17/17 19/19/19 
f 19/19/19 110/110/110 20/20/20 
f 24/24/24 23/23/23 21/21/21 
f 24/24/24 21/21/21 20/20/20 
f 24/24/24 20/20/20 110/110/110 
f 47/47/47 44/44/44 21/21/21 
f 21/21/21 23/23/23 47/47/47 
f 111/111/111 73/73/73 59/59/59 
f 59/59/59 62/62/62 111/111/111 
f 111/111/111 112/112/112 108/108/108 
f 108/108/108 73/73/73 111/111/111 
f 113/113/113 65/65/65 108/108/108 
f 108/108/108 112/112/112 113/113/113 
f 114/114/114 115/115/115 31/31/31 
f 31/31/31 50/50/50 114/114/114 
f 115/115/115 1/1/1 4/4/4 
f 4/4/4 31/31/31 115/115/115 
f 4/4/4 5/5/5 33/33/33 
f 39/39/39 43/43/43 57/57/57 
f 13/13/13 18/18/18 16/16/16 
f 39/39/39 16/16/16 43/43/43 
f 36/36/36 56/56/56 54/54/54 
f 34/34/34 54/54/54 53/53/53 
f 34/34/34 8/8/8 9/9/9 
f 9/9/9 35/35/35 34/34/34 
f 80/80/80 13/13/13 12/12/12 
f 41/41/41 39/39/39 12/12/12 
f 12/12/12 11/11/11 41/41/41 
f 76/76/76 75/75/75 58/58/58 
f 58/58/58 42/42/42 76/76/76 
f 116/116/116 88/88/88 90/90/90 
f 90/90/90 117/117/117 116/116/116 
f 118/118/118 119/119/119 87/87/87 
f 87/87/87 86/86/86 118/118/118 
f 112/112/112 61/61/61 63/63/63 
f 63/63/63 113/113/113 112/112/112 
f 61/61/61 46/46/46 48/48/48 
f 48/48/48 63/63/63 61/61/61 
f 46/46/46 26/26/26 27/27/27 
f 27/27/27 48/48/48 46/46/46 
f 26/26/26 25/25/25 28/28/28 
f 28/28/28 27/27/27 26/26/26 
f 95/95/95 28/28/28 25/25/25 
f 25/25/25 89/89/89 95/95/95 
f 64/64/64 114/114/114 113/113/113 
f 113/113/113 63/63/63 64/64/64 
f 64/64/64 49/49/49 115/115/115 
f 115/115/115 114/114/114 64/64/64 
f 49/49/49 30/30/30 1/1/1 
f 1/1/1 115/115/115 49/49/49 
f 30/30/30 29/29/29 2/2/2 
f 2/2/2 1/1/1 30/30/30 
f 96/96/96 98/98/98 2/2/2 
f 2/2/2 29/29/29 96/96/96 
f 120/120/120 102/102/102 98/98/98 
f 98/98/98 96/96/96 120/120/120 
f 121/121/121 92/92/92 101/101/101 
f 101/101/101 106/106/106 121/121/121 
f 92/92/92 91/91/91 10/10/10 
f 10/10/10 101/101/101 92/92/92 
f 35/35/35 9/9/9 10/10/10 
f 10/10/10 91/91/91 35/35/35 
f 122/122/122 123/123/123 32/32/32 
f 32/32/32 33/33/33 122/122/122 
f 122/122/122 33/33/33 52/52/52 
f 52/52/52 124/124/124 122/122/122 
f 124/124/124 52/52/52 51/51/51 
f 51/51/51 125/125/125 124/124/124 
f 123/123/123 125/125/125 51/51/51 
f 51/51/51 32/32/32 123/123/123 
f 125/125/125 123/123/123 126/126/126 
f 124/124/124 125/125/125 126/126/126 
f 122/122/122 124/124/124 126/126/126 
f 123/123/123 122/122/122 126/126/126 
f 127/127/127 109/109/109 107/107/107 
f 107/107/107 128/128/128 127/127/127 
f 129/129/129 128/128/128 107/107/107 
f 107/107/107 66/66/66 129/129/129 
f 130/130/130 129/129/129 66/66/66 
f 66/66/66 68/68/68 130/130/130 
f 130/130/130 68/68/68 109/109/109 
f 109/109/109 127/127/127 130/130/130 
f 127/127/127 128/128/128 131/131/131 
f 128/128/128 129/129/129 131/131/131 
f 129/129/129 130/130/130 131/131/131 
f 130/130/130 127/127/127 131/131/131 
f 132/132/132 133/133/133 113/113/113 
f 113/113/113 114/114/114 132/132/132 
f 132/132/132 114/114/114 50/50/50 
f 50/50/50 134/134/134 132/132/132 
f 134/134/134 50/50/50 65/65/65 
f 65/65/65 135/135/135 134/134/134 
f 133/133/133 135/135/135 65/65/65 
f 65/65/65 113/113/113 133/133/133 
f 133/133/133 132/132/132 136/136/136 
f 132/132/132 134/134/134 136/136/136 
f 134/134/134 135/135/135 136/136/136 
f 135/135/135 133/133/133 136/136/136 
f 137/137/137 22/22/22 138/138/138 
f 22/22/22 45/45/45 138/138/138 
f 138/138/138 45/45/45 137/137/137 
f 76/76/76 17/17/17 137/137/137 
f 137/137/137 45/45/45 76/76/76 
f 17/17/17 20/20/20 22/22/22 
f 22/22/22 137/137/137 17/17/17 
f 59/59/59 44/44/44 139/139/139 
f 44/44/44 47/47/47 139/139/139 
f 47/47/47 62/62/62 139/139/139 
f 62/62/62 59/59/59 139/139/139 
f 62/62/62 61/61/61 140/140/140 
f 61/61/61 112/112/112 140/140/140 
f 112/112/112 111/111/111 140/140/140 
f 111/111/111 62/62/62 140/140/140 
f 58/58/58 75/75/75 141/141/141 
f 75/75/75 77/77/77 141/141/141 
f 77/77/77 72/72/72 141/141/141 
f 72/72/72 58/58/58 141/141/141 
f 25/25/25 24/24/24 85/85/85 
f 89/89/89 25/25/25 85/85/85 
f 85/85/85 84/84/84 89/89/89 
f 142/142/142 13/13/13 79/79/79 
f 79/79/79 82/82/82 142/142/142 
f 80/80/80 79/79/79 13/13/13 
f 54/54/54 56/56/56 69/69/69 
f 57/57/57 70/70/70 143/143/143 
f 70/70/70 56/56/56 143/143/143 
f 56/56/56 39/39/39 143/143/143 
f 39/39/39 57/57/57 143/143/143 
f 93/93/93 81/81/81 80/80/80 
f 80/80/80 94/94/94 93/93/93 
f 12/12/12 37/37/37 94/94/94 
f 94/94/94 80/80/80 12/12/12 
f 12/12/12 144/144/144 38/38/38 
f 38/38/38 37/37/37 12/12/12 
f 145/145/145 91/91/91 94/94/94 
f 94/94/94 146/146/146 145/145/145 
f 147/147/147 146/146/146 94/94/94 
f 94/94/94 37/37/37 147/147/147 
f 148/148/148 147/147/147 37/37/37 
f 37/37/37 35/35/35 148/148/148 
f 148/148/148 35/35/35 91/91/91 
f 91/91/91 145/145/145 148/148/148 
f 145/145/145 146/146/146 149/149/149 
f 146/146/146 147/147/147 149/149/149 
f 147/147/147 148/148/148 149/149/149 
f 148/148/148 145/145/145 149/149/149 
f 16/16/16 17/17/17 150/150/150 
f 17/17/17 76/76/76 150/150/150 
f 76/76/76 42/42/42 150/150/150 
f 42/42/42 16/16/16 150/150/150 
f 151/151/151 104/104/104 103/103/103 
f 105/105/105 104/104/104 151/151/151 
f 55/55/55 36/36/36 38/38/38 
f 38/38/38 144/144/144 55/55/55 
f 144/144/144 40/40/40 55/55/55 
f 12/12/12 40/40/40 144/144/144 
f 72/72/72 78/78/78 152/152/152 
f 78/78/78 71/71/71 152/152/152 
f 71/71/71 70/70/70 152/152/152 
f 70/70/70 72/72/72 152/152/152 
f 153/153/153 18/18/18 13/13/13 
f 13/13/13 154/154/154 153/153/153 
f 153/153/153 155/155/155 19/19/19 
f 19/19/19 18/18/18 153/153/153 
f 156/156/156 157/157/157 24/24/24 
f 24/24/24 110/110/110 156/156/156 
f 156/156/156 110/110/110 19/19/19 
f 19/19/19 155/155/155 156/156/156 
f 154/154/154 13/13/13 142/142/142 
f 142/142/142 158/158/158 154/154/154 
f 157/157/157 159/159/159 83/83/83 
f 83/83/83 24/24/24 157/157/157 
f 159/159/159 160/160/160 84/84/84 
f 84/84/84 83/83/83 159/159/159 
f 158/158/158 142/142/142 82/82/82 
f 82/82/82 161/161/161 158/158/158 
f 162/162/162 163/163/163 86/86/86 
f 86/86/86 81/81/81 162/162/162 
f 164/164/164 161/161/161 82/82/82 
f 82/82/82 87/87/87 164/164/164 
f 165/165/165 119/119/119 118/118/118 
f 118/118/118 166/166/166 165/165/165 
f 167/167/167 90/90/90 84/84/84 
f 84/84/84 160/160/160 167/167/167 
f 168/168/168 89/89/89 88/88/88 
f 88/88/88 169/169/169 168/168/168 
f 170/170/170 171/171/171 116/116/116 
f 116/116/116 117/117/117 170/170/170 
f 172/172/172 162/162/162 81/81/81 
f 81/81/81 93/93/93 172/172/172 
f 173/173/173 95/95/95 89/89/89 
f 89/89/89 168/168/168 173/173/173 
f 174/174/174 102/102/102 120/120/120 
f 120/120/120 175/175/175 174/174/174 
f 176/176/176 151/151/151 103/103/103 
f 103/103/103 177/177/177 176/176/176 
f 178/178/178 179/179/179 106/106/106 
f 106/106/106 105/105/105 178/178/178 
f 175/175/175 120/120/120 96/96/96 
f 96/96/96 180/180/180 175/175/175 
f 181/181/181 182/182/182 92/92/92 
f 92/92/92 121/121/121 181/181/181 
f 176/176/176 178/178/178 105/105/105 
f 105/105/105 151/151/151 176/176/176 
f 170/170/170 117/117/117 90/90/90 
f 90/90/90 167/167/167 170/170/170 
f 171/171/171 169/169/169 88/88/88 
f 88/88/88 116/116/116 171/171/171 
f 166/166/166 118/118/118 86/86/86 
f 86/86/86 163/163/163 166/166/166 
f 165/165/165 164/164/164 87/87/87 
f 87/87/87 119/119/119 165/165/165 
f 173/173/173 180/180/180 96/96/96 
f 96/96/96 95/95/95 173/173/173 
f 177/177/177 103/103/103 102/102/102 
f 102/102/102 174/174/174 177/177/177 
f 181/181/181 121/121/121 106/106/106 
f 106/106/106 179/179/179 181/181/181 
f 182/182/182 172/172/172 93/93/93 
f 93/93/93 92/92/92 182/182/182 
f 183/183/183 184/184/184 185/185/185 
f 185/185/185 186/186/186 183/183/183 
f 187/187/187 188/188/188 185/185/185 
f 185/185/185 184/184/184 187/187/187 
f 189/189/189 190/190/190 191/191/191 
f 191/191/191 192/192/192 189/189/189 
f 187/187/187 192/192/192 191/191/191 
f 191/191/191 188/188/188 187/187/187 
f 193/193/193 183/183/183 186/186/186 
f 186/186/186 194/194/194 193/193/193 
f 195/195/195 196/196/196 190/190/190 
f 190/190/190 189/189/189 195/195/195 
f 197/197/197 198/198/198 196/196/196 
f 196/196/196 195/195/195 197/197/197 
f 199/199/199 193/193/193 194/194/194 
f 194/194/194 200/200/200 199/199/199 
f 201/201/201 202/202/202 203/203/203 
f 203/203/203 204/204/204 201/201/201 
f 205/205/205 199/199/199 200/200/200 
f 200/200/200 206/206/206 205/205/205 
f 207/207/207 208/208/208 209/209/209 
f 209/209/209 210/210/210 207/207/207 
f 211/211/211 212/212/212 198/198/198 
f 198/198/198 197/197/197 211/211/211 
f 213/213/213 214/214/214 215/215/215 
f 215/215/215 216/216/216 213/213/213 
f 217/217/217 218/218/218 219/219/219 
f 219/219/219 220/220/220 217/217/217 
f 204/204/204 203/203/203 221/221/221 
f 221/221/221 222/222/222 204/204/204 
f 214/214/214 223/223/223 224/224/224 
f 224/224/224 215/215/215 214/214/214 
f 225/225/225 226/226/226 227/227/227 
f 227/227/227 228/228/228 225/225/225 
f 229/229/229 230/230/230 231/231/231 
f 231/231/231 232/232/232 229/229/229 
f 233/233/233 234/234/234 235/235/235 
f 235/235/235 236/236/236 233/233/233 
f 228/228/228 227/227/227 237/237/237 
f 237/237/237 238/238/238 228/228/228 
f 239/239/239 240/240/240 241/241/241 
f 241/241/241 242/242/242 239/239/239 
f 229/229/229 233/233/233 236/236/236 
f 236/236/236 230/230/230 229/229/229 
f 220/220/220 219/219/219 212/212/212 
f 212/212/212 211/211/211 220/220/220 
f 217/217/217 213/213/213 216/216/216 
f 216/216/216 218/218/218 217/217/217 
f 210/210/210 209/209/209 202/202/202 
f 202/202/202 201/201/201 210/210/210 
f 207/207/207 205/205/205 206/206/206 
f 206/206/206 208/208/208 207/207/207 
f 238/238/238 237/237/237 224/224/224 
f 224/224/224 223/223/223 238/238/238 
f 232/232/232 231/231/231 226/226/226 
f 226/226/226 225/225/225 232/232/232 
f 234/234/234 239/239/239 242/242/242 
f 242/242/242 235/235/235 234/234/234 
f 240/240/240 222/222/222 221/221/221 
f 221/221/221 241/241/241 240/240/240 
f 184/184/184 183/183/183 243/243/243 
f 187/187/187 184/184/184 243/243/243 
f 189/189/189 192/192/192 243/243/243 
f 192/192/192 187/187/187 243/243/243 
f 183/183/183 193/193/193 243/243/243 
f 195/195/195 189/189/189 243/243/243 
f 197/197/197 195/195/195 243/243/243 
f 193/193/193 199/199/199 243/243/243 
f 201/201/201 204/204/204 243/243/243 
f 199/199/199 205/205/205 243/243/243 
f 207/207/207 210/210/210 243/243/243 
f 211/211/211 197/197/197 243/243/243 
f 214/214/214 213/213/213 243/243/243 
f 217/217/217 220/220/220 243/243/243 
f 204/204/204 222/222/222 243/243/243 
f 223/223/223 214/214/214 243/243/243 
f 225/225/225 228/228/228 243/243/243 
f 229/229/229 232/232/232 243/243/243 
f 234/234/234 233/233/233 243/243/243 
f 228/228/228 238/238/238 243/243/243 
f 240/240/240 239/239/239 243/243/243 
f 233/233/233 229/229/229 243/243/243 
f 220/220/220 211/211/211 243/243/243 
f 213/213/213 217/217/217 243/243/243 
f 210/210/210 201/201/201 243/243/243 
f 205/205/205 207/207/207 243/243/243 
f 238/238/238 223/223/223 243/243/243 
f 232/232/232 225/225/225 243/243/243 
f 239/239/239 234/234/234 243/243/243 
f 222/222/222 240/240/240 243/243/243 
f 244/244/244 15/15/15 41/41/41 
f 14/14/14 15/15/15 244/244/244 
f 11/11/11 14/14/14 244/244/244 
f 41/41/41 11/11/11 244/244/244 

